/* XPM */
static char *result[] = {
/* columns rows colors chars-per-pixel */
"64 64 150 2 ",
"   c #030102",
".  c #090507",
"X  c #0B0807",
"o  c #0A0708",
"O  c #0D0909",
"+  c #110B0D",
"@  c #19080A",
"#  c #18100F",
"$  c #070D11",
"%  c #160F11",
"&  c #190E14",
"*  c #1C1116",
"=  c #1D1318",
"-  c #1E1A1B",
";  c #151012",
":  c #2B0D0F",
">  c #231515",
",  c #22131B",
"<  c #251A1A",
"1  c #2B1D1D",
"2  c #291415",
"3  c #3D181D",
"4  c #31211F",
"5  c #261621",
"6  c #291722",
"7  c #241D26",
"8  c #2C1A25",
"9  c #341E2D",
"0  c #12222E",
"q  c #1F232A",
"w  c #1C2C39",
"e  c #272426",
"r  c #352423",
"t  c #392524",
"y  c #3E2927",
"u  c #3A2B2B",
"i  c #36282B",
"p  c #3C2334",
"a  c #3E3034",
"s  c #411C1F",
"d  c #4C1D21",
"f  c #451D22",
"g  c #4A2223",
"h  c #432E2C",
"j  c #4A2827",
"k  c #512227",
"l  c #5E2329",
"z  c #45302E",
"x  c #49322E",
"c  c #402437",
"v  c #43273A",
"b  c #502F32",
"n  c #433132",
"m  c #4C3431",
"M  c #47373C",
"N  c #4D3C3C",
"B  c #503733",
"V  c #543835",
"C  c #513B3C",
"Z  c #5C3E3A",
"A  c #63252A",
"S  c #622E34",
"D  c #772E35",
"F  c #7A2F36",
"G  c #7C3036",
"H  c #5C403E",
"J  c #60413D",
"K  c #1F394D",
"L  c #403942",
"P  c #26475F",
"I  c #285472",
"U  c #4B4546",
"Y  c #4C4A4A",
"T  c #524045",
"R  c #5D4445",
"E  c #5F565F",
"W  c #664642",
"Q  c #694743",
"!  c #6C4945",
"~  c #694A49",
"^  c #664847",
"/  c #734E49",
"(  c #784F4B",
")  c #77514C",
"_  c #7D544F",
"`  c #405565",
"'  c #47617F",
"]  c #656261",
"[  c #72657E",
"{  c #777979",
"}  c #873D44",
"|  c #874348",
" . c #94444B",
".. c #805550",
"X. c #875A55",
"o. c #885A55",
"O. c #8A525C",
"+. c #90565A",
"@. c #A4444E",
"#. c #BD5B64",
"$. c #85676A",
"%. c #8F6D6F",
"&. c #857B7B",
"*. c #AE6066",
"=. c #A56D79",
"-. c #CA6E79",
";. c #255B80",
":. c #2D6083",
">. c #386584",
",. c #416989",
"<. c #48708C",
"1. c #5A7D97",
"2. c #6D798E",
"3. c #A47E90",
"4. c #C37980",
"5. c #CE7B83",
"6. c #D77780",
"7. c #66879D",
"8. c #788387",
"9. c #6C8BA1",
"0. c #7D96A9",
"q. c #A4959E",
"w. c #98A1AF",
"e. c #9AACB8",
"r. c #A1A1A1",
"t. c #BBA9AE",
"y. c #A4B1BC",
"u. c #8F8C8C",
"i. c #C78188",
"p. c #C1979B",
"a. c #DC929A",
"s. c #E2979E",
"d. c #C19FA5",
"f. c #D49DA2",
"g. c #D1A8AE",
"h. c #C1B8BD",
"j. c #DCB4B8",
"k. c #E9B1B5",
"l. c #AFC0C8",
"z. c #C2CACD",
"x. c #C5C4C7",
"c. c #D7C6C8",
"v. c #D7C8C9",
"b. c #D3C4C6",
"n. c #DACFD1",
"m. c #D3D4D5",
"M. c #DCD5D6",
"N. c #E7C7C9",
"B. c #E2C0C3",
"V. c #E3D6D6",
/* pixels */
"T T T R ~ ) ) ) ) ) ) ) ) ) ) ) ) ) ) ) ) ) ) ~ R T T T T T T T T T T R ~ ) ) ) ) ) ) ) ) ) ) ) ) ) ) ) ) ) ) ~ R T T T T T T T ",
"T T R R ~ ) ) ) ) ) ) ) ) ) ) ) ) ) ) ) ) ) ) ~ R T T T T T T T T T R R ~ ) ) ) ) ) ) ) ) ) ) ) ) ) ) ) ) ) ) ! R T T T T T T T ",
"T T R ~ ~ ) ) ) ) ) ) ) ) ) ) ) ) ) ) ) ) ) ) ~ ~ R R T T T T T T T R ~ ~ ) ) ) ) ) ) ) ) ) ) ) ) ) ) ) ) ) ) ! ~ R R T T T T T ",
"R R ~ ~ ~ ) ) ) ) ) ) ) ) ) ) ) ) ) ) ) ) ) ) ) ~ ~ ~ R R T T T R R R ~ ~ ) ) ) ) ) ) ) ) ) ) ) ) ) ) ) ) ) ) ) ~ ~ ~ R R T T T ",
"~ ~ ~ ~ ) ) ) ) ) ) ) ) ) ) ) ) ) ) ) ) ) ) ) ) _ ) ) ~ R T T R ^ ~ ~ ~ ) ) ) ) ) ) ) ) ) ) ) ) ) ) ) ) ) ) ) ) _ ) ) ~ R T T T ",
") ) ) ) ) ) ) ) ) ) ) ) ) ) ) ) ) ) ) ) ) ) ) _ _ o._ ) ~ R T R ~ ~ ) ) ) ) ) ) ) ) ) ) ) ) ) ) ) ) ) ) ) ) ) _ _ o._ ) ~ R T T ",
") ) ) ) ) ) ) ) ) ) ) ) ) ) ) ) ) ) ) ) ) ) _ _ o.o.o.) ~ R T R ~ ) ) ) ) ) ) ) ) ) ) ) ) ) ) ) ) ) ) ) ) ) _ _ o.o.o.) ~ R T T ",
") ) ) ) ) ) ) ) ) ) ) ) ) ) ) ) ) ) ) ) ) ) _ _ o.o.o._ ~ R R R ~ ) ) ) ) ) ) ) ) ) ) ) ) ) ) ) ) ) ) ) ) ) _ _ o.o.o._ ~ R T T ",
") ) ) ) ) ) ) ) ) ) ) ) ) ) ) ) ) ) ) ) ) ) _ _ o.o.o.( / ^ L W ~ ) ) ) ) ) ) ) ) ) ) ) ) ) ) ) ) ) ) ) ) ) _ _ o.o.o.) ~ R T T ",
") ) ) ) ) ) ) ) ) ) ) ) ) ) ) ) ) ) ) ) ) ) _ _ X.o.o.( ~ ~ L ^ ~ ) ) ) ) _ ) ) ) ) ) ) ) ) ) ) ) ) ) ) ) ) _ _ o.o.o.) ~ R T T ",
") ) ) ) ) ) ) ) ) ) ) ) ) ) ) ) ) ) ) / Q Q ! ! / ( ( / ^ L L / ~ ) ) ! ! J ! J ! J ! ! ) ) ) ) ) ) ) ) ) ) _ _ o.o.o.) ~ R T T ",
") ) ) ) ) ) ) ) ) ) ) ) ) ) ) ) ) ) ( Q H B m m V V Z Z J W L R ~ ) ~ W H V m x x x B H J ) ) ) ) ) ) ) ) ) _ _ o.o.o.) ~ R T T ",
") ) ) ) ) ) ) ) ) ) ) ) ) ) ) ) ) ) / H x r 1 < 1 8 h x C C L R ~ ) ! H x r 1 < < 1 r x H / ) ) ) ) ) ) ) ) _ _ o.o.o.) ~ R T T ",
") ) ) ) ) ) ) ) ) ) ) ) ) ) ) ) ) ( Q m r > + X . @ > r m C R ^ ~ ) Q V r > O . X + = r V J ) ) ) ) ) ) ) ) _ _ o.o.o.) ~ R T T ",
") ) ) ) ) ) ) ) ) ) ) ) ) ) ) ) / Q Z h 1 % . .     + 1 x C L R ~ ) Q x 1 O     X X ; 1 z H J ) ) ) ) ) ) ) _ _ o.o.o.) ~ R T T ",
") ) ) ) ) ) ) ) ) ) ) ) ) ) ( ! Z V h r 1 * & + X   X < x L R R ~ ) Q x < X   X O ; * 1 t z V J Q ) ) ) ) ) ) _ o.o.o.) ~ R T T ",
") ) ) ) ) ) ) ) ) ) ) ) ) ) ) J x t 6 1 5 6 5 & + . . < h C R ^ ~ ) W m < . . + & 5 8 6 1 1 r x H / ) ) ) ) ) _ o.o.o.) ~ R T T ",
") ) ) ) ) ) ) ) ) ) ) ) ) ) J B 4 > & * 8 i 9 5 & . + 1 h C L R ~ ) Q m 1 O . & 5 9 9 6 * ; > t V Q ) ) ) ) ) _ o.o.o.) ~ R T T ",
") ) ) ) ) ) ) ) ) ) ) ) ! J J z 4 ; + * 8 9 9 6 = & > t n Z R R ~ ) Q B r > % = 8 9 9 8 = + % 6 h Z Q / ( ( _ o.o.o.o.) ~ R T T ",
") ) ) ) ) ) ) ) ) ) / Q H B x r 1 * * , 5 8 7 8 1 r y m C L W R ~ ) / Z m r 1 1 8 7 8 5 , & = 6 r z B H ! ( _ o.o.o.o._ ~ R T T ",
") ) ) ) ) ) ) ) ) ) ! J x t 6 1 6 8 5 5 , & 5 8 y m Z Z R R T R ~ ) ( Q Z V x r 6 , * , 5 5 5 5 < 1 r x J ..o.o.o.o.o.) ~ R T T ",
") ) ) ) ) ) ) ) ) ) J V r * % = 8 9 9 8 * % & 1 B J ( / W R T R ~ ) / ) / Q Z h < ; % * 8 p 9 8 * ; > y Z ( o.o.o.o.o.) ~ R T T ",
") ) ) ) ) ) _ _ _ _ J B 1 + . = 8 p p 8 & X + 4 V ( ..) W C M N Z R W Q Q W Z x < O . & 8 p p 9 * . + 1 V ( X.o.o.o.o.) ~ R T T ",
"~ ~ ~ ) ) _ _ _ .._ / B 1 O . * 8 p p 8 & X + r Z ( ) W M n i i i h n B B V m t > O . = 8 p p 8 * X O 1 V ( X.o.o._ ) ~ R T T T ",
"^ ~ ~ ) ) _ o.o.o.X.( V 4 O X * 8 p p 9 & . % r Z ! ^ C u 1 - - < < < 4 r 4 4 < + . . * 8 p p 8 & X O 4 B ( X.X._ ) ~ R R T T T ",
"R R R ~ ) o.o.o.o.X.( V 4 + X & 8 p p 8 & . + 8 x H C z 7 ; X . . X O O O + O O .   . * 8 p p 8 > X + 4 V ( X._ ) ~ R R T T T T ",
"T T R ~ ) _ X.X.o.o.( V r O . = 8 p p 9 , % & 1 h M a i > > & * - - - = , @ @ X     . & 8 p p 8 & . + 4 C ( X.) ~ R T T T T T T ",
"T T R R ~ ) _ _ _ _ ! m 8 O . ; 8 p p p 8 , = 5 1 t e t s d k B N U Y N V g 3 : @   . & 9 p p 8 = . O 1 B Q ) ~ R R T T T T T T ",
"T T T R R ~ ~ ~ ~ ~ H z < + . & 8 p v c p 9 7 5 ; = = f l D | O.$.&.&.$.O.} D d : .   % 8 p p 8 & . O 1 n H ~ R R T T T T T T T ",
"T T T R R R R R R R C u < O . & 6 p v v v p 9 7 * % > f D @.#.-.p.t.t.p.4.#.@.D 3 @ . & 8 p p 8 = . O , u C R R T T T T T T T T ",
"T T T T R R R R R R C i < X . & 8 p v v v p 9 9 - - p S  .#.-.s.j.c.N.j.s.-.#. .S 3 : , 8 9 9 5 % . O , u C R R T T T T T T T T ",
"T T T T R R R R ~ R R i < . . & 8 p v c 9 9 9 p L Y E $.=.i.s.k.N.V.V.N.k.f.5.#.} S s s 9 8 5 & + . X < h C R R T T T T T T T T ",
"T T T R R ~ ~ ^ ~ ~ H z < X X & 8 p p 9 5 , 9 L E { u.q.d.g.j.B.n.V.V.V.N.j.f.i.*. .D k 3 > % + .   . < z H ~ R R T T T T T T T ",
"T T T R ~ ~ ) ) ) ) W x 1 O . & 8 p p 5 & + - U { r.h.x.b.b.c.n.n.m.m.m.n.c.j.f.-.-.@.D d # X       + 1 m ! ~ ~ R T T T T T T T ",
"T T R R ~ ) ) ) ) ) Q V r = & * 8 p 9 5 + . - U 3.r.c.M.M.m.m.m.z.z.z.z.z.x.h.g.s.-.-.| k @     . O > r m J ) ! ~ R R T T T T T ",
"R R ~ ~ ~ ) ) ) ) ) ! H x r 1 1 6 5 = + .   = C $.t.j.N.V.M.m.z.l.y.e.e.e.e.e.t.p.a.-.o.b >   O ; 1 r x H / ) ) ~ ~ ~ R R T T T ",
"~ ~ ~ ~ ) ) ) ) ) ) / W H B h 4 6 * + X     * B +.-.s.k.N.m.m.l.e.0.9.7.9.9.0.w.t.g.p.%.H - X # 1 h V J J ) ) ) _ ) ) ~ R T T T ",
") ) ) ) ) ) ) ) ) ) ) ) / W Z h 8 ; X     . # k } #.-.s.j.n.z.y.0.1.<.,.,.<.1.0.y.t.t.&.U - O 1 h H J ! ) ) _ _ _ X._ ) ~ R T T ",
") ) ) ) ) ) ) ) ) ) ) ) ) ) Q B r > + X O + 2 d G @.-.-.f.j.t.w.9.<.:.;.;.:.<.9.w.e.r.{ Y e < 4 B J ( ) _ ) ) _ o.o.X.) ~ R T T ",
") ) ) ) ) ) ) ) ) ) ) ) ) ) / H x t 1 < 1 1 4 d A G  .*.i.f.d.q.2.,.:.;.;.:.>.,.7.8.{ ] H i 4 m J / _ _ ) ) _ _ o.o.X._ ~ R T T ",
") ) ) ) ) ) ) ) ) ) ) ) ) ) / Q Z B m m m x B j g s S | #.5.i.q.2.,.I :.:.:.:.` ` I Y H H z B H ! / ) ) ) ) _ _ o.o.o.) ~ R T T ",
") ) ) ) ) ) ) ) ) ) ) ) ) ) ( ( ! Q W Q Q W J z 4 2 s S  .#.#.=.2.' :.:.:.:.I P K e e u m J J / ) ) ) ) ) ) _ _ o.o.o.) ~ R T T ",
") ) ) ) ) ) ) ) ) ) ) ) ) ) ) ) ) ) ) ) ) ) ! Z h > 2 s G @.@.O.E ` I I I I P K e # # r B J ) ) ) ) ) ) ) ) _ _ o.o.o.) ~ R T T ",
") ) ) ) ) ) ) ) ) ) ) ) ) ) ) ) ) ) ) ) ) ) ( J V j 4 g l D D S L K K K K K K w q 1 4 m H / ) ) ) ) ) _ ) ) _ _ o.o.o.) ~ R T T ",
") ) ) ) ) ) ) ) ) ) ) ) ) ) ) ) ) ) ) ) ) ) ) / ! Z b g f d f 9 9 0 0 0 0 0 e q r z B J ! ) ) ) ) ) ) ) ) ) _ _ o.X.X.) ~ R T T ",
") ) ) ) ) ) ) ) ) ) ) ) ) ) ) ) ) ) ) ) ) ) _ ) ..) J B 1 > & % + + $ $ $ $ # 1 h H ! / / ) ) ) ) ) ) ) ) ) _ _ o.X.X._ ~ R T T ",
") ) ) ) ) ) ) ) ) ) ) ) ) ) ) ) ) ) ) ) ) ) _ _ o.o.) B 8 # X . o O + O O + * r m J ) ) ) ) ) ) ) ) ) ) ) ) _ _ o.o.o.) ~ R T T ",
") ) ) ) ) ) ) ) ) ) ) ) ) ) ) ) ) ) ) ) ) ) ) _ o.o...H u 4 - < 5 1 1 1 1 1 4 m H / ) ) ) ) ) ) ) ) ) ) ) ) ) _ o.o.o.) ~ R T T ",
") ) ) ) ) ) ) ) ) ) ) ) ) ) ) ) ) ) ) ) ) ) ) _ o.o.o.Q N u i u z m m m x m B H W ) ) ) ) ) ) ) ) ) ) ) ) ) ) _ o.o.o.) ! R T T ",
") ) ) ) ) ) ) ) ) ) ) ) ) ) ) ) ) ) ) ) ) ) _ _ o.o.X.) W C M C H Q J W W W Q ! / ) ) ) ) ) ) ) ) ) ) ) ) ) _ _ o.o.o.) ~ R T T ",
") ) ) ) ) ) ) ) ) ) ) ) ) ) ) ) ) ) ) ) ) ) _ o.o.o.X.) ~ R T R ~ ) ) ) ) ) ) ) ) ) ) ) ) ) _ ) ) ) ) ) ) ) _ o.o.o.o.) ~ R T T ",
") ) ) ) ) ) ) ) ) ) ) ) ) ) ) ) ) ) ) ) _ _ _ o.o.o.o.) ~ R R R ~ ) ) ) ) ) ) ) ) ) ) ) ) ) ) ) ) ) ) ) _ _ _ o.o.o.o._ ~ R T T ",
") ) ) ) ) ) ) ) ) ) ) ) ) ) ) ) ) ) ) _ _ o.o.o.o.o.o._ ~ R T R ~ ) ) ) ) ) ) ) ) ) ) ) ) ) ) ) ) ) ) _ _ o.o.o.o.o.X.) ~ R T T ",
") ) ) ) ) ) ) ) ) ) ) ) ) ) ) ) ) ) ) _ o.o.o.o.o.o.o.) ~ R T R ~ ) ) ) ) ) ) ) ) ) ) ) ) ) ) ) ) ) ) _ o.o.o.o.o.o.o.) ~ R T T ",
") ) ) ) ) ) _ _ _ _ _ _ _ ....) ) _ _ _ o.o.o.o.o.o.o.) ~ R T R ~ ~ ) ) ) ) _ _ _ _ _ _ _ _ _ ) ) _ _ _ o.o.o.o.o.o.X.) ~ R T T ",
"~ ~ ~ ) ) _ _ _ _ _ _ _ _ _ _ _ _ _ o.o.o.o.o.o.o._ ) ~ R R T R R ~ ~ ) ) _ _ _ _ _ _ _ _ _ _ _ _ _ X.X.o.o.o.o.o._ ) ~ R T T T ",
"R ~ ~ ) ) ..o.o.o.o.o.o.o.o.o.o.o.o.o.o.o.o.o.o._ ) ~ R R T T T R R ~ ) _ _ o.o.o.o.o.o.o.o.o.o.o.o.o.o.o.o.o.o._ ) ~ R R T T T ",
"R R R ~ ) o.o.o.o.o.o.o.o.o.o.o.o.o.o.o.o.o.o._ ) ~ R R T T T T U R R ~ _ o.o.o.o.o.o.o.o.o.o.o.o.o.o.o.o.o.o._ ) ~ R R T T T T ",
"T T R ~ ) _ o.o.o.o.o.o.o.o.o.o.o.o.o.o.o.o.o.) ~ R T T T T T T T R R ~ ) _ o.o.o.o.X.X.o.o.o.o.o.o.o.o.o.o.o._ ~ R T T T T T T ",
"T T R R ~ ) _ _ _ _ _ _ _ _ _ _ _ _ _ _ _ ) ) ~ R R T T T T T T T T R R ~ ) _ _ _ _ _ _ _ _ _ _ _ _ _ _ _ ) ) ~ R R T T T T T T ",
"T T T R R ~ ~ ~ ~ ~ ~ ~ ~ ~ ~ ~ ~ ~ ~ ~ ~ ~ ~ R R T T T T T T T T T T R R ~ ~ ~ ~ ~ ~ ~ ~ ~ ~ ~ ~ ~ ~ ~ ~ ~ ~ R R T T T T T T T ",
"T T T R R R R ~ R R R R R R R R R R R R R R R R T T T T T T T T T T T R R R R ~ R R R R R R R R R R R R R R R R T T T T T T T T ",
"T T T T T R T R R R R R R R R R R R R R R R T R T T T T T T T T T T T T T R T R R R R R R R R R R R R R R R T R T T T T T T T T ",
"T T T T T T T T T T T T T T T T T T T T T T T T T T T T T T T T T T T T T T T T T T T T T T T T T T T T T T T T T T T T T T T T "
};
