/* XPM */
static char *result[] = {
/* columns rows colors chars-per-pixel */
"64 64 149 2 ",
"   c #040304",
".  c #090507",
"X  c #0B0807",
"o  c #0D0909",
"O  c #090708",
"+  c #110B0B",
"@  c #1D0E0E",
"#  c #18100F",
"$  c #070D11",
"%  c #140D11",
"&  c #190E16",
"*  c #1C1215",
"=  c #1D1519",
"-  c #1D1A1B",
";  c #171214",
":  c #211516",
">  c #22141C",
",  c #291619",
"<  c #24191A",
"1  c #2B1D1C",
"2  c #3A171E",
"3  c #321F1F",
"4  c #32211F",
"5  c #271722",
"6  c #281722",
"7  c #251C22",
"8  c #2B1926",
"9  c #2E1B28",
"0  c #331E2C",
"q  c #13222E",
"w  c #1F232A",
"e  c #2D2021",
"r  c #23262A",
"t  c #352523",
"y  c #392525",
"u  c #3E2927",
"i  c #342629",
"p  c #34292D",
"a  c #3B2B2C",
"s  c #3C2234",
"d  c #3D373B",
"f  c #431D21",
"g  c #4B1E21",
"h  c #442625",
"j  c #4B2024",
"k  c #442E2D",
"l  c #4B2828",
"z  c #4A322F",
"x  c #4F2F31",
"c  c #42263A",
"v  c #433234",
"b  c #4C3432",
"n  c #47373C",
"m  c #4D3B3C",
"M  c #513734",
"N  c #553936",
"B  c #523B3C",
"V  c #5C3E3A",
"C  c #5E2329",
"Z  c #62252A",
"A  c #60282E",
"S  c #792E36",
"D  c #62363E",
"F  c #7E3137",
"G  c #5E403D",
"H  c #62423E",
"J  c #1E3546",
"K  c #1F3B50",
"L  c #4B3B45",
"P  c #513F44",
"I  c #26475F",
"U  c #3E566A",
"Y  c #285472",
"T  c #4B4546",
"R  c #4A4D4E",
"E  c #524045",
"W  c #5D4445",
"Q  c #5F565F",
"!  c #664542",
"~  c #694743",
"^  c #6D4945",
"/  c #694A49",
"(  c #714C47",
")  c #734E49",
"_  c #784F4B",
"`  c #77514C",
"'  c #7D544F",
"]  c #656261",
"[  c #75777E",
"{  c #72657E",
"}  c #863F45",
"|  c #93434B",
" . c #815551",
".. c #865954",
"X. c #885A55",
"o. c #8A525B",
"O. c #90565A",
"+. c #A4444E",
"@. c #AC5F65",
"#. c #BD5B64",
"$. c #85676A",
"%. c #8F6D6F",
"&. c #857B7B",
"*. c #A56C78",
"=. c #C0787F",
"-. c #CA6E79",
";. c #2B5E82",
":. c #3F6382",
">. c #416989",
",. c #48708C",
"<. c #637D93",
"1. c #A47E90",
"2. c #CA7B82",
"3. c #C47F85",
"4. c #D77780",
"5. c #66879D",
"6. c #788387",
"7. c #6C8BA1",
"8. c #7D96A9",
"9. c #979098",
"0. c #B69699",
"q. c #8D9EAA",
"w. c #9FA2A9",
"e. c #96ADB9",
"r. c #BBA9AE",
"t. c #A7ACB8",
"y. c #A5ABB0",
"u. c #A1B3BE",
"i. c #C9828B",
"p. c #CA999E",
"a. c #DF959C",
"s. c #C19FA5",
"d. c #D59EA4",
"f. c #D1A8AE",
"g. c #C1B8BD",
"h. c #DAB5B8",
"j. c #E5B2B6",
"k. c #AFC0C8",
"l. c #C1C7CC",
"z. c #C8C8CA",
"x. c #D6C6C8",
"c. c #D7C8C9",
"v. c #DACFD1",
"b. c #CBD2D4",
"n. c #D5D5D5",
"m. c #DCD5D6",
"M. c #E7C7C9",
"N. c #E2C0C3",
"B. c #E3D6D6",
/* pixels */
"E E E W / ` ` ` ` ` ` ` ` ` ` ` ` ` ` ` ` ` ` / W E E E E E E E E E E W / ` ` ` ` ` ` ` ` ` ` ` ` ` ` ` ` ` ` / W E E E E E E E ",
"E E W W / ` ` ` ` ` ` ` ` ` ` ` ` ` ` ` ` ` ` / W E E E E E E E E E W W / ` ` ` ` ` ` ` ` ` ` ` ` ` ` ` ` ` ` / W E E E E E E E ",
"E E W / / ` ` ` ` ` ` ` ` ` ` ` ` ` ` ` ` ` ` / / W W E E E E E E E W / / ` ` ` ` ` ` ` ` ` ` ` ` ` ` ` ` ` ` / / W W E E E E E ",
"W W / / / ` ` ` ` ` ` ` ` ` ` ` ` ` ` ` ` ` ` ` / / / W W E E E W W W / / ` ` ` ` ` ` ` ` ` ` ` ` ` ` ` ` ` ` ` / / / W W E E E ",
"/ / / / ` ` ` ` ` ` ` ` ` ` ` ` ` ` ` ` ` ` ` ` ' ` ' / W T E W ! / / / ` ` ` ` ` ` ` ` ` ` ` ` ` ` ` ` ` ` ` ` ' ` ` / W E E E ",
"` ` ` ` ` ` ` ` ` ` ` ` ` ` ` ` ` ` ` ` ` ` ` ' ' X.' ` / W P W / / ` ` ` ` ` ` ` ` ` ` ` ` ` ` ` ` ` ` ` ` ` ' ' X.' ` / W E E ",
"` ` ` ` ` ` ` ` ` ` ` ` ` ` ` ` ` ` ` ` ` ` ' ' X.X.X.` / W P W / ` ` ` ` ` ` ` ` ` ` ` ` ` ` ` ` ` ` ` ` ` ' ' X.X.X.` / W E E ",
"` ` ` ` ` ` ` ` ` ` ` ` ` ` ` ` ` ` ` ` ` ` ' ' X.X.X.' / W W W / ` ` ` ` ` ` ` ` ` ` ` ` ` ` ` ` ` ` ` ` ` ' ' X.X.X.' / W E E ",
"` ` ` ` ` ` ` ` ` ` ` ` ` ` ` ` ` ` ` ` ` ` ' ' X.X.X.` / W E W / ` ` ` ` ` ` ` ` ` ` ` ` ` ` ` ` ` ` ` ` ` ' ' X.X.X.` / W E E ",
"` ` ` ` ` ` ` ` ` ` ` ` ` ` ` ` ` ` ` ` ` ` ' ' X.X.X.` / W E W / ` ` ` ` ` ` ` ` ` ` ` ` ` ` ` ` ` ` ` ` ` ' ' X.X.X.` / W E E ",
"` ` ` ` ` ` ` ` ` ` ` ` ` ` ` ` ` ` ` ` ` ` ' ' X.X.X.` / W E W / ` ` ` ` ` ` ` ` ` ` ` ` ` ` ` ` ` ` ` ` ` ' ' X.X.X.` / W E E ",
"` ` ` ` ` ` ` ` ` ` ` ` ` ` ` ` ` ` ` ` ` ` ' ' X.X.X.` / W E W / ` ` ` ` ` ` ` ` ` ` ` ` ` ` ` ` ` ` ` ` ` ' ' X.X.X.` / W E E ",
"` ` ` ` ` ` ` ` ` ` ` ` ` ` ` ` ` ` ` ` ` ` ' ' X.X.X.` / W E W / ` ` ` ` ` ` ` ` ` ` ` ` ` ` ` ` ` ` ` ` ` ' ' X.X.X.` / W E E ",
"` ` ` ` ` ` ` ` ` ` ` ` ` ` ` ` ` ` ` ` ` ` ' ' X.X.X.` / W E W / ` ` ` ` ` ` ` ` ` ` ` ` ` ` ` ` ` ` ` ` ` ' ' X.X.X.` / W E E ",
"` ` ` ` ` ` ` ` ` ` ` ( ^ ~ ~ ! ! ! ^ ^ ) ` ' ' X.X.X.` / W E W / ` ` ` ` ` ` ` ` ` _ ) ^ ^ ~ ! ! ! ^ ^ ^ ` ' ' X.X.X.` / W E E ",
"` ` ` ` ` ` ` ` ` ` ) ~ G M b z z b b G ~ ^ ` ' X.X.X.` / W E W / ` ` ` ` ` ` ` ` ` ^ / V b b z z b M G ^ ` ` ' X.X.X.` / W E E ",
"` ` ` ` ` ` ` ` ` ` ^ G z t 1 1 < 1 t z G ^ ` ' X.X.X.` / W E W / ` ` ` ` ` ` ` ` ` ^ G z t 1 < < 1 t z H ( ` ' X.X...` ^ W E E ",
"` ` ` ` ` ` ` ` ` ` ~ M t = o . . + : t M ~ ' ' X.X.X.` / W E W / ` ` ` ` ` ` ` ` ` ~ M y * + .   + : t M ~ ` ' X.X...` / W E E ",
"` ` ` ` ` ` ` ` ` ~ V k 1 # .       o 1 b ~ ' ..X.X.X.` / W E W / ` ` ` ` ` ` ` ` ` ~ z 1 +       . # 1 k V ^  .......` / W E E ",
"` ` ` ` ` ` ( ~ D b k t 1 * % o .   o 1 M ^ ' ..X.X.X.` / W W W / ` ` ` ` ` ` ` ` ` H z 1 o   . o % = < t k N ^ `  ... ./ W E E ",
"` ` ` ` ` ` ^ G z t 1 1 , 8 5 & +   o 1 M ` X.X.X.X.X.' / W E W / ` ` ` ` ` ` ` ` ` ~ z 1 o . o & 5 6 , 1 9 u M ~ ' X.` / W E E ",
"` ` ` ` ` ` ~ M t : ; * 6 0 9 5 & X + 1 N ) ..X.X.X.X.) / W E W / ` ` ` ` ` ` ` ` ` ~ z 1 + . & > 0 0 6 * & < h V ` X.` / W E E ",
"` ` ` ` ` ` ~ b 1 + . & 8 s s 9 & . o 3 x H `  .X.X.X.^ ! m n m G G ~ ~ H ~ ( ` ' ` ^ M 1 + . & 9 s s 8 & . + 4 N _ X.` / W E E ",
"/ / / ` ` ' ^ b 1 X . & 9 s s 9 & . . : u z V ( ' ` ` ! n a p a p k k z z M N H ) ` ^ M t o . & 9 s s 9 & . o 3 N ^ ` / W E E E ",
"W / / ` ` ' ` N 1 + . & 9 s s 9 & . . + ; 3 u N ! ) ! n a < - = - < < 1 1 1 u N (  .' D y + . & 8 s s 9 & . o 4 z ~ / W W E E E ",
"W W W / ` X.) N 4 + . & 8 s s 9 & . . . . + : u N G B v 1 % X X O X X X X # < k D _ ( V u + . & 8 s s 8 & . + e b V W W E E E E ",
"E E W / ` ' ` N 4 + . & 8 s s 0 > + . . . . % 1 k v v i 2 : @ & - - - = @ # , h N ! ! M 1 ; + > 0 s s 9 & . + 1 k B P E E E E E ",
"E E W W / ` ~ M 1 o . & 8 s c s 8 > & & & & * , 7 i t y 0 g g x m T T m x j g g l k k y : < , 9 s c s 9 & . o < a B P P E E E E ",
"E E E W W / G a < o . & 8 s c c s 0 8 8 9 8 6 > * > > f C S } o.$.&.&.$.O.} S Z f 1 1 * 5 8 9 s c c s 8 & . . - a n E E E E E E ",
"E E E W W W B a < o . * 8 s c c c s s s s s 0 5 % % : g S +.#.2.0.r.r.0.*.-.+.S g , + % 5 0 s c c c s 8 & . X < p n E E E E E E ",
"E E E E W W B a 1 * % * 5 0 s s c c c c c s s 0 7 r p V | #.4.a.h.c.M.h.a.-.#.| A 2 & > 6 0 s s s s 0 5 = % * 1 p m E E E E E E ",
"E E E E W W G n a e < < > 5 9 s s c c s 0 0 0 p d T Q $.*.3.a.j.M.B.B.M.j.a.-.@.} A j 2 2 9 9 9 9 6 6 = < < 1 p v L E E E E E E ",
"E E T W W / ! G B b a e < & > 6 s c c 0 8 > r d Q [ 9.0.s.f.j.N.m.B.B.B.M.j.f.3.@.| F A 2 < & & & & * , 4 a z n B m E E E E E E ",
"E E E W / / ` ` ) H G k 1 & + > 0 s s 6 & + 7 T [ w.g.z.x.x.c.v.v.n.n.n.v.c.h.p.2.#.+.F g : .       % 1 k G G / W E E E E E E E ",
"E E W W / ` ` ` ` ` ~ M t : # * 6 0 9 > o . - T &.r.x.m.m.n.n.b.z.l.l.l.l.l.g.f.a.-.@.| j @ X . . o : t M H ` / / W W E E E E E ",
"W W / / / ` ` ` ` ` ) D z t < 1 5 6 5 % . . * B %.p.h.M.B.m.n.l.k.u.e.e.e.e.y.r.d.a.2.X.z @ . o # < t b G ) ` ` / / / W W E E E ",
"/ / / / ` ` ` ` ` ` ) ^ H M k e , * % .     # x O.-.a.j.M.n.b.k.e.8.5.5.5.7.q.w.r.f.p.%.G - X # 1 k M G ^ ) ` ` ' ` ` / W E E E ",
"` ` ` ` ` ` ` ` ` ` ` ) ( ~ G k 7 & .       @ j } #.4.a.j.x.l.u.8.5.,.>.>.,.<.8.y.g.r.&.G - + 1 k G ~ ( ) ` ' ' ' X.' ` / W E E ",
"` ` ` ` ` ` ` ` ` ` ` ` ` ` ~ M t : + X + + , g F +.#.2.d.h.g.w.5.,.;.;.;.;.>.5.8.y.w.&.I r : 4 M ~ ` ` ` ` ' ' X.X...` / W E E ",
"` ` ` ` ` ` ` ` ` ` ` ` ` ` ( G z t 1 1 1 1 1 j Z F | @.3.d.s.9.<.>.;.;.;.;.:.,.5.6.[ ] G u 4 z G ( ` ` ` ` ' ' X.X...' / W E E ",
"` ` ` ` ` ` ` ` ` ` ` ` ` ` ` ~ V M z b b z z j j g A | @.=.i.9.[ ,.;.;.;.;.;.U U R R T G d z H ~ ` ` ` ` ` ' ' X.X.X.` / W E E ",
"` ` ` ` ` ` ` ` ` ` ` ` ` ` ` ) ^ ~ ! ~ ^ ! G z 3 , 2 A | #.#.*.{ U ;.;.;.;.Y I J w r a M G H ) ` ` ` ` ` ` ' ' X.X.X.` / W E E ",
"` ` ` ` ` ` ` ` ` ` ` ` ` ` ` ` ` ` ` ` ` ` ^ N u : , g F +.+.o.Q U Y Y Y Y I J q # = 4 M H ` ` ` ` ` ` ` ` ' ' X.X.X.` / W E E ",
"` ` ` ` ` ` ` ` ` ` ` ` ` ` ` ` ` ` ` ` ` ` ` H N u 4 j Z S S D L K K I K K J r w < u z G ) ` ` ` ` ` ` ` ` ' ' X.X.X.` / W E E ",
"` ` ` ` ` ` ` ` ` ` ` ` ` ` ` ` ` ` ` ` ` ` ' ^ ^ V b j f g j 0 7 q q q q q q r 4 k M G ^ ) ` ` ` ` ` ` ` ` ' ' X.X.X.` / W E E ",
"` ` ` ` ` ` ` ` ` ` ` ` ` ` ` ` ` ` ` ` ` ` ' `  ._ ! k 1 , & + % $ $ $ $ $ # < k G ^ ) ) ` ` ` ` ` ` ` ` ' ' ' X.X.X.` / W E E ",
"` ` ` ` ` ` ` ` ` ` ` ` ` ` ` ` ` ` ` ` ` ` ' ' X.X._ M 4 ; o . . + + o X + < t M H ` ` ` ` ` ` ` ` ` ` ` ` ' ' X.X.X.` / W E E ",
"` ` ` ` ` ` ` ` ` ` ` ` ` ` ` ` ` ` ` ` ` ` ` ' X.X. .V k 1 - = < < 1 1 < 1 t z G ) ` ` ` ` ` ` ` ` ` ` ` ` ` ' X.X.X.` / W E E ",
"` ` ` ` ` ` ` ` ` ` ` ` ` ` ` ` ` ` ` ` ` ` ` ' X.X.X./ m a p a a b z z z b M G ~ ` ` ` ` ` ` ` ` ` ` ` ` ` ` ' X.X.X.` / W E E ",
"` ` ` ` ` ` ` ` ` ` ` ` ` ` ` ` ` ` ` ` ` ` ' ' X.X...^ ! B m m W ! ! ! ~ ~ ~ ^ ^ ` ` ` ` ` ` ` ` ` ` ` ` ` ' ' X.X.X.` / W E E ",
"` ` ` ` ` ` ` ` ` ` ` ` ` ` ` ` ` ` ` ` ` ` ' X.X.X.X.` / W E W / ` ` ` ` ` ` ` ` ` ` ` ` ` ` ' ` ` ` ` ` ` ' X.X.X.X.` / W E E ",
"` ` ` ` ` ` ` ` ` ` ` ` ` ` ` ` ` ` ` ` ' ' ' X.X.X.X.` / W W W ~ ` ` ` ` ` ` ` ` ` ` ` ` ` ` ` ` ` ` ` ' ' ' X.X.X.X.' / W E E ",
"` ` ` ` ` ` ` ` ` ` ` ` ` ` ` ` ` ` ` ' ' X.X.X.X.X.X.' / W E W / ` ` ` ` ` ` ` ` ` ` ` ` ` ` ` ` ` ` ' ' X.X.X.X.X...` / W E E ",
"` ` ` ` ` ` ` ` ` ` ` ` ` ` ` ` ` ` ` ' X.X.X.X.X.X.X.` / W E W / ` ` ` ` ` ` ` ` ` ` ` ` ` ` ` ` ` ` ' X.X.X.X.X.X.X.' / W E E ",
"` ` ` ` ` ` '  .' ' '  .' ' ' ` ` ' ' ' X.X.X.X.X.X.X.` / W E W / / ` ` ` ` ' ' ' ' ' ' ' ' ' ` ` ' ' ' X.X.X.X.X.X.X.` / W E E ",
"/ / / ` ` ' ' ' ' ' ' ' ' ' ' ' ' ' X.X.X.X.X.X.X.' ` / W W E W W / / ` ` ' ' ' ' ' ' ' ' ' ' ' ' ' ....X.X.X.X.X.' ` / W E E E ",
"W / / ` ' ' X.X.X.X.X.X.X.X.X.X.X.X.X.X.X.X.X.X.' ` / W W E E E W W / ` ' ' X.X.X.X.X.X.X.X.X.X.X.X.X.X.X.X.X.X.' ` / W W E E E ",
"W W W / ` X.X.X.X.X.X.X.X.X.X.X.X.X.X.X.X.X.X.' ` / W W E E E E E W W / ' X.X.X.X.X.X.X.X.X.X.X.X.X.X.X.X.X.X.' ` / W W E E E E ",
"E E W / ` ' X.X.X.X.X.X.X.X.X.X.X.X.X.X.X.X.X.` / W E E E E E E E W W / ` ' X.X.X.X.X.X.X.X.X.X.X.X.X.X.X.X.X.` / W E E E E E E ",
"E E W W / ` ' ' ' ' ' ' ' ' ' ' ' ' ' ' ' ` ` / W W E E E E E E E E W W / ` ' ' ' ' ' ' ' ' ' ' ' ' ' ' ' ` ` / W W E E E E E E ",
"E E E W W / / / / / / / / / / / / / / / / / / W W E E E E E E E E E E W W / / / / / / / / / / / / / / / / / / W W E E E E E E E ",
"E E E W W W W / W W W W W W W W W W W W W W W W E E E E E E E E E E E W W W W / W W W W W W W W W W W W W W W W E E E E E E E E ",
"E E E E E W E W W W W W W W W W / W W W W W E W E E E E E E E E E E E E E W E W W W W W W W W W W W W W W W E W E E E E E E E E ",
"E E E E E E E E E E E E E E E E E E T E E E E E E E E E E E E E E E E E E E E E E E E E E E E E E E E E E E E E E E E E E E E E "
};
