/* XPM */
static char *result[] = {
/* columns rows colors chars-per-pixel */
"64 64 142 2 ",
"   c #030202",
".  c #080507",
"X  c #0B0807",
"o  c #090608",
"O  c #0E0909",
"+  c #110B0B",
"@  c #140607",
"#  c #060C11",
"$  c #140C10",
"%  c #1A0F16",
"&  c #0A1114",
"*  c #171111",
"=  c #1C1313",
"-  c #1D1218",
";  c #1C1919",
":  c #210D0F",
">  c #241415",
",  c #291415",
"<  c #211817",
"1  c #211718",
"2  c #251A1A",
"3  c #2B1D1C",
"4  c #3A171A",
"5  c #341E1E",
"6  c #32211F",
"7  c #251520",
"8  c #241E21",
"9  c #2D1A26",
"0  c #331E2B",
"q  c #10212C",
"w  c #252228",
"e  c #342322",
"r  c #3A2322",
"t  c #3E2927",
"y  c #36202C",
"u  c #3C2C2D",
"i  c #34292C",
"p  c #3B2233",
"a  c #312F31",
"s  c #481A1F",
"d  c #441D20",
"f  c #4A1D21",
"g  c #472626",
"h  c #4C2225",
"j  c #432E2C",
"k  c #482F2D",
"l  c #462728",
"z  c #592327",
"x  c #49322F",
"c  c #502F32",
"v  c #4C3330",
"b  c #47373C",
"n  c #513734",
"m  c #553936",
"M  c #583A37",
"N  c #513B3C",
"B  c #5C3E3A",
"V  c #622B2F",
"C  c #62252A",
"Z  c #772D34",
"A  c #782E34",
"S  c #63363F",
"D  c #7F3238",
"F  c #5D413E",
"G  c #64433F",
"H  c #1B3343",
"J  c #1F3C51",
"K  c #453B44",
"L  c #26475E",
"P  c #2C5471",
"I  c #474445",
"U  c #4E494A",
"Y  c #524045",
"T  c #5D4445",
"R  c #59565C",
"E  c #674642",
"W  c #694743",
"Q  c #6B4944",
"!  c #694A49",
"~  c #734E49",
"^  c #77514C",
"/  c #7D544F",
"(  c #415D73",
")  c #787A7C",
"_  c #72657E",
"`  c #8A4046",
"'  c #805550",
"]  c #865954",
"[  c #885A55",
"{  c #8C5058",
"}  c #90565B",
"|  c #A1434C",
" . c #A64C59",
".. c #AD5F66",
"X. c #BD5B64",
"o. c #8A6A6D",
"O. c #887B7C",
"+. c #A56D79",
"@. c #D7767F",
"#. c #C06673",
"$. c #255B80",
"%. c #2C5F82",
"&. c #2E6184",
"*. c #416989",
"=. c #48708C",
"-. c #72728C",
";. c #647E94",
":. c #A47E90",
">. c #C37A81",
",. c #CE7B82",
"<. c #69899E",
"1. c #6D8DA2",
"2. c #7B98AA",
"3. c #979098",
"4. c #A39D9E",
"5. c #8094A8",
"6. c #98A1AF",
"7. c #96ADB9",
"8. c #B9A9AB",
"9. c #A6ACB5",
"0. c #BEA9B4",
"q. c #A1B3BE",
"w. c #C88289",
"e. c #C19A9E",
"r. c #DC929A",
"t. c #E2979E",
"y. c #D49BA0",
"u. c #D1A6AD",
"i. c #C1B8BD",
"p. c #D9B4B7",
"a. c #E8AFB4",
"s. c #E4B5B8",
"d. c #AFC0C8",
"f. c #C1C8CC",
"g. c #CAC3C3",
"h. c #D6C7C9",
"j. c #C5CFD2",
"k. c #D0D4D5",
"l. c #D8D4D4",
"z. c #E7C8CA",
"x. c #E4C3C5",
"c. c #E2D5D6",
/* pixels */
"Y Y Y T ! ^ ^ ^ ^ ^ ^ ^ ^ ^ ^ ^ ^ ^ ^ ^ ^ ^ ^ ! E Y Y Y Y Y Y Y Y Y Y T ! ^ ^ ^ ^ ^ ^ ^ ^ ^ ^ ^ ^ ^ ^ ^ ^ ^ ^ ! T Y Y Y Y Y Y Y ",
"Y Y T T ! ^ ^ ^ ^ ^ ^ ^ ^ ^ ^ ^ ^ ^ ^ ^ ^ ^ ^ ! T Y Y Y Y Y Y Y Y Y T T ! ^ ^ ^ ^ ^ ^ ^ ^ ^ ^ ^ ^ ^ ^ ^ ^ ^ ^ ! T Y Y Y Y Y Y Y ",
"Y Y T ! ! ^ ^ ^ ^ ^ ^ ^ ^ ^ ^ ^ ^ ^ ^ ^ ^ ^ ^ ! ! T T Y Y Y Y Y Y Y T ! ! ^ ^ ^ ^ ^ ^ ^ ^ ^ ^ ^ ^ ^ ^ ^ ^ ^ ^ ! ! T T Y Y Y Y Y ",
"T T ! ! ! ^ ^ ^ ^ ^ ^ ^ ^ ^ ^ ^ ^ ^ ^ ^ ^ ^ ^ ^ ! ! ! T T Y Y Y T T T ! ! ^ ^ ^ ^ ^ ^ ^ ^ ^ ^ ^ ^ ^ ^ ^ ^ ^ ^ ^ ! ! ! T T Y Y Y ",
"! ! ! ! ^ ^ ^ ^ ^ ^ ^ ^ ^ ^ ^ ^ ^ ^ ^ ^ ^ ^ ^ ^ / ^ ^ ! T Y Y T T ! ! ! ^ ^ ^ ^ ^ ^ ^ ^ ^ ^ ^ ^ ^ ^ ^ ^ ^ ^ ^ ^ / ^ ^ ! T Y Y Y ",
"^ ^ ^ ^ ^ ^ ^ ^ ^ ^ ^ ^ ^ ^ ^ ^ ^ ^ ^ ^ ^ ^ ^ / / [ / ^ ! T Y T ! ! ^ ^ ^ ^ ^ ^ ^ ^ ^ ^ ^ ^ ^ ^ ^ ^ ^ ^ ^ ^ ^ / / [ / ^ ! T Y Y ",
"^ ^ ^ ^ ^ ^ ^ ^ ^ ^ ^ ^ ^ ^ ^ ^ ^ ^ ^ ^ ^ ^ / / [ [ [ ^ ! T Y T ! ^ ^ ^ ^ ^ ^ ^ ^ ^ ^ ^ ^ ^ ^ ^ ^ ^ ^ ^ ^ ^ / / [ [ [ ^ ! T Y Y ",
"^ ^ ^ ^ ^ ^ ^ ^ ^ ^ ^ ^ ^ ^ ^ ^ ^ ^ ^ ^ ^ ^ / / [ [ [ / ! T T T ! ^ ^ ^ ^ ^ ^ ^ ^ ^ ^ ^ ^ ^ ^ ^ ^ ^ ^ ^ ^ ^ / ' [ [ [ / ! T Y Y ",
"^ ^ ^ ^ ^ ^ ^ ^ ^ ^ ^ ^ ^ ^ ^ ^ ^ ^ ^ ^ ^ ^ / / [ [ [ ^ ! T Y T ! ^ ^ ^ ^ ^ ^ ^ ^ ^ ^ ^ ^ ^ ^ ^ ^ ^ ^ ^ ^ ^ / / [ [ [ ^ ! T Y Y ",
"^ ^ ^ ^ ^ ^ ^ / ^ ^ ^ ^ ^ ^ ^ ^ ^ ^ ^ ^ ^ ^ / / [ [ [ ^ ! T Y T ! ^ ^ ^ ^ ^ ^ ^ ^ ^ ^ ^ ^ ^ ^ ^ ^ ^ ^ ^ ^ ^ / / [ [ [ ^ ! T Y Y ",
"^ ^ ^ ^ ^ ^ ^ ^ ^ ^ ^ ^ ^ ^ ^ ^ ^ ^ ^ ^ ^ ^ ' / [ [ [ ^ ! T Y T ! ^ ^ ^ ^ ^ ^ ^ ^ ^ ^ ^ ^ ^ ^ ^ ^ ^ ^ ^ ^ ^ / / [ [ [ ^ ! T Y Y ",
"^ ^ ^ ^ ^ ^ ^ ^ ^ ^ ^ ^ ^ ^ ^ ^ ^ ^ ^ ^ ^ ^ / / [ [ [ ^ ! T Y T ! ^ ^ ^ ^ ^ ^ ^ ^ ^ ^ ^ ^ ^ ^ ^ / ^ ^ ^ ^ ^ / / [ [ [ ^ ! T Y Y ",
"^ ^ ^ ^ ^ ^ ^ ^ ^ ^ ^ ^ ^ ^ ^ ^ ^ ^ ^ ^ ^ ^ / / [ [ [ ^ ! T K E ! ^ ^ ^ ^ ^ ^ ^ ^ ^ ^ ^ ^ ^ ^ ^ ^ ^ ^ ^ ^ ^ ' / [ [ [ ^ ! T Y Y ",
"^ ^ ^ ^ ^ ^ ^ ^ ^ ^ ^ ^ ^ ^ ^ ^ ^ ^ ^ ^ ^ ^ / / [ [ [ ^ ! T K W ! ^ ^ ~ ^ ^ ^ ^ ^ ^ ^ ^ ^ ^ ^ ^ ^ ^ ^ ^ ^ ^ / / [ [ [ ^ ! T Y Y ",
"^ ^ ^ ^ ^ ^ ^ ^ ^ ^ ^ ^ ^ ^ ^ ^ ^ ^ ^ ^ ^ ^ / / [ [ [ ! E N b N T W E W E W ! Q ! ^ ^ ^ ^ ^ ^ ^ ^ ^ ^ ^ ^ ^ / / [ [ [ ^ ! T Y Y ",
"^ ^ ^ ^ ^ ^ ^ ^ ^ ^ ^ ^ ^ ^ ^ ^ ^ ^ ^ ^ ^ ^ ^ / [ [ ] Q N j i i j v v x x x v F Q ^ ^ ^ ^ ^ ^ ^ ^ ^ ^ ^ ^ ^ ^ / [ [ [ ^ ! T Y Y ",
"^ ^ ^ ^ ^ ^ ^ ^ ^ ^ ^ ^ ^ ^ ^ ^ ^ ^ ^ ^ ^ ^ ^ / [ [ ' S j 3 ; 1 2 3 3 3 2 6 r x F ~ ^ ^ ^ ^ ^ ^ ^ ^ ^ ^ ^ ^ ^ / [ [ [ ^ ! T Y Y ",
"^ ^ ^ ^ ^ ^ ^ ^ ^ ^ ^ ^ ^ ^ ^ ^ ^ ^ ^ ^ ^ ^ / / [ ] ^ n 6 * X X O + O O X + = e n E ^ ^ ^ ^ ^ ^ ^ ^ ^ ^ ^ ^ / / [ [ [ ^ ! T Y Y ",
"^ ^ ^ ^ ^ ^ ^ ^ ^ ^ ^ ^ ^ ^ ^ ^ ^ ^ ~ ~ Q W Q ^ ^ ~ G k 6 > : % ; ; ; ; - = > 6 j M W ~ ~ ^ ^ ^ ^ ^ ^ ^ ^ ^ / [ [ [ [ ^ ! T Y Y ",
"^ ^ ^ ^ ^ ^ ^ ^ ^ ^ ^ ^ ^ ^ ^ ^ ^ ^ ~ Q G m n m M m n g s s h n N I Y K c f s g g j v G Q ~ ^ ^ ^ ^ ^ ^ / / / [ [ [ [ / ! T Y Y ",
"^ ^ ^ ^ ^ ^ ^ ^ ^ ^ ^ ^ ^ ^ ^ ^ ^ ^ ~ G x t 6 3 6 6 5 f z Z ` { o.O.O.o.] ` Z z f 3 r x F ~ ^ ^ ^ ^ ^ / / [ [ [ [ [ [ ^ ! T Y Y ",
"^ ^ ^ ^ ^ ^ ^ ^ ^ ^ ^ ^ ^ ^ ^ ^ ^ ~ W m l > + O + + , z D | X.@.e.8.8.e.@.X.| Z f , = e n W ^ ^ ^ ^ ^ / [ [ [ [ [ [ [ ^ ! T Y Y ",
"^ ^ ^ ^ ^ ^ ' / ' / / / ' / / ~ ~ Q G k 3 +   X & ; 0 S { X.,.t.p.h.h.p.t.@.X.` V 4 , 6 x B Q ~ ^ / / / [ [ [ [ [ [ [ ^ ! T Y Y ",
"! ! ! ^ ^ / / / / / / / / / ^ ~ G m x e =   X ; a I R o.+.w.r.a.x.c.c.z.s.r.@...` V f h g x m G ~ ^ [ [ [ [ [ [ [ / ^ ! T Y Y Y ",
"E ! ! ^ ^ / [ [ [ [ [ [ [ [ ' Q m t 3 * O   & a R ) 3.4.e.u.p.x.c.c.c.c.z.s.r.w...` A z h g t n Q ' [ [ [ [ [ ] / ^ ! T T Y Y Y ",
"T T T ! ^ [ [ [ [ [ [ [ [ [ ^ B t > O .     ; I ) 4.i.g.h.h.h.h.l.l.l.l.l.h.p.e.,.X.| A f > > l B ^ [ [ [ [ [ / ^ ! T T Y Y Y Y ",
"Y Y T ! ^ / [ [ [ [ [ ] ' ~ E v e $ X       1 U O.8.h.l.c.l.k.k.j.f.f.f.f.f.i.u.r.@.X.` h : + 3 n G ~ ' ] ] ] ^ ! T Y Y Y Y Y Y ",
"Y K T T ! ^ / / / / ^ ! G m x e 3 - + X     1 K o.e.s.z.c.l.k.j.d.q.7.7.7.7.9.i.u.r.>.} n $ X * 0 k m G Q ~ ^ ! T T Y Y Y Y Y Y ",
"Y Y Y T T ! ! ! ! ! E N u e 2 7 7 9 7 % . . - c { >.t.a.z.l.j.d.7.2.1.1.<.<.5.6.0.u.e.o.N ;   X + > 6 j N E ! T T Y Y Y Y Y Y Y ",
"Y Y Y E T T T T T T N j 3 * $ % 9 0 0 7 $ . : f ` X.,.t.s.h.f.q.2.<.*.*.*.=.;.5.q.0.8.O.U ;     . X * 3 u N T T Y Y Y Y Y Y Y Y ",
"Y Y Y Y T T T T T T N j ; O o % 9 p p 9 $ . $ 4 A | X.,.y.p.i.6.<.*.&.$.%.&.=.<.6.9.4.) U 8 .       O < u N T T Y Y Y Y Y Y Y Y ",
"Y Y Y Y T T T T ! T K l 2 X o - 9 p p 9 % . @ : f A ` ..w.y.e.3.;.*.&.$.$.P &.=.;.) ) R K w $ .     X 1 j N T T Y Y Y Y Y Y Y Y ",
"Y Y Y T T ! ! ! ! ! T j 2 X o % 9 p p 9 % . X @ % f V ` ..w.,.:.-.*.&.%.%.&.%.( ( R U K a 0 7 - o . o 2 u T ! T T Y Y Y Y Y Y Y ",
"Y Y Y T ! ! ^ ^ ^ ^ E v 3 X o % 9 p p 9 % X     . $ 4 V | X.X.+._ ( %.%.&.%.P L H w 8 8 0 0 0 7 $ o + 3 v E ! ! T Y Y Y Y Y Y Y ",
"Y Y T T ! ^ ^ ^ ^ ^ E x 3 O o % 9 p p 9 %       . . , z D |  .{ R P P P P P L H q # o % 9 p p 9 % o O 3 v E ^ ! ! T T Y Y Y Y Y ",
"T T ! ! ! ^ ^ ^ ^ ^ ! v 3 O o % 0 p p 9 % o   + = > 3 d z D Z S K J J J J J H q &     $ 9 p p 9 % o O 3 v E ^ ^ ! ! ! T T Y Y Y ",
"! ! ! ! ^ ^ ^ ^ ^ ^ E x 3 O o % 9 p p 9 % . X > 0 k k g s h s 0 w q q q q q q & .     $ 9 p p 9 % o + 3 v E ^ ^ / ^ ^ ! T Y Y Y ",
"^ ^ ^ ^ ^ ^ ^ ^ ^ ^ E x 3 O o - 9 p p 9 % X o 3 x G S x 2 > = + + # # # # # # X       % 9 p p 9 % o O 3 v E / / / [ / ^ ! T Y Y ",
"^ ^ ^ ^ ^ ^ ^ ^ ^ ^ E x 3 O o % 9 p p 9 = X + 6 F ~ ~ m 6 * o X O O O O + + O X .   o % 9 p p 0 % o + 3 v E / / [ [ [ ^ ! T Y Y ",
"^ ^ ^ ^ ^ ^ ^ ^ ^ ^ E v 3 O o % 0 p p 9 = X + 6 M ^ ' G j 9 1 ; 2 3 3 6 5 3 2 = O   . - 9 p p 9 % o O 3 v E / / [ [ ] / ! T Y Y ",
"^ ^ ^ ^ ^ ^ ^ ^ ^ ^ E x 3 O o % 9 p p 9 % o $ e M / { Q M u i u j v x v n x j 6 = X . = 9 p p 9 - o O 3 v E / / [ [ [ ^ ! T Y Y ",
"^ ^ ^ ^ ^ ^ ^ ^ ^ ^ E v 3 O o % 9 p p 9 % o + 3 M ~ ' ^ Q K b N T E E W W E F j 2 O o $ 9 p p 9 * X O 3 v E / / [ [ [ ^ ! T Y Y ",
"^ ^ ^ ^ ^ ^ ^ ^ ^ ^ E v 3 O . - 9 p p 9 - o + 3 M ~ [ ^ ! T K T ! ^ ^ ^ ^ ^ E v 3 + o % 9 p p 9 - . O 3 v E / / [ [ [ ^ ! T Y Y ",
"^ ^ ^ ^ ^ ^ ^ ^ ^ ^ E v 3 O . * 9 p p 9 % o + 3 M ~ [ ^ ! E T T ! ^ ^ ^ ^ ^ E n e + o % 9 p p 9 % . O 3 x E / / [ [ [ ^ ! T Y Y ",
"^ ^ ^ ^ ^ ^ ^ ^ ^ ^ E x 3 o o % 9 p p 9 % o + 3 m ~ [ ^ ! T Y T ! ^ ^ ^ ^ ^ E v 6 O o % 9 p p 9 % o o 2 x W / / [ [ [ ^ ! T Y Y ",
"^ ^ ^ ^ ^ ^ ^ ^ ^ ^ E v 3 + o % 9 p p 9 % o + 3 M ~ [ ^ ! T Y T ! ^ ^ ^ ^ ^ E v 3 O o % 9 p p 9 % o + 3 x E / / [ [ [ ^ ! T Y Y ",
"^ ^ ^ ^ ^ ^ ^ ^ ^ ^ Q n e > $ - 9 0 0 7 $ . + 5 m ~ [ ^ ! T T T ! ^ ^ ^ ^ ^ E v 3 O . $ 7 0 0 9 - = = e n W / / [ [ [ ^ ! T Y Y ",
"^ ^ ^ ^ ^ ^ ^ ^ ^ ^ Q B x e 3 3 7 9 7 % $ . O 3 N ~ [ / ! T K T ! ^ ^ ^ ^ ^ E v 3 O . $ % 7 9 7 2 3 e v F Q ^ / [ [ [ ^ ! T Y Y ",
"^ ^ ^ ^ ^ ^ ^ ^ ^ ^ Q W G n x 6 3 - + $ o   X 3 n ~ [ ^ ! T K T ! ^ ^ ^ ^ ^ E x 3 X   . $ $ - 3 e j n B W ~ ^ / ] [ [ ^ ! T Y Y ",
"^ ^ ^ ^ ^ ^ ^ ^ ^ ^ ^ ^ Q Q B j 3 * o o     + 6 m ~ [ ^ ! T Y E ! ^ ^ ^ ^ ^ E v 3 O     o X + 6 j B W ~ ^ ^ / / [ [ [ ^ ! T Y Y ",
"^ ^ ^ ^ ^ ^ ^ ^ ^ ^ ^ ^ ^ ^ E n r = + O X + > t B ^ [ ^ ! T K T ! ^ ^ ^ ^ ^ W n e = + X X O = e v W ~ ^ ^ ^ / [ [ [ [ ^ ! T Y Y ",
"^ ^ ^ ^ ^ ^ ^ ^ ^ ^ ^ ^ ^ / Q F x 6 3 2 2 3 r n Q / [ ^ ! E ! T ! ^ ^ ^ ^ ^ Q F x e 3 2 2 3 e x E ~ ^ ^ / / / [ [ [ [ / ! T Y Y ",
"^ ^ ^ ^ / ^ ^ ^ ^ ^ ^ ^ ^ ^ ^ E F n x x x m F W ~ ' [ / Q T T T ! ^ ^ ^ ^ ^ ~ E F n v x x v n F W ~ ^ / / [ [ [ [ [ [ ^ ! T Y Y ",
"^ ^ ^ ^ ^ ^ ^ ^ ^ ^ ^ / ^ ^ ^ Q Q W W Q ^ ~ ^ / ' ] [ ^ ! T K T ! ^ ^ ^ ^ ^ ^ Q Q W W W E E ! W ! ^ ^ / [ [ [ [ [ [ [ ^ ! T Y Y ",
"^ ^ ^ ^ ^ ^ / / / / / / / / / ^ ^ / / / [ [ [ [ [ ] [ ^ ! T K T ! ! ^ ^ ^ ^ / / / / / / / / / / ^ / / / [ [ [ [ [ [ [ ^ ! T Y Y ",
"! ! ! ^ ^ / / / / / / / / / / / / / [ [ [ [ [ [ [ ' ^ Q T T T T T ! ! ^ ^ / / / / / / / / / / / / / [ [ [ [ [ [ [ / ^ ! T Y Y Y ",
"T ! ! ^ ^ / [ [ [ [ [ [ [ [ [ [ [ [ [ [ [ [ [ [ / ^ ! T T Y Y Y T T ! ^ / / [ [ [ [ [ [ [ [ [ [ [ [ [ [ [ [ [ [ / ^ ! T T Y Y Y ",
"T T T ! ^ [ [ [ [ [ [ [ [ [ [ [ [ [ [ [ [ [ [ / ^ ! T T Y Y Y Y Y T T ! / [ [ [ [ [ [ [ [ [ [ [ [ [ [ [ [ [ [ / ^ ! T T Y Y Y Y ",
"Y Y T ! ^ / [ [ [ [ [ [ [ [ [ [ [ [ [ [ [ [ [ ^ ! T Y Y Y Y Y Y Y T T ! ^ / [ [ [ [ [ [ [ [ [ [ [ [ [ [ [ [ [ ^ ! T Y Y Y Y Y Y ",
"Y Y T T ! / / / / / / / / / / / / / / / / ^ ^ ! T T Y Y Y Y Y Y Y Y T T ! ^ / / / / / / / / / / / / / / / ^ ^ ! T T Y Y Y Y Y Y ",
"Y Y Y T T ! ! ! ! ! ! ! ! ! ! ! ! ! ! ! ! ! ! T T Y Y Y Y Y Y Y Y Y Y T T ! ! ! ! ! ! ! ! ! ! ! ! ! ! ! ! ! ! T T Y Y Y Y Y Y Y ",
"Y Y Y T T T T ! T T T T T T T T T T T T T T T T Y Y Y Y Y Y Y Y Y Y Y T T T T ! T T T T T T T T T T T T T T T T Y Y Y Y Y Y Y Y ",
"Y Y Y Y Y T Y T T T T T T T T T T T T T T T Y T Y Y Y Y Y Y Y Y Y Y Y Y Y T Y T T T T T T T T T T T T T T T Y T Y Y Y Y Y Y Y Y ",
"Y Y Y Y Y Y Y Y Y Y Y Y Y Y Y Y Y Y Y Y Y Y Y Y Y Y Y Y Y Y Y Y Y Y Y Y Y Y Y Y Y Y Y Y Y Y Y Y Y Y Y Y Y Y Y Y Y Y Y Y Y Y Y Y "
};
