/* XPM */
static char *result[] = {
/* columns rows colors chars-per-pixel */
"64 64 154 2 ",
"   c #040203",
".  c #090507",
"X  c #0E0909",
"o  c #0B0807",
"O  c #120A0B",
"+  c #1D0E0F",
"@  c #070D11",
"#  c #140C11",
"$  c #190E14",
"%  c #1C1215",
"&  c #1C1919",
"*  c #141519",
"=  c #2B0D10",
"-  c #241415",
";  c #21141B",
":  c #25191A",
">  c #2B1D1C",
",  c #291415",
"<  c #37171A",
"1  c #341E1F",
"2  c #32211F",
"3  c #271720",
"4  c #291724",
"5  c #2A1B21",
"6  c #2E1A28",
"7  c #331F20",
"8  c #361F2D",
"9  c #12232E",
"0  c #19212C",
"q  c #1E2D3A",
"w  c #242025",
"e  c #2F2221",
"r  c #22242B",
"t  c #352423",
"y  c #3A2424",
"u  c #3D2927",
"i  c #372628",
"p  c #3D2C2D",
"a  c #34292C",
"s  c #3C2234",
"d  c #302F31",
"f  c #43181C",
"g  c #501A1F",
"h  c #441D20",
"j  c #4B1D21",
"k  c #462626",
"l  c #4C2125",
"z  c #432E2D",
"x  c #482F2D",
"c  c #512124",
"v  c #46312E",
"b  c #4A322F",
"n  c #43263A",
"m  c #47283D",
"M  c #4D3431",
"N  c #47373C",
"B  c #4A3A3E",
"V  c #473334",
"C  c #513633",
"Z  c #553935",
"A  c #523B3C",
"S  c #5C3E3B",
"D  c #593B37",
"F  c #63252A",
"G  c #65282C",
"H  c #622B30",
"J  c #742B31",
"K  c #7B2F36",
"L  c #6A353E",
"P  c #7C3036",
"I  c #5D403D",
"U  c #62423E",
"Y  c #1F3646",
"T  c #1F3B50",
"R  c #4A2B41",
"E  c #463B42",
"W  c #503F44",
"Q  c #27485F",
"!  c #3D576B",
"~  c #285472",
"^  c #474444",
"/  c #4B4848",
"(  c #524045",
")  c #5D4445",
"_  c #4B5354",
"`  c #664642",
"'  c #694743",
"]  c #6B4944",
"[  c #694A49",
"{  c #704B47",
"}  c #744E49",
"|  c #77514C",
" . c #7D544F",
".. c #61575F",
"X. c #75767B",
"o. c #72657E",
"O. c #8A4046",
"+. c #96464D",
"@. c #815551",
"#. c #865954",
"$. c #885A55",
"%. c #8A525B",
"&. c #92575C",
"*. c #A3444E",
"=. c #BD5B64",
"-. c #916F71",
";. c #877B7B",
":. c #86676A",
">. c #B26169",
",. c #A56D79",
"<. c #C0787F",
"1. c #D4757E",
"2. c #255B80",
"3. c #2D6083",
"4. c #3F6382",
"5. c #416989",
"6. c #48708C",
"7. c #677E91",
"8. c #A47E90",
"9. c #CB7B82",
"0. c #D77780",
"q. c #68899E",
"w. c #6D8DA2",
"e. c #7D96A9",
"r. c #A4969F",
"t. c #8D9EAB",
"y. c #9EA1A8",
"u. c #9CACB8",
"i. c #BBA9AE",
"p. c #A1B3BE",
"a. c #8F8C8C",
"s. c #C78086",
"d. c #C7838E",
"f. c #C1989B",
"g. c #DC929A",
"h. c #E2979E",
"j. c #C29FA5",
"k. c #D49CA2",
"l. c #D1A8AE",
"z. c #C1B8BD",
"x. c #DAB5B8",
"c. c #E5B2B6",
"v. c #AFC0C8",
"b. c #C1C7CC",
"n. c #C2CCCF",
"m. c #D0C4C5",
"M. c #D7C6C8",
"N. c #D7C8C9",
"B. c #CCD4D5",
"V. c #D7D5D5",
"C. c #DBD0D1",
"Z. c #E7C7C9",
"A. c #E2C0C3",
"S. c #E2D6D6",
/* pixels */
"( ( ( ) [ | | | | | | | | | | | | | | | | | | [ ) ( ( ( ( ( ( ( ( ( ( ) [ | | | | | | | | | | | | | | | | | | [ ) W ( ( ( ( ( ( ",
"( ( ) ) [ | | | | | | | | | | | | | | | | | | [ ) ( ( ( ( ( ( ( ( ( ) ) [ | | | | | | | | | | | | | | | | | | [ ` W ( ( ( ( ( ( ",
"( ( ) [ [ | | | | | | | | | | | | | | | | | | [ [ ) ) ( ( ( ( ( ( ( ) [ [ | | | | | | | | | | | | | | | | | | [ [ ) ) W ( ( ( ( ",
") ) [ [ [ | | | | | | | | | | | | | | | | | | | [ [ [ ) ) ( ( ( ) ) ) [ [ | | | | | | | | | | | | | | | | | | | [ [ [ ) ) ( ( ( ",
"[ [ [ [ | | | | | | | | | | | | | | | | | | | |  .| | [ ) ( ( ) ) [ [ [ | | | | | | | | | | | | | | | | | | | |  .| | [ ) ( ( ( ",
"| | | | | | | | | | | | | | | | | | | | | | |  . .$.@.| [ ) ( ) [ [ | | | | | | | | | | | | | | | | | | | | |  . .$. .| [ ) ( ( ",
"| | | | | | | | | | | | | | | | | | | | | |  . .$.$.$.| [ ) ( ) [ | | | | | | | | | |  .| | | | | | | | | | @. .$.$.$.| [ ) ( ( ",
"| | | | | | | | | | | | | | | | | | | | | |  . .$.$.$. .[ ) ) ) [ | | | | | | | | | | | | | | | | | | | | |  . .$.$.$. .[ ) ( ( ",
"| | | | | | | | | | | | | | | | | | | | | |  . .$.$.$.| [ ) ( ) [ | | | | | | | | | | | | | | | | | | | | |  . .$.$.$.| [ ) ( ( ",
"| | | | | | | | | | | | | | | | | | | | | |  . .$.$.$.| [ ) ( ) [ | | | | | | | | | | | | | | | | | | | | |  . .$.$.$.| [ ) ( ( ",
"| | | | | | | | | | | | | | | | | | | | | |  .@.$.$.$.| [ ) ( ) [ | | | | | | | | | | | | | | | | | | | | |  . .$.$.$.| [ ) ( ( ",
"| | | | | | | | | | | | | | | | | | | | | |  . .$.$.$.| [ ) ( ) [ | | | | | | | | | | | | | | | | | | | | |  . .$.$.$.| [ ) ( ( ",
"| | |  .| | | | | | | | | | | | | | | | | |  . .$.$.$.| [ ) ( ) [ | | | | | | | | | | | | | | | | | | | | |  . .$.$.$.| [ ) ( ( ",
"| | | | | | | | | | | | | | | | | | | | | |  . .$.$.$.| [ ) ( ) [ | | | | | | | | | | | | | | | | | | | | |  . .$.$.$.| [ ) ( ( ",
"| | | | | | | | | | | | | | | | | | | | | |  . .$.$.$.| [ ) W ) [ | | | | | | | | | | | | | | | | | | | | |  . .$.$.$.| [ ) ( ( ",
"| | | | | | | | | | | | | | | | | | | | | | |  .$.$.$.| [ ) W ) [ | | | | | | | | | | | | | | | | | | | | | |  .$.$.$.| [ ) ( ( ",
"| | | | | | | | | | | | | | | | | | | | | | | @.$.$.$.| [ ) ( ` [ | | | | | | | | | | | | | | | | | | | | | |  .$.$.$.| [ ) ( ( ",
"| | | | | | | | | | | | | | | | | | | | | |  . .$.$.$.| [ ) W ) [ | | | | | | | | | | | | | | | | | | | | |  . .$.$.$.| [ ) ( ( ",
"| | | | | | | | | | | | | | | | | | | | | |  .$.$.$.#.{ ` W N B I ` U ' ` ` U ] } } | | | | | | | | | | | |  .$.$.$.$.| [ ) ( ( ",
"| | | | | | | | | | | | | | | | | | | |  . . .$.$.$.#.' C p u p p M M b b M Z I ' } | | | | | | | | | |  . . .$.$.$.$. .[ ) ( ( ",
"| | | | | | | | | | | | | | | | | | |  . .$.$.$.$.$.@.U p > & : : > > > > > t b U { | | | | | | | | |  . .$.$.$.$.$.$.| [ ) ( ( ",
"| | | | | | | | | | | | | | | | | } | @.$.$.$.$.$.$.| C e $ o . X X X X o o - t C ' | | | | | } | | |  .$.$.$.$.$.$.$.| [ ) ( ( ",
"| | | | | |  . . . . . .@. .| { ] { ] ] } } } | | | U z t - + $ & & & & % + , 2 v L ' { { ] { ] } | @. .$.$.$.$.$.$.$.| [ ) ( ( ",
"[ [ [ | |  . .@. . . . . . . .{ L Z Z Z Z Z D D D M x k h f l C I I Q I C l c h k b b Z C C A U {  .$.$.$.$.$.$.$. .| [ ) ( ( ( ",
") [ [ | |  .$.$.$.$.$.$.$.$.@.] Z u e e > t 2 2 t > > f F K O.%. .;.;.:.$.O.P G j 7 7 t > t u Z ] @.$.$.$.$.$.$. .| [ ) ) ( ( ( ",
") ) ) [ | $.$.$.$.$.$.$.$.%.} S u - O o X O O O O X - l P *.=.<.j.i.i.f.<.=.*.P c , # X X O - u S | $.$.$.$.$. .| [ ) ) ( ( ( ( ",
"W W ) [ |  .$.$.$.$.$.#.@.| ` M 7 $ o       . . @ & i L +.=.0.g.x.N.N.x.h.0.=.+.H < O .     X > M ` } @.#.$.$.| [ ) ( ( ( ( ( ( ",
"( W ) ) [ |  .|  . . .] U Z x t : % O O .   @ & d ^ ..:.,.s.g.c.C.S.S.Z.c.g.1.>.O.F h = O . . : 1 x Z ` { } | [ ) ) ( ( ( ( ( ( ",
"( ( ( ) ) [ [ [ [ [ ` A z e ; : 3 4 ; $ . . $ d _ X.a.r.j.l.c.A.C.S.S.S.Z.c.k.s.=.O.J j = O . . ; - t p A ` [ ) ) ( ( ( ( ( ( ( ",
"( ( W ` ) ) ) ) ) ) A z w $ # $ 4 8 8 ; O . & ^ X.y.z.m.m.m.M.C.C.V.V.V.V.N.x.k.9.=.*.J f X .     o % 5 z W ) ) ( ( ( ( ( ( ( ( ",
"( ( ( ( ) ) ) ) W W V i - # # ; 6 s s 4 # . & / ;.i.M.C.S.V.V.B.n.b.b.b.b.b.z.l.g.0.=.O.l $       . O : i V A ) W W ( ( ( ( ( ( ",
"( ( ( ( ) ) ) A D z u 5 : $ & 4 8 n s 4 # . & B -.f.x.Z.S.V.B.n.v.p.u.u.u.u.u.i.k.g.9.&.M ;     . # % & 5 i p M E W ( ( ( ( ( ( ",
"( ( ( ) ) [ ) Z p t > ; 3 4 6 8 n s s 4 # . ; M &.9.h.c.Z.V.B.v.u.e.w.q.q.w.t.y.i.l.j.-.B &   . # ; 4 3 : 5 5 i V W ( ( ( ( ( ( ",
"( ( ( ) [ [ ' Z t % # % 4 8 s n R R s 4 # . = j O.=.0.h.c.N.b.p.e.q.6.5.5.6.7.e.p.i.i.;./ & . O & 8 8 4 % # & 2 z N ( ( ( ( ( ( ",
"( ( ) ) [ | ` M > O . $ 4 s n R R s s 4 # . O f K *.=.9.k.x.z.y.q.6.~ 2.2.3.5.q.t.u.y.X./ w # $ 6 s s 6 $   O : v B ) ( ( ( ( ( ",
") ) [ [ [ | ' b > X . $ 6 s R R R R s 4 $   O = j J O.>.9.k.j.r.7.5.3.2.2.3.4.6.7.7.X...E w ; 4 8 n s 6 $ . X > p I [ ) ) ( ( ( ",
"[ [ [ [ | | ' b > X . $ 6 s m R R n s 6 $ . . O = h H O.=.9.d.8.X.5.3.3.3.3.3.! ! _ ^ E d 8 8 8 s m s 6 $ . X > M ` | [ ) ( ( ( ",
"| | | | | | ` b > X . $ 4 s n R R R s 6 $ .     . # < H +.=.>.-.o.4.3.3.3.3.~ Q Y 0 w w 8 8 s s n m s 4 $ . O > M |  .| [ ) ( ( ",
"| | | | | | ' V > X . $ 4 s m m n s 8 4 % # O O O O = j K *.*.%...! ~ ~ ~ ~ Q Y 0 * O ; 6 8 s n n n s 4 $ . O > D } $.| [ ) ( ( ",
"| | | | | | U b > X . $ 6 s n n 8 8 4 4 > > 2 t i 7 8 j G K L L E T T T T T Y q r > > % 5 5 8 s n n s 6 $ . X > Z } $. .[ ) ( ( ",
"| | | | | | ` b : o . # 6 s s s 6 ; ; > k x M Z I Z b k f c f i w 0 9 9 9 9 9 r 2 v z 2 > & ; 6 s s s 6 $ o X > Z | $.| ' ) W W ",
"| | | | | | ` M 2 X . % 6 s s 6 ; # # : z D ] }  .} U b 1 - % O # @ @ @ @ @ * > b I I v > # # ; 6 s s 6 $ o O > Z | $.| [ ) W W ",
"| | | | | | ` Z t - # % 3 8 8 4 $ . X > b `  . .$.$.| Z 2 $ X o X X X X X X % t I U U M 2 X o $ 4 8 8 4 & O - i S } $.| [ ) W ) ",
"| | | | | | [ I b t > : 5 4 ; $ O   X 5 M ]  . .$.$.@.I p > & & : > > : > > t M U | U Z e X   X $ ; 4 > : > t b ' @.$.| [ ` W W ",
"| | | | | | { ' I Z v 2 : % O O o   o > M '  . .$.$.#.' Z v a a p M M b b b Z I { | ] I : o   o O # $ 3 1 z Z L | @.$.| [ ) W W ",
"| | | | | | | } { ' D z 5 O .       O > M '  . .$.$.@.{ ) B N I ) ` ` U ` ` ` | | | U M > X       . # > x S { | #.$.$.| [ ) ( W ",
"| | | | | | | | | | ' C i - X o o o % t Z '  . .$.$.$.| [ ) ( ) [ | | | | | | | | | U M 2 & X o o O - t Z ]  . .$.$.$.| [ ) ( ( ",
"| | | | | | | | | | { U b t e : : > t v I ] |  .$.$.$.| [ ) ( ) [ | | | | | | | | | { I b t > > : > t V W } |  .$.$.$.| [ ) ( ( ",
"| | | | | | | | | | | ' I Z b b b M C I U } |  .#.$.$.| [ ) ( ) [ | | | | | | | | | } U I Z M b b b Z I ' | |  .$.$.$.| [ ) ( ( ",
"| | | | | | | | | | } { ] ' ' U ` ` ' ] } |  . .$.$.$.| [ ) ( ) [ | | | | | | | | | | | ' ' U ` U ' ' ] { |  . .$.$.$.| [ ) ( ( ",
"| | | | | | | | | | | | | | | | | | | | | |  .$.$.$.$.| [ ) ( ) [ | | | | | | | | | | | | | | | | | | | | |  .$.$.$.$.| [ ) ( ( ",
"| | | | | | | | | | | | | | | | | | | |  . . .#.$.$.$.| [ ) ) ) [ | | | | | | | | | | | | | | | | | | |  . . .$.$.$.$. .[ ) ( ( ",
"| | | | | | | | | | | | | | | | | | |  . .$.$.$.$.$.$. .[ ) ( ) [ | | | | | | | | | | | | | | | | | |  . .$.$.$.$.$.$.| [ ) ( ( ",
"| | | | | | | | | | | | | | | | |  .|  .$.$.$.$.$.$.$.| [ ) ( ) [ | | | | | | | | | | | | | | | | | |  .$.$.$.$.$.$.$.| [ ) ( ( ",
"| | | | | |  . . . . . . . . .| |  . . .$.$.$.$.$.$.$.| [ ) / ) [ [ | | | |  . . . . . . . . . .|  . . .$.$.$.$.$.$.$.| [ ) ( ( ",
"[ [ [ | |  . . . . . . . . . . . . .$.$.$.$.$.$.$. .| [ ) ) ( ) ) [ [ | |  . . . . . . . . . . . . .$.$.$.$.$.$.$. .| [ ) ( ( ( ",
") [ [ | |  .$.$.$.$.$.$.$.$.$.$.$.$.$.$.$.$.$.$. .| [ ) ) ( ( ( ) ) [ |  . .$.$.$.$.$.$.$.$.$.$.$.$.$.$.$.$.$.$. .| [ ) ) ( ( ( ",
") ) ) [ | $.$.$.$.$.$.$.$.$.$.$.$.$.$.$.$.$.$. .| [ ) ) ( ( ( ( ( ) ) [  .$.$.$.$.$.$.$.$.$.$.$.$.$.$.$.$.$.$. .| [ ) ) ( ( ( ( ",
"( ( ) [ |  .$.$.$.$.$.$.$.$.$.$.$.$.$.$.$.$.$.| [ ) ( ( ( ( ( ( ( ) ) [ |  .$.$.$.$.$.$.$.$.$.$.$.$.$.$.$.$.$.| [ ) ( ( ( ( ( ( ",
"( ( ) ) [ |  .@. . . . . . . . . . . . . .| | [ ) ) ( ( ( ( ( ( ( ( ) ) [ |  . . . . . . . . . . . . . . .| | [ ) ) ( ( ( ( ( ( ",
"( ( ( ) ) [ [ [ [ [ [ [ [ [ [ [ [ [ [ [ [ [ [ ) ) ( ( ( ( ( ( ( ( ( ( ) ) [ [ [ [ [ [ [ [ [ [ [ [ [ [ [ [ [ [ ) ) ( ( ( ( ( ( ( ",
"( ( ( ) ) ) ) [ ) ) ) ) ) ) ) ) ) ) ) ) ) ) ) ) ( ( ( ( ( ( ( ( ( ( ( ) ) ) ) [ ) ) ) ) ) ) ) ) ) ) ) ) ) ) ) ) ( ( ( ( ( ( ( ( ",
"( ( ( ( ( ) ( ) ) ) ) ) ) ) ) ) ) ) ) ) ) ) ( ) ( ( ( ( ( ( ( ( ( ( ( ( ( ) ( ) ) ) ) ) ) ) ) ) ) ) ) ) ) ) ( ) ( ( ( ( ( ( ( ( ",
"( ( ( ( ( ( ( ( ( ( ( ( ( ( ( ( ( ( ( ( ( ( ( ( ( ( ( ( ( ( ( ( ( ( ( ( ( ( ( ( ( ( ( ( ( ( ( ( ( ( ( ( ( ( ( ( ( ( ( ( ( ( ( ( "
};
