/* XPM */
static char *result[] = {
/* columns rows colors chars-per-pixel */
"64 64 132 2 ",
"   c #070507",
".  c #0A0506",
"X  c #070608",
"o  c #010A0C",
"O  c #140C0E",
"+  c #170C10",
"@  c #180C10",
"#  c #031314",
"$  c #0D1217",
"%  c #00191A",
"&  c #171011",
"*  c #1B1212",
"=  c #220D13",
"-  c #3D0E1D",
";  c #231716",
":  c #241816",
">  c #24141D",
",  c #2C161C",
"<  c #22191B",
"1  c #2C1D1B",
"2  c #34151B",
"3  c #33211F",
"4  c #0F1B25",
"5  c #09102A",
"6  c #271E21",
"7  c #2F1827",
"8  c #3C1821",
"9  c #351D2B",
"0  c #072023",
"q  c #10272E",
"w  c #1A263C",
"e  c #182E39",
"r  c #1A323E",
"t  c #2F2121",
"y  c #362524",
"u  c #3A2725",
"i  c #3F2927",
"p  c #332628",
"a  c #3A202F",
"s  c #352B2F",
"d  c #3B2C2D",
"f  c #3D2230",
"g  c #3C2F34",
"h  c #2A383C",
"j  c #3A3537",
"k  c #3F3438",
"l  c #401A22",
"z  c #402927",
"x  c #432E2C",
"c  c #542024",
"v  c #453023",
"b  c #47302D",
"n  c #49312F",
"m  c #402332",
"M  c #453232",
"N  c #4B3635",
"B  c #4D3937",
"V  c #453438",
"C  c #4D3739",
"Z  c #47383E",
"A  c #4B393D",
"S  c #503633",
"D  c #513A37",
"F  c #593B37",
"G  c #543C3A",
"H  c #5A3D3A",
"J  c #723928",
"K  c #5B4637",
"L  c #5C413E",
"P  c #62423E",
"I  c #1E2C45",
"U  c #212F4A",
"Y  c #23324D",
"T  c #4D3C43",
"R  c #513F44",
"E  c #4C4347",
"W  c #534045",
"Q  c #5D4342",
"!  c #564248",
"~  c #5C4549",
"^  c #564C50",
"/  c #5B4C52",
"(  c #5C5356",
")  c #644644",
"_  c #694742",
"`  c #664844",
"'  c #6C4B47",
"]  c #604749",
"[  c #664A4C",
"{  c #6A4B4A",
"}  c #734E4A",
"|  c #784F4B",
" . c #765643",
".. c #77514C",
"X. c #7A524E",
"o. c #655355",
"O. c #6C5350",
"+. c #65565C",
"@. c #6B5A5F",
"#. c #765251",
"$. c #7F5550",
"%. c #7A5A56",
"&. c #735D60",
"*. c #6E6468",
"=. c #7C6161",
"-. c #941F2B",
";. c #BC6720",
":. c #F26404",
">. c #9A4D42",
",. c #815651",
"<. c #855954",
"1. c #8A5B56",
"2. c #BE5E58",
"3. c #84635E",
"4. c #8E6C5B",
"5. c #846562",
"6. c #827C7E",
"7. c #CF6F65",
"8. c #F18D19",
"9. c #E9CF34",
"0. c #AF8A63",
"q. c #DF8B79",
"w. c #6D7095",
"e. c #E89A85",
"r. c #EEAD91",
"t. c #F3B898",
"y. c #F9BE9D",
"u. c #FFC4A2",
"i. c #A7ACE2",
"p. c #B6BBEB",
"a. c #FCE0D2",
"s. c #F6F5F8",
/* pixels */
"j 6 p b D H H R H P P _ _ _ _ _ _ _ _ _ _ _ ) P R P R P Q Q R H P R ) ) _ _ _ _ _ _ _ _ _ _ P ' ' P P P P H H G G V g p > s ( 6.",
"E d V G ) ) _ _ _ ' _ ' ' ' ' } ' ' } ' _ } ) ) ) R P R ! W R ) R ) ) ) ' ' } ' _ } } ' ' } ' _ } P } | ) _ Q R R A V g s k ^ *.",
"( A W ) ' } } } } } } } } } | } } ..} } } } ' ] R R R R ! ! R R R ! ] ' } } } } } } ..} | } ......} | } } ' ` ~ R R T T T T W / ",
"@.~ ] ' } ......| | | ....| | | ........| } { [ ] ~ R 6 * > > > , ! ) { } | | | ........| | | .... .| | #.} { [ ] ~ R ! T E W ! ",
"&.] ' { ........................| ....| ....} { O.] * , , , , , , & @ * @ * : } ..} ........................} { [ [ ~ ~ ! ! ! ! ",
"=.{ { } ........................X.| _ _ ) _ ) _ _ ) T @ 8 l l l l 2 2 2 2 2 2 O O O L _ ......................X.#.#.[ ~ ! ! ~ ~ ",
"5.} ............................| N @ X @ @ @ @ @ @ @ 8 l l l l l l l l l l l 8 8 8 + + F F X...............,.,.<.%.#.[ ~ ! ~ [ ",
"3.X.....................X.......} y = 9 8 8 8 8 l l l l l l l l l l l l l l l l l l l 8 O + x ............X.,.,.1.<.#.[ ! ! ~ ' ",
"%...................................b O 9 9 9 9 7 l l l l l l l l l l l l l l l l l l l l l = y } X.....| | ,.<.1.<.#.[ / R [ [ ",
"..X...........X.X...........| X.......N @ O 7 7 8 l l l l l l l l l l l l l l l l l l l l l l , : { ....#.| $.<.1.<.#.[ R ~ ] { ",
"' ..........|  ..................._ @ + 2 2 8 8 l l l l l l l l l l l l l l l l l l l l l l l l 2 * | | | #.,.<.1.<.#.[ / R ] [ ",
"` ..............................F + 8 8 l l l l l l l l l l l l l l l l l l l l l l l l l l l l 8 + F | | | X.<.1.<.#.[ R R ] { ",
"_ ........| ..................b @ 8 l l l l l l l l l l l l l l l l l l l l l l l l l l l l l l l 8 . | | X.,.<.1.<.%.[ ] R [ { ",
"` ........................| 3 = l l l l l l l l l l l l l l l l l l 7 7 7 l l l l l l l l l l l l l O p | X.,.<.1.1.#.[ / R ] { ",
"P ..................} ..} 3 , l l l l l l l l l l l l l l l l l 7 7 a a a 7 l l l l l 7 7 7 7 l l l 8 . { | $.<.1.<.#.[ R R ] [ ",
"_ ..........| ....} * * * , l 7 7 7 7 7 8 8 l l l l l l l 8 7 7 a f m m 7 8 l l l 8 7 f f f a 7 8 l l 2 @ #.$.<.1.<.#.[ [ R ] { ",
"_ X.........X.....} * , > 7 7 m m m 7 7 . . 8 8 8 l l l 8 7 f m m m m 7 O 8 l l 2 7 m 7 7 7 m m 7 8 l 8 . | ,.<.1.<.#.[ ~ ! ] [ ",
"P X.................} 1 : , , 2 m , O @ 8 8 8 7 7 l l 8 7 m m m m m , O 2 l l l 9 m , 2 2 2 , m m 7 l 8 @ S X.<.1.<.#.[ ~ ! ] { ",
"' X.X...................| y y y O = l 2 7 9 9 m 7 l l 7 m m m m m m . 7 l l 7 9 m , c >.>.7.. a m 9 8 l l . ..<.1.<.#.[ ~ ! ] [ ",
"P X.X. .....................} y @ l 7 9 a m m 7 8 l 7 a m m m m m = , 7 l 9 a m a . l >.e.t.O m m m 7 l 2 . X.<.1.<.#.[ ! ~ ] [ ",
"_ ........................| _ X 2 7 a m m m m 7 l 8 7 m m m m m a . m 7 2 9 m m O 7 7 , y.t.O a m m 7 l 8 . ,.<.1.<.#.[ ! ! ~ [ ",
"_ ........................} + 9 9 m a m m m m 7 8 . a m m m m m 9 . 9 - 7 a m 9 = 7 7 9 t.t.O a m m 7 8 8 . ,.1.1.<.#.[ ~ ! ~ ' ",
"_ ........................G @ 7 m m . a m m m 7 , O m m m m m f . a 7 2 7 m m . 2.c K t.u.t.O a m m m 7 8 X <.1.1.1.#.[ ~ ! ] { ",
"P ........X.X.X.X.X...X.} . f m m > = m m m m m . f m m m m m f . a m 9 m m > . J J 4.u.u.y.O a m m m 7 @ z ,.1.<.,.#.[ ! ! ] [ ",
"P ' ....X.,.,.X.,.,.X...u , f = = > m m m m m a . a m m m m m f . f m a m f . w.: - J ,.t.P , m m m m 7 . <.<.$.%.| ' Q ! ! ~ { ",
"L ` }  .,.<.<.<.<.<.<.<.F @ @ F . m m m m m m a . m m m m m m O >.= m m m f # i.c -.:.c t.O m m m m m 7 . ,.,...{ ' ] ~ ! ! ~ { ",
"B ) { X.<.1.1.3.1.1.1.1.1.#. .,.. f m m m m m m 9 . m m m m f . 2.. f m m O i.p.c :.8.-.r.O z m m m m > * $.X...` Q ! Q W ! ] { ",
"B Q ' ..,.<.<.1.<.<.<.<.<.<.<.$.. f m m m m m m f . i m m m f . 2.8 7 m 9 v a.s.P ;.9.-.r.v 2 z m m a . } ,...' Q Q W W W ! ~ { ",
"A Q ) { ..X.X.X.X...X.X.X.X.X.... f m m m m m m f . m m m m f . 7.2.. a . t.u.a.a.4.0.2.y.y.K , m m m . } ..{ ] ! R ! R ! ! ] ' ",
"A W ~ ) ` ' ' ' ' ' ' ' ' ' ' ' . f m > m m m m m > > f m m f . 7.q.J > 4.y.u.u.u.a.7.u.u.u.y.O a m m   ` { ) Q ! ! R ! E ! ~ [ ",
"Z W W Q Q Q ) Q P Q ) Q Q ) Q L O a O p @ m m m m f . f m m = >.7.y.r.0.u.u.u.u.u.u.u.u.u.u.t.O a a O b L Q Q ! Q R R R R ! ] ' ",
"Z W W L Q Q L L L P L Q Q L L L N * N L O a m m m + g O a f . 7.7.t.u.u.u.u.u.u.u.u.u.u.u.y.r.* a a   L Q Q Q W T ! E R ! ! ] [ ",
"Z W ! ~ ) ) ) ) ) ) ) ) ) ) ) ) ) L _ ] G X f f 9 + R g $ 7 O >.2.7.r.u.u.u.u.u.u.u.u.u.u.t.2 D   a   L ` ] Q ! W W ! R E ! / [ ",
"Z W Q ) ' ' ' ` ' ' ' ' ' ' ' ' ' ' ' ' ) 1 , f   T s O e # e # O >.>.r.u.u.u.u.u.u.u.u.u.y.O P 1 , 1 ' ' { ) ~ W E R R R ! ] { ",
"Z ! ~ [ { ..} ..} ..} ..} } .. ...' } ..} ' y + 6 T   e r q q q % o o J 4.e.u.u.u.u.u.u.y.4.3 } ..i ' ..} ' [ ~ ! R E ! R R ] { ",
"A ~ ) ' O.........................X.........{ M ~ < 4 e 0 o o o o % % o o c K q.q.q.q.q.q.. ................' ] ~ ~ ! R R R ] { ",
"W ~ { } } ..............................X.} } { ] + e o o # # # # o o % % o o , , , , , 2 F ................} O.[ [ / R / ~ [ [ ",
"L { { } ................................} X.X.#.#.G $ % e e e e e e e o o o # # # # q q . } ................X.#.$.#.[ [ R R ] [ ",
"` O.....................................X.X.,.H P O r r r r r r r r r r r e o o o o o 4 . } ..............X.X.$.<.%.#.[ ~ R ] [ ",
"P ......................................x b n $ # r r r r r r r r r r r r r r r r h K   y } ................$.<.1.<.#.[ ~ R ] { ",
"_ X.................................y 1 4 4 4 r r r r r r r r r r r r r r r r r r h 8.@ } ......#.| | #.| | ,.<.1.<.#.[ R R [ [ ",
"'  ...........................} : : 4 q r r r r r r r r r r r r r r r r r r r r h ;.v F ........| #.| | | | ,.<.1.<.#.[ R / [ [ ",
"_ ..........................P * # % r r r r r r r r r r r r r r r r r r r r r r h ;.O } ........| | | | #.| ,.,.1.<.#.[ ] R ] [ ",
"_ ........................F O % 0 e r r r r r r r r r r r r r r r r r r r e K K ;.: ' ..........#.| #.X.| | ,.<.1.<.#.[ R R ] { ",
"_ ......................... % % r r r r r r r r r r r r r r r r r r r h  . .>.>.1 } ............X.......| #.,.<.1.1.#.[ / ~ ] [ ",
"_ ......................y   % q r r r r r r r r r r r r r r r r r q q 4 J J l . } ..............| ......| | ,.,.1.1.#.[ ~ R ] { ",
"_ ....................}   % % r r r r r r r r r r r r r r r 0 0 0 o o c c c 2 N } ................X.....| ,.#.<.1.1.#.{ ~ R ] [ ",
"_ ....................} . % % 0 r r r r r r r r r e e e 0 % % o o w w = = = w : } ......................#.#.,.<.1.<.#.o.~ R ] { ",
"_ ....................}   % % % e r r r r e e e e 0 % % # o o 5 5 Y Y U U U U $ P ......................X.X.,.<.1.<.#.[ ~ ! ~ [ ",
"_ ................ ...} 1 # % % % q q q q % % % % % % # o 5 5 5 5 w Y Y Y Y Y U @ } .................... .X.,.,.1.<.#.[ ~ ! ] [ ",
"_ ................X.....} X % % % % % % % % % % % % o o 5 5 5 5 5 5 U Y Y Y Y U . } ....................| X.,.<.1.1...[ ! ! ] ' ",
"_ ......................| x X % % % % % % % % % % o 5 5 5 5 5 5 5 5 U Y Y Y Y U . } ................X.X.| X.,.<.1.<.#.[ ~ ~ ] [ ",
"........................| ..+ % % % % % % % % % % . 5 5 5 5 5 5 5 5 4 Y Y Y Y Y w : } } ............X.X.,.,.<.<.1.<.%.[ ! ! ~ { ",
"..........................| _ * # # % % 0 % % % . 5 5 5 5 5 5 5 5 5 5 I Y Y Y Y U . } | ..........X.X.,.,.1.1.1.1.<.#.[ ! ! ] { ",
"%.............................' : : # # # # # # o 5 5 5 5 5 5 5 5 5 5 5 w Y Y Y U . } | ....X.| ..X.X.,.1.1.3.1.1.1.#.[ ! ~ ~ { ",
"%.........X...X.X.X...X.X.X.X.X.X.X.u i z z i 3 o o o o 5 5 5 5 5 5 5 5 5 w Y Y U . } ..X. .X.| X.X.,.1.1.1.1.1.<.,.{ [ ~ ! ~ [ ",
"#.' ..X.X.$.$.$.,.X.,.,.,.,.,.,.,.,.<.<.1.1.<.,.M x i s   o o o o o o o 5 5 U 4 $ n X.,.,.X.,.,.,.,.<.1.1.3.,.$.$.#.{ ] ! W ~ ) ",
"O.` } ..,.<.<.,.<.<.<.<.,.,.<.,.<.<.<.1.1.1.,...} { Q < - = = = = = = =   . O P P <.<.<.<.<.<.<.<.<.1.1.1.1.,.X.' ' ] Q ! W ! Q ",
"O.L ' ..<.3.1.1.1.1.1.1.1.1.1.1.1.1.3.1.1.1.X. .` Q L O - - - - . . . O ' | | 1.1.1.1.3.1.1.1.1.1.1.1.1.1.1.$.} ` ) Q W W W ! Q ",
"o.Q ' ..,.<.<.<.<.<.<.<.<.<.<.<.<.<.<.1.1.,.| _ Q Q R A * . . O - - ; ' ,.1.<.<.<.<.1.,.<.<.<.<.<.<.<.<.<.,...` Q W R W E W W W ",
"o.! ) ' ..X.X.X.X.X.X.X.X.X.X.X.X.X.X.X.....' ` Q W L W T   - - - X Q { } X.X...X.X.X.X.X.X.X.X.X...X.X.X...{ ) ~ ! R R R T W W ",
"o.L ~ ` ' ' ' ' ' ' ' ' ' ' ' ' ' ' ' { { ' [ Q W W W T 6 O - - = p Q ) ' ' ' ' ' ' ' } ' ' ' } ' ' ' ' ' ' ) ~ W R ! ! W ! W W ",
"+.W ! L Q ) L ) Q Q ) Q Q ) ) Q ) L L ) Q Q Q W W ! W T   - - - + W W Q Q ) Q Q ) Q K Q Q Q ) L P Q P P Q Q ! W W R ! R R ! W R ",
"+.W W W Q Q L Q L Q L Q L L Q L Q L Q Q L Q W W W T ! E g   .   g W W Q L Q Q Q Q Q Q Q Q L Q L Q Q Q L L Q Q ! R ! R R E R R E "
};
