/* XPM */
static char *result[] = {
/* columns rows colors chars-per-pixel */
"64 64 127 2 ",
"   c #070507",
".  c #090506",
"X  c #070608",
"o  c #020A0D",
"O  c #150C0E",
"+  c #180C0F",
"@  c #16100F",
"#  c #140F10",
"$  c #1E0F13",
"%  c #051315",
"&  c #0D1217",
"*  c #01191A",
"=  c #1B1312",
"-  c #221716",
";  c #24141D",
":  c #2F1218",
">  c #23191A",
",  c #2C1E1C",
"<  c #36171E",
"1  c #31201F",
"2  c #09102A",
"3  c #131E30",
"4  c #271E21",
"5  c #2E1826",
"6  c #3D1921",
"7  c #381F2D",
"8  c #072023",
"9  c #10272E",
"0  c #1A263C",
"q  c #192D3C",
"w  c #1A323E",
"e  c #362524",
"r  c #392624",
"t  c #3F2927",
"y  c #302529",
"u  c #352B2F",
"i  c #3C2D2E",
"p  c #3E2230",
"a  c #3C2F34",
"s  c #2A383C",
"d  c #3D3336",
"f  c #3F3438",
"g  c #400F1E",
"h  c #401A22",
"j  c #442E2B",
"k  c #562024",
"l  c #453023",
"z  c #49312F",
"x  c #412433",
"c  c #463334",
"v  c #4B3634",
"b  c #4D3937",
"n  c #453438",
"m  c #47383E",
"M  c #4A393D",
"N  c #503633",
"B  c #523A37",
"V  c #593B37",
"C  c #533C3B",
"Z  c #5A3D3A",
"A  c #723928",
"S  c #5B4637",
"D  c #57403E",
"F  c #5C413E",
"G  c #62423E",
"H  c #22324D",
"J  c #4C3C42",
"K  c #513E43",
"L  c #4C4347",
"P  c #534046",
"I  c #5D4342",
"U  c #564248",
"Y  c #5C4549",
"T  c #564C50",
"R  c #5B4C52",
"E  c #5C5356",
"W  c #644644",
"Q  c #694742",
"!  c #664845",
"~  c #6C4B47",
"^  c #604749",
"/  c #664A4C",
"(  c #6A4B4A",
")  c #704A46",
"_  c #734E4A",
"`  c #784F4B",
"'  c #765643",
"]  c #77514C",
"[  c #7A524E",
"{  c #655355",
"}  c #6C5350",
"|  c #65565C",
" . c #6B5A5F",
".. c #765251",
"X. c #7F5550",
"o. c #7A5A56",
"O. c #735D60",
"+. c #6E6468",
"@. c #7C6161",
"#. c #941F2B",
"$. c #BC6720",
"%. c #F26404",
"&. c #9A4D42",
"*. c #80554F",
"=. c #815651",
"-. c #855954",
";. c #8A5B56",
":. c #BE5E58",
">. c #84635E",
",. c #8E6C5B",
"<. c #846562",
"1. c #827C7E",
"2. c #CF6F65",
"3. c #F18D19",
"4. c #E9CF34",
"5. c #AF8A63",
"6. c #DF8B79",
"7. c #6D7095",
"8. c #E89A85",
"9. c #EEAD91",
"0. c #F3B898",
"q. c #F9BE9D",
"w. c #FFC4A2",
"e. c #A7ACE2",
"r. c #B6BBEB",
"t. c #FCE0D2",
"y. c #F6F5F8",
/* pixels */
"d > e c B Z Z Z G F W G Q Q Q Q Q Q ~ Q Q Q W W K G G K I K W G G G W W Q Q Q Q Q Q Q Q ~ Q Q Q Q Q G G F Z Z C C n a y > u E +.",
"L a c C W W Q Q Q Q Q ~ ~ ) ) ) ~ ) ) ) ) ~ W I W K G K U K K K K I W Q ~ ~ ) ) ~ ( ) ) ) ) ) ) ) ) ~ ~ Q W I I K M n a p f E +.",
"E M P W ~ _ _ _ _ _ _ _ _ _ _ _ _ _ _ _ _ _ ( W Y K K K U U K K K U W ! _ _ _ _ _ ` ` ` _ _ _ ] ] ] _ ) _ ( ! Y K K J J J J T E ",
" .Y ^ ( _ ] ] ] ` ] ] ] ] ] ] [ [ ] ..] ] _ ( / Y Y K Y U = ; ; 4 ; > / _ [ ` ` ] ` ` ` ] ] ] ] ] ] ] [ ] _ ( / Y Y K U L U U U ",
"O.^ ( ( ] ] ] ] ] ] ] ] ] ] ] [ ] ] ] ] ` ` ` ( / / / K ; : : : : < : = = = = $ - ~ ) ) ` ` ` [ ] ] ] ] ] ] _ ( / / Y Y U P U U ",
"@.( ( _ ] ] ] ] ] [ ] ] ] ] ] ] ] ] ] ] W Q W W ! / K K a O 6 h < h 6 < < < < < < + # # W W ` _ ] ] ] ] ] ] ] [ ..../ Y U P Y Y ",
"<._ ] ] ] ] ] ] ] ] ] ] ] ] ] ] ] ] ` N # . + + + + + + # h h h h h h h h h 6 h h 6 6 6 # # V V ] ] ] ] ] ] [ =.-.o.../ Y U Y / ",
">.[ ] ] ] ] ] ] ] ] ] ] ] ] ] ] ` ` _ e $ 7 6 6 6 6 h h h h h h h h h h h h h h h h h h h 6 + # j ] ] ] ] ] *.;.;.-.../ U U Y ( ",
"o.` ] ] ] ] ] ] ] ] ] ] ] ] ] ] ` ..` ] j # 7 7 7 7 5 h h h h h h h h h h h h h h h h h h h h h $ r _ [ ` [ *.-.;.-.../ R K / / ",
"] ] ] ] ] ] ] ] ] ] ] [ ] ] ] ] ` [ ` ` ` N # O 5 5 6 h h h h h h h h h h h h h h h h h h h h h h : > ~ [ ` =.-.;.-.../ Y K ^ ( ",
"~ [ ` ] ] ] ] ] ] ] ] ] ] ] ] ] _ [ _ Q = # 6 < 6 6 h h h h h h h h h h h h h h h h h h h h h h h h < = _ [ [ -.;.-.../ Y Y ^ / ",
"G ] [ ] ] ] ] ] ] ] ] ] ] ] ] ] [ ` Z # 6 6 6 6 h h h h h h h h h h h h h h h h h h h h h h h h h h 6 O V ` =.-.;.-.../ Y K ^ ( ",
"~ ' [ [ ] ] ] ] ] ] ] ] [ ] ] ] [ z O 6 h h h h h h h h h h h h h h h h h h h h h h h h h h h h h h h < . ` X.-.;.;.../ K R Y / ",
"G [ ] [ ] ] ] [ ] ] ] ] ] ] ] ` r $ h h h h h h h h h h h h h h h h h h 5 5 5 h h h h h h h h h h h h h + 7 [ -.;.;...{ Y K ^ / ",
"Q ] ] ] ] ] ] ] ] ] ] ] ] ] ) , : h h h h h h h h h h h h h h h h h 5 5 7 7 7 5 h h h h h 5 5 5 5 h h h 6 X ` -.;.-.../ ^ K ^ ( ",
"Q ] ] ] ] ] ] ] ] ] ] ) = = = : h 5 5 5 5 5 6 6 h h h h h h h 6 5 5 7 x x x 5 h h h h 6 5 p p p 7 5 h h 6 6 $ ..;.-.../ Y K ^ / ",
"Q ] ] ] ] ] ] ] ] ] ] ) = < ; 5 5 x h p 5 5 . . 6 6 6 h h h 6 5 p p x x x 5 O 6 h h 6 5 x 5 5 5 x x 5 < h 6 . [ ;.-.../ Y U Y / ",
"Q ] ] ] ] ] ] ] ] ] ] ] _ , - 4 , 5 x 5 # # 6 6 6 5 5 h h 6 5 p x x x p 5 O 6 h h 6 5 x , < < < 5 x x 5 h 6 $ V ;.-.../ Y U Y ( ",
"Q ] ] ] ] ] ] ] ] ] ] ] ] ] ] e e e + $ h 6 5 7 7 x 5 h h 5 x x x x x p   5 h h 5 7 p ; k &.&.2.. p x 7 6 h 6 X -.-.../ Y U ^ ( ",
"Q ] ] ] ] ] ] ] ] ] ] ] ] ] ] ] _ e + h 5 7 7 x x 5 6 h 5 7 x x x x p $ 5 5 h 5 7 x p . h &.8.0.O x x x 5 h 6 . -.-.../ Y U Y ( ",
"Q ] [ ] ] ] ] ] ] ] ] ] ] ] ] ] W . 6 5 7 x x x x 5 h 6 5 x x x x x p . p 5 6 5 x x + 5 5 , q.0.O 7 x p 5 h 6 . -.-.../ U U Y ( ",
"Q ] ] ] ] ] ] ] ] ] ] ] ] ] ] _ O 7 5 p 7 x x x p 5 6 . 7 x x x x x 7 . 5 6 5 p x 7 $ 5 5 r 0.0.O p x x 6 < 6 . -.-.../ U U ^ ( ",
"Q ] ] ] ] ] ] ] ` ] ] ] ] ] _ V + 5 p p . p x x p 5 : O p x x x x 7 . 7 5 6 5 x p . :.k S 0.w.q.O p x x p 5 6 X -.-.../ Y U Y ( ",
"G ] ' ] [ [ [ [ [ [ [ [ [ [ ` . p x x 4 $ x x x x p . p x x x x x p . p x 5 p p ; . A A ,.w.w.w.O 7 x x p 5 $ r =.o.../ Y U Y ( ",
"F ( ] ] [ *.*.*.*.[ *.=.[ [ r , p $ $ ; x x x x x x . 7 x x x x x p . 7 x 7 x p . 7.< g G *.0.G , p x x x 5 . ] [ ` ( ^ Y U Y ( ",
"D Q _ [ *.-.-.-.-.-.-.-.-.-.V + + V . p x x x x x 7 . x x x x x x $ &.$ x x x p % e.k #.%.k 9.. p x x x p 5 . ] _ ( ^ I P U Y ( ",
"B W ~ [ -.;.;.>.;.;.;.;.;.;.>.] ` =.. p x x x x x x 7 . p x x x p . :.. 7 x p + e.r.k %.3.#.9.O p x x x x ; O ~ W G I P U U ^ ( ",
"b I ! ] *.-.-.-.;.-.-.-.-.-.-.-.-.=.. p x x x x x x p . p x x x p . :.6 5 p 7 l t.y.G $.4.#.9.l 5 x x x p . W ~ I P P P P U I ( ",
"b I ^ ~ ] [ [ [ [ [ [ [ [ [ [ [ [ _ . p x x x x x x p . x x x x p . 2.:.. 7 . 0.w.t.t.,.5.:.q.q.S ; x x p . ! ! U K U K P U Y ( ",
"M P I Y ! ~ ~ _ ~ ~ ~ _ ~ ! ~ _ ) !   p p ; x x x x x ; ; p x x p . 2.6.A ; ,.q.w.w.w.t.2.w.w.w.q.O p x p X I Y I U K K P U Y / ",
"M P I I I I G I I I W I I I W I I Z + 7 O r O x x x x 7 . 7 x p $ &.2.q.9.5.w.w.w.w.w.w.w.w.w.w.0.O p p O t I U P P P L U U ^ ( ",
"m L P I I I I F F I F F I F F F K W v $ v D O y x x x O a O 7 p . 2.2.0.w.w.w.w.w.w.w.w.w.w.w.q.9.O 7 p . D P P K P P P P U Y ( ",
"m P U I I W W W W W W W W W W W W Q W F W W C X p x 7 # P i & 5 O &.:.2.9.w.w.w.w.w.w.w.w.w.w.0.< B   y   F I Y P P K L K U ^ / ",
"m P Y ! ( ~ ~ ~ ~ ~ ~ ~ ~ ~ ~ Q ~ ~ ~ ( ~ ( I > 5 p X J u O q % q % O &.&.9.w.w.w.w.w.w.w.w.w.q.O G , 5 , ^ ^ Y K L P K L U ^ ( ",
"m P Y ( _ _ _ _ ] _ ( ] ] ' ] ] ] _ _ _ _ ( ^ ^ 4 O 4 J X q w 9 9 9 * o o A ,.8.w.w.w.w.w.w.q.,.e _ ) j _ ( / Y U U K U K Y ^ / ",
"D Y Y ( _ ] ] ] ] ] ] ] ] ] ] ] ] ] ] ] ] ] _ ^ Y a U = 9 q 8 o o o o * * o o k S 6.6.6.6.6.6.. _ ] ] ] ] ` ( / Y U U U K K ^ / ",
"D Y ! _ ] ] ] ] ] ] ] ] ] ] ] ] ] ] ] ] ] ] _ ( / / U $ q X o % % % % o o * * o o : : : : < < V _ [ ] ] ] ] _ ( / / / K R K / } ",
"P / ( ] ] ] ] ] ] ] ] ] ] ] ] ] ] ] ] ] ] [ ] ..W W U c % * q q q q q q 0 o o o % % % % 9 9 . _ ] ] ] ] ] ] ] ] ..../ R K K ^ / ",
"W _ ] ] ] ] ] ] ] ] ] ] ] ] ] ] ] ] ] ] ] V Z Z + & & & q w w w w w w w w w w q o o o o o 3   ) ] ] ] ] ] [ [ =.-.=.../ R K ^ / ",
"Q ] ] ] ] ] ] ] ] ] ] ] ] ] ] ] ] ] ] j z & % % w w w w w w w w w w w w w w w w w w w w S   r _ ] ] ] ] ] [ =.-.;.-.....K K ^ ( ",
"W ] ] ] ] ] ] ] ] ] ] ] ] ] ] ] ] e , * 3 w w w w w w w w w w w w w w w w w w w w w w s 3.+ _ ] ..[ ` ` ..` =.-.;.-.../ K K / ..",
"! ] ] ] ] ] ] ] ] ] ] ] ] ] [ ) - % % w w w w w w w w w w w w w w w w w w w w w w w s $.l V _ ] _ ` [ [ ` ` *.-.;.-.../ R K Y / ",
"G [ [ ] ] ] ] ] ] ] ] ] ] ] Q @ % 8 q w w w w w w w w w w w w w w w w w w w w w w w s $.O _ ] ] [ [ ` ....` *.=.;.-.../ Y K Y / ",
"Q ' [ [ ] ] ] ] ] ] ] ] ] V O * * w w w w w w w w w w w w w w w w w w w w w w q S S $.- ) ] ] ] ` ` ` ` ` ` =.-.;.-.../ Y K / / ",
"Q ] ] ] ] ] ] ] ] ] ] ] ) . * * 8 w w w w w w w w w w w w w w w w w w w w s ' ' &.&., _ ] ] ] ] ..` ] ] ` [ =.-.;.-.=./ K Y / / ",
"Q ] ] ] ] ] ] ] ] ] ] ] _ . * * w w w w w w w w w w w w w w w w w w w * * * A A 6   _ ] ] ] ] ] ` ` ] ] ` ` =.-.;.;.../ R K Y / ",
"Q ] ] ] ] ] ] ] ] ] ] _ , % * * w w w w w w w w w w w w w w 2 8 % % % 3 3 3 3 . < N ] ] ] ] ] ] ] ] ] ] ..*.=.-.;.-.../ Y K / / ",
"Q ] ] ] ] ] ] ] ] ] ] _   * * * w w w w w w w w w q w 8 * * o o 0 0 0 H H H H 0 0 - W ] ] ] ] ] ] ] ] ] ......-.;.-.../ Y K ^ ( ",
"Q ] ] ] ] ] ] ] [ ] ] ) . * * * w w w w w w w q q 8 * % o o q H H H H H H H H H H q O G ] ] ] ] ] ] ] ] [ [ *.-.;.-.../ Y U Y ( ",
"Q ] ] ] ] ] ] ] ] ] [ ( , % * * 9 w w w w w 9 * * % o o 2 2 H H H H H H H H H H H H q + ] ] ] ] ] ] ] ] ' [ *.-.;.-.../ Y U Y ( ",
"Q ] ] ] ] ] ] ] ] ] ] ] ] . * * * 9 9 9 9 * * * o . 2 2 2 2 0 H H H H H H H H H H H H 3 j ] ] ] ] ] ] ] ` [ *.-.;.-.../ Y U ^ ( ",
"Q ] ] ] ] ] ] ] ] ] ] ] ] j X * * * * * * * * . N X 2 2 2 2 2 3 H H H H H H H H H H H H . ) ] ] ] ] [ ..` *.*.-.;.-.../ U U ^ / ",
"_ ] ] ] ] ] ] ] ] ] ] ] ] ] # * * * * * * * . G -.. 2 2 2 2 2 2 3 H H H H H H H H H H H . _ ] ] ] [ [ [ =.=.-.-.;.-.../ Y U Y ( ",
"..] ] ] ] ] ] ] ` ] ] ] ] ] W @ % * * * * % - -.;.. 2 2 2 2 2 2 2 2 2 q q 0 H H H q q 0 . _ ] ] ] [ [ =.=.;.;.;.;.-.../ U U Y ( ",
"o.] ] ] ] ] ] [ ] ] ` ] ] ] ] ~ - % % * *   *.;.-.. 2 2 2 2 2 2 2 2 2 2 2 2 2 3 9 . . . > ) ] ] ] [ X.=.;.;.;.;.;.;.../ Y U / / ",
"o.] ] ] ] ] ' X.[ [ [ [ [ [ [ [ ] r 1 o o t =.;.*.. 2 2 2 2 2 2 2 2 2 2 2 % o O O g O r ] [ [ [ [ [ =.-.;.>.;.;.-.=.../ U U ^ ^ ",
"} _ ] [ [ X.X.X.*.*.[ *.*.*.*.[ [ -.-.N N -.-.=._ . 2 2 2 2 2 2 2 2 o . z z . g g g . ] *.*.*.*.*.*.=.;.;.;.-.=.X...~ Y U U Y ^ ",
"} ! ~ ] *.-.-.-.-.-.-.-.-.-.-.;.-.-.-.;.;.;.=.] ~ . 2 2 2 2 2 2   O B C [ 1 < g g + G -.-.-.*.-.-.-.;.;.;.;.=.[ ] ^ Y Y U P I I ",
"} F _ ] -.;.;.;.;.;.;.;.;.;.;.;.;.;.;.>.;.;.*.' W . 2 2 2 . .   v C _ ] *.. : : @ ) ;.>.;.;.;.;.;.;.;.;.;.;.X.( Q F I I P P P I ",
"{ I ~ ] *.-.*.>.;.-.-.-.-.-.-.-.;.-.-.-.-.*.] Q Z $ 2 . . 6 : = C I ~ ] [ > = - [ -.-.-.-.;.*.;.-.-.;.-.-.*.] ~ I P P P P L P P ",
"{ I I ( ] [ [ [ [ [ [ [ [ [ [ [ ] [ [ [ ] ] ( ^ U C   g g g   K P I ^ ( ] [ [ [ ] [ [ [ [ [ [ ] [ [ [ [ [ _ ( ! Y K K U P P P K ",
"{ I Y ! ~ ~ ~ ~ ~ ~ ~ _ ~ ~ ~ ~ ~ _ ~ ~ ( ~ ! I P C   g g O y K P I I Y ~ ~ ~ ~ ~ _ ~ ~ ~ ~ ~ _ ~ ~ ~ ~ ~ ~ ^ I U Y K K L K K U ",
"| I I I I W I I I I W F I W I I W I F W I I D I U J O g g O K P L P I I I W I I W I I ^ I I W I F W I I W I I U K K K L U K P P ",
"| L P P I F I F I F F I F F I F F I F I F I P U P P a   . a L L P P P I F I F I F I F S I F F I F I F I F I U U K U K L K K L P "
};
