/* XPM */
static char *result[] = {
/* columns rows colors chars-per-pixel */
"64 64 124 2 ",
"   c #070507",
".  c #090506",
"X  c #070608",
"o  c #010A0D",
"O  c #0E0B0D",
"+  c #120C0D",
"@  c #170D11",
"#  c #1B0C10",
"$  c #041314",
"%  c #03191B",
"&  c #1B1213",
"*  c #1F171A",
"=  c #2E0B16",
"-  c #221715",
";  c #24141D",
":  c #261B1C",
">  c #2C1E1C",
",  c #37171E",
"<  c #31201E",
"1  c #0B1E26",
"2  c #091029",
"3  c #2B1621",
"4  c #271E20",
"5  c #311927",
"6  c #3F1921",
"7  c #351D2B",
"8  c #142534",
"9  c #182E39",
"0  c #1A323E",
"q  c #2D2327",
"w  c #342525",
"e  c #382524",
"r  c #3E2927",
"t  c #3C212F",
"y  c #352B2F",
"u  c #3B2C2E",
"i  c #3D2F34",
"p  c #3A3537",
"a  c #3F3438",
"s  c #3D3F3B",
"d  c #400F1E",
"f  c #421C23",
"g  c #6E1420",
"h  c #422D2B",
"j  c #512225",
"k  c #44312F",
"l  c #4A322F",
"z  c #402332",
"x  c #453334",
"c  c #4B3534",
"v  c #4D3937",
"b  c #443439",
"n  c #47383E",
"m  c #4B393D",
"M  c #503633",
"N  c #573B37",
"B  c #543C3B",
"V  c #5C3E3C",
"C  c #693A2B",
"Z  c #5C413E",
"A  c #62423E",
"S  c #684F3F",
"D  c #1E2C45",
"F  c #22314D",
"G  c #4C3C42",
"H  c #523E42",
"J  c #4C4347",
"K  c #534046",
"L  c #5C4342",
"P  c #564248",
"I  c #5C4549",
"U  c #564C50",
"Y  c #5B4C52",
"T  c #5C5356",
"R  c #634644",
"E  c #694742",
"W  c #664844",
"Q  c #6C4B47",
"!  c #604749",
"~  c #664A4C",
"^  c #6A4B4A",
"/  c #704B46",
"(  c #734E4A",
")  c #77514C",
"_  c #7A524E",
"`  c #655355",
"'  c #6C5350",
"]  c #65565C",
"[  c #6B5A5F",
"{  c #765251",
"}  c #7F5550",
"|  c #7A5A56",
" . c #735D60",
".. c #6E6468",
"X. c #7C6161",
"o. c #941F2B",
"O. c #96541A",
"+. c #9A472E",
"@. c #BC6720",
"#. c #F26404",
"$. c #80554F",
"%. c #815651",
"&. c #855954",
"*. c #8A5B56",
"=. c #A24F52",
"-. c #84635E",
";. c #846562",
":. c #926F60",
">. c #827C7E",
",. c #C9645C",
"<. c #D37469",
"1. c #F18D18",
"2. c #E9CF34",
"3. c #CC8C7A",
"4. c #6D7095",
"5. c #DC9C84",
"6. c #EFAE92",
"7. c #F3B898",
"8. c #FBBF9D",
"9. c #FFC4A1",
"0. c #A7ACE2",
"q. c #BBBFEE",
"w. c #FCE0D2",
"e. c #F6F5F8",
/* pixels */
"p 4 w x N V V V V V E E E E E E E E E E E E W A H A L L H R H A L A A R E E E E E E E E E E E E E E E V V V V V B c t q 4 y T 4.",
"J u x B R E E E E E E Q E / / / / ( ( / / / W R L H L H I H I H H I A R / / / / / / / / / ( / / / / / E W W H H H m G a y a ! ..",
"` m H R ^ ( ( ( ( ( ( ( ( ( ( ( ( ( ) ( ( ( ! R Y H H H H P H H H H ~ ^ ( ( { ( ) ( ( ( ( ) ( ( ( ) ( ( ( ( ! R H H H G s Z P U ",
"[ I ! ^ ( ) ) ) ( _ ( ) _ ( _ _ ) ) ) ) _ ( ^ ~ ~ H I H P H H H H ~ ~ ^ ( ) ) ) ) ) ) ) ) ) ) ) ) ) ) ) ) ( ^ ~ R H P H J P K P ",
" .! ~ ^ ) ) ) ) ) ) ) ) _ _ ( _ ) ) ) ) _ ( ( ^ ~ ~ H * @ @ @ @ - H W ~ / ( / ) ( ) ) ) ) ) ) ) ) ) ) ) ) ) ( ^ ~ ~ I I K K P I ",
"X.^ ^ ( ) ) ) ) ) ) ) ) ( _ ) ( ) ) ) ) ( _ { { { { # 3 , 5 , , 6 O O O @ O # A E E ) ) ) ) ) ) ) ) ) ) ) ) { ) { { ~ I P K I I ",
";.( ) ) ) ) ) ) _ ) ) ) ) ) ) ) ) ) N N N N V V A H M @ f 6 6 6 6 6 6 6 6 6 6 @ + + N N ) ) ) ) ) ) ) ) ) _ _ %.&.} { ~ I P I ~ ",
"-.) ) ) ) ) ) ) ) ) ) ) ) ) ) ) ( h # + # # # # # # = , f 6 6 6 6 6 6 6 6 6 6 6 f f # # h l ) ) ) ) ) _ ) _ $.&.*.&.{ ~ P P I ^ ",
"%.) ) ) ) ) ) ) ) ) _ ) ) ) ) ) ( h # 7 5 5 5 5 f f f 6 6 6 6 6 6 6 6 6 6 6 6 6 6 6 f 6 = # e ) ) ) ) ) ) _ $.%.*.&.{ ~ I P Y ^ ",
") ) ) ) ) ) ) ) ) ) ) ) ) ) ) ) ) ) N O 7 7 t t 5 6 6 6 6 6 6 6 6 6 6 6 6 6 6 6 6 6 6 6 f d ; - / ) ) ) ) _ $.&.*.&.{ ~ I H ! ^ ",
"Q ) ) ) ) ) ) ) ) ) ) ) ) ) ) ) ) ) E N # + 3 5 6 6 6 6 6 6 6 6 6 6 6 6 6 6 6 6 6 6 6 6 f f d 5 # R ( ) ) _ $.&.*.&.{ ~ Y H ! ~ ",
"E ) _ ) ) ) ) ) ) ) ) ) ) ) ) ) _ N + @ 6 6 6 6 6 6 6 6 6 6 6 6 6 6 6 6 6 6 6 6 6 6 6 6 , f f 6 , @ ) ) ) _ $.&.*.&.{ ` H H ! ^ ",
"E ) ) ) ) ) ) ) ) ) ) ) _ ) ) ) l @ 6 6 6 6 6 6 6 6 6 6 6 6 6 6 6 6 6 6 6 6 6 6 6 6 6 6 6 6 6 6 f # h ( _ _ $.&.*.&.{ ~ I H ~ ^ ",
"E ) ) ) ) ) ) _ ) ) ) ) ) ) ) e # 6 6 6 6 6 6 6 6 6 6 6 6 6 6 6 6 6 6 6 6 6 6 6 6 6 6 6 6 6 6 6 6 6 X ( _ { $.&.*.*.{ ~ Y H I ^ ",
"E ) ) ) ) ) ) ) ) ) ) ) ) / > ; 6 6 6 6 6 6 6 6 6 6 6 6 6 6 6 f 6 f 5 5 5 6 6 6 6 6 6 6 6 6 6 6 6 6 3 > ( { } &.*.&.{ ~ Y H ~ ~ ",
"E ) ) ) ) ) ) ) ) ) Q / E - 3 f 6 6 6 6 6 6 6 6 6 6 6 6 6 6 6 f 3 5 t t t 5 6 6 6 6 6 5 5 5 5 6 6 f f X E { } &.*.&.{ { H H ! ^ ",
"E ) ) ) ) ) ) ) ) ( + + + , f 5 5 5 5 5 , , f , , f d 6 6 6 5 5 t z z z ; 6 6 6 6 f 5 z z z t 7 6 6 6 , + ) $.&.&.&.{ ~ Y H ~ ^ ",
"E ) ) ) ) ) ) ) ) ( > ; # 5 7 z z 7 3 3 # # f , , f f 6 , 5 z z z z z 3 # 6 6 6 , 5 z 3 ; 3 t z 5 , 6 6 . ) $.&.*.&.{ ^ H H ~ ~ ",
"E ) ) ) ) ) ) ) ) ) ) e e ; ; ; z ; # # f , 5 7 3 f f , 5 z z z z z ; # 6 6 6 5 7 z ; j j f ; t z 3 6 6 + h $.&.*.&.{ ~ Y H I ^ ",
"E ) ) ) ) ) ) ) ) ) ) ) ) M l h # = f 5 5 7 7 z ; f f 3 z z z z z t . 5 6 6 5 t z # C =.=.3.. t z 7 5 6 f . _ &.*.&.{ ~ H H ~ ^ ",
"S ) ) ) ) ) ) ) ) ) ) ) ) ) ) - 3 f 5 t f z z 7 , 6 5 7 z z z z t + 5 3 6 5 t z t . 3 =.6.7.+ t z z 3 6 6 . $.*.*.&.{ { H I ~ ^ ",
"E ) ) ) ) ) ) ) ) ) ) ) ) ( A @ 5 5 z z z z z 3 f , 5 z z z z z z . t 3 f 5 z z . 7 7 # 7.7.+ t z z 3 6 6 . $.*.*.&.{ ~ Y H ! ^ ",
"E ) ) ) ) ) ) ) ) ) ) ) ) ) O 7 5 f 5 z z z z 3 f . t z z z z z 5 # 3 6 3 z t 5 f 3 3 C 8.7.+ t z z 5 6 6 X &.*.*.*.{ ~ Y H ! ^ ",
"E ( ) ) _ _ _ ) _ _ _ ) ) h @ 5 z z X t z z z 5 # # z z z z z t . 7 7 5 w z z . ,.C W 8.9.7.+ t z z z 3 6   &.&.*.%.{ ~ H H ! ~ ",
"Z Q ) ) _ $.$.$.$._ $.$.) . z z z # 3 t z z z t X z z z z z z t . f z 5 z z - . j C S 8.9.7.+ t z z t 3 # l &.&.{ { ^ I H I ~ ^ ",
"V E ( ) $.&.&.&.&.&.&.$.< 5 t & @ 3 t t z z z t . t z z z z z t X z z 7 z 7 . 4.= g +.C 6.C 5 z z z z 3 X &.$.) ( ~ ^ ! H H I ^ ",
"B R Q ) &.*.*.*.*.*.*.*.Q & & A X z z z z z z t X 7 z z z z t # =.# z z z 7 1 0.j o.#.g 6.. t z z z z , X $._ ( R A H I H H I ^ ",
"v L ^ ) $.&.&.-.&.&.&.&.*.$.%.} . t z z z z z z t . t z z z t . ,.X z z z O q.q.j #.1.o.6.. t z z z z ; ; _ ) ^ I H H H H H ~ ^ ",
"v L R ^ ) ) _ _ _ _ _ _ _ _ ) ) . t z z z z z z t . z z z z t . ,.j 3 z 5 S w.e.:.+.2.o.6.W 3 t z z t . ) ) ^ R Y H H H Y H ` ^ ",
"n K L I Q ^ Q Q Q Q Q Q Q Q Q W X t z z z z z z t . z z z z t . ,.,.. t . 8.8.w.w.3.:.<.8.9.:.; z z t . E ^ R I H H H H H H I ^ ",
"n K L L L L R L L R Z R L L R Z X t t # t z z z z 3 # z z z t . ,.5.+.3 3.8.9.8.9.w.3.9.9.9.8.+ t z t O H A I Y H H H Y H H I ~ ",
"n K K Z L Z Z L L L Z L L Z Z Z + 7 # h @ z z z z t O 7 z t # =.<.8.7.5.9.9.9.9.9.8.9.9.9.9.7.+ t t @ c A ! H H H Y H H H H ~ ^ ",
"n J I L L R W R R R R R R R E E Z & B R & 7 z t t   b & 7 z . ,.<.6.9.9.9.9.9.9.9.9.9.9.9.8.5.@ 7 t . A R R I P K K H J H H Y ^ ",
"n P L ! Q Q Q Q Q Q Q Q Q Q Q Q Q W Q Q E o z t 5 * J u # ; $ +.+.<.6.9.9.9.9.9.9.9.9.9.9.7.O Z   t X E Q ^ R I K J P H H U ! ^ ",
"n I I W ' ( ( ( ( ( ) ) ) Q ( ( ) ( ( ( / w 3 t   G q % 9 % 0 % o C C 5.9.9.9.9.9.9.9.9.9.8.@ E e + w ( ( Q ~ I K K K J H H ! ~ ",
"n I ~ Q ( ) ) ) ) ) ) ) ) ) ) ) ) ) ) ) ) ( h O u H . 0 0 8 1 1 % o o j S 3.8.9.9.9.9.9.8.S l ) ) v ) ) ) ) ^ ~ I I P K H H ! ^ ",
"Z I ^ ^ ) ) ) ) ) ) ) ) ) ) ) ) ) ) ) / ( ( ^ B ~ & 8 9 1 o . . o % % $ o 3 z <.<.<.<.<.<.+ ) ) ) ) ) ) ) ) ) ^ ~ ~ ~ H Y H ` { ",
"Z ~ ^ ) ) ) ) ) ) ) ) ) ) ) ) ) ) E A & + + # R R   8 o o % % % % o o $ $ $ $ + + + # # # A ) ) ) ) ) ) ) ) ) ) { { ~ I H H I ~ ",
"A ' ) ) ) ) ) ) ) ) ) ) ) ) ) N N O @ 9 0 0 9 @ @ o o 1 0 0 0 0 0 0 9 o o o $ o $ $ 1 9 . ( ) ) ) ) ) ) ) ) _ %.&.&.{ ~ Y H ! ^ ",
"E ) ) ) ) ) ) ) ) ) ) ) ) l h @ $ 0 0 0 0 0 0 0 0 0 0 0 0 0 0 0 0 0 0 0 0 0 $ $ o o o % . ( ) ) ) ) ) ) ) _ %.*.*.&.{ { H H I ^ ",
"E ) ) ) ) ) ) ) ) ) ) ) e % 1 0 0 0 0 0 0 0 0 0 0 0 0 0 0 0 0 0 0 0 0 0 0 0 0 0 8 8 O.  h ( ) ) _ ( _ _ ( _ } &.*.&.{ ~ Y Y ~ ~ ",
"E ) ) ) ) ) ) ) ) ) / - 8 0 0 0 0 0 0 0 0 0 0 0 0 0 0 0 0 0 0 0 0 0 0 0 0 0 0 0 0 0 1.+ ) ) ) ) ( _ ( ( _ _ } &.*.&.{ ~ H H ! ~ ",
"E ) ) ) ) ) ) ) ) ) A   0 0 0 0 0 0 0 0 0 0 0 0 0 0 0 0 0 0 0 0 0 0 0 0 0 0 0 0 s @., A ) ) ) ) _ _ _ _ _ _ $.&.*.&.{ ~ I P ! ~ ",
"E ) ) ) ) ) ) ) ) ) + % 0 0 0 0 0 0 0 0 0 0 0 0 0 0 0 0 0 0 0 0 0 0 0 0 0 9 S S @.@.- ( ) ) ) ) _ ( ( _ ( _ $.&.*.&.{ Y I P ! ~ ",
"S ) ) ) ) ) ) ) ) ) . % 0 0 0 0 0 0 0 0 0 0 0 0 0 0 0 0 0 0 0 0 0 0 0 0 S S O.O.> > ( ) ) ) ) _ ( ( _ ( _ _ $.%.*.*.{ ~ H I ! ~ ",
"E ) ) ) ) ) ) ) ) w   % 0 0 0 0 0 0 0 0 0 0 0 8 8 8 8 8 8 8 8 8 % % % 1 C C 6   ( ( ) ) ) ) ) ) _ _ _ _ ( _ $.&.*.*.{ ~ I H ! ~ ",
"E ) ) ) ) ) ) ) (   % % 9 0 0 0 0 0 0 1 1 1 1 % % o o o o o o o 8 8 . j j j , M ( ) ) ) ) ) ) ) ) ) ( _ { _ %.&.*.&.{ ~ I H ! ~ ",
"E ) ) ) ) ) ) ) / . % % 1 9 9 0 1 1 % $ O + O O . 2 2 8 8 8 8 8 F F 8 # # # 8 - E ) ) ) ) ) ) ) _ _ ( _ { { %.&.*.&.{ ~ I I ! ~ ",
"E ) ) ) ) ) ) ) ( & % % % % 1 % % $ & & S / ( ( . 2 2 F F F F F F F F F F F F D + / ) ) ) ) ) ) ) ) ) ) ) _ $.&.*.&.{ ^ H H ~ ^ ",
"E ) ) ) ) ) ) ) ) / . % % % % % $ < ( ( ) ) $.$.. 2 2 F F F F F F F F F F F F F # M ) ) ) ) _ ) ) ) ) ) ) _ $.&.*.&.{ ~ H Y ~ ^ ",
"E ) ) ) ) ) ) ) ) ( . % % % %   < ) ) ) ) _ $.$.. 2 2 F F F F F F F F F F F F F F . / _ ) ) ) ) ) ) ) ) _ _ $.&.*.&.{ ~ I H I ~ ",
"Q ) ) ) ) ) ) ) ) ) l . % % % . ) ) ) ) _ _ %.$.. 2 2 F F F F F F F F F F F F F F . ( ) ) ) ) ) ) ) ) _ _ { %.&.*.&.{ ~ I H ! ~ ",
"( ) ) ) ) ) ) ) ) ) ) + % %   N ) ) } } $.$.&.$.. 2 2 1 F F F F F F F F F F F F F 8 - ( ) ) ) ) ) _ { $.$.$.&.*.*.&.{ ~ H I ~ ~ ",
") ) ) ) ) ) ) ) ) ) ( S & $ & / ) ) } } &.&.&./ . 2 2 2 D F F F F F F F F F F F F F . ( ) ) ) ) ) _ $.%.%.%.*.*.*.&.{ ~ Y H ~ ~ ",
"| ) ) ) ) ) ) ) ) ) ) ) / > Q ) ) _ $.$.*.*.$.+ 2 2 2 2 2 8 F F F F F F F F F F F F @ N ( ) ) ) ) _ $.%.*.*.*.*.*.*.{ ~ I H I ~ ",
"| ) ) ) ) ) _ _ _ _ _ _ ) _ _ ) _ _ $.*.*.*.&.. 2 2 2 2 2 2 D 8 F F F F F F F F F F F . ) _ _ ) _ _ %.&.*.*.*.*.&.&.{ ~ I H ! ~ ",
"' Q ) ) } _ } } $.$.$.$._ $.%.$.} %.&.*.*.&.h . 2 2 2 2 2 2 2 2 8 8 8 F F F F F F F % . ) %.%.$.$.&.%.*.*.*.&.%.%.{ ^ ~ H H Y ~ ",
"' W ( _ } &.&.&.&.&.&.&.&.&.&.&.&.&.&.*.-.$.. 2 2 2 2 2 2 2 2 2 2 2 2 1 1 1 1 $ o + = . _ &.&.&.%.&.*.*.*.*.%.{ ^ ~ E ! H H H ! ",
"' R ^ _ &.*.*.*.*.&.*.*.*.*.&.*.*.*.*.*.*.$.. 2 2 2 2 2 2 2 2 O + O + + @ + + = = = d = # &.*.*.*.*.*.*.*.*.%./ E A H H H H H I ",
"` L W ) } *.&.*.&.*.*.&.&.&.&.&.&.&.*.&.*._ . . X X X     @ * H B V R Q _ %._ : = d d d . %.&.&.&.&.&.&.*.%.) E I H H I H H H H ",
"` L I Q ) ) _ _ ) _ _ _ } _ _ _ _ _ _ _ ( c @ d d d = = * H H H K L R ^ ) ) ) ( > = d d @ c ) ) _ _ { _ { ) / R H H H H H H H H ",
"` Z L ! Q Q ^ Q Q Q ^ Q Q ^ ^ E Q Q ^ Q E   d d # # 4 5 H J J H K L I I Q Q Q ( ^ r # d d   W Q / ^ ^ / E ^ ! I H H Y H Y H H H ",
"] L P Z L A L R R L R Z R L R R R Z A L L h @ @ i i K K P H J K J K L L L R L R L V . , d . Z L A R A R I A Y H H H G H Y H Y H ",
"] J Z P L L Z Z L Z Z L Z Z L V L Z L L L L b b H H J K K H H K K H K L Z L Z Z R V l . . . Z L Z L A H R I I H H Y U H G H H H "
};
