/* XPM */
static char *result[] = {
/* columns rows colors chars-per-pixel */
"64 64 123 2 ",
"   c #070507",
".  c #0A0506",
"X  c #070608",
"o  c #020B0D",
"O  c #0F0B0D",
"+  c #130C0E",
"@  c #140E11",
"#  c #041315",
"$  c #00191A",
"%  c #1B1212",
"&  c #1D1619",
"*  c #200E14",
"=  c #211515",
"-  c #2A141A",
";  c #241B1C",
":  c #291B1A",
">  c #37171F",
",  c #30211E",
"<  c #091029",
"1  c #0E1E2B",
"2  c #2B1723",
"3  c #281E21",
"4  c #311927",
"5  c #3D1921",
"6  c #381F2D",
"7  c #142633",
"8  c #182E39",
"9  c #1A323E",
"0  c #2F2122",
"q  c #362524",
"w  c #3B2725",
"e  c #3E2827",
"r  c #352A2E",
"t  c #3B2C2D",
"y  c #3E2230",
"u  c #3C2F34",
"i  c #2D393C",
"p  c #3A3537",
"a  c #3F3438",
"s  c #400F1E",
"d  c #401A22",
"f  c #422C2A",
"g  c #562024",
"h  c #453023",
"j  c #4A322F",
"k  c #412433",
"l  c #453232",
"z  c #4B3532",
"x  c #4D3937",
"c  c #453438",
"v  c #4D3739",
"b  c #47383E",
"n  c #4B393D",
"m  c #513633",
"M  c #523B37",
"N  c #593B37",
"B  c #533C3B",
"V  c #5A3D3A",
"C  c #71382A",
"Z  c #5B4536",
"A  c #5C413E",
"S  c #62423E",
"D  c #1E2C45",
"F  c #22314C",
"G  c #4D3C42",
"H  c #523F43",
"J  c #4C4347",
"K  c #534046",
"L  c #5D4342",
"P  c #564248",
"I  c #5C4549",
"U  c #564C50",
"Y  c #5B4C52",
"T  c #5C5356",
"R  c #644644",
"E  c #694742",
"W  c #664845",
"Q  c #6C4B47",
"!  c #604749",
"~  c #664A4C",
"^  c #6A4B4A",
"/  c #704A46",
"(  c #734E4A",
")  c #784F4B",
"_  c #765643",
"`  c #77514C",
"'  c #7A524E",
"]  c #655355",
"[  c #6C5350",
"{  c #65565C",
"}  c #6B5A5F",
"|  c #765251",
" . c #7F5550",
".. c #7A5A56",
"X. c #735D60",
"o. c #6E6468",
"O. c #7C6161",
"+. c #941F2B",
"@. c #BC6720",
"#. c #F26404",
"$. c #9A4E42",
"%. c #815651",
"&. c #855954",
"*. c #8A5B56",
"=. c #BE5E58",
"-. c #84635E",
";. c #8E6C5B",
":. c #846562",
">. c #827C7E",
",. c #CF6F65",
"<. c #F18D19",
"1. c #E9CF34",
"2. c #D68B74",
"3. c #6D7095",
"4. c #E89A85",
"5. c #EEAD91",
"6. c #F3B898",
"7. c #F9BE9D",
"8. c #FFC4A2",
"9. c #A7ACE2",
"0. c #B6BBEB",
"q. c #FCE0D2",
"w. c #F6F5F8",
/* pixels */
"p 3 q l M V V V S H S E E E E E E E Q S / S R R A L H R I L L S L S S E E E E E E E Q S Q E S Q S E S S S V V B B c u q 3 r T 3.",
"J t c B R W E E E E E Q Q / / / / Q / Q / ( E R L H H H H I H H H I L E / / / / Q / / / / / Q Q _ / Q / E R L K H v c u r u U o.",
"T n H R Q ( ( ( ) ( ( ( ) ( ( ( / ` ( ( ) Q E I I H H H H H H H H H W ^ ( ( ) ) ( ( ( ( ) ` / ` ( ( ( ( ( ^ W I H H G G n J L Y ",
"} I ! ^ ( ` ` ` ) ) ) ` ` ` ` ` ` ' ' ' ' ` ^ ~ I ! H : & & & & 2 H ~ ^ ( | ( | ` ` ' ` ' ` ' ` ' ) ' ) ` ( ^ ~ I I P H K K K K ",
"} ^ ^ ( | ` ` ` ` ` ` ` ` ` ` ` ' ` ` ' ( | ) ^ ^ ! - - - - - - - % % % % % % Q ( / ` ' ` ` ` ` ' ( ` ` ` ( ` ^ ~ ~ Y P K K P I ",
"O.Q ^ ( ( ` ` ` ` ` ` ` ` ` ` ` ) ' R S E E R E W R v + 5 5 d d > > > > 5 5 4 + + % S R ` ` ` ` ` ' ' ` ' ` ` ` | ` ^ I K K I I ",
":.( ` ( ` ` ` ` ` ` ' ` ` ` ` ` ( m @   @ + + + @ + @ d 5 d d d d d d d d d d d 5 > + + V N ` ` ` ` ` ` ` ' ' %.&. .| ~ P I I ~ ",
"-.` ` ` ` ` ` ` ' ` ' ` ` ` ` ` / 6 % 4 5 5 > > d d d d d d d d d d d d d d d d d d d d + @ f | ` ` ` ` ` ' ' &.*.&.| ~ I K I ^ ",
"..` ` ` ` ` ` ` ` ` ` ` ` ` ` ' ` ` f % 6 6 6 6 4 d d d d d d d d d d d d d d d d d d d d d * q ` ` ` ` ) ' ' &.*.&.| ~ I P ! ~ ",
"` ` ' ` ` ` ` ` ` ` ` ` ` ` ' ( ) ( ( N @ + 4 4 > d d d d d d d d d d d d d d d d d d d d d d - : Q ` ` ) ) %.&.*.&.| ~ I H ! ~ ",
"Q ` ` ` ` ` ` ` ` ` ` ` ` ` ` ` ( E % % > > 5 5 d d d d d d d d d d d d d d d d d d d d d d d d > % ( ) ) | %.&.*.&.| ~ I H ! ~ ",
"S ` ` ` ) ` ` ` ` ` ` ` ` ` ` ` N + > 5 d d d d d d d d d d d d d d d d d d d d d d d d d d d d 5 + V ) ` ' ' &.*.&.| ] P I ! ^ ",
"Q _ ' ' ` ` ` ` ` ` ` ` ` ' ` j + 5 d d d d d d d d d d d d d d d d 5 d d d d d d d d d d d d d d 5 . ( ) ' %.&.*.&...~ I P Y ^ ",
"S ' ` ` ` ' ` ` ` ` ` ' ` ( , * d d d d d d d d d d d d d d d d d d 4 4 4 d d d d d d d d d d d d 5 % w ) ' %.&.*.&.| ~ P P ! ~ ",
"E ` ` ` ` ` ` ` ` ` ' ( ( : - d d d d d d d d d d d d d d d d d 4 4 y 6 6 4 d d d d d 4 4 4 4 5 d d 5 . E | %.&.*.&.| ~ I I ! ~ ",
"E ` ` ` ` ` ` ` ' / % % % - d 4 4 4 4 4 > 5 d d d d d d d 5 4 4 6 d k k 2 5 d d d 5 4 y y y 6 4 d d d 4 & )  .&.*.&.| ~ H H ! ^ ",
"E ` ` ` ` ` ` ` ` / % 2 - 4 4 k k k 2 4 . . 5 5 5 d d d 5 4 6 k k k k 4 + > d d 5 4 k 4 4 4 k y 4 5 d 5 . ( %.&.*.&.| ~ I P ! ~ ",
"E ` ` ` ` ` ` ` ` ` ( : : 2 2 2 k - + + 5 5 5 2 2 d d > 4 y k k k k - + d d d > 4 k 2 > > > - k d 2 d 5 + m ' &.*.&.| ~ I P ! ^ ",
"E ` ` ` ` ` ` ` ` ` ` ` ` , w , = * d 5 4 6 6 y 2 d d 2 k k k k k k . 4 d d 4 6 y - g $.$.,.. k k 6 5 5 5 . ` &.*.&.| ~ P P I ^ ",
"E ` ` ` ` ` ` ` ` ` ` ` ' ` ` q * d 4 6 6 k k 4 > d 4 6 k k k k k * 2 2 d 4 6 k y . d $.4.6.+ 6 k k 2 d d . ' &.*.&.| ~ I I I ^ ",
"E ` ` ` ` ` ` ` ' ` ` ` ( ' R . 5 4 6 k k k y 2 d 5 2 k k k k k 6 . k 2 > 2 k k + 4 4 2 7.6.+ k k y 2 d 5 . ' *.*.&.| ~ P P ! ^ ",
"E ` ` ` ` ` ` ` ` ` ` ` ' / % 6 4 y 6 k k k y 2 5 . 6 k k k k k 6 . 2 > 2 y k 6 * 4 4 6 6.6.+ 6 k y 4 5 5 . %.*.*.&.| ~ P P I ^ ",
"E ` ` ` ` ` ` ` ( ' ' ' ( N + 4 y y . y k k y 4 - + y k k k k y . 6 4 > 4 k y . =.g Z 6.8.6.+ k k k k 2 5 X &.*.*.&.| ~ I P I ^ ",
"R ` ` ` ` `  ._ ' ' ' ' ( . y k k - * y k k k y . y k k k k k y . k k 2 y k - . C C ;.8.8.7.+ 6 k k y 2 * f &.*.&.&.| ~ P P ! ^ ",
"A ^ ` ` ' %.%.' %.%.' ' w : k * * - k k k k k y . y k k k k k y . 6 k 6 k k . 3.% s C _ 6._ 2 k k k k 2 . %.&.%...| ^ I P P I ^ ",
"V E ` ` %.&.&.&.&.&.&.&.N + + N X y k k k k k y . y k k k k y % $.* k k k 6 # 9.g +.#.g 5.. k k k k y 2 . &.%._ ( W ! I P P I ^ ",
"x R Q ` &.*.*.-.*.*.*.*.-.) ` %.. y k k k k k k 6 . y y k k y . =.. k k k + 9.0.g #.<.+.5.+ 6 k k k k - % %.' ` W R L L K P ! ^ ",
"x L ^ ` %.&.&.&.%.*.&.&.&.&.&. .. y k k k k k k y . y k k k y . =.d 2 k 6 h q.w._ @.1.+.5.h 2 k k k y . ( %.` E L H H H H I I ^ ",
"x L ! ^ ` ' ' ' ' ' ' ' ' ' ' ` . y k k k k k k y . k k k k y . ,.=.. 6 . 6.8.q.q.;.2.=.7.7.Z 2 y k y . ` ` ^ ! I P P H K P ! ^ ",
"x K L ! Q Q Q Q Q Q Q Q Q ^ Q Q   y y - y k k k y - - y k k y . ,.2.C - ;.7.8.8.8.q.,.8.8.8.7.+ y k y   E E ! I P H H P J P I ^ ",
"b K K L L L L R S L R L L R A A O 6 + e % y k k k y . 6 k y * $.,.7.5.2.8.8.8.8.8.8.8.8.8.8.6.+ y y + f L L L P H H H H H I ! ^ ",
"b K K L L A A L A A A A A L L A z @ z A + 6 k k y @ u @ 6 y . ,.,.6.8.8.8.8.8.8.8.8.8.8.8.7.5.O 6 y   V L L K P H P J H H H I ^ ",
"b K L I R R R W R R R R R R R E W A W W B   k k 6 @ H u + 4 + $.=.,.5.8.8.8.8.8.8.8.8.8.8.6.> M   4 . R W W I K K K P H J P Y ~ ",
"b K I ! W Q Q Q Q Q Q Q Q Q Q Q Q ^ E Q Q ; 2 y X G r O 8 # 8 # O $.$.5.8.8.8.8.8.8.8.8.8.7.@ W ; 2 ; W ^ E R I K K H K H P ! ^ ",
"b K I W [ _ ` Q ^ ` ` _ ` ^ ` / ( ` ( ( ( Q q % 3 G   8 9 7 7 7 # o o C ;.4.8.8.8.8.8.8.7.;., ( ( f / ( ` ^ ~ I P K K J H H ! ~ ",
"n I ! ~ ` ` ` ` ` ` ` ` ` ` ` ` ` ` ` ` ) ( ^ l I ; 1 8 1 o o o o $ $ o o g Z 2.2.2.2.2.2.. ` _ ` ` ` ` ` ( ^ ~ I P P K I H ! ~ ",
"K ! ^ ^ ` ` ` ` ` ` ` ` ` ` ` ` ` ` ` ` ` ` ( ^ ~ O 8 o o # # # # o o $ $ o o - > - > - > N ` ` ` ` ` ` ` ` ( ^ ~ ~ ~ H H Y I ~ ",
"A ^ ^ ` ` ` ` ` ` ` ` ` ` ` ` ` ` ` ` ` ` ( ` | | R   $ 8 8 8 8 8 8 $ o . o # # # # 7 7 . / ` ` ` ` ` ` ` ` | ` | | ~ Y I H ! ^ ",
"R ( ` ` ` ` ` ` ` ` ` ` ` ` ` ` ` ` ` ` ' ' ' &.&.H @ 8 9 9 9 9 9 9 9 8 1 1 o o o o o 1 X ` ` ` ` ` ` ` ` `  .%.&.%.| ~ I H ! ~ ",
"R ` ` ` ` ` ` ` ` ` ` ` ` ` ` ` ` ` ` ` ) ) %.&.&.. 8 8 9 9 9 9 9 9 9 9 9 9 9 1 7 7 Z   q Q ' ` ` ` ` ` ` ` %.&.*.&.| ~ I H ! ^ ",
"E ' ` ` ` ` ` ` ` ` ` ` ` ` ` ` ` ` ` ` ` ' %.%.f 1 9 9 9 9 9 9 9 9 9 9 9 9 9 9 9 i <.+ / ` ` ` ) ) | ) ) ) %.&.*.&.| ~ H H ~ ^ ",
"S ` ` ` ` ` ` ` ` ` ` ` ` ` ` ` ` ` ` ` ` ` %.' . 9 9 9 9 9 9 9 9 9 9 9 9 9 9 9 i @.h N ` ` ` ` ) | ) | ) ) %.&.*.&.| ] Y H ! ^ ",
"E | ` ` ` ` ` ' ` ` ` ` ` Q ` ` ` ` ` ` ( ' Q % 8 9 9 9 9 9 9 9 9 9 9 9 9 9 9 9 i @.% / ` ` ` ` ) ` ) ) ) | %.%.*.&.| ~ H I ! ~ ",
"E _ ` ` ` ` ` ` ` ` ` ` N % N ` ` ` ` ` ' N + 8 9 9 9 9 9 9 9 9 9 9 9 9 9 9 8 Z @.% Q ' ` ` ` ` ` ` ) ) ) | %.&.*.&.| ~ Y H ! ~ ",
"S ` ' ( ` ` ` ` ` ` ` ( . $ . f m ' ' ( j + 9 9 9 9 9 9 9 9 9 9 9 9 9 9 9 9 _ $., ( ` ` ` ` ` ` ` ` ` ` ) | %.%.*.*.| ~ I Y ~ ~ ",
"Q ` ` ' ` ` ` ` ` ` ` ( . $ $ o o , w w $ 9 9 9 9 9 9 9 9 9 9 9 9 9 9 9 7 $.C f ` ' ` ` ` ` ` ` ` ` ` ` ) ) %.&.*.*.| ~ H H ! ^ ",
"S ' ( ' ` ` ` ` ` ` ` / + $ $ $ $ # # # # # # # 8 9 9 8 # # # # # # 1 1 o h 1 : / ` ` ` ` ` ` ` ` ` ` ` ) %.| &.*.*.| ~ I H ! ~ ",
"S ' ' ' ' ` ` ` ` ` ` ` S   $ $ $ $ $ $ # # # # o o o o # # # # # # o o 7 7 F   ( ' ` ` ` ` ` ' ` ` ` ` | | %.&.*.&.| ~ I H ! ^ ",
"Q ' _ ` ` ` ` ` ` ` ` ` ( % # $ $ $ $ $ $ $ $ $ $ $ $ $ $ # # # o o D F F F F + S ` ` ` ` ` ` ` ` ` ` ` ` ' %.&.*.&.| ~ I P I ^ ",
"S ' ` ` ` ` ` ` ` ` ` ` ' ( : # $ $ $ $ $ $ $ $ $ # # # # o o # F F F F F F F F + / ` ` ` ` ` ` ` ' ` ` ` ` %.&.*.&.| ~ I P I ^ ",
"Q ` ` ` ` ` ` ` ` ` ` ` ` ' ' w o o o o o o o o o e . o o < < F F F F F F F F F . / ` ` ' ( ` ` ` ` ` ` _  .' &.*.&.| ~ I P ! ^ ",
"Q ` ` ` ` ` ` ` ` ` ` ` ` ( ' ( m j z z j m m m V  .. < < < < F F F F F F F F F . / ` ` ` ' ` ' ` ` ` ' ' ' %.&.*.&.| ~ P P I ^ ",
"( ( ` ` ` ` ` ` ` ` ` ` ` ` ' ` ) _ ' ' ' %.&.&.*.= < < < < D F F F F F F F F F 7 % ` ` ` ` ` ( ` ' '  . .%.&.*.*.&.| ~ I P I ~ ",
"' ` ` ` ` ` ` ` ` ` ` ` ` ` ` ` ) '  .%.&.&.*.*.&.. < < < < D F F F F F F F F F F X / ` ` ` ` ' ` ' ` %.%.&.*.*.*.&.| ~ P P ! ^ ",
"..` ` ` ` ` ` ` ` ` ) ' ' ( ` ` ) ' %.%.&.*.*.*.S . < < < < < F F F F F F F F F 7 : ` ` ' ' _ ) ` ` %.&.*.*.*.*.*.&.| ~ I P ! ^ ",
"..( ` ` ` ' ' ' ' ' ) ' ' ' ' ' ) ' %.&.*.;.*.%.. < < < < < < 7 F F F F F F F F   ( ' ' ' ' ' ) '  .%.&.*.*.*.*.&.&.| ~ P P I ~ ",
"..^ ( ` ) %.%.%.' %.%.%.' %.%.' ' &.&.&.*.*.&.' . < < < < < < < 7 1 F F F F F + j ' %.' %.%.' %.%.%.&.&.*.*.&.%. .| ^ ! K P L ! ",
"[ E ( ' &.&.%.&.&.&.%.*.&.&.&.&.*.&.*.&.*.*.%.` O < < < < < < < < < 1 1 F F + S &.&.&.&.&.&.&.*.%.&.*.*.*.*.%.' ( ~ R I K K I I ",
"~ R Q ` &.*.&.-.*.&.*.&.*.&.*.*.*.*.*.*.*.&.%._ B + + O < < < < < < < < < % / *.*.*.*.*.*.*.*.&.*.*.*.*.;.&. .^ R S L K K K K A ",
"~ L E _ %.&.&.-.&.*.*.&.*.*.%.*.&.&.&.-.&.&.` S L B B v . . . . . . . % = ' &.&.&.&.&.-.&.&.&.&.&.&.&.&.&.%.` E L K K K K K K K ",
"] L W ^ ' ' ' ' ' ' ' ' ' ' ' ' ' ' ' ' ' ` ^ E L K K q + > s s . % : W ' ' ' ' ' ' ' ' ' ' ' ' ' ` ' ' ' ` ^ W I H H P J K K K ",
"] K L W W Q Q Q Q Q Q Q Q Q Q E Q Q ^ Q Q Q ! I K K G X s s s * 3 q I ! E Q Q ^ Q Q ^ Q Q ^ Q Q / Q Q Q ^ E W I P H P H K K J K ",
"{ K P L L R S L L L L R R L A R R A R L A L L K K K G O s s + r K K L L R L L R R A A R L R R A A R R A L L L P P H J H H J H H ",
"{ K K K L A L L L A A L A A L A L A A L A L K K K H H a     a K J K K K A L A A L A L L A A L A L L A L L L K P K H H P H K H K "
};
