/* XPM */
static char *result[] = {
/* columns rows colors chars-per-pixel */
"64 64 126 2 ",
"   c #040506",
".  c #080405",
"X  c #0F090B",
"o  c #140B0D",
"O  c #050D17",
"+  c #0B0E13",
"@  c #130E10",
"#  c #1C0D11",
"$  c #051315",
"%  c #01191A",
"&  c #151012",
"*  c #1B1212",
"=  c #200F15",
"-  c #211515",
";  c #2F1218",
":  c #23191A",
">  c #2C1E1C",
",  c #34151B",
"<  c #0A112B",
"1  c #0E1E2A",
"2  c #291622",
"3  c #271E21",
"4  c #311927",
"5  c #3C1821",
"6  c #351D2B",
"7  c #10272E",
"8  c #192C3B",
"9  c #1A323E",
"0  c #2F2121",
"q  c #2F2529",
"w  c #362524",
"e  c #392524",
"r  c #3E2826",
"t  c #3C212F",
"y  c #352B2F",
"u  c #3B2D2F",
"i  c #3C2F34",
"p  c #2A383C",
"a  c #3A3537",
"s  c #3F3438",
"d  c #400F1E",
"f  c #401A22",
"g  c #442E2C",
"h  c #562024",
"j  c #453023",
"k  c #4B322F",
"l  c #402332",
"z  c #453333",
"x  c #4B3533",
"c  c #4D3937",
"v  c #453438",
"b  c #4D3738",
"n  c #47383E",
"m  c #4A393D",
"M  c #503633",
"N  c #513A37",
"B  c #593B37",
"V  c #543C3A",
"C  c #5A3D39",
"Z  c #723928",
"A  c #5B4637",
"S  c #5C413E",
"D  c #62423E",
"F  c #22324D",
"G  c #4C3C42",
"H  c #513E43",
"J  c #4C4347",
"K  c #534046",
"L  c #5D4342",
"P  c #564248",
"I  c #5C4549",
"U  c #564C50",
"Y  c #5B4C52",
"T  c #5C5356",
"R  c #644644",
"E  c #694742",
"W  c #664844",
"Q  c #6C4B47",
"!  c #604749",
"~  c #664A4C",
"^  c #6A4B4A",
"/  c #704A46",
"(  c #734E4A",
")  c #784F4B",
"_  c #765643",
"`  c #77514C",
"'  c #7A524E",
"]  c #655355",
"[  c #6C5350",
"{  c #65565C",
"}  c #6B5A5F",
"|  c #765251",
" . c #7F5550",
".. c #7A5A56",
"X. c #735D60",
"o. c #6E6468",
"O. c #7C6161",
"+. c #941F2B",
"@. c #BC6720",
"#. c #F26404",
"$. c #9A4D42",
"%. c #80554F",
"&. c #815651",
"*. c #855954",
"=. c #8A5B56",
"-. c #BE5E58",
";. c #84635E",
":. c #8E6C5B",
">. c #846562",
",. c #827C7E",
"<. c #CF6F65",
"1. c #F99B08",
"2. c #EA8025",
"3. c #E9CF34",
"4. c #AF8A63",
"5. c #DF8B79",
"6. c #6D7095",
"7. c #E89A85",
"8. c #EEAD91",
"9. c #F3B898",
"0. c #F9BE9D",
"q. c #FFC4A2",
"w. c #A7ACE2",
"e. c #B6BBEB",
"r. c #FCE0D2",
"t. c #F6F5F8",
/* pixels */
"a : y g N C C C C R R D E E E E E E E E E E R D L H R C H R L D D L D R E E E E E E E E E E E E E E D D S C C V m b i w 2 y T o.",
"J u v V R E E E E E E Q Q / / / Q Q / / / Q E R L H R H I H H H H I R E Q Q / / Q Q / / / / Q / / / Q Q W R L L H m v i y a T o.",
"] m L R ^ ( ( ( ( ( ( ( ( ( ) ) ( ` ( ( ` Q ^ I P K H H H P H H H I ! ~ ( ( ) ) ` ( ( ( ` ` ` / ( ` ` ( ( ^ W I H H H G G G U T ",
"} P ! ^ ( ` ` ` ( ) ' ` ` ` ` ) ` ` ` ` ` ) ^ ~ I P P 2 * : : : ; H ~ ^ | ( ) ( ` ` ` ` ` ` ` ` ` ` ` ` ` ` Q ! I P H P H K P P ",
"X.! ^ ^ ` ' ` ` ` ` ` ` ` ` ` ` ' ) ` ) | ( | ^ ^ ! - ; ; ; ; ; ; * * * * * - ( ( ( ` ` ` ` ' ` ` ` ` ` ` ` ` ^ ~ ~ I I K P P P ",
"O.^ ^ ( ` ` ` ` ` ` ` ' ` ` ` ` ` ) E E E E E E R E b o 5 f f f f , , , , , , o X # D E ` ' ( ` ` ` ` ` ` ` ' ' | | ~ I P K I I ",
">.( ` ( ` ` ` ` ` ` ` ` ` ` ` ` ) x o + o o o o @ # o 5 f f f f f f f f f f 5 5 5 5 o o C B ' ' ` ` ` ` ` ' ' &.*...| ~ P P I ~ ",
">.` ` ` ` ` ` ` ` ` ` ` ` ` ` ` ( e # 6 5 5 5 5 f f 5 f f f f f f f f f f f f 5 f f f 5 # o g ( ` ` ` ` ` ` %.*.=.*.| ~ I P I ^ ",
"..` ` ` ` ' ` ` ` ` ` ` ` ` ` ` ` ` g = 6 6 6 6 4 f f f f f f f f f f f f f f f f f f f f f # w ( ) ( ) ) ' ' *.=.*.| ~ H H ~ ^ ",
"` ` ` ` ` ) ' ` ` ` ` ` ` ` ` ` ` ` ( M = # 4 4 5 f f f f f f f f f f f f f f f f f f f f f f ; : Q ) | | ) %.*.=.*...~ Y H ! ^ ",
"Q ` ` ` ` ` ` ` ` ` ` ` ` ` ` ` ` E * * , , 5 5 f f f f f f f f f f f f f f f f f f f f f f f f , * ) ) ) ) %.*.=.*.| ~ Y H ! ^ ",
"W ` ' _ ) ` ` ` ` ` ` ` ` ` ` ` C o , 5 f f f f f f f f f f f f f f f f f f f f f f f f f f f f 5 # V ) )  .%.*.=.*.| ~ H H ! ~ ",
"E ` ` ` ` ` ` ` ` ` ` ` ` ` ` g = 5 f f f f f f f f f f f f f f f f f f f f f f f f f f f f f f 5 5 . ( | ) &.*.=.=.| ~ Y H ~ ^ ",
"E ` ` ` ` ` ` ` ` ` ` ` ` ` e # f f f f f f f f f f f f f f f f f f 4 4 4 f f f f f f f f f f f f 5 = e ) ' &.*.=.=.| ~ I H ~ ^ ",
"E ` ` ` ` ` ` ` ` ` ` ` ) > ; f f f f f f f f f f f f f f f f f 4 4 t t t 4 f f f f f 4 4 4 4 f f f 5 . ^ ' | *.=.*.| ] ! H I ^ ",
"E ` ` ` ` ` ` ` ` / - & & ; f 4 4 4 4 4 5 5 f f f f f f f 5 4 4 t t l l 2 5 f f f 5 4 t t t t 4 5 f f , # ) &.*.=.*.| | H H I ^ ",
"W ` ` ` ` ` ` ' ` ( - ; 2 4 4 l l l 4 4 X X 5 5 5 f f f 5 4 t l l l l 4 o 5 f f 5 4 l 4 4 4 l l 4 5 f 5 . ) %.*.=.*.| ~ I P I ~ ",
"D ` ` ` ` ` ` ` ` ` / > : 2 2 : l 2 # # 5 5 5 4 2 f f 5 4 l l l l l 2 # , f f 5 4 l 2 , , , 2 l l 2 f 5 = B ' &.=.*.| ~ I P I ^ ",
"Q ' ' ` ` ` ` ` ` ` ` ' ` w w w = # f 5 4 6 6 l 2 f f 2 l l l l l l   4 f f 4 6 l 2 h $.$.<.X t l 6 5 f , . ' *.=.*.| ~ I H ! ^ ",
"D ' ' _ ` ` ` ` ` ` ` ` ` ' ` w = f 4 6 6 l l 4 5 f 4 t l l l l l # 2 2 f 4 t l t   f $.7.9.X t l l 2 f f . ' *.=.=.| ^ P I I ^ ",
"E ` ` ` ` ` ` ` ` ` ` ` ` ` E . 5 6 t l l l l 2 f 5 2 l l l l l t   t 2 5 2 l l X 4 4 2 0.9.X t l l 2 f 5 . %.*.=.*...~ I P Y ^ ",
"E ` ` ` ` ` ` ` ` ` ` ` ` ( & 6 6 t t l l l l 2 5 X t l l l l l 6 o 2 5 2 t l 6 # 4 4 6 9.9.X t l l 4 5 5 . &.=.=.*.| ~ P P I ^ ",
"E ` ` ` ` ` ` ` ` ` ` ` ` B o 4 t t   t l l l 6 ; # l l l l l t   t 4 5 4 l t X -.h S 9.q.9.@ t l l l 2 5 . &.=.=.=.| ~ I I ! ^ ",
"D ` ` ` ` ' ' ' ' ' ' ' ( . t l l 2 # l l l l f   t l l l l l t   t t 2 l l 2   Z Z :.q.q.0.X f l l l 2 = g &.=.*.&.| ~ H H I ^ ",
"D Q ` ` %.%.%.%.' %.&.' e 2 t # # 2 l l l l l t   t l l l l l t   t l t l t o 6.; 5 Z _ 9._ 2 l l l l 2 . *.*.&.| | ^ ! P P ! ^ ",
"S W ( ` %.*.*.*.*.*.*.&.B o o V . l l l l l l t   t l l l l l # $.# l l l t $ w.h +.#.h 8.X l l l l l 2 . &.&.| ( ^ ! I H P ! ^ ",
"N R Q ' *.=.=.;.=.=.=.=.=.` ` *.. t l l l l l l 6 X t l l l t X -.X t l t X w.e.h #.1.+.8.X 6 l l l l 2 - %. .Q R R L L H P I ^ ",
"c L W ` %.*.*.*.=.*.*.*.*.*.*. .. t l l l l l l t   t l l l t X -.5 4 t 6 j r.t._ @.3.+.8.j 2 l l l t . ) &.` ^ L H H H H P ! ^ ",
"c L W ^ _ | ' ` ' ' ` ' ' ` ` ` . t l l l l l l t   l l l l t X <.-.  t X 9.q.r.r.:.4.-.0.0.A 2 l l t . ( ( ^ R ! H I H P P I ~ ",
"m K I ! Q Q Q Q Q Q Q Q Q ^ Q Q . t l 2 l l l l t 2 2 t l l t X <.5.Z 2 :.0.q.q.q.r.<.q.q.q.0.X t l t . E ^ R I I H H H H P ! ^ ",
"n K K L L L L R L R S R L R L S @ t # y = t l l l t o t l l # $.<.0.8.4.q.q.q.q.q.q.q.q.q.q.9.X l l - g L L P P H H H J H P ! ^ ",
"n K K S L L S L S L L S L S S S b @ b C o t l l l o i @ t t X <.<.9.q.q.q.q.q.q.q.q.q.q.q.0.8.o t 6   C L L L I H H H J H I I ^ ",
"n J I L R R R R R W W ! D R W W R S R R C . l l 6 & G i $ 4 X $.-.<.8.q.q.q.q.q.q.q.q.q.q.9., N   t . S R R I L K J H J H P Y ^ ",
"n L I ! W Q Q ^ Q Q Q ^ Q Q Q E Q Q Q Q W : 2 t   G y X 8 $ 8 $ X $.$.8.q.q.q.q.q.q.q.q.q.0.o E > 2 > W Q ^ ! I K H H J P P ! ^ ",
"n P I ~ Q ` ( ` _ ( _ Q ` ` ( ` ` ( ` ( ` ^ 0 = 3 G   8 9 7 7 7 %   O Z :.7.q.q.q.q.q.q.0.:.w Q Q g / ` ( Q ~ I P K K K H H I ^ ",
"G L ! ~ ` ` ` ` ` ( ` ` ` ` ` ` ` ` ` ` ` ( ^ z I : 1 8 1         % % O O h A 5.5.5.5.5.5.. ` ` ` ` ` ` ` ) Q ~ I P P K H H ! ^ ",
"m ! ^ Q ` ` ` ` ` ` ` ` ` ` ` ` ` ` ` ` ` ` ^ ^ ~ + 8 O   $ $ $ $     % % O O ; ; ; ; ; , B ` ` ` ` ' ` ` ` [ ^ ~ ~ ~ Y Y Y ~ ~ ",
"L ^ ^ ( ( ` ` ` ` ` ` ` ` ` ` ` ` ` ` ` ` ` E Q E V O $ 8 8 8 8 8 8 8 O     $ $ $ $ 7 7   ( ` ` ` ` ` ` ` ` ` ` | | ~ H H H I ^ ",
"E ( ` ` ` ` ` ` ` ` ` ' ` ` ` ` ` ` ` V C C o + + + 8 9 9 9 9 9 9 9 9 9 9 8 O O O O   1 . ( ` ` ` ` ` ` ` ' ' *.*.&.| ~ ! H I ^ ",
"E ` ` ' ` ` ` ` ` ` ` ` ` ` ` ` ` g g + $ $ 9 9 9 9 9 9 9 9 9 9 9 9 9 9 9 9 9 9 9 9 A . e / ` ` ` ` ` ` ` ' ' =.=.*.| | H H I ^ ",
"E ` ` ` ` ` ` ` ` ` ` ' ` ` ) w > % 1 9 9 9 9 9 9 9 9 9 9 9 9 9 9 9 9 9 9 9 9 9 9 p 2.* / ` ` ` ) ) ) ) ) ) &.*.=.*.| ~ H H ~ | ",
"E ` ` ` ` ` ` ` ` ` ` ` ` Q : $ $ 9 9 9 9 9 9 9 9 9 9 9 9 9 9 9 9 9 9 9 9 9 9 9 p @.j A ` ` ` ` ) | | | ) ) &.*.=.*.| ~ Y H I ~ ",
"E ` ` ` ` ` ` ` ' ` ( ) E & $ 1 8 9 9 9 9 9 9 9 9 9 9 9 9 9 9 9 9 9 9 9 9 9 9 9 p @.o ( ` ` ` ` ) ' ) ) ) | %.&.=.*.| ~ I H I ~ ",
"R ` ` ` ` ` ` ` ( ' ` C o % % 8 9 9 9 9 9 9 9 9 9 9 9 9 9 9 9 9 9 9 9 9 9 9 A A @.- Q ) ` ` ` ` | ( ) | ) ' &.*.=.*.| ~ H H ~ ^ ",
"E ` ` ` ` ` ` ` ` ` ( . % % 1 9 9 9 9 9 9 9 9 9 9 9 9 9 9 9 9 9 9 9 9 F D %.$.$.> / ` ` ` ` ` ` ' ` ` ` ) ' &.*.=.*.| ~ Y H ~ | ",
"E ` ` ` ` ` ` ` ' ` (   % % 9 9 9 9 9 9 9 9 9 9 9 9 9 9 9 9 9 9 9 % % % +.A f . _ ' ` ` ` ` ` ` ) ' ` ` ) ) &.*.=.*.| | I H I ~ ",
"W ` ` ` ` ' ` ` _ ( > $ % % 9 9 9 9 9 9 9 9 9 9 9 9 9 9 1 1 $ $ $ O O 1 7   > M ) ` ` ` ` ` ` ` ` ` ` ` | %.&.*.=.*.| ~ I H ~ ~ ",
"E ` ` ` ` ` ` ` ' / . % % % 9 9 9 9 9 9 9 9 9 8 8 1 % %     O O O < 8 F p 9 8 - E ` ` ` ` ` ` ` ` ` ` ` | | | *.=.*.| ~ I H I ~ ",
"E ` ` ` ` ` ` ` ` ( . % % % 9 9 9 9 9 9 9 9 8 1 % $     O < < < 1 F F F F F F 8 & D ) ` ` ` ` ` ` ' ` ` ' ' %.*.=.*.| ~ I P I ^ ",
"W ` ` ` ` ` ` ` ` ( > $ % % 7 9 9 9 9 8 7 % % $     < < < < < < F F F F F F F F 8 X ` ` ` ` ` ` ` ` ` ` _ ' %.*.=.*.| ~ I P I ^ ",
"D ` ` ` ` ` ` ` ` ` (   % % % 7 7 7 7 % % % O   < < < < < < < 1 F F F F F F F F F 1 g ` ` ` ` ` ` ` ` ` ) ' %.*.=.*.| ~ I P I ^ ",
"/ ` ` ` ` ` ` ` ` ` ) g + % % % % % % % % + k . < < < < < < < F F F F F F F F F F F . ) ` ` ` ` ` ` ` ' ) ' %.*.=.*.| ^ P P ! ^ ",
"` ` ` ` ` ` ` ' ` ` ` ` o % % % % % % % X D %.. < < < < < < < F F F F F F F F F F F . / ` ` ` ` ` ' ' ' *.*.*.=.=.*.| ~ P P I ^ ",
"` ` ` ` ` ` ` ` ) ` ` ) E & $ % % % % $ * %.%.. < < < < < < < F F F F F F F F F 8 8 . ` ` ` ` ` ` ' ' %.&.*.=.=.=.*.| ~ I P I ^ ",
"..` ` ` ` ` ` ` ` ` ` ` ) / : $ $ % $ . ' =.*.. < < < < < < < F F F F F F 8 1 o o   : / ) ` ` ) ` ' ' *.*.=.=.=.=.*.| ~ P I I ^ ",
"..` ` ` _ | ' ' ' ' ' ' ` ' ` e > O + r *.;.&.. < < < < < < < 8 F F 1 1 1 # o d * e ` ' ' ' ' ' ' ' &.*.=.;.=.=.*.*.| ~ I P I ~ ",
"| Q ` `  .'  . .' &.&.%.%.%.%.'  .k x *.=.=.%.. < < < < < < < < % + g k   d d d . ' %.%.%.%.%.%.' %.*.=.=.=.*.&...( ^ ! P K I ! ",
"[ ! ( ' *.*.*.*.=.&.&.*.*.*.*.*.*.*.=.=.=.=.' . < < < < < < + + x x Q > ; d d = D *.*.*.*.&.*.*.*.*.=.=.=.=.&.` ( ^ ! P P K I L ",
"[ S Q ' *.*.=.=.=.=.=.=.=.=.=.=.=.=.=.=.;.*.) . < O O       m b S R W   ; ; * / =.=.=.;.=.=.=.=.=.=.=.=.=.=. .( E L P L L J K S ",
"] L W ` *.*.*.*.&.=.*.*.*.*.*.*.=.*.*.*.=.%./ - O X X d ; @ H H S L E * - - ' =.*.*.*.*.*.*.*.*.*.=.*.*.*.&.` ^ L L K H G K K K ",
"] L I ^ ` ` ` ` | _ ` ` ' ' ' ' ' ' ' ' ' ( Q L . d d d   H H P S L W Q ) ` ` ' _ ' | ' ' ` ' ` ' ' ' ' | ( Q R I H H J K H P H ",
"] S L W Q Q ( ^ Q ( ^ ( Q Q Q Q Q Q Q Q Q ~ E L . d d = q H H H K K I ! Q Q Q ^ Q ^ Q Q ^ Q Q Q Q Q Q ^ Q ^ R I H I H H J H H P ",
"{ K L P R S L L L R R S S R R L R S L L R L R H X d d X H J J K K K K L L L L R L W R L L R L R R L L R L L I H I H H P P H K H ",
"{ K J L L L S L S L L S L L S L L L S S L L H H i     i H K H K J K K L L S L S L S S L S S L S S L S S L L L I H H H J H H J K "
};
