/* XPM */
static char *result[] = {
/* columns rows colors chars-per-pixel */
"64 64 124 2 ",
"   c #070405",
".  c #090506",
"X  c #010A0D",
"o  c #0F0B0C",
"O  c #130B0D",
"+  c #190B0F",
"@  c #0B0E13",
"#  c #150E11",
"$  c #1A0B10",
"%  c #041314",
"&  c #00191A",
"*  c #0D191F",
"=  c #1B1212",
"-  c #1F171A",
";  c #210D13",
":  c #3E0E1D",
">  c #221715",
",  c #24141D",
"<  c #261B1C",
"1  c #2C1E1C",
"2  c #37171E",
"3  c #31201E",
"4  c #080D22",
"5  c #091F25",
"6  c #0A112B",
"7  c #2B1621",
"8  c #271E20",
"9  c #311927",
"0  c #3F1A22",
"q  c #351D2B",
"w  c #112630",
"e  c #192D3B",
"r  c #1A323E",
"t  c #2D2327",
"y  c #342525",
"u  c #382524",
"i  c #3E2927",
"p  c #3C212F",
"a  c #352B2F",
"s  c #3B2C2E",
"d  c #3D2F34",
"f  c #3A3537",
"g  c #3F3438",
"h  c #6E1420",
"j  c #422D2B",
"k  c #512225",
"l  c #44312F",
"z  c #4A322F",
"x  c #402332",
"c  c #453334",
"v  c #4B3534",
"b  c #4F3D32",
"n  c #443439",
"m  c #47383E",
"M  c #4B393D",
"N  c #503633",
"B  c #573B37",
"V  c #543C3B",
"C  c #5C3E3C",
"Z  c #70382A",
"A  c #5C413E",
"S  c #5F4A3C",
"D  c #62423E",
"F  c #22314C",
"G  c #4C3C42",
"H  c #523E42",
"J  c #4C4347",
"K  c #534046",
"L  c #5C4342",
"P  c #564248",
"I  c #5C4549",
"U  c #564C50",
"Y  c #5B4C52",
"T  c #5C5356",
"R  c #634644",
"E  c #694742",
"W  c #664844",
"Q  c #6C4B47",
"!  c #604749",
"~  c #664A4C",
"^  c #6A4B4A",
"/  c #704B46",
"(  c #734E4A",
")  c #765643",
"_  c #77514C",
"`  c #7A524E",
"'  c #655355",
"]  c #6C5350",
"[  c #65565C",
"{  c #6B5A5F",
"}  c #765251",
"|  c #7F5550",
" . c #7A5A56",
".. c #735D60",
"X. c #6E6468",
"o. c #7C6161",
"O. c #941F2B",
"+. c #96541A",
"@. c #9A472E",
"#. c #BC6720",
"$. c #F26404",
"%. c #80554F",
"&. c #815651",
"*. c #855954",
"=. c #8A5B56",
"-. c #A24F52",
";. c #84635E",
":. c #846562",
">. c #926F60",
",. c #827C7E",
"<. c #C9645C",
"1. c #D37469",
"2. c #F18D18",
"3. c #E9CF34",
"4. c #CC8C7A",
"5. c #6D7095",
"6. c #DC9C84",
"7. c #F2B495",
"8. c #FBBF9D",
"9. c #FFC4A1",
"0. c #A7ACE2",
"q. c #BBBFEE",
"w. c #FCE0D2",
"e. c #F6F5F8",
/* pixels */
"f 8 y c B C C C C C E E E E E E E E E E E E R E H D L D H ! L D D D D R E E E E E E E E E E E E E E E D C C C V V v d q < a T 5.",
"J s c V R E E E E E E Q E / / / / / / / / / E R L H H H H I H I H H R ~ / / / / / / / / / / / / / / E E R E L H H M n d a g U o.",
"' M H R ^ ( ( ( ( ( ( ( ( ( ( ( ( _ _ ( ( ( ^ ! I H H H P H H H H H ~ ~ ( ( ( ( _ ( ( ( _ ( _ ( ( _ ( ( ( ( ! I H G G G m A J T ",
"{ I ! ^ ( _ _ _ ( ` ( _ ` ( ` ` _ _ _ _ _ ( ^ ! Y H I I H P H H H ~ ~ ^ ( _ _ ` _ _ _ _ _ _ _ _ _ _ _ _ _ ( ^ ~ I I H I J K K K ",
"..! ~ ^ _ _ _ _ _ _ _ _ ` ` ( ` _ _ _ _ _ _ ( ^ ^ ~ H = $ # # # > H ! W / / ( _ ( _ _ _ _ _ _ _ _ _ _ _ _ _ ( ^ ~ ~ I I K K P I ",
"o.^ ^ ( _ _ _ _ _ _ _ _ ( ` _ ( _ _ _ _ _ _ } _ } } = 7 0 9 2 2 2 O O + O O $ D E E _ _ _ _ _ _ _ _ ` _ _ ` ` _ } } ~ I P K I I ",
":.( _ _ _ _ _ _ ` _ _ _ _ _ _ _ ( _ B B B B C C D H N O 0 0 0 0 0 0 0 0 0 0 9 $ + O B B _ _ _ _ _ _ _ _ _ ` ` &.*. ._ ~ P P I ~ ",
";._ _ _ _ _ _ _ _ _ _ _ _ _ _ _ ` j $ O O $ + O $ O $ 0 0 0 0 0 0 0 0 0 0 0 0 0 0 0 + + j z _ ` _ _ _ _ _ ` %.*.=.*.} ~ I P I ^ ",
"*._ _ _ _ ` _ _ _ _ ` _ _ _ _ _ _ j + q 9 9 9 9 0 0 0 0 0 0 0 0 0 0 0 0 0 0 0 0 0 0 0 0 ; ; u _ ( ` _ _ _ ` %.*.=.*.} ^ P P Y ^ ",
"_ _ _ _ _ _ _ _ _ _ _ _ _ _ _ _ _ _ B O q p p x 9 0 0 0 0 0 0 0 0 0 0 0 0 0 0 0 0 0 0 0 0 0 7 > / ( ` _ _ ` ` *.=.*.} ~ I H ! ^ ",
"Q _ _ _ _ _ _ _ _ _ _ _ _ _ _ _ _ _ Q B + O , 9 0 0 0 0 0 0 0 0 0 0 0 0 0 0 0 0 0 0 0 0 0 0 0 2 ; E ( ` _ ` %.*.=.*.} ^ Y H ! ^ ",
"W _ _ _ _ _ _ _ _ _ _ _ _ _ _ _ _ B O O 2 0 0 0 0 0 0 0 0 0 0 0 0 0 0 0 0 0 0 0 0 0 0 0 0 0 0 0 7 + ( _ _ ` %.*.=.*.} ' H H I ^ ",
"W _ _ _ _ _ _ _ _ _ _ _ ` _ _ _ v O 0 0 0 0 0 0 0 0 0 0 0 0 0 0 0 0 0 0 0 0 0 0 0 0 0 0 0 0 0 0 0 $ z _ ` ` %.*.=.*.} ~ I Y ! ~ ",
"E _ _ _ _ _ _ _ _ _ _ _ _ _ _ u ; 0 0 0 0 0 0 0 0 0 0 0 0 0 0 0 0 0 0 0 0 0 0 0 0 0 0 0 0 0 0 0 0 0 . / ` } %.*.=.=.} ~ I H ! ^ ",
"D _ _ _ _ _ _ _ _ _ _ _ _ / 1 , 0 0 0 0 0 0 0 0 0 0 0 0 0 0 0 0 0 0 9 9 9 0 0 0 0 0 0 0 0 0 0 0 0 0 7 1 ( } | *.=.*.} ~ Y H ! ~ ",
"Q _ _ _ _ _ _ _ _ _ / / E > 7 0 0 0 0 0 0 0 0 0 0 0 0 0 0 0 0 0 9 9 q x p 9 0 0 0 0 0 9 9 9 9 0 0 0 0 . E } | *.=.*.} } H H ! ^ ",
"D ` _ _ _ _ _ _ _ ( O O O 2 0 9 9 9 9 9 2 2 0 0 0 0 0 0 0 0 9 9 p x x x , 0 0 0 0 0 9 x x x p 9 0 0 0 2 O ( %.%.=.*.} ~ I P Y ^ ",
"D ` _ _ _ _ _ _ _ ( 1 , ; 9 q x x x 9 , + O 0 2 2 0 0 0 2 9 x x x x x 7 O 0 0 0 2 9 x 7 , 7 x x 9 2 0 0 . _ %.=.=.*.} ^ P P ! ^ ",
"Q ` ` _ _ _ _ _ _ _ _ u u , , , x , O ; 0 2 9 q 7 0 0 2 q x x x x x , ; 0 0 0 9 q x , k k 0 , x x 7 0 0 $ j ` =.=.*.} ^ I H I ^ ",
"D | ) _ _ _ _ _ _ _ _ _ _ N z j + ; 0 9 9 q p x 7 0 0 7 x x x x x p . 9 0 0 9 p x ; Z -.-.4.. p x q 9 0 0   ` =.=.*.} ~ I H ! ^ ",
"E _ _ _ _ _ _ _ _ _ _ _ _ _ _ > 7 0 9 p p x x 9 2 0 9 p x x x x p + 9 , 0 9 x x p . 7 -.7.7.O x x x 7 0 0 . %.*.=.*.} ~ I I Y ~ ",
"E _ _ _ _ _ _ _ _ _ _ _ _ _ D + 2 9 x x x x x , 0 0 9 p x x x x x . x 7 0 9 x x . q q ; 7.7.# q x x 7 0 0 . %.=.=.*.| ~ P H ! ^ ",
"E _ _ _ _ _ _ _ _ _ _ _ _ _ O q 9 x 9 x x x x 2 0 . p x x x x x 9 O 7 0 , x x q 0 7 7 N 8.7.O p x x 9 0 0 . *.=.=.=.} ~ Y I ! ^ ",
"D _ _ _ ` ` ` ` ` _ ` _ _ j $ 9 x x . p x x p 9 ; ; x x x x x p . p q 2 q x x . <.Z ) 8.9.7.O p x x x 7 0 . *.*.*.*.} ^ H H H ^ ",
"D Q _ _ | | | | | | | | _ . x x x ; , x x x x p . x x x x x x p . p x 7 x x ; . k Z ) 8.8.7.O p x x x 7 $ z *.&.} } ^ ! H H ~ ^ ",
"A W _ _ &.*.&.*.*.*.*.` 3 9 p $ O 7 x x x x x p . p x x x x x p . p x p x p . 5.: h @.A 7.A q x x x x 7 . &.&.} ( ~ ! ! H I ! ^ ",
"V R Q _ *.=.=.=.=.=.=.*./ = = D . x x x x x x p . q x x x x p O -.+ p x x p 5 0.k O.$.h 7.  y x x x x 7 . &.` ( ! R L I H I I ~ ",
"b L W _ &.*.*.*.*.=.*.*.*.%.&.| . p x x x x x x p . p x x x p . <.. x x x O q.q.k $.2.O.7.  p p x x x , > %.` W L H H H H H ! ^ ",
"M L W ^ _ _ _ ` ` _ _ ` ` _ ` _ . p x x x x x x p . p x x x p . <.k 7 p 7 D w.e.>.@.3.O.7.D , x x x p . _ _ ^ R I H Y H H P Y ^ ",
"n K I W W Q Q Q ^ ( Q Q Q ^ Q W . p x x x x x x p . x x x x p . <.<.. p . 8.9.w.w.4.>.1.8.9.>., x x p . E ^ R ! H H H H P P ! ~ ",
"M K K L L L L R R L R R L R L A . p p ; p x x x x 7 O p x x p . <.6.@.1 4.8.9.8.9.w.4.9.9.9.8.+ x x p O H R ! H H H H H H H ! ^ ",
"m K K A L L S L A A A A L A A A O q O c + x x x x p O p x p O -.1.8.7.6.9.9.9.9.9.8.9.9.9.9.7.O p q O v L ! H H H Y H H Y H ! ~ ",
"n P P I W R R R R R R R R W E E A = A A = q x x p   n = q p . <.1.7.9.9.9.9.9.9.9.9.9.9.9.8.6.= q p   A R R L I K J J H H P Y ^ ",
"M K I W W Q Q ^ Q Q Q Q Q Q W Q Q W Q W R   x p 9 , J a @ , % @.@.1.7.9.9.9.9.9.9.9.9.9.9.7.O A   p . W Q W ! I K K K H P P I ^ ",
"m P I ! ^ _ Q _ _ _ Q _ _ _ ( ( _ _ ( _ ( y , p   G t * e * r * X Z Z 6.9.9.9.9.9.9.9.9.9.8.+ E u + u _ _ ^ ~ I K K J P H I I ~ ",
"M I W ~ _ _ _ _ _ _ _ _ _ _ _ _ _ _ _ _ _ ( l O a H . r r w 5 5 & X X k S 4.8.9.9.9.9.9.8.S z _ _ v _ _ _ _ ^ ~ I I P H H H ! ^ ",
"K W ~ ^ _ _ _ _ _ _ _ _ _ _ _ _ _ _ _ _ Q _ Q V ^ = w e 5 X . . X & & % X 7 x 1.1.1.1.1.1.O _ _ _ _ _ _ _ _ _ ^ ~ ~ ~ Y P P Y ^ ",
"A ^ ^ _ _ _ _ _ _ _ _ ) _ _ _ _ _ D D # O O # R R   w X X & & & & X X % % % % # O O ; ; O D _ _ _ _ _ _ _ _ _ _ } } ~ H P P ! ~ ",
"W ^ _ _ _ _ _ _ _ _ _ _ _ _ _ C B O @ e r r e @ @ X X 5 r r r r r r e X X X % X % % 5 e . _ _ _ _ _ _ _ _ ` ` &.*.&.} ~ Y H ! ^ ",
"E _ _ _ _ _ _ _ _ _ _ _ _ z j @ % r r r r r r r r r r r r r r r r r r r r r % % X X X *   Q _ _ _ _ _ _ _ ` | *.=.*.} } H H ! ~ ",
"W _ _ _ _ _ _ _ _ _ _ ( u * 5 r r r r r r r r r r r r r r r r r r r r r r r r r w w +.. j _ _ _ ` ` ( ` ( %.%.*.=.*.} ~ H H ~ } ",
"E _ _ _ _ _ _ _ _ _ ( > w r r r r r r r r r r r r r r r r r r r r r r r r r r r r r 2.O _ _ _ _ ( ( ` ( ` } %.&.=.*.} ~ H Y I ~ ",
"E _ _ _ _ _ _ _ _ ( D   r r r r r r r r r r r r r r r r r r r r r r r r r r r r A #.2 D _ _ _ _ ` _ ` ` ( %.%.*.=.*.} ~ Y H I ~ ",
"W _ _ _ _ _ _ _ _ ) # & r r r r r r r r r r r r r r r r r r r r r r r r r r D D #.#.> _ _ _ _ _ ( ` ( ` ( ` %.*.=.*.} ~ H H ~ ~ ",
"D _ _ _ _ _ _ _ _ _ . & r r r r r r r r r r r r r r r r r r r r r r r r ) ) +.+.> 1 ( _ _ _ _ _ ` _ _ _ } ` %.*.=.*.} ~ I H ~ } ",
"D _ _ _ _ _ _ _ _ u @ & r r r r r r r r r r r w w w w w w w w w * 5 * 6 Z Z 0 . / ) _ _ _ _ _ _ _ _ _ _ ( %.%.*.=.=.} ~ I H I ~ ",
"/ ` _ ` _ _ _ _ / . & & e r r r r r r 5 5 5 5 & & X X X o X X X @ 4 . k k k 2 N ) _ _ _ _ _ _ _ _ _ _ _ } %.&.*.=.*.} ~ Y H I ~ ",
"D ` _ _ _ _ _ _ / . & & 5 e e e 5 5 & % O o O O . 4 4 4 4 4 4 4 6 6 4 O ; ; w > W _ _ _ _ _ _ _ _ ` ( ` } } } *.=.*.} } H H ~ ^ ",
"Q ) ` _ _ _ _ _ ( = & & & & 5 & & % = = E / _ ( . 6 6 6 6 6 6 6 6 6 6 6 e F F e O / _ _ _ _ _ _ _ _ _ _ _ ` %.*.=.*.} ~ H H ~ } ",
"D | ` _ _ _ _ ` _ / . & & & & & % 1 / _ _ ` &.%.. 6 6 6 6 6 6 6 6 6 6 F F F F F @ N _ _ _ _ _ _ _ _ ( ` _ ` %.*.=.*.} ~ Y H ! ~ ",
"E _ _ _ _ _ _ _ _ ( . & & & & @ u _ _ _ _ ` %.` . 6 6 6 6 6 6 6 6 6 w F F F F F F . ( ` _ _ _ _ _ _ ` _ _ ` &.*.=.*.} ~ ! H ! ~ ",
"Q _ _ _ _ _ _ _ _ _ z @ & & & . _ _ ` ` ` ` &.%.. 6 6 6 6 6 6 6 6 6 F F F F F F F . / _ _ _ _ _ _ _ _ ` _ %.&.*.=.*.} ~ H H ! ~ ",
"_ _ _ _ _ _ _ _ _ _ ` + & & @ B _ _ ` ` %.%.=.%.. 6 6 6 6 6 6 6 6 e F F F F F F F w > ( _ _ _ _ _ ` ` %.%.&.*.*.=.=.} ~ Y H ~ ^ ",
") _ _ _ _ _ _ _ _ _ ) D + % = ( _ _ ` *.*.*.*./ . 6 6 6 6 6 6 6 6 F F F F F F F F F . / _ _ _ _ ( ` } %.*.*.=.=.=.=.} ~ H I I ^ ",
" ._ _ _ _ _ _ _ _ _ _ _ / 1 Q _ _ ` %.*.=.*.%.O 6 6 6 6 6 6 6 6 F F F F F F F F F F @ B _ _ _ ` ` _ %.*.*.=.=.=.=.=.} ~ H H ~ ~ ",
" .( ( } _ _ ` ` ` _ ` ` _ ` ` ` ` ` %.*.=.=.*.. 6 6 6 6 6 6 6 6 F F F F F F F F F F F . ( ` ` ` ` %.%.*.=.=.=.=.*.*.} ~ Y H ! ~ ",
"} Q _ ` ` | | &.&.&.&.&.&.` &.%.` *.*.=.=.*.i @ 6 6 6 6 6 6 6 6 F F F F F F F F F F * . _ &.%.` %.%.*.=.=.=.*.&.} } ^ ! H I I ~ ",
"] Q Q _ &.*.*.*.*.*.*.*.*.*.*.*.*.=.*.=.=.&.  6 6 6 6 6 6 6 6 6 5 F F F F F F % X O ; . _ *.=.*.&.*.=.=.=.=.&.} ( ~ E I H H ! H ",
"' D Q ` *.=.=.=.*.=.=.=.=.=.*.=.=.=.=.=.=.%.. * 4 4 4 4 4 4 4 O O O o O O O O ; : : : : > *.*.=.=.=.=.=.=.=.` ( E R H I I H H H ",
"' L ^ _ &.*.*.*.*.*.*.*.*.*.*.*.*.*.=.*.=.` . . . . . . . # = M V C R ( ` %._ < : : : : . %.*.*.*.*.=.*.*.&._ / I H H H H H I H ",
"' K W ^ ) } } ` ` ` ` ` | _ ` ` ` ` ` } ( z $ : : : ; ; - G P H K L W ^ _ ` ` _ 1 ; : : + v _ _ ` ` ` } ` _ ^ ~ H H H H H P H K ",
"' A L W ^ / Q Q Q Q Q Q ^ Q Q ^ Q Q Q Q E   : : O # 8 t P G J H K K I W W Q Q Q Q i $ : : . W W ( E E ( Q Q R H H Y H H P H H K ",
"[ K P L L L A R L L R L A R R D R A L L L j # o d d H H K P K K K K A L L R L R R A O : : . A L A R R L R I H Y Y H U G H G P J ",
"[ J K L A R A L L A A L A L L A L A L L L L n n H J K K H K J K J K K K L A L A L A j . . . C R A L A L R H ! H H H H H H U H H "
};
