/* XPM */
static char *_4b8a4ad3d8e4ab7e499e25cef0147aal8k7yc7WNv799Fri[] = {
/* columns rows colors chars-per-pixel */
"64 64 175 2 ",
"   c #251C2A",
".  c #251C28",
"X  c #2F2326",
"o  c #2C212E",
"O  c #3E2B26",
"+  c #35262C",
"@  c #2D2230",
"#  c #352632",
"$  c #3A2A34",
"%  c #3A2E38",
"&  c #69321E",
"*  c #7F361B",
"=  c #432D2B",
"-  c #583F29",
";  c #5A382C",
":  c #432E35",
">  c #4A343A",
",  c #46333A",
"<  c #533932",
"1  c #53393D",
"2  c #593D3F",
"3  c #5E3B37",
"4  c #4D342D",
"5  c #773825",
"6  c #683C33",
"7  c #613A2E",
"8  c #5C412F",
"9  c #5D4230",
"0  c #6B4C2B",
"q  c #7A562E",
"w  c #65413D",
"e  c #7F4231",
"r  c #7C483C",
"t  c #784437",
"y  c #573D41",
"u  c #4C3C44",
"i  c #3A4466",
"p  c #524045",
"a  c #5D4445",
"s  c #58454B",
"d  c #4A4558",
"f  c #544A5B",
"g  c #5C4D5C",
"h  c #564753",
"j  c #4F4049",
"k  c #634444",
"l  c #694746",
"z  c #6A4947",
"x  c #6A4B4A",
"c  c #64484A",
"v  c #7A4C43",
"b  c #734F4C",
"n  c #784F48",
"m  c #77514C",
"M  c #7D544F",
"N  c #644D55",
"B  c #6A4E52",
"V  c #624F5B",
"C  c #6B5159",
"Z  c #745151",
"A  c #7E5756",
"S  c #75555A",
"D  c #444663",
"F  c #4C4962",
"G  c #474863",
"H  c #554C60",
"J  c #8A3A1C",
"K  c #873719",
"L  c #933E19",
"P  c #983B12",
"I  c #833C26",
"U  c #843E28",
"Y  c #9F4013",
"T  c #994319",
"R  c #974319",
"E  c #A84514",
"W  c #B14A15",
"Q  c #B94E16",
"!  c #A6511E",
"~  c #BD561A",
"^  c #8D4E2F",
"/  c #88412D",
"(  c #924E2A",
")  c #924723",
"_  c #825629",
"`  c #814636",
"'  c #884B33",
"]  c #894431",
"[  c #9B5529",
"{  c #A05526",
"}  c #A65825",
"|  c #B15620",
" . c #8D622C",
".. c #94682E",
"X. c #AB6026",
"o. c #A26F2D",
"O. c #BB6323",
"+. c #B4722E",
"@. c #B17A2F",
"#. c #A56331",
"$. c #AC6638",
"%. c #BC7D30",
"&. c #B87B36",
"*. c #C05116",
"=. c #C85718",
"-. c #D25D1A",
";. c #CD641E",
":. c #DB621B",
">. c #E66C1F",
",. c #C86C22",
"<. c #DD6820",
"1. c #D77623",
"2. c #EE7120",
"3. c #EF7B24",
"4. c #E37928",
"5. c #F77521",
"6. c #FB7D24",
"7. c #884F44",
"8. c #885750",
"9. c #865955",
"0. c #885A55",
"q. c #825653",
"w. c #875148",
"e. c #DD862D",
"r. c #C28432",
"t. c #CC8D32",
"y. c #C9933A",
"u. c #DE9732",
"i. c #EC8B2D",
"p. c #FA8427",
"a. c #FB8A2A",
"s. c #E9952E",
"d. c #FC932D",
"f. c #FC9B2E",
"g. c #EC9E33",
"h. c #EEA333",
"j. c #FEA431",
"k. c #FAA935",
"l. c #FFB53C",
"z. c #BB8154",
"x. c #C78E4A",
"c. c #D19F40",
"v. c #F59D4F",
"b. c #D9AD48",
"n. c #E3B94C",
"m. c #FDBF47",
"M. c #C79464",
"N. c #D1A777",
"B. c #E2BA65",
"V. c #FCB466",
"C. c #FEC94F",
"Z. c #EFCF57",
"A. c #EAC753",
"S. c #FED555",
"D. c #FCDD5D",
"F. c #F4D85C",
"G. c #FDE35F",
"H. c #F8DA74",
"J. c #FFE861",
"K. c #FDE56F",
"L. c #FFEC74",
"P. c #FFF67D",
"I. c #D7B483",
"U. c #E3C280",
"Y. c #FBCF8C",
"T. c #E3C897",
"R. c #FFEE8C",
"E. c #FAE691",
"W. c #FFFB97",
"Q. c #F2DFA5",
"!. c #FAEBB5",
"~. c #FEF5B4",
"^. c #FFFEB3",
"/. c #FFFDC7",
"(. c #FFFFD6",
/* pixels */
"p p p a x m m m m m m m m m m m m m m m m m m x a p p p p p p p p p p a x m m m m m m m m m m m m m m m m m m x a p p p p p p p ",
"p p a a x m m m m m m m m m m m m m m m m m m x a p p p p p p p p p a a x m m m m m m m m m m m m m m m m m m x a p p p p p p p ",
"p p a x x m m m m m m m m m m m m m m m m m n z l w w 2 2 2 2 2 2 2 w l l v n n b m m m m m m m m m m m m m m x x a a p p p p p ",
"a a x x x m m m m m m m m m m m m m m m m n v r t t t 6 6 6 6 6 6 6 6 t t r r v n m m m m m m m m m m m m m m m x x x a a p p p ",
"x x x x m m m m m m m m m m m m m m m m m v r e / I I 5 5 5 5 5 5 5 5 5 I U e r v m m m m m m m m m m m m m m m M m m x a p p p ",
"m m m m m m m m m m m m m m m m m m m m b v ` U J J J J K K * K K K J J J J I e r n m m m m m m m m m m m m m M M 0.M m x a p p ",
"m m m m m m m m m m m m m m m m m m m b v r ' ( L T R R R R R R R R R R R L ) ^ ` v n m m m m m m m m m m m M M 0.0.0.m x a p p ",
"m m m m m m m m m m m m m m m m m n v v r ' ^ { X.X.X.$.$.$.$.$.$.$.$.X.X.X.{ ( ' r r v n m m m m m m m m m M M 0.0.0.M x a p p ",
"m m m m m m m m m m m m m m m m m v r e U ^ #.+.r.t.x.M.M.M.M.M.M.M.M.x.x.t.&.#.( ^ e r v b m m m m m m m m M M 0.0.0.m x a p p ",
"m m m m m m m m m m m m m m m m n v e I J { +.y.b.B.B.U.U.T.T.T.T.T.U.B.B.b.c.&.{ ) I e r n m m m m m m m m M M 0.0.0.m x a p p ",
"m m m m m m m m m m m m m m m m v r U J { X.r.b.Z.H.E.E.!.!.!.!.!.!.E.E.K.Z.n.y.+.{ ) I ` v b m m m m m m m M M 0.0.0.m x a p p ",
"m m m m m m m m m m m m m b n v r ' ( { X.%.c.n.D.L.W.^././.(.(.(./.^.W.P.G.A.b.r.$.{ ( ' r v v n m m m m m M M 0.0.0.m x a p p ",
"m m m m m m m m m m m m b v r ` ' ^ #.+.r.c.n.Z.J.P.W.^./.(.(.(.(./.^.W.P.L.F.B.b.M.z.#.( ' e r v n m m m m M M 0.0.0.m x a p p ",
"m m m m m m m m m m m m n r e I ( { +.y.b.n.Z.D.J.P.W.^./.(.(.(.(./.^.W.P.L.K.H.U.I.N.&.#.( I e r v m m m m M M 0.0.0.m x a p p ",
"m m m m m m m m m m m m v r I J { X.t.b.Z.F.D.G.J.L.R.~.~././././.~.~.R.L.K.K.R.E.Q.T.N.z.{ J I e v b m m m M M 0.0.0.m x a p p ",
"m m m m m m m m m b n v r ' ( { X.%.c.A.D.J.G.D.D.H.H.E.Q.Q.Q.Q.Q.Q.Q.H.H.D.K.R.~.~.Q.I.x.$.{ ( ' r v n b m m M 0.0.0.m x a p p ",
"m m m m m m m m n v r ` ' ^ #.+.%.c.n.F.J.J.D.C.C.m.B.B.I.I.I.I.I.I.B.B.m.C.S.E.~./.!.T.N.r.+.#.( ' ` r v n m M 0.0.0.m x a p p ",
"m m m m m m m m v r e ^ ( #.&.y.b.n.Z.D.J.G.C.m.k.g.u.x.z.z.z.z.z.z.x.u.g.k.V.Y.!./.~.Q.U.b.c.&.#.( ^ e r v M M 0.0.0.m x a p p ",
"m m m m m m m b v ` I J { +.y.b.A.F.G.G.G.S.m.j.d.3.1.O.X.} } ! } X.O.,.4.i.v.V.Q.~.~.E.E.Z.n.c.+.{ ) I e r M 0.0.0.0.m x a p p ",
"m m m m m m m b v e I L ! +.c.A.D.J.J.G.S.C.k.d.3.<.-.~ W E Y Y Y E Q =.:.4.d.V.Y.Q.!.W.R.K.Z.b.%.} L J / v M 0.0.0.0.M x a p p ",
"m m m m M M m b r e J L ! +.c.Z.G.J.G.S.C.k.s.4.<.-.=.~ | ! W E E W W *.=.:.4.v.V.Y.E.E.L.J.F.b.r.} R J / 7.8.0.0.0.0.m x a p p ",
"m m m m m M m b r e J L ! %.b.Z.G.G.S.m.k.s.4.;.=.~ =.;.,.,.,.;.=.*.*.*.*.~ ;.4.v.V.V.H.K.J.F.b.r.} R J ] 7.8.0.0.0.0.m x a p p ",
"m m m m m M M M v ` I L ! @.c.Z.D.S.m.k.d.4.;.~ W Q O.1.e.i.e.4.>.:.=.*.W W ~ ;.4.i.v.m.S.D.Z.b.r.} T J ] 7.8.0.0.0.0.m x a p p ",
"x x x m m M M M v ` I L ! +.c.A.S.C.l.d.3.<.=.W Y ! O.e.s.j.f.d.6.2.:.*.E Y E ~ :.3.d.k.C.S.Z.b.%.} L J ] 7.8.0.0.M m x a p p p ",
"a x x m m M 0.9.w.' / & _ o.c.n.C.C.k.d.5.:.*.E Y ! O.e.h.j.j.d.p.2.:.*.E P Y Q -.2.p.j.m.C.A.c.@._ & 7 w 7.8.0.M m x a a p p p ",
"a a a x m 0.0.9.w.w < & 5  .t.b.m.l.j.a.2.:.*.E Y ! O.e.h.k.j.d.p.5.:.*.E P Y Q -.2.p.f.l.m.n.y.o.5 & 7 w 7.q.M m x a a p p p p ",
"p p a x m M 0.9.b w $ O - _ @.c.l.k.f.a.5.:.*.E Y ! O.e.h.k.j.d.p.2.:.*.E P Y Q -.2.p.d.k.l.h.r. .- = = 1 l q.M x a p p p p p p ",
"p p a a x m M M x > $   O 0 o.u.k.j.f.p.5.:.*.E Y ! O.e.g.j.j.d.p.2.:.*.E Y E *.:.2.p.d.j.k.u.@._ -   @ > a b x a a p p p p p p ",
"p p p a a x x x y : o   O 0 o.u.j.j.d.p.5.:.*.E Y E O.1.s.f.f.d.6.2.:.*.E Y E Q :.2.p.d.j.j.u.@.0 O   o : y c a a p p p p p p p ",
"p p p a a a a a > $   . O 0 o.u.j.j.d.p.5.:.*.E Y E O.1.i.d.d.a.6.2.:.*.E P Y Q -.2.6.d.j.j.u.@.0 O . @ % > a a p p p p p p p p ",
"p p p p a a a a > $   . O 0 o.u.j.j.d.p.2.:.*.E P Y ~ 1.3.a.a.p.6.2.:.*.E P Y Q -.2.6.d.j.j.g.@.0 O . @ % > a a p p p p p p p p ",
"p p p p a a a a y $ #   O 0 o.u.h.j.d.p.5.<.=.E Y E Q ;.2.6.6.6.5.2.:.*.E Y E *.:.2.p.d.j.j.u.@.0 O     : > a a p p p p p p p p ",
"p p p a a x x x y > # o + 0 ..r.u.s.d.p.3.>.-.Q E E Q -.<.>.2.2.2.>.-.*.W E W =.<.3.p.d.s.s.t.o.0 = o # : y c a a p p p p p p p ",
"p p p a x x m m z a > $ ; 8 q o.@.r.e.i.a.3.1.-.*.Q *.=.=.-.-.-.-.-.=.*.Q Q =.<.3.p.i.e.r.@.o.q 0 ; # > 2 l c x a p p p p p p p ",
"p p a a x m m m b l a 1 > < 8 0 _ o.%.i.d.d.3.1.-.=.*.Q Q Q W W Q Q Q *.=.-.<.3.a.d.s.r.o._ 0 0 < > 1 2 k b b x x a a p p p p p ",
"a a x x x m m m b b b k 2 > < O - 0 o.t.f.f.d.3.>.:.=.Q E Y Y Y Y E W =.-.>.3.a.f.f.u.@._ - = = > 1 k z b b m m x x x a a p p p ",
"x x x x m m m m m m m b l 1 : + O -  .r.u.f.d.p.3.>.;.~ W Y Y Y Y E Q -.>.3.p.d.f.s.t.o.0 = + # 1 k b m m m m m M m m x a p p p ",
"m m m m m m m m m m m m b a > $ = 4 q o.%.r.i.i.a.p.4.,.O.| | | | O.;.1.3.p.i.i.e.r.o.q 8 = # > 2 z m m m m M M M 0.M m x a p p ",
"m m m m m m m m m m m m b l a 1 > < 8 q  .o.%.e.d.d.d.e.1.1.1.1.1.1.e.i.d.d.i.r.o. .q 0 < : > 2 k b m m m m M M 0.0.0.m x a p p ",
"m m m m m m m m m m m m m b z k 2 3 < 4 - 0 o.r.g.j.j.f.s.s.s.s.s.s.f.j.j.f.e.+._ - - ; > 1 k z b m m m m m M M 0.0.0.M x a p p ",
"m m m m m m m m m m m m m m m m l 1 : @ O -  .%.u.h.h.h.g.g.g.g.g.g.h.h.h.u.r...0 = + $ 1 k b m m m m m m m M M 0.0.0.m x a p p ",
"m m m m m m m m m m m m m m m m b k > $ @ 4 q o.r.t.t.t.t.t.t.t.t.t.t.t.t.t.o.q 8 + # > a b m m m m m m m m M M 0.0.0.m x a p p ",
"m m m m m m m m m m m m m m m m m z a > : < 9 q  ......................... .q 0 < : > 2 l m m m m m m m m m M M 0.0.0.m x a p p ",
"m m m m m m m m m m m m m m m m m b z k 1 3 < 9 - - - - - - - - - - - - - - 8 < > 1 a l b m m m m m m m m m M M 0.0.0.m x a p p ",
"m m m m m m m m m m m m m m m m m m m b l 2 > = O X X X X X X X X X X X X = + : 1 k b b m m m m m m m m m m M M 0.0.0.m x a p p ",
"m m m m m m m m m m m m m m m m m m m m b k 2 $ #                         + # > a b m m m m m m m m m m m m M M 0.0.0.m x a p p ",
"m m m m m m m m m m m m m m m m m m m m M b k > > : $ $ # @ o @ # $ $ # $ : > 2 z m m m m m m m m m m m m m M M 0.0.0.m x a p p ",
"m m m m m m m m m m m m m m m m m m m m m b z k k y y 1 > : % : > 1 1 1 1 2 a l b m m m m m m m m m m m m m m M 0.0.0.m x a p p ",
"m m m m m m m m m m m m m m m m m m m m m b b Z M b b l a y u y a l l l l l z b b m m m m m m m m m m m m m m M 0.0.0.m x a p p ",
"m m m m m m m m m m m m m b b b b x x b b x Z Z A A A x c s j s c x x x b m b b x b b x x b b b m m m m m m M M 0.0.0.m x a p p ",
"m m m m m m m m m m m m m b B N N N N N N N N S S S S N h h j h h N N N N N N N N N N N N N N B x m m m m m M 0.0.0.0.m x a p p ",
"m m m m m m m m m m m m m B N g f f f f f f g g g g g f f d d d f f f f f f f f f f f f f f f N B b m m M M M 0.0.0.0.M x a p p ",
"m m m m m m m m m m m m b N g f D D D D D F F F F F F D D D i D D D D D D D D D D D D D D D d f N x m M M 0.0.0.0.0.0.m x a p p ",
"m m m m m m m m m m m b B N f D i i i i i i i i i i i i i i i i i i i i i i i i i i i i i i D f g B b M 0.0.0.0.0.0.0.m x a p p ",
"m m m m m m M M Z Z Z C N g F i i i i i i i i i i i i i i i i i i i i i i i i i i i i i i i D D f g C Z A 9.9.0.0.0.0.m x a p p ",
"x x x m m M M M Z C N g f F D i i i i i i i i i i i i i i i i i i i i i i i i i i i i i i i i D D f V C S A 9.0.0.M m x a p p p ",
"a x x m m M 0.9.A S V F F D D i i i i i i i i i i i i i i i i i i i i i i i i i i i i i i i i i D G F g C A 9.0.M m x a a p p p ",
"a a a x m 0.0.9.A C g F D i i i i i i i i i i i i i i i i i i i i i i i i i i i i i i i i i i i i D G H V S 9.M m x a a p p p p ",
"p p a x m M 0.9.A C g F G i D i i i i i i i i i i i i i i i i i i i i i i i i i i i i i i i i i D D F g C A 9.m x a p p p p p p ",
"p p a a x m M M Z C N g f F D D i i i i i i i i i i i i i i i i i i i i i i i i i i i i i i i D D f g g C x b x a a p p p p p p ",
"p p p a a x x x c c c h h d d i i i i i i i i i i i i i i i i i i i i i i i i i i i i i i i i D d h h s c c x a a p p p p p p p ",
"p p p a a a a x a a a a s d d i i i i i i i i i i i i i i i i i i i i i i i i i i i i i i i i d d h s a a a a a p p p p p p p p ",
"p p p p p a p a a a a a s h d D i i i i i i i i i i i i i i i i i i i i i i i i i i i i i i i d d s a a a a p a p p p p p p p p ",
"p p p p p p p p p p p p u j d i i i i i i i i i i i i i i i i i i i i i i i i i i i i i i i i d j j p p p p p p p p p p p p p p "
};
