/* XPM */
static char *result[] = {
/* columns rows colors chars-per-pixel */
"64 64 170 2 ",
"   c #291E27",
".  c #241C2C",
"X  c #2B1F2A",
"o  c #2E2226",
"O  c #2B202C",
"+  c #302327",
"@  c #3E2A2D",
"#  c #2D2230",
"$  c #322431",
"%  c #362935",
"&  c #3A2934",
"*  c #3A2E38",
"=  c #76361C",
"-  c #402624",
";  c #452D26",
":  c #5B2D20",
">  c #4E362A",
",  c #442F39",
"<  c #402D37",
"1  c #453139",
"2  c #4C363D",
"3  c #533B34",
"4  c #54393D",
"5  c #583D3F",
"6  c #5F352B",
"7  c #713B23",
"8  c #783724",
"9  c #683C33",
"0  c #63372D",
"q  c #5A412A",
"w  c #5F4330",
"e  c #65482E",
"r  c #6E4E2A",
"t  c #7B4224",
"y  c #7F5A2C",
"u  c #62433A",
"i  c #7D4638",
"p  c #7A483D",
"a  c #724238",
"s  c #543D41",
"d  c #5C3E41",
"f  c #493940",
"g  c #3A4466",
"h  c #4F404A",
"j  c #524045",
"k  c #5D4445",
"l  c #58454B",
"z  c #4A4559",
"x  c #484459",
"c  c #534652",
"v  c #5C4952",
"b  c #544A5C",
"n  c #5B4D5D",
"m  c #644445",
"M  c #694847",
"N  c #64494B",
"B  c #6A4A49",
"V  c #6D4743",
"C  c #7A4C43",
"Z  c #724E4B",
"A  c #784F48",
"S  c #77514C",
"D  c #7D544F",
"F  c #654E55",
"G  c #694E53",
"H  c #624D59",
"J  c #6A515A",
"K  c #7E5554",
"L  c #755456",
"P  c #444663",
"I  c #4A4863",
"U  c #544B61",
"Y  c #8B391B",
"T  c #86371A",
"R  c #983B12",
"E  c #923E19",
"W  c #833C25",
"Q  c #813F2B",
"!  c #8B3E25",
"~  c #9F4013",
"^  c #94431C",
"/  c #984319",
"(  c #A84514",
")  c #B14A15",
"_  c #B94E16",
"`  c #884826",
"'  c #934825",
"]  c #885D2D",
"[  c #9D592D",
"{  c #98532B",
"}  c #814634",
"|  c #874A34",
" . c #945330",
".. c #AC5621",
"X. c #A65E28",
"o. c #8E642D",
"O. c #94682E",
"+. c #977E3E",
"@. c #AE6126",
"#. c #A16F2D",
"$. c #B3772E",
"%. c #AC6638",
"&. c #AF7038",
"*. c #BC7D30",
"=. c #B67839",
"-. c #C05216",
";. c #C85718",
":. c #CD641E",
">. c #D9601A",
",. c #E56D1F",
"<. c #DD6820",
"1. c #EE7120",
"2. c #E17927",
"3. c #F67521",
"4. c #FD7721",
"5. c #F77C24",
"6. c #825653",
"7. c #885A55",
"8. c #855855",
"9. c #804C40",
"0. c #DD862D",
"q. c #C08232",
"w. c #C78A34",
"e. c #CD9033",
"r. c #DA9432",
"t. c #EC8B2D",
"y. c #FA8427",
"u. c #FB8A2A",
"i. c #FB922D",
"p. c #FC9B2E",
"a. c #EA9A31",
"s. c #F1A433",
"d. c #FEA431",
"f. c #FDAD35",
"g. c #FFB435",
"h. c #FFB936",
"j. c #BB8154",
"k. c #C38F49",
"l. c #D19F40",
"z. c #F59D4F",
"x. c #D5A947",
"c. c #DBB049",
"v. c #E2B84B",
"b. c #FDB646",
"n. c #C79464",
"m. c #FBAB63",
"M. c #ECBA67",
"N. c #D1A777",
"B. c #FEC148",
"V. c #ECCA54",
"C. c #FECD54",
"Z. c #FED555",
"A. c #F4D85C",
"S. c #FCDD5D",
"D. c #F8DA74",
"F. c #FEE662",
"G. c #FFEC63",
"H. c #FFF269",
"J. c #FFEC74",
"K. c #DDBB82",
"L. c #FBCF8C",
"P. c #E3C897",
"I. c #FFEE8C",
"U. c #FAE388",
"Y. c #FFFB97",
"T. c #F8E6A2",
"R. c #FAEBB5",
"E. c #FEF8B4",
"W. c #FFFDC7",
"Q. c #FFFFD6",
/* pixels */
"j j j k B S S S S S S S S S S S S S S S S S S B k j j j j j j j j j s k B S S S S S S S S S S S S S S S S S S B k j j j j j j j ",
"j j k k B S S S S S S S S S S S S S S S S S S B k j j j j s j j j j k k B S S S S S S S S S S S S S S S S S S B k j j j j j j j ",
"j j k B M S S S S S S S S S S S S S S S S S S B V m u d s s s s d k u V V C C Z A S S S S S S S S S S S S S S B B k k j j j j j ",
"k k B B B S S S S S S S S S S S S D S S S S Z C a a a 9 9 9 9 0 9 9 9 a a i i p C C S S S S S S S S S S S S S S M B B k k j j j ",
"B B B B S S S S S S S S S S S S S S S S S S A C } i W 8 8 8 8 8 8 8 8 8 Q W Q } } C S S S S S S S S S S S S S S D S S B k j j j ",
"S S S S S S S S S S S S S S S S S S S S S S C } Q ! E Y T T T T Y Y Y Y Y Y Y Y 8 p A S S S S S S S S S S S S D D 7.D S B k j j ",
"S S S S S S S S S S S S S S S S S S S S A A C | ' ' / / / / / / / / / E / ^ / '  .i C C S S S S S S S S S S 6.D 7.7.7.S B k j j ",
"S S S S S S S S S S S S S S S S S S Z A C p }  .[ @.@.@.X.@.@.@.%.%.%.%.%.%.%...X.| } p C S S S S S S S S S D D 7.7.7.D B k j j ",
"S S S S S S S S S S S S S S S S S S A p } }  .[ $.q.w.e.w.q.e.j.k.n.n.n.n.n.n.j.&. .| } } C S S S S S S S S D D 7.7.7.S B k j j ",
"S S S S S S S S S S S S S S S S S S C } W Y [ &.j.c.c.c.v.V.c.M.M.N.P.P.P.P.P.K.n.&.' ! 8 i C S S S S S S S D D 7.7.7.S B k j j ",
"S S S S S S S S S S S S S S S S S A p 8 W ^ X.*.c.V.A.S.Z.A.A.D.U.T.E.R.E.R.R.P.N.j.{ / W } C A S S S S S S D D 7.7.7.S B k j j ",
"S S S S S S S S S S S S S S S A A p }  .[ @.$.e.c.A.G.G.G.G.J.I.Y.E.W.Q.Q.Q.W.T.M.n.$.{ ' | } i C A S S S S D D 7.7.7.S M k j j ",
"S S S S S S S S S S S S S S C p p }  .[ $.q.e.x.V.S.G.H.H.G.H.H.Y.E.W.Q.Q.Q.Q.R.P.M.j.q.&.] | } i C C S S S D D 7.7.7.S N k j j ",
"S S S S S S S S S S S S S A p i t ' [ &.k.x.c.V.S.G.G.G.G.G.J.H.Y.E.W.Q.Q.Q.Q.E.T.K.v.l.=.&.[ W ` i C S S S D D 7.7.7.S B k j j ",
"S S S S S S S S S S S S S A p } T ' @.q.x.V.A.S.F.F.G.F.F.F.G.J.I.E.W.W.W.W.W.E.T.U.A.c.x.*.[ ^ W } p Z S S D D 7.7.7.S N k j j ",
"S S S S S S S S S S S S S C i W Y ^ @.e.c.A.F.G.F.G.F.F.F.F.F.J.U.T.R.R.R.R.R.T.I.I.F.V.x.*...E Y W p A S S S D 7.7.7.S B k j j ",
"S S S S S S S S S S S S S C i W Y / @.w.v.S.G.H.G.F.F.G.G.G.F.F.D.L.L.L.L.L.L.L.U.J.G.A.c.q.../ Y W p A S S S D 7.7.7.S B k s j ",
"S S S S S S S S S S S S S C p W Y / @.w.v.S.G.H.G.F.F.G.G.G.F.S.C.M.m.m.m.m.m.M.C.S.F.A.c.*.../ Y } p A S S K D 7.7.7.S B k j j ",
"S S S S D S S S S S S S S A i W Y / X.w.v.A.G.G.G.F.F.G.G.F.S.C.b.z.i.u.y.u.i.z.b.C.S.V.c.q.../ Y } p A A S D 7.7.7.7.A B k j j ",
"S S S S A S S S S S S S S C i W Y / @.w.v.A.G.G.G.F.F.F.F.S.Z.B.f.i.5.3.1.3.3.t.s.B.C.V.l.$.../ Y 8 p A D D D 7.7.7.7.D B k j j ",
"S S S S S S S S S S S S A C d W 6 = ] q.c.A.G.H.G.F.F.S.Z.C.b.f.p.y.3.,.>.>.>.,.t.s.b.v.e.#.` = 6 9 p D D 7.7.7.7.7.7.S B k h j ",
"S S S S S S S S S A S S A M d & > : r +.c.A.G.H.H.G.F.Z.B.b.f.p.u.5.3.,.>.;.;.:.2.t.a.a.*.] 7 : @ 9 p S 7.7.7.7.7.7.7.S B k j j ",
"S S S S S S D D D D D D K Z d < @ X r +.x.A.G.H.H.G.S.C.b.d.i.y.5.5.3.,.>._ ) _ :.2.t.0.@.' > X @ 1 m A 7.7.7.7.7.7.7.S B k j j ",
"B B B S S D D D D D K D K Z d , X   q +.x.V.F.G.G.F.Z.B.s.i.5.4.4.3.3.<.;.) ( ( -.>.1.,.@.t ; X O 2 M 6.7.7.7.7.7.D S B k j j j ",
"k B B S S D 7.7.7.7.7.7.7.D m , #   3 O.l.V.S.F.F.Z.C.b.p.y.3.3.3.4.3.<.;.( R R _ >.,.<...7 - + $ 2 B 6.7.7.7.7.D S B k k j j j ",
"k k k B S 7.7.7.7.7.7.7.7.D m , #   > o.k.v.C.Z.Z.C.B.f.p.y.3.3.4.4.3.<.;.( R ( _ >.,.>...7 - X $ 2 B 6.7.7.7.D S B k k j j j j ",
"j j k B S D 7.7.7.7.7.7.7.D m 1 O   > o.w.v.B.B.B.B.f.d.i.y.3.3.4.4.3.<.;.( R ( _ >.,.<...7 - o $ f V 6.7.7.7.S B k j j j j j j ",
"j j k k B S D D D D D D D Z k * O   > ] q.s.g.h.h.g.f.p.i.y.3.3.3.3.1.>.;.( ( R -.>.,.<...7 - X # 2 m S D S S N k k j j j j j j ",
"j j j k k B B B B B B B B k 2 % .   > ] *.s.f.h.g.f.d.p.u.y.3.1.1.,.<.>._ ( R ~ -.>.,.<...7 -   X * s M N B B k k j j j j j j j ",
"j j j k k k k k k k k k l u 2 $ .   > y q.a.f.g.f.f.d.p.u.5.5.1.<.>.;.-.( R R ~ -.>.,.<...= -   . % f d k k k k j j j j j j j j ",
"j j j j k k k k k k k k k j * $ . . > y q.a.f.g.g.f.d.p.u.5.1.>.>.-.) ( R R R ~ -.>.,.<...7 -   . % f d k k k k j j j j j j j j ",
"j j j j k k k k B k B k N u 2 $ .   > y q.s.f.h.g.f.d.p.i.y.1.>.;.) ~ R R R R ( _ >.,.<...7 @ . # % s d B k k k j j j j j j j j ",
"j j j k k B B B B M B B B m 2 & .   > y q.s.f.g.g.g.d.d.i.y.5.<.;._ ( ~ R R ~ ) ;.,.1.,.@.t @     * s m B B B k k s j j j j j j ",
"j j j k B M S S S S S S S V 5 < O o > ] q.s.g.h.g.f.f.p.p.i.y.2.:.-._ ) ( ) _ ;.<.3.y.2.@.t ;   O , k Z S S B M k j j j j j j j ",
"j j k k B S S S S S S S S B 5 % . o > ] w.s.g.h.g.f.f.d.d.p.i.t.2.<.>.;.;.;.>.<.4.u.p.t.$.r ; o X , k Z S S S B B k k j j j j j ",
"k k M B B S S S S S S S S Z 5 & .   > y q.s.f.g.g.f.f.f.f.d.d.i.y.2.,.<.<.<.,.1.y.p.p.a.$.r ; O # , d Z S S S S B B B k k j j j ",
"N B B B S S S S S S S S S Z 5 < O   > y $.r.s.f.f.f.f.f.f.f.d.p.u.y.5.3.3.3.5.y.u.i.a.e.#.r > X $ , k Z A S S S D S S N k j j j ",
"S S S S S S S S S S S S S Z m 4 * ; > e o.$.w.r.s.f.f.g.g.g.f.d.p.p.u.u.u.u.u.u.0.0.q.$.o.e > $ , 4 m S S S D D D 7.D S B k j j ",
"S S S S S S S S S S S S S Z M m 4 , 4 w e ] O.*.r.f.g.h.h.g.g.f.f.d.p.p.p.p.p.t.0.$.o.y e 3 3 1 4 m M A S S K D 7.7.7.S B k j j ",
"S S S S S S S S S S S S S Z Z Z m d 4 3 > 3 r o.w.s.g.g.g.g.g.f.f.d.d.d.d.d.d.a.$.] r ; 3 4 4 d M B Z Z S S D D 7.7.6.K B k j j ",
"S S S S S S S S S S S S S S S S S M 5 , $ X > ] $.r.s.f.s.s.s.s.s.s.s.s.f.s.a.e.#.r > X % 3 d Z S S S S S S D D 7.7.7.S B k j j ",
"S S S S S S S S S S S S S S S S S S m 4 & $ > e O.$.w.e.e.w.w.w.w.w.w.e.e.e.w.$.] e @ $ , 5 B A S S S S S S D D 7.7.7.S B k j j ",
"S S S S S S S S S S S S S S S S S S B k 4 , 6 q ] ] o.O.O.o.o.o.o.o.O.O.O.O.o.] e 3 % , 4 m Z S S S S S S S D D 7.7.7.S B k j j ",
"S S S S S S S S S S S S S S S S S S S M m 5 5 5 e q q q q q q q q q q 6 q q q e 3 3 4 d m B S S S S S S S S D D 7.7.7.S B k j j ",
"S S S S S S S S S S S S S S S S S S S A Z M m 5 0 + o X o o o O o o + + o o + - $ 4 k B S S S S S S S S S S D D 7.7.7.S B k j j ",
"S S S S S S S S S S S S S S S S S S S S S A V 5 , $ # X . . . . . O . . . o X $ 1 d V S S S S S S S S S S S D D 7.7.7.S B k j j ",
"S S S S S S S S S S S S S S S S S S S S S A A m d 2 * % O # # # $ % % % % % % , 4 m S S S S S S S S S S S S D D 7.7.7.S B k j j ",
"S S S S S S S S S S S S S S S S S S S S S L A Z B m u 4 2 * * * 2 4 4 4 4 4 5 5 m Z S S S S S S S S S S S S S D 7.7.7.S B k j j ",
"S S S S S S S S S S S S S S S S S S S S S S S S D L S B u j 2 u k B M B B N B N B S S S S S S S S S S S S S S D 7.7.7.S N k j j ",
"S S S S S S S S S S S S S S S S S S S S Z S S L K K K Z v l h l N G Z Z Z Z Z Z Z G Z Z B S S S S S S S S S D D 7.7.7.S B k j j ",
"S S S S S S S S S S S S S S S S S S S Z F F F J J L J J v c h c v G G H F F F F H F F G G Z S S S S S S S S D 7.7.7.7.S B k j j ",
"S S S S S S S S S S S S S S S S S A G G H n n n n n n n b z x z z b n b b b b b b b b b H G S S S S S S D D D 7.7.7.7.D B k j j ",
"S S S S S S S S S S S S S S S S S S G H U I I P I I I I I g P P x I P P I P P I x g I z n H Z S S S S D D 7.7.7.7.7.7.S B k j j ",
"S S S S S S S S S S S S S S S S S G G n U P g g g g g g g g g g g g g g g g g g g g g P z n G G S S S D 7.7.7.7.7.7.7.S B k j j ",
"S S S S S A D D D D D D D D S S G J n U I g g g g g g g g g g g g g g g g g g g g g g g z n H G Z S D K 7.7.7.7.7.7.7.S B k j j ",
"B B B S S 6.D D D D D D D D L G H n U I P g g g g g g g g g g g g g g g g g g g g g g g g I b n H J K 7.7.7.7.7.7.D S B k j j j ",
"k B B S S D 7.7.7.7.7.7.7.K L J n I I P g g g g g g g g g g g g g g g g g g g g g g g g g P I I n J L 7.7.7.7.7.D S B k k j j j ",
"k k k B S 7.7.7.7.7.7.7.7.7.L n I I g g g g g g g g g g g g g g g g g g g g g g g g g g g g P I U J L 7.7.7.7.D S B k k j j j j ",
"j j k B S D 7.7.7.7.7.7.7.6.L J U I P g P g g g g g g g g g g g g g g g g g g g g g g g g g I I n J L 7.7.7.7.S B k j j j j j j ",
"j j k k B S D S D D D D D D J J H n I x P g g g g g g g g g g g g g g g g g g g g g g g P x b b H J L S D S S B k k j j j j j j ",
"j j j k k B B B B B B B B B N N v c c x g g g g g g g g g g g g g g g g g g g g g g g P x z c v F N N N B B B k k j j j j j j j ",
"j j j k k k k B k k k k k k k k k h c z g g g g g g g g g g g g g g g g g g g g g g g g x z c l k k k k k k k k j j j j j j j j ",
"j j j j j k j k k k k k k k k k k k h h g g g g g g g g g g g g g g g g g g g g g g g g x z l k k k k k k k j k j j j j j j j j ",
"j j j j j j j j j h j j j j j h h h h x g g g g g g g g g g g g g g g g g g g g g g g g x x h j j j j j j j j j j j j j j j j j "
};
