/* XPM */
static char *result[] = {
/* columns rows colors chars-per-pixel */
"64 64 170 2 ",
"   c #251C2A",
".  c #251C28",
"X  c #2F2326",
"o  c #2C212E",
"O  c #3E2B26",
"+  c #33242D",
"@  c #39282A",
"#  c #2D2230",
"$  c #342632",
"%  c #3A2934",
"&  c #3A2E38",
"*  c #69321E",
"=  c #432D2B",
"-  c #4D342D",
";  c #583F29",
":  c #5A382C",
">  c #432E35",
",  c #432F36",
"<  c #4A343A",
"1  c #47343A",
"2  c #533932",
"3  c #53393D",
"4  c #593D3F",
"5  c #5E3B37",
"6  c #773825",
"7  c #683C33",
"8  c #613A2E",
"9  c #5C412F",
"0  c #5E4331",
"q  c #6B4C2B",
"w  c #7A562E",
"e  c #65413D",
"r  c #7C483C",
"t  c #784438",
"y  c #543C40",
"u  c #5C3F42",
"i  c #4C3C44",
"p  c #3A4466",
"a  c #524045",
"s  c #5D4445",
"d  c #58454B",
"f  c #4B4559",
"g  c #4A4559",
"h  c #534652",
"j  c #544A5B",
"k  c #5C4D5C",
"l  c #5C4953",
"z  c #4F4049",
"x  c #634444",
"c  c #694847",
"v  c #6A4B4A",
"b  c #664849",
"n  c #7A4C43",
"m  c #734F4C",
"M  c #784F48",
"N  c #77514C",
"B  c #7D544F",
"V  c #644D55",
"C  c #6A4E52",
"Z  c #634E5A",
"A  c #6B515A",
"S  c #7E5756",
"D  c #755457",
"F  c #444663",
"G  c #4C4962",
"H  c #474863",
"J  c #554C60",
"K  c #863619",
"L  c #8A3A1C",
"P  c #9E3F12",
"I  c #933E19",
"U  c #833D27",
"Y  c #863E27",
"T  c #994319",
"R  c #974319",
"E  c #A84514",
"W  c #B14A15",
"Q  c #B94E16",
"!  c #8E4E2F",
"~  c #874527",
"^  c #934E2B",
"/  c #934622",
"(  c #815B2C",
")  c #9E5224",
"_  c #804534",
"`  c #8A4A34",
"'  c #844939",
"]  c #914F30",
"[  c #A65420",
"{  c #A75F28",
"}  c #B15620",
"|  c #92672D",
" . c #A3602E",
".. c #A26F2D",
"X. c #A86029",
"o. c #B36225",
"O. c #B3722F",
"+. c #B17A2F",
"@. c #AC6638",
"#. c #BC7D30",
"$. c #BA7E39",
"%. c #C05216",
"&. c #C85718",
"*. c #D25D1A",
"=. c #DB621B",
"-. c #E66C1F",
";. c #CA6920",
":. c #DD6A21",
">. c #D37923",
",. c #EE7120",
"<. c #EF7B24",
"1. c #E37928",
"2. c #F67521",
"3. c #FB7D24",
"4. c #884F44",
"5. c #875148",
"6. c #865954",
"7. c #885A55",
"8. c #845652",
"9. c #DD862D",
"0. c #C28532",
"q. c #CC8D32",
"w. c #CB973C",
"e. c #DA9432",
"r. c #EC8B2D",
"t. c #FA8427",
"y. c #FB8A2A",
"u. c #E9952E",
"i. c #FC932D",
"p. c #FC9B2E",
"a. c #E99D33",
"s. c #EEA333",
"d. c #FEA331",
"f. c #F9A835",
"g. c #FEB53F",
"h. c #BB8154",
"j. c #C78E4A",
"k. c #F59D4F",
"l. c #D4A242",
"z. c #D9AE48",
"x. c #E4BD5A",
"c. c #E3B64A",
"v. c #C79464",
"b. c #D6AD71",
"n. c #FDBC69",
"m. c #FBAB63",
"M. c #FEC148",
"N. c #EFCF57",
"B. c #EAC753",
"V. c #FECD54",
"C. c #FCDD5D",
"Z. c #F8D759",
"A. c #F8DA74",
"S. c #FDE465",
"D. c #FFE861",
"F. c #FFED70",
"G. c #FFF67D",
"H. c #D7B483",
"J. c #E3C280",
"K. c #ECCB93",
"L. c #FFEE8C",
"P. c #FAE388",
"I. c #FFFB97",
"U. c #F2DFA5",
"Y. c #FAE9A0",
"T. c #FAEBB5",
"R. c #FEF5B4",
"E. c #FFFEB3",
"W. c #FFFDC7",
"Q. c #FFFFD6",
/* pixels */
"a a a s c N N N N N N N N N N N N N N N N N N c x a a a z a a a a a y s v N N N N N N N N N N N N N N N N N N v s a a a a a a a ",
"a a s s c N N N N N N N N N N N N N N N N N N c s a a a y y a a a a s s c N N N N N N N N N N N N N N N N N N c s a a a a a a a ",
"a a s v v N N N N N N N N N N N N N N N N N m c c e e e y 4 y y u s e c c n M M M M N N N N N N N N N N N N N c v s s a a a a a ",
"s s v v v N N N N N N N N N N N N N N N N N M n t e t 7 7 7 7 8 7 7 7 t t r r r n M N N N N N N N N N N N N N N c v v s s a a a ",
"v v v c N N N N N N N N N N N N N N N N N N n r t ~ U 6 6 6 6 6 6 6 6 6 U U Y _ r n m N N N N N N N N N N N N N B N N v s a a a ",
"N N N N N N N N N N N N N N N N N N N N N M r ` ~ L I L K K K K K L L L K L K U r n M M N N N N D N N N N N N B B 7.B N v s a a ",
"N N N N N N N N N N N N N N N N N N N N M n ' ] / I T T I I T T T T T T R R I ^ ` r n M N N N N N N N N N N B 8.7.7.7.N v s a a ",
"N N N N N N N N N N N N N N N N N m M n r r ` ^ { o.o.o.@.@.@.@.@.@.@.@.o.o.{ { ^ _ r n M M M D N N N N N N B B 7.7.7.N v s a a ",
"N N N N N N N N N N N N N N N N N N n ' t ^ ^  .$.q.j.j.v.v.v.v.v.v.v.v.j.q.0.O.) ! _ t n n M m N N N N N N B B 7.7.7.N v s a a ",
"N N N N N N N N N N N N N N N N N N r t ~ R { $.w.z.x.x.J.K.K.K.K.K.K.b.x.x.z.w.O. .L U U n M m N N N N N N B B 7.7.7.N v s a a ",
"N N N N N N N N N N N N N N N N N r ' 6 / ) O.w.c.N.D.P.Y.T.T.T.T.T.R.Y.P.A.N.z.0.X.) L Y r n M N N N N N N B B 7.7.7.N v s a a ",
"N N N N N N N N N N N N N N M M r r ` ^ ) o.#.l.B.D.L.I.E.W.Q.Q.Q.Q.E.E.I.F.C.x.w.#.@. .! _ r n N N N N N N B B 7.7.7.N v s a a ",
"N N N N N N N N N N N N N M n r t ! ^  .O.$.l.B.Z.F.G.I.E.W.Q.Q.Q.Q.W.E.I.G.D.N.B.l.j.$. .` ` t r n N N N N B B 7.7.7.N v s a a ",
"N N N N N N N N N N N N N N r t Y ! { $.l.z.x.N.C.F.G.I.E.W.Q.Q.Q.Q.W.E.I.G.F.S.A.J.H.b.$. .^ U _ r M N N N B B 7.7.7.N v s a a ",
"N N N N N N N N N N N N N r ~ ~ / ) O.w.c.N.C.C.S.D.F.L.R.R.W.W.W.W.R.R.L.F.S.S.P.Y.U.J.v.@.] Y 6 r n N N N B B 7.7.7.N v s a a ",
"N N N N N N N N N N m M n t ` ^ ) o.#.z.N.S.D.S.C.C.A.A.U.U.U.U.U.U.U.P.A.Z.C.S.L.R.T.U.b.$.X.{ ] ~ r n M N N N 7.7.7.N v s a a ",
"N N N N N N N N M M n r _ ` ^  .O.0.l.x.Z.D.D.S.V.M.n.x.b.b.H.H.H.H.H.b.x.M.M.A.Y.R.W.U.A.l.0.O.X.! _ ' n n m S 6.7.7.M v s y z ",
"N N N N N N N N m n r _ ` ^  .$.w.z.x.Z.S.D.Z.V.c.f.a.e.j.j.h.h.h.h.h.j.e.a.f.n.P.R.W.R.U.x.z.w.O. .^ ! U r 5.N 7.7.7.M v s a a ",
"N N N N N N N N M r ~ Y / ) O.w.c.N.Z.S.D.C.V.c.d.y.1.;.o.o.[ [ [ [ o.o.:.<.y.m.K.Y.R.R.U.A.N.z.w.O.) L U r 4.8.7.7.7.m v s a a ",
"N N N N N N N N M n Y Y I [ #.z.N.S.D.D.C.Z.M.d.r.1.=.&.Q E T P E T E Q &.:.<.k.n.K.Y.R.P.F.D.B.w.O.[ I Y U 4.7.7.7.7.S v s a a ",
"N N N N N N N N M r ~ L R [ 0.z.Z.D.D.C.V.c.d.r.1.=.*.&.%.} [ W E E W Q %.*.:.r.k.n.K.P.L.F.D.N.l.O.[ I U ` 4.8.7.7.7.N v s a a ",
"N N N N N N N N N r 6 L R [ 0.z.Z.D.C.V.g.f.r.>.;.&.%.o.;.;.;.;.*.&.%.Q %.%.&.;.9.k.m.n.A.D.D.N.l.#.[ I Y ` 4.7.7.7.7.N v s a a ",
"N N N N N N B B 5.r ~ K R [ 0.z.N.C.Z.M.d.r.<.;.Q W } o.>.9.r.9.1.=.=.&.Q W W %.;.1.r.m.M.V.C.B.l.+.[ I L ` 5.7.7.7.7.N v s a a ",
"v v c N N B B 8.M r ~ ~ R [ #.z.N.Z.M.f.i.<.=.%.E E [ ;.9.a.d.p.i.<.-.*.Q E T W &.:.<.i.g.V.Z.B.l.O.[ R Y ` 5.7.7.B N v s a a a ",
"s v v N N B 7.7.6.4.e 8 * ~ +.l.B.V.M.d.t.,.*.Q E P [ ;.e.f.d.d.i.3.,.*.Q P P E &.=.2.y.f.M.V.B.w...~ * Y ` 4.8.S m v s s a a a ",
"s s s c N 7.7.7.8.4.e 8 * 6 ..q.c.M.g.p.t.,.*.Q P P [ ;.e.f.f.d.i.3.,.*.Q E P E Q =.,.i.d.g.M.c.q.| q * 5 7 5.B N c s s a a a a ",
"a a s v N B 7.7.8.c 3 - = 9 | 0.s.g.f.i.t.,.*.Q P P [ ;.e.f.d.d.i.3.,.*.Q P P E &.=.2.y.p.f.g.l.#.( : @ & 7 m m c s a a a a a a ",
"a a s s v N B B N x < o . 9 ( +.s.f.d.p.t.,.*.Q E P [ ;.9.s.d.p.i.2.-.*.Q P P E Q =.2.t.p.d.f.e...q O   % i x c s s a a a a a a ",
"a a a s s v v v b y , o . O q +.a.d.d.i.t.,.*.Q E P [ ;.r.p.d.i.y.3.,.*.Q P P E &.=.2.t.p.d.d.e...q = . o & y s s a a a a a a a ",
"a a a s s s s s s 1 & o . O q +.s.d.d.i.3.,.*.Q P P E o.>.y.i.i.y.3.,.*.Q P P E Q =.2.t.i.d.d.e...q O .   & i s a a a a a a a a ",
"a a a a s s s s a 1 , o . O q +.a.d.d.i.3.,.*.Q P P E Q :.t.y.y.t.3.,.*.Q P P E &.=.,.t.i.d.d.e...q O .   & 3 s a a a a a a a a ",
"a a a a s s s s b 1 , o . O q +.a.d.d.i.t.,.=.%.E P E Q :.2.t.3.3.2.-.*.Q P P E &.=.2.t.i.d.s.e...q O . # & 3 s a a a a a a a a ",
"a a y s s v v v b y > +   = q ..q.u.u.i.t.<.>.&.W E W %.*.-.,.,.,.-.=.=.Q E E Q *.-.<.t.i.u.e.q.| q @ X $ < u s s y a a a a a a ",
"a a a s v v N N M c y < % : q w ..+.0.9.r.t.<.=.&.Q Q %.&.*.*.*.*.*.*.&.Q Q Q =.=.<.y.r.9.0.+.| w 9 : % < u s b s a a a a a a a ",
"a a s s v m N N M C x u 3 < 2 q q ( ..0.u.i.y.<.=.=.&.%.Q Q Q W W Q Q Q Q &.=.:.<.i.i.r.#...( q ; 2 < 3 s c m v v s s a a a a a ",
"s s v v v N N M m M m c x 3 < = O 9 ( +.e.p.p.t.<.-.*.&.W E P P P P E Q &.=.-.<.i.p.p.q...q 9 @ 2 < 4 x v m m N v c v s s a a a ",
"v v v c N N N B D N N N m x 3 $ X = q ..q.u.p.i.t.<.-.*.W E T P P P W Q ;.-.<.t.i.p.e.q.| ; @ + > 3 b M N N N N B N N v s a a a ",
"N N N N N N N N M N N N N b u < @ = 9 w ..0.9.r.r.t.t.=.;.o.} } } } o.;.1.t.y.r.r.0.#.| w - = % < u M N N N B B B 7.B N v s a a ",
"N N N N N N N N N N N N N M x 4 < > 2 q w | ..0.r.i.i.r.9.>.>.>.>.>.>.9.i.i.p.9.#...( w : 2 < 3 u c m N N N S B 7.7.6.N v s a a ",
"N N N N N N N N N N N N N M m v s 3 < : ; 9 w O.9.p.d.d.p.u.u.u.u.u.u.p.d.d.a.0...q 9 - 2 5 4 x c m M N N N B B 7.7.6.S v s a a ",
"N N N N N N N N N N N N N N N N m x 3 % + = q | $.s.s.s.s.s.a.a.a.a.s.s.s.f.a.#.( ; @ o > 3 c m N N N N N N B B 7.7.7.N v s a a ",
"N N N N N N N N N N N N N N N N M m u < $ + 9 w ..>.q.q.q.q.q.q.q.q.q.q.q.q.#...w - o % < x m N N B N N N N B B 7.7.7.N v s a a ",
"N N N N N N N N N N N N N N N N N m v 4 < > 2 q w | | | | | | | | | | | | | | w : 2 > < 4 c N N N N N N N N B B 7.7.7.N v s a a ",
"N N N N N N N N N N N N N N N N N N m b u 3 < 2 q ; ; : 2 9 9 9 ; ; ; ; ; 9 9 8 2 5 3 x c m N N N N N N N N B B 7.7.7.N v s a a ",
"N N N N N N N N N N N N N N N N M D M M m x y > $ = X X X X X o X X X X X X @ = < 4 c m N N N N N N N N N N B B 7.7.7.N c s a a ",
"N N N N N N N N N N N N N N N N N N N N N m x < % $     . . .   + . . .   .   % 3 x N N N N N N N N N N N N B B 7.7.7.N v s a a ",
"N N N N N N N N N N N N N N N N N N N N D M m u y < , $ # # # # $ % % % % % > < s v N N N N N N N N N N N N B B 7.7.7.N v s a a ",
"N N N N N N N N N N N N N N N N N N N N M M m c v x u y 1 & & , < 3 3 3 3 3 4 u c N N N N N N N N N N N N N N N 7.7.7.N v s a a ",
"N N N N N N N N N N N N N N N N N N N N N N N N N N D c s y i y s v c c c v c m N N N N N N N N N N N N N N N B 7.7.7.N C s a a ",
"N N N N N N N N N N N N N N N N N C C N N v D D S S S m b d i a c C C N m C m m C m v m C N C N N N N N N N B B 7.7.7.N v s a a ",
"N N N N N N N N N N N N N N C C V V V Z l V A D D D D Z l h g h l V C V Z Z V C V V V V V V V V C m N N N N B 7.7.7.7.N v s a a ",
"N N N N N N N N N N N N N m C V k j f j j j j k k k k j h g g g j j j j j j j j j j f j j j j k l C N N B B B 7.7.7.7.B v s a a ",
"N N N N N N N N N N N N N C V j G F H H F F p p H G H H H F p F g F H F H f H H F H H F g F F f k C m N B 7.7.7.7.7.7.N v s a a ",
"N N N N N N N N N N N N v C k j F p p p p p p p F p p p p p p p p p p p p p p p p p p p p p p g j l C S 7.7.7.7.7.7.7.N v s a a ",
"N N N N N N B B N S N D C k j f p p p p p p p p p p p p p p p p p p p p p p p p p p p p p p p p H k Z A S S 7.7.7.7.7.N v s a a ",
"v v v N N B B B N N A Z k j H p p p p p p p p p p p p p p p p p p p p p p p p p p p p p p p p p F f J Z A D S 7.7.N N v s a a a ",
"s v v N N B 7.7.6.D A k J H p p p p p p p p p p p p p p p p p p p p p p p p p p p p p p p p p p p H H J k D S 7.B N v s s a a a ",
"s s s v N 7.7.7.7.D Z J H F p p p p p p p p p p p p p p p p p p p p p p p p p p p p p p p p p p p p p G J A D B N v s s a a a a ",
"a a s v N B 7.7.6.D A k G F H p p p p p p p p p p p p p p p p p p p p p p p p p p p p p p p p p H p H H k D S N v s a a a a a a ",
"a a s s v N B N S m A k J J H F p p p p p p p p p p p p p p p p p p p p p p p p p p p p p p p p H G J k Z A v v s s a a a a a a ",
"a a a s s v v v c b b l k j f F p p p p p p p p p p p p p p p p p p p p p p p p p p p p p p p p f f j l V b v s s a a a a a a a ",
"a a a s s s s v s s s s d h g g p p p p p p p p p p p p p p p p p p p p p p p p p p p p p p p p g g h s s s s s a a a a a a a a ",
"a a a a a s a s s s s s s d h g p p p p p p p p p p p p p p p p p p p p p p p p p p p p p p p p g h d s s s a s a a a a a a a a ",
"a a a a a a a a a z a a i z i p p p p p p p p p p p p p p p p p p p p p p p p p p p p p p p p p g z z a a a a a a a a a a a a a "
};
