/* XPM */
static char *result[] = {
/* columns rows colors chars-per-pixel */
"64 64 173 2 ",
"   c #1F1A29",
".  c #291E27",
"X  c #241C2A",
"o  c #281E2E",
"O  c #2E2226",
"+  c #3A2728",
"@  c #3B282A",
"#  c #2C2130",
"$  c #302432",
"%  c #362935",
"&  c #3C2B36",
"*  c #3C2E38",
"=  c #77371C",
"-  c #402624",
";  c #452D26",
":  c #442C2D",
">  c #4F3728",
",  c #50372C",
"<  c #553527",
"1  c #482E30",
"2  c #442F3A",
"3  c #412F36",
"4  c #45313A",
"5  c #4C363C",
"6  c #4F3535",
"7  c #533A33",
"8  c #563B3E",
"9  c #583E3F",
"0  c #563838",
"q  c #723524",
"w  c #713B23",
"e  c #783927",
"r  c #683F3B",
"t  c #673C35",
"y  c #6B3123",
"u  c #5C422A",
"i  c #7B4224",
"p  c #71502B",
"a  c #7A562E",
"s  c #634531",
"d  c #65413D",
"f  c #6F453F",
"g  c #7D4638",
"h  c #7C483C",
"j  c #754235",
"k  c #543D41",
"l  c #5A3D41",
"z  c #493940",
"x  c #3B4465",
"c  c #4E414B",
"v  c #524045",
"b  c #5D4445",
"n  c #57444B",
"m  c #474255",
"M  c #4A4354",
"N  c #42435C",
"B  c #49455B",
"V  c #4D485E",
"C  c #534552",
"Z  c #5D4951",
"A  c #534A5C",
"S  c #5B4D5D",
"D  c #504759",
"F  c #624445",
"G  c #694847",
"H  c #6A4749",
"J  c #64494B",
"K  c #694A49",
"L  c #6C4642",
"P  c #7A4D44",
"I  c #724D4B",
"U  c #784F49",
"Y  c #714845",
"T  c #77514C",
"R  c #7D544F",
"E  c #634D55",
"W  c #6A4E52",
"Q  c #614D59",
"!  c #6C5055",
"~  c #66515C",
"^  c #6C525B",
"/  c #7E5654",
"(  c #755559",
")  c #7A5658",
"_  c #745252",
"`  c #424562",
"'  c #484760",
"]  c #4A4861",
"[  c #544B61",
"{  c #853618",
"}  c #8A3A1C",
"|  c #86381C",
" . c #943F19",
".. c #813C27",
"X. c #8B3D22",
"o. c #813F2B",
"O. c #9A4317",
"+. c #954019",
"@. c #A6511E",
"#. c #894C23",
"$. c #83412E",
"%. c #924B29",
"&. c #954521",
"*. c #815B2C",
"=. c #9D572A",
"-. c #804635",
";. c #884B33",
":. c #83493B",
">. c #8B4A39",
",. c #975532",
"<. c #915038",
"1. c #A65825",
"2. c #A85F25",
"3. c #A0592C",
"4. c #B15620",
"5. c #92672D",
"6. c #A26F2D",
"7. c #B16225",
"8. c #B4722F",
"9. c #B17A2F",
"0. c #AB6230",
"q. c #A56331",
"w. c #BC7D30",
"e. c #B47330",
"r. c #E66C1F",
"t. c #D76F23",
"y. c #DD6820",
"u. c #E37928",
"i. c #F67521",
"p. c #FD7721",
"a. c #FB7D24",
"s. c #854E41",
"d. c #895247",
"f. c #825653",
"g. c #865855",
"h. c #885A55",
"j. c #885750",
"k. c #DD862D",
"l. c #C08232",
"z. c #C98B33",
"x. c #FB8628",
"c. c #F88F2D",
"v. c #FE972C",
"b. c #E29932",
"n. c #EDA033",
"m. c #FBA432",
"M. c #FEAD34",
"N. c #FFB435",
"B. c #FFB936",
"V. c #BB8254",
"C. c #C88F45",
"Z. c #D2A041",
"A. c #D5A947",
"S. c #DBB049",
"D. c #EBB444",
"F. c #E2BA52",
"G. c #C79464",
"H. c #DBB26B",
"J. c #FEC349",
"K. c #F3CC55",
"L. c #F4D85C",
"P. c #FADB6C",
"I. c #FEE560",
"U. c #FFEC74",
"Y. c #FFF67D",
"T. c #D7B483",
"R. c #E3C280",
"E. c #F5E19B",
"W. c #FBEA9C",
"Q. c #FFFB97",
"!. c #FEF5B4",
"~. c #FFFEB3",
"^. c #FFFDC7",
/* pixels */
"v v v b K T T T T T T T T T T T T T T T T T T K b v v v v v v v v v v b K T T T T T T T T T T T T T T T T T T K b v v v v v v v ",
"v v b b K T T T T T T T T T T T T T T T T T T G b v v v v v v v v v b b K T T T T T T T T T T T T T T T T T T K b v v v v v v v ",
"v v b K K T T T T T T T T T T T T T T T T T T G K b b v 0 9 9 9 9 9 d L K T T T T T T T T T T T T T T T T T T G K b b v v v v v ",
"b b K K K T T T T T T T T T T T T T T T T T T T K G L d t t t t t t d f G T T T T T T T T T T T T T T T T T T T K K K b b v v v ",
"K K K K T T T T T T T T T T T T T T T T T T T T R U h j w q q e e e j j U T T T T T T T T T T T T T T T T T T T R T T K b v v v ",
"T T T T T T T T T T T T T T T T T T T T T T T R R d.:.....{ { { { | ..g h T T T T T T T T T T T T T T T T T T R R h.R T K b v v ",
"T T T T T T T T T T T T T T T T T T T T T T R R j.d.<.%.+.O.+.O.O.+.%.;.h U T T T T T T T T T T T T T T T T R R h.h.h.T K b v v ",
"T T T T T T T T T T T T T T T T T T T T T U R P d.>.,.=.2.7.7.7.7.7.=.,.;.h h U U T T T T T T T T T T T T T R R h.h.h.R K b v v ",
"T T T T T T T T T T T T T T T T T T T T U U h >.<.,.=.8.l.z.z.z.z.z.8.5.,.;.-.h h U T T T T T T T T T T T T R R h.h.h.T K b v v ",
"T T T T T T T T T T T T T T T T T T T T U P >.$.%.3.8.C.A.F.F.F.F.S.C.8.=.%...-.h U T T T T T T T T T T T T R R h.h.h.T K b v v ",
"T T T T T T T T T T T T T T T T T T T T U h $...&.1.w.Z.K.L.I.I.P.K.S.l.2. .} ..h U T T T T T T T T T T T T R R h.h.h.T K b v v ",
"T T T T T T T T T T T T T T T T T T T T U h $.| O.1.w.A.L.U.Y.Y.Y.P.F.z.0.O.} ..g U T T T T T T T T T T T T R R h.h.h.T K b v v ",
"T T T T T T T T T T T T T T T T T T T T U :.o.} +.1.l.H.P.Q.Q.Q.Q.E.F.C.7.O.} ..g P T T T T T T T T T T T T R R h.h.h.T K b v v ",
"T T T T T T T T T T T T T T T T T T T T U h $.} +.1.V.H.E.!.~.~.~.W.R.C.0.O.} ..g P T T T T T T T T T T T T R R h.h.h.T K b v v ",
"T T T T T T T T T T T T T T T T T T T T U h $.X. .1.V.T.E.!.^.^.^.W.R.G.0. .} ..g P T T T T T T T T T T T T R R h.h.h.T K b v v ",
"T T T T T T T T T T T T T T T T T T T U U h o.X. .1.V.T.E.!.^.^.~.W.R.G.0. .} ..g P T T T T T T T T T T T T T R h.h.h.T K b v v ",
"T T T T T T T T T T T T T T T T T T T T T h i X. .1.V.H.E.!.~.~.!.E.P.C.0.O.} ..g U T T T T T T T T T T T T T R h.h.h.T K b v v ",
"T T T T T T T T T T T T T T T T T T T T U h $.}  .1.l.H.P.W.Q.Q.Q.E.S.C.7.O.} ..g U T T T T T T T T T T T T R R h.h.h.T K b v v ",
"T T T T T T T T T T T T T T T T T T T T T h $.X. .1.w.A.L.U.Y.Y.Y.P.F.z.0. .} ..g P T T T T T T T T T T T T R h.h.h.h.T K b v v ",
"T T T T T T T T T T T T T T T T T T T T R :.$.X.} 1.e.b.K.P.I.I.I.K.A.l.1. .} ..g P T T T T T T T T T T R R R h.h.h.h.R K b v v ",
"T T T T T T T T T T T T T T T T T T U R R s.r q = #.6.z.D.J.K.K.D.D.Z.e.#.= y ..d U T T T T T T T T T R R h.h.h.h.h.h.T K b v v ",
"T T T T T T T T T T T T T T T T T T U R f.P r 1 < w *.w.b.M.M.N.N.n.l.0.i < , 6 d K T T T T T T T T T R h.h.h.h.h.h.h.T K b v v ",
"T T T T T T R R R R R R R R R T T / / R f.H 5 1 + > #.7.k.c.v.v.c.k.t.%., + @ 6 f I R R R R R T T R R R h.h.h.h.h.h.h.T K b v v ",
"K K K T T R R R R R R R R R R R R R h.h.f.H 5 # . - w 1.t.a.x.x.a.t.7.i ; . # & 9 T R R R R R R R R h.h.h.h.h.h.h.R T K b v v v ",
"b K K T T R h.h.h.h.h.h.h.h.h.h.h.h.h.h.f.H 5 $ . - q @.y.i.p.p.p.r.4.i ; . # 2 F / h.h.h.h.h.h.h.h.h.h.h.h.h.h.R T K b b v v v ",
"b b b K T h.h.h.h.h.h.h.h.h.h.h.h.h.h.h.f.H z # X - w @.y.i.p.p.i.r.4.i - . # 2 F R h.h.h.h.h.h.h.h.h.h.h.h.h.R T K b b v v v v ",
"v v b K T R h.h.h.h.h.h.h.h.h.h.h.h.h.h.f.H z # X - w @.y.i.p.a.p.r.4.i ; . # 2 F R h.h.h.h.h.h.h.h.h.h.h.h.h.T K b v v v v v v ",
"v v b b K T R / R R R R R R R R R R R R T l * # X - w @.y.i.a.a.p.r.4.i ; . o * v T R R R R R R R R R R R T T K b b v v v v v v ",
"v v v b b K K K K K K K K K K K K K K K F k * o X - w @.y.i.a.a.p.r.4.i ; . o % 5 b K K K K K K K K K K K K K b b v v v v v v v ",
"v v v b b b b b b b b b b b b b b b b b v 5 % o X - w @.y.i.p.a.p.r.4.i ; . X $ * d b b b b b b b b b b b b b b v v v v v v v v ",
"v v v v b b b b b b b b b b b b b b b b b 5 %   X - = @.y.i.i.p.p.r.4.i ; .   $ 4 v b b b b n b b b b b b b b b v v v v v v v v ",
"v v v v b b b b K b K b K b K b K b K b F 5 % # X - w @.y.i.a.a.p.r.4.e ; o   $ 5 v K b K b K b K b K b K b b b v v v v v v v v ",
"v v v b b K K K K K K K K K K G G K K K J 8 * o X - w 1.t.a.x.x.a.u.7.i ; . o % 5 F K K K K K K K K K K K K K b b v v v v v v v ",
"v v v b K K T T T T T T T T T T T T T T I l * o X - i 0.u.x.c.c.x.u.2.#.; . o & 8 G T T T T T T T T T T T T K K b v v v v v v v ",
"v v b b K T T T T T T T T T T T T T T T I 9 2 o X ; u 0.k.v.m.m.v.v.e.#., . o & 8 I T T T T T T T T T T T T T K K b b v v v v v ",
"b b K K K T T T T T T T T T T T T T T U I F 4 # . ; p 6.b.m.M.M.m.b.w.*.> . o & 8 K T T T T T T T T T T T T T T K K K b b v v v ",
"K K K K T T T T T T T T T T T T T T T T I l 4 # . ; p 8.b.M.N.N.B.n.l.a > . o & 8 I U T T T T T T T T T T T T T R T T K b v v v ",
"T T T T T T T T T T T T T T T T T T T T I b 4 # X ; p 9.b.N.B.B.B.n.l.a > . o & 8 G T T T T T T T T T T T T R R R h.R T K b v v ",
"T T T T T T T T T T T T T T T T T T T T U l 6 # . ; p 9.b.B.B.J.B.m.l.a , O X & k I T T T T T T T T T T T T R R h.h.h.T K b v v ",
"T T T T T T T T T T T T T T T T T T T T G b 4 # . ; p 9.b.N.B.B.B.n.t.*.> . o & 8 I T T T T T T T T T T T T R R h.h.h.R K b v v ",
"T T T T T T T T T T T T T T T T T T T T I F 4 # . ; p 6.b.m.M.M.M.b.9.a , X # 4 b G T T T T T T T T T T T T R / h.h.h.T K b v v ",
"T T T T T T T T T T T T T T T T T T T T T F 8 * 1 7 s 5.w.z.z.z.z.l.6.a , ; % 0 F I T T T T T T T T T T T T R R h.h.h.T K b v v ",
"T T T T T T T T T T T T T T T T T T T T U L F 8 8 7 s a *.5.5.5.5.5.a s 7 6 8 l G U T T T T T T T T T T T T R R h.h.h.T K b v v ",
"T T T T T T T T T T T T T T T T T T T T U I K F Y r 0 s < u u u u u > 7 0 8 F G K T T T T T T T T T T T T T R R h.h.h.T K b v v ",
"T T T T T T T T T T T T T T T T T T T T _ U / T T K r 6 + O O O O + : 4 d G I U T T T T T T T T T T T T T T R R h.h.h.T K b v v ",
"T T T T T T T T T T T T T T T T T T T T T T R / h.T F * #       X # % 6 F T T T T T T T T T T T T T T T T T R R h.h.h.T K b v v ",
"T T T T T T T T T T T T T T T T T T T T T T R R h.f.I 5 * # # # $ & 5 b G T T T T T T T T T T T T T T T T T R R h.h.h.T K b v v ",
"T T T T T T T T T T T T T T T T T T T T T T T R h.f.T F 5 4 & * 5 9 b G I T T T T T T T T T T T T T T T T T T R h.h.h.T K b v v ",
"T T T T T T T T T T T T T T T T T T T T T T T R h.h.R K b k z 8 d K K I T T T T T T T T T T T T T T T T T T T R h.h.h.T K b v v ",
"T T T T T T T T T T T T T T T T T T T T T T R R h.h.h.T J b c n J W I T T T T T T T T T T T T T T T T T T T R R h.h.h.T K b v v ",
"T T T T T T T T T T T T T T T T T T T T T T R h.h.h.) ! Z C c C Z E W W I T T T T T T T T T T T T T T T T T R h.h.h.h.T K b v v ",
"T T T T T T T T T T T T T T T T T T T T R R R h.h.f.) E D m B m D S E W W T T T T T T T T T T T T T T T R R R h.h.h.h.R K b v v ",
"T T T T T T T T T T T T T T T T T T T R R h.h.h.h./ ^ S V x x x ` V A E W T T T T T T T T T T T T T T R R h.h.h.h.h.h.T K b v v ",
"T T T T T T T T T T T T T T T T T T T R h.h.h.h./ ( ~ V ` x x x x x V A E I T T T T T T T T T T T T T R h.h.h.h.h.h.h.T K b v v ",
"T T T T T T R R R R R R R R R T R R R R h.h.) ) ( ~ S ] x x x x x x N A S E ! _ R R R R R R R T T R R R h.h.h.h.h.h.h.T K b v v ",
"K K K T T R R R R R R R R R R R R R h.h.h.) ( ^ S [ ] x x x x x x x x N V S Q ! _ R R R R R R R R R h.h.h.h.h.h.h.R T K b v v v ",
"b K K T T R h.h.h.h.h.h.h.h.h.h.h.h.h.h.f.) ^ S V N x x x x x x x x x ` ` ] S ~ ( f.h.h.h.h.h.h.h.h.h.h.h.h.h.h.R T K b b v v v ",
"b b b K T h.h.h.h.h.h.h.h.h.h.h.h.h.h.h.f.) ~ A x x x x x x x x x x x x x ] [ ~ ( / h.h.h.h.h.h.h.h.h.h.h.h.h.R T K b b v v v v ",
"v v b K T R h.h.h.h.h.h.h.h.h.h.h.h.h.h.h.) ^ A N x x x x x x x x x x x x ] [ ~ ( / h.h.h.h.h.h.h.h.h.h.h.h.g.T K b v v v v v v ",
"v v b b K T R / R R R R R R R R R R R R R W W C B B x x x x x x x x x x V A ~ ~ ! R R R R R R R R R R R R T T K b b v v v v v v ",
"v v v b b K K K K K K K K K K K K K K K G J Z n C m N N x x x x x x N N M Z Z J J K K K K K K K K K K K K K K b b v v v v v v v ",
"v v v b b b b K b b b b b b b b b b b b b b b b v c m N x x x x x x N M C n n K b b b b b b b b b b b b b b b b v v v v v v v v ",
"v v v v v b v b b b b b b b b b b b b b b b m v d c m N x x x x x x N m c b v b b b b b b b b b b b b b b b v b v v v v v v v v ",
"v v v v v v v v v v v v v v v v v v v v v v u c c c M N x x x x x x N M c v v v v v v v v v v v v v v v v v v v v v v v v v v v "
};
