/* XPM */
static char *result[] = {
/* columns rows colors chars-per-pixel */
"64 64 172 2 ",
"   c #1F1A28",
".  c #251C29",
"X  c #281E2E",
"o  c #241A27",
"O  c #2E2226",
"+  c #2A202E",
"@  c #3A2A26",
"#  c #3C292C",
"$  c #3D2726",
"%  c #2E2230",
"&  c #332431",
"*  c #392733",
"=  c #3A2A35",
"-  c #382B36",
";  c #68311E",
":  c #402624",
">  c #402C2F",
",  c #552E29",
"<  c #45322B",
"1  c #583F29",
"2  c #543C2B",
"3  c #422F39",
"4  c #453139",
"5  c #4B343C",
"6  c #4F3A3F",
"7  c #513735",
"8  c #533A33",
"9  c #543A3E",
"0  c #583E3E",
"q  c #733625",
"w  c #713B23",
"e  c #793B2B",
"r  c #653A33",
"t  c #693E36",
"y  c #6F382B",
"u  c #61452E",
"i  c #66482A",
"p  c #7F4423",
"a  c #7E402F",
"s  c #71502B",
"d  c #7A562E",
"f  c #7F5A2C",
"g  c #6A433D",
"h  c #7D4639",
"j  c #7C493D",
"k  c #734136",
"l  c #4C3C42",
"z  c #543B40",
"x  c #5A3E41",
"c  c #3B4466",
"v  c #4E414B",
"b  c #524045",
"n  c #5D4445",
"m  c #54454E",
"M  c #584449",
"N  c #4C4352",
"B  c #45445B",
"V  c #4B4559",
"C  c #4C485E",
"Z  c #5C4952",
"A  c #534A5B",
"S  c #5B4D5D",
"D  c #544756",
"F  c #624343",
"G  c #684746",
"H  c #6A4946",
"J  c #644748",
"K  c #64494C",
"L  c #6A4A49",
"P  c #7A4B42",
"I  c #744E4B",
"U  c #784F48",
"Y  c #77514C",
"T  c #7D544F",
"R  c #644D55",
"E  c #624E5A",
"W  c #694E52",
"Q  c #6C5055",
"!  c #64505D",
"~  c #6C525B",
"^  c #745252",
"/  c #7C5554",
"(  c #73545A",
")  c #7A5658",
"_  c #434662",
"`  c #484762",
"'  c #474863",
"]  c #4D4962",
"[  c #564C60",
"{  c #8B3B1C",
"}  c #85381C",
"|  c #9C3F13",
" . c #933F18",
".. c #913E17",
"X. c #863C23",
"o. c #813F2B",
"O. c #AB4614",
"+. c #A6511E",
"@. c #8E4426",
"#. c #934926",
"$. c #885D2D",
"%. c #9E5224",
"&. c #814535",
"*. c #8B4C32",
"=. c #804A3E",
"-. c #8A4C3D",
";. c #955434",
":. c #9A5933",
">. c #AC5722",
",. c #A25E2E",
"<. c #A15F30",
"1. c #91662D",
"2. c #AF6228",
"3. c #A26F2D",
"4. c #B5722E",
"5. c #A97B34",
"6. c #BA7E39",
"7. c #B47330",
"8. c #C55819",
"9. c #DE6820",
"0. c #DF7325",
"q. c #F67521",
"w. c #FD7721",
"e. c #FB7D24",
"r. c #895247",
"t. c #815653",
"y. c #855955",
"u. c #885A55",
"i. c #885750",
"p. c #AB6E40",
"a. c #BF8031",
"s. c #C68933",
"d. c #CE8F33",
"f. c #CD9B3F",
"g. c #DA9432",
"h. c #DD862D",
"j. c #FA8427",
"k. c #F68E2D",
"l. c #FB8A2A",
"z. c #FE952C",
"x. c #FC9B2E",
"c. c #EA9D33",
"v. c #FEA431",
"b. c #FEAD35",
"n. c #F0A433",
"m. c #FFB435",
"M. c #FFB936",
"N. c #BB8154",
"B. c #BD9353",
"V. c #F59D4F",
"C. c #D4A342",
"Z. c #DBB151",
"A. c #E0B74C",
"S. c #E4BE4E",
"D. c #FDB646",
"F. c #D3AB7C",
"G. c #FDBC69",
"H. c #FEC34A",
"J. c #EAC753",
"K. c #EFCF57",
"L. c #FECD54",
"P. c #FCD657",
"I. c #FCDD5D",
"U. c #FDE35F",
"Y. c #F8DA74",
"T. c #FFE761",
"R. c #FFEC64",
"E. c #FFF165",
"W. c #FDE574",
"Q. c #E3C488",
"!. c #F9D392",
"~. c #FDEC94",
/* pixels */
"b b b n L Y Y Y Y Y Y Y Y Y Y Y Y Y Y Y Y Y Y L n b b b b b b b b b b n L Y Y Y Y Y Y Y Y Y Y Y Y Y Y Y Y Y T L n z b b b b b b ",
"b b n n L Y Y Y Y Y Y Y Y Y Y Y Y Y Y Y Y Y Y L n b b b b b b b b b n n L Y Y Y Y Y Y Y Y Y Y Y Y Y Y Y Y Y I L n v b b b b b b ",
"b b n L L Y Y Y Y Y Y Y Y Y Y Y Y Y Y Y Y Y Y L L n n 9 0 0 0 0 0 0 g H G Y Y Y Y Y Y Y Y Y Y Y Y Y Y Y Y Y T L L n n b b b b b ",
"n n L L L Y Y Y Y Y Y Y Y Y Y Y Y Y Y Y Y Y Y Y L L G g g r r t t t t g H Y Y Y Y Y Y Y Y Y Y Y Y Y Y Y Y Y I U L L L n n b b b ",
"L L L L Y Y Y Y Y Y Y Y Y Y Y Y Y Y Y Y Y Y Y Y T Y P k y q ; w q e y k j I Y Y Y Y Y Y Y Y Y Y Y Y Y Y Y Y U ^ T Y Y L n b b b ",
"Y Y Y Y Y Y Y Y Y Y Y Y Y Y Y Y Y Y Y Y Y Y Y T T i.P h @.} } { { } X.@.j U Y Y Y Y Y Y Y Y Y Y Y Y Y Y Y Y U T T u.T Y L n b b ",
"Y Y Y Y Y Y Y Y Y Y Y Y Y Y Y Y Y Y Y Y Y Y / T i.r.-.*.@...| | |  .{ *.h j U Y U Y Y Y Y Y Y Y Y Y Y Y Y Y t.T u.u.u.Y L n b b ",
"Y Y Y Y Y Y Y Y Y Y Y Y Y Y Y Y Y Y Y Y Y Y r.U r.-.*.:.:.2.2.2.2.2.,.,.*.h j P U ^ Y Y Y Y Y Y Y Y Y Y Y Y / T u.u.u.T L n b b ",
"Y Y Y Y Y Y Y Y Y Y Y Y Y Y Y Y Y Y Y Y Y I r.&.-.;.:.:.6.s.s.s.s.s.6.7.;.*.o.&.P U I Y T U Y Y Y Y Y Y Y Y T T u.u.u.Y L n b b ",
"Y Y Y Y Y Y Y Y Y Y Y Y Y Y Y Y Y Y Y Y Y U =.&.@.#.2.6.f.Z.A.J.S.A.C.p.,.#.X.o.h U Y Y Y Y Y Y Y Y Y Y Y Y T T u.u.u.Y L n b b ",
"Y Y Y Y Y Y Y Y Y Y Y Y Y Y Y Y Y Y Y Y I P &.&.#.>.4.d.A.J.I.U.I.P.J.f.4.%.{ X.&.P U Y U Y Y Y Y Y Y Y Y Y T T u.u.u.Y L n b b ",
"Y Y Y Y Y Y Y Y Y Y Y Y Y Y Y Y Y I U U j h *.#.%.2.a.C.J.U.R.E.E.U.K.Z.B.4.,.<.*.o.P U I I Y Y Y Y Y Y Y Y T T u.u.u.Y L n b b ",
"Y Y Y Y Y Y Y Y Y Y Y Y Y Y Y Y Y U P h h *.:.<.7.s.f.Z.P.R.E.E.E.R.I.J.Z.B.N.5.:.*.&.r.h P Y Y Y Y Y Y Y Y T T u.u.u.Y L n b b ",
"Y Y Y Y Y Y Y Y Y Y Y Y Y Y Y Y I U h a @.#.:.6.f.Z.S.K.P.R.R.R.R.R.W.Y.!.Q.F.B.p.<.X.o.e P Y U Y Y Y Y Y Y T T u.u.u.Y L n b b ",
"Y Y Y Y Y Y Y Y Y Y Y Y Y Y Y Y I P a @.} %.4.d.A.K.I.T.U.U.U.R.R.T.W.~.~.!.Q.F.p.,.{ X.e P I I Y Y Y Y Y Y T T u.u.u.Y L n b b ",
"Y Y Y Y Y Y Y Y Y Y Y Y Y Y Y Y Y P a X...+.4.f.J.U.R.R.R.R.U.R.T.T.R.~.~.~.!.F.N.2. .{ &.r.U I Y Y Y Y Y Y Y T u.u.u.Y L n b b ",
"Y Y Y Y Y Y Y Y Y Y Y Y Y Y Y Y Y j a }  .+.4.C.K.R.R.E.R.U.U.R.R.R.W.W.W.!.Q.B.4.+. .{ X.j U I Y Y Y Y Y Y Y T u.u.u.Y L n b b ",
"Y Y Y Y Y Y Y Y Y Y Y Y Y Y Y Y Y j a X. .+.4.C.K.R.E.E.R.R.R.R.R.R.U.Y.L.G.V.h.>.+. .{ e j U T Y Y Y Y Y Y T T u.u.u.Y L n b b ",
"Y Y Y Y Y Y Y Y Y Y Y Y Y Y Y Y Y P a } ..+.4.C.J.U.R.R.R.U.R.R.R.U.I.H.D.V.k.0.8.O. .{ &.h U I Y Y Y Y Y Y T u.u.u.u.Y L n b b ",
"Y Y Y Y Y Y Y Y Y Y Y Y Y Y Y Y Y j a e  .p 4.C.J.U.R.E.R.U.U.U.U.I.L.D.x.j.q.8.O.|  .{ o.j I T Y Y Y Y T T / u.u.u.u.T L n b b ",
"Y Y Y Y Y Y Y Y Y Y Y Y Y Y Y Y I j &., ; p 3.f.J.U.R.E.T.T.T.I.P.H.D.v.k.e.9.8.O.| ; , r F P I Y Y Y T T u.u.u.u.u.u.Y L n b b ",
"Y Y Y Y Y Y Y Y Y Y Y Y Y Y Y Y I j 5 8 ; w 1.B.J.U.E.E.R.T.I.P.H.b.x.z.j.q.9.8.| w ; , r F I I Y Y Y T u.u.u.u.u.u.u.Y L n b b ",
"Y Y Y Y Y Y T T T T T T T T T Y I H 5 & # 1 f B.Z.T.E.R.R.T.P.D.b.z.l.l.j.q.9.>.@.@ # , 4 G T U Y T T T u.u.u.u.u.u.u.Y L n b b ",
"L L H Y Y T T t.T T T T T T T T T H z * . @ f B.J.I.R.R.T.I.L.D.x.j.e.w.q.q.9.>.w : . % 3 G I / T T u.u.u.u.u.u.u.T Y L n b b b ",
"n L L Y Y T u.u.u.u.u.u.u.u.u.u.y.I z & . @ s 5.A.P.T.U.I.P.H.b.k.e.q.w.w.q.9.+.w : . & 5 H t.u.u.u.u.u.u.u.u.u.T Y L n n b b b ",
"n n n L Y u.u.u.u.u.u.u.u.u.u.u.y.I z * . @ s 5.C.H.P.P.L.H.D.v.l.q.q.w.w.q.9.+.w : . & 5 I t.u.u.u.u.u.u.u.u.T Y L n n b b b b ",
"b b n L Y T u.u.u.u.u.u.u.u.u.u.i.I z * . @ i 3.C.D.H.H.H.M.b.x.l.q.q.w.w.q.9.+.w : . & 5 H t.u.u.u.u.u.u.u.u.Y L n b b b b b b ",
"b b n n L Y T T T T T T T T T T Y G 5 & o @ i 3.g.b.M.M.m.b.v.z.l.e.w.w.w.q.9.+.w : . + 4 G U / T T T T T Y Y L n n b b b b b b ",
"b b b n n L L L L L L L L L L L G x 3 & . $ i 3.g.b.m.m.b.b.v.x.l.j.e.e.e.q.9.+.w : o + - 0 J L L L L L L L L n n b b b b b b b ",
"b b b n n n n n n n n n n n n n x z = +   $ i 3.g.n.b.m.b.b.v.x.z.k.l.j.e.q.9.+.w : o + - 5 M n n n n n n n n n b b b b b b b b ",
"b b b b n n n n n n n n n n n n x l = + o @ u 3.g.b.m.m.b.b.v.v.x.x.z.l.j.q.9.+.w $   + - 5 n n n n n n n n n n b b b b b b b b ",
"b b b b n n n n L n L n L n L n L l 3 % . # i 3.g.b.m.m.b.b.b.b.b.v.v.z.l.e.9.+.w $ o + - 6 n n L n L n L n n n b b b b b b b b ",
"b b b n n L L L L L L L L G L H L n 3 & o @ i 3.g.b.m.m.b.m.b.b.m.b.v.x.z.j.0.+.w $ o + = 0 F L L L L L L L L n n b b b b b b b ",
"b b b n L L Y Y Y Y Y Y Y Y T Y I F 4 & o @ i 3.g.b.m.m.b.b.b.b.b.b.b.v.x.k.0.2.@.: . + 4 n I Y Y Y Y Y Y Y L L n b b b b b b b ",
"b b n n G Y Y Y Y Y Y Y Y Y Y Y I G 5 & . @ i 3.g.b.M.m.b.m.b.b.b.b.b.b.b.x.z.2.s @ . X 4 n I Y Y Y Y Y Y Y Y L L n n b b b b b ",
"n n L L L Y Y Y Y Y Y Y Y Y Y Y I F 4 & . @ i 3.g.b.m.m.b.b.m.b.m.b.m.b.b.v.g.4.s @ . + 4 g L Y Y Y Y Y Y Y Y Y L L L n n b b b ",
"L L L L Y Y Y Y Y Y Y Y Y Y Y Y I F 9 * + @ i 1.s.c.v.b.b.b.b.b.b.b.b.b.b.c.d.3.s < . & 4 n I Y Y Y Y Y Y Y Y Y T Y Y L n b b b ",
"Y Y Y Y Y Y Y Y Y Y Y Y Y Y Y Y U G 9 4 * , u d 1.s.d.c.n.b.m.m.m.m.v.c.g.s.5.1.u # & 4 9 F Y Y Y Y Y Y Y Y T T T u.T Y L n b b ",
"Y Y Y Y Y Y Y Y Y Y Y Y Y Y Y Y Y H F 9 4 7 8 u d 1.3.s.c.b.M.M.M.b.n.d.5.1.f u 8 7 4 9 F H Y Y Y Y Y Y Y Y T T u.u.u.Y L n b b ",
"Y Y Y Y Y Y Y Y Y Y Y Y Y Y Y Y Y Y I L g 9 5 8 2 1 f 5.g.b.m.M.M.m.c.a.1.u 2 8 7 9 F H H Y Y Y Y Y Y Y Y Y T T u.u.u.T L n b b ",
"Y Y Y Y Y Y Y Y Y Y Y Y Y Y Y Y Y Y Y Y I F z = > < i 1.s.c.v.m.b.n.d.3.s < # * 4 F H T Y Y Y Y Y Y Y Y Y Y T T u.u.u.Y L n b b ",
"Y Y Y Y Y Y Y Y Y Y Y Y Y Y Y Y Y Y Y Y Y H n 9 * > u d 3.s.d.d.d.s.5.$.u # & 4 9 H Y Y Y Y Y Y Y Y Y Y Y Y T T u.u.u.Y L n b b ",
"Y Y Y Y Y Y Y Y Y Y Y Y Y Y Y Y Y Y Y Y U ^ H x z 0 8 u d 1.1.1.1.1.$.u 8 * 4 9 F I Y Y Y Y Y Y Y Y Y Y Y Y T T u.u.u.Y L n b b ",
"Y Y Y Y Y Y Y Y Y Y Y Y Y Y Y Y Y Y Y Y ^ U U H H x 9 7 r 1 1 1 1 1 2 8 7 9 0 G H Y Y Y Y Y Y Y Y Y Y Y Y Y T T u.u.u.Y L n b b ",
"Y Y Y Y Y Y Y Y Y Y Y Y Y Y Y Y Y Y Y Y T I T T t.I x 7 # @ O O O O # - 9 n H Y Y Y Y Y Y Y Y Y Y Y Y Y Y Y T T u.u.u.Y L n b b ",
"Y Y Y Y Y Y Y Y Y Y Y Y Y Y Y Y Y Y Y Y I T T T u.t.I 4 &     + o . & 4 x H Y Y Y Y Y Y Y Y Y Y Y Y Y Y Y Y T T u.u.u.Y L n b b ",
"Y Y Y Y Y Y Y Y Y Y Y Y Y Y Y Y Y Y Y Y Y Y T T u.u.^ 0 4 % % % & * 4 9 G I Y Y Y Y Y Y Y Y Y Y Y Y Y Y Y Y T T u.u.u.Y L n b b ",
"Y Y Y Y Y Y Y Y Y Y Y Y Y Y Y Y Y Y Y Y Y Y I T u.u.t.H b = = = 5 9 x F I Y Y Y Y Y Y Y Y Y Y Y Y Y Y Y Y Y Y T u.u.y.Y L n b b ",
"Y Y Y Y Y Y Y Y Y Y Y Y Y Y Y Y Y Y Y Y Y Y Y / u.u.y.Y n z l 9 n G L L I Y Y Y Y Y Y Y Y Y Y Y Y Y Y Y Y Y Y T u.u.u.Y L n b b ",
"Y Y Y Y Y Y Y Y Y Y Y Y Y Y Y Y Y Y Y Y Y Y T Y ) y./ W K M v M n I Q I W Y Q I Y Y Y Y Y Y Y Y Y Y Y Y Y Y T T u.u.u.Y L n b b ",
"Y Y Y Y Y Y Y Y Y Y Y Y Y Y Y Y Y Y Y Y Y Y ^ ) ( ( ~ R Z m v m Z W W R R R W W Q Y Y Y Y Y Y Y Y Y Y Y Y Y T u.u.u.u.Y L n b b ",
"Y Y Y Y Y Y Y Y Y Y Y Y Y Y Y Y Y Y Y Y T Y ^ ~ ! S S A V V B V C A A A A A D R W I Y Y Y Y Y Y Y Y Y Y T T T u.u.u.u.T L n b b ",
"Y Y Y Y Y Y Y Y Y Y Y Y Y Y Y Y Y Y Y T T ) ( ! [ ' ' ' _ _ c B C C ' _ ' ' C S R Q U Y Y Y Y Y Y Y Y T T u.u.u.u.u.u.Y L n b b ",
"Y Y Y Y Y Y Y Y Y Y Y Y Y Y Y Y Y Y Y T y.) ~ [ ' c c c c c c c c c c c c c c C D W Y Y Y Y Y Y Y Y Y T u.u.u.u.u.u.u.Y L n b b ",
"Y Y Y Y Y Y T T T T T T T T T Y Y T ^ ^ ) ~ S [ ' c c c c c c c c c c c c c c ] S E W Q Y ^ T Y Y T T T u.u.u.u.u.u.u.Y L n b b ",
"L L L Y Y T T T T T T T T T T T / ^ ) ~ S S ] ' c c c c c c c c c c c c c c c c B [ S R Q ^ T T T T u.u.u.u.u.u.u.T Y L n b b b ",
"n L L Y Y T u.u.u.u.u.u.u.u.u.u.u.) ( S [ ' _ c c c c c c c c c c c c c c c c c ' ' C S ~ ) y.y.u.u.u.u.u.u.u.u.T Y L n n b b b ",
"n n n L Y u.u.u.u.u.u.u.u.u.u.u.u.) ~ S ' _ _ c c c c c c c c c c c c c c c c c c c ] [ ! ) y.u.u.u.u.u.u.u.u.T Y L n n b b b b ",
"b b n L Y T u.u.u.u.u.u.u.u.u.u.u.) ( S [ ' _ c c c c c c c c c c c c c c c c c _ ' ] S ~ ) y.u.u.u.u.u.u.u.u.Y L n b b b b b b ",
"b b n n L Y T T T T T T T T T T T Y Q R S C ] c c c c c c c c c c c c c c c c c ' C S E ~ ^ T T T T T T T Y Y L n n b b b b b b ",
"b b b n n L L L L L L L L L L L L K K Z Z D V c c c c c c c c c c c c c c c c ' C D Z Z K n L L L L L L L L L n n b b b b b b b ",
"b b b n n n n L n n n n n n n n n n n n M m v B c c c c c c c c c c c c c c c C V m n n n n n n n n n n n n n n b b b b b b b b ",
"b b b b b n b n n n n n n n n n n n n n n M l B c c c c c c c c c c c c c c c B N m n n n n n n n n n n n n b n b b b b b b b b ",
"b b b b b b b b b b b b b b b b b b b b b b v c c c c c c c c c c c c c c c c B N v b b b b b b b b b b b b b b b b b b b b b b "
};
