/* XPM */
static char *result[] = {
/* columns rows colors chars-per-pixel */
"64 64 171 2 ",
"   c #1F1A28",
".  c #251C29",
"X  c #281E2E",
"o  c #241A27",
"O  c #2E2226",
"+  c #2A202E",
"@  c #3A2A26",
"#  c #3C292C",
"$  c #3D2726",
"%  c #2E2230",
"&  c #332431",
"*  c #392733",
"=  c #3A2A35",
"-  c #382B36",
";  c #68311E",
":  c #402624",
">  c #402C2F",
",  c #562F2A",
"<  c #45322B",
"1  c #583F29",
"2  c #533C2B",
"3  c #422E39",
"4  c #463139",
"5  c #4B343C",
"6  c #4F3A3F",
"7  c #513735",
"8  c #533A33",
"9  c #533A3E",
"0  c #583E3E",
"q  c #733625",
"w  c #713B23",
"e  c #793B2B",
"r  c #653A33",
"t  c #693E36",
"y  c #6F382B",
"u  c #62452E",
"i  c #66482A",
"p  c #7F4423",
"a  c #7E402F",
"s  c #71502B",
"d  c #7A562E",
"f  c #7F5A2C",
"g  c #7D4639",
"h  c #7C493D",
"j  c #734136",
"k  c #65403A",
"l  c #4C3C42",
"z  c #543B40",
"x  c #5A3E41",
"c  c #3B4466",
"v  c #4E414B",
"b  c #524045",
"n  c #5D4445",
"m  c #54454E",
"M  c #584449",
"N  c #4B4352",
"B  c #45445B",
"V  c #4B4559",
"C  c #4E485D",
"Z  c #534654",
"A  c #5C4952",
"S  c #534A5B",
"D  c #5B4D5D",
"F  c #624343",
"G  c #694746",
"H  c #6A4946",
"J  c #654648",
"K  c #64494C",
"L  c #694A49",
"P  c #7A4B42",
"I  c #744E4B",
"U  c #784F48",
"Y  c #77514C",
"T  c #7D544F",
"R  c #644D55",
"E  c #6C4F51",
"W  c #624E5B",
"Q  c #6D5054",
"!  c #66515C",
"~  c #6C525B",
"^  c #745252",
"/  c #7C5553",
"(  c #74545A",
")  c #7A5658",
"_  c #434662",
"`  c #474863",
"'  c #4C4962",
"]  c #564C60",
"[  c #8B3B1C",
"{  c #85381C",
"}  c #9C3F13",
"|  c #933F19",
" . c #913E17",
".. c #863D24",
"X. c #813F2B",
"o. c #8B3E25",
"O. c #AB4614",
"+. c #A6511E",
"@. c #86412B",
"#. c #924825",
"$. c #885D2D",
"%. c #9E5224",
"&. c #814535",
"*. c #8B4C32",
"=. c #81483B",
"-. c #8A4938",
";. c #955433",
":. c #9B5933",
">. c #AC5722",
",. c #A25E2E",
"<. c #A15F30",
"1. c #91662D",
"2. c #AF6228",
"3. c #A26F2D",
"4. c #B5722E",
"5. c #A97B34",
"6. c #BA7E39",
"7. c #C55819",
"8. c #DE6820",
"9. c #DF7325",
"0. c #F67521",
"q. c #FD7721",
"w. c #FB7D24",
"e. c #895146",
"r. c #815653",
"t. c #855955",
"y. c #885A55",
"u. c #885750",
"i. c #AC6E41",
"p. c #BF8031",
"a. c #C68933",
"s. c #CE8F33",
"d. c #CD9B3F",
"f. c #DA9432",
"g. c #DD862D",
"h. c #FA8427",
"j. c #F68E2D",
"k. c #FB8A2A",
"l. c #FE952C",
"z. c #FC9B2E",
"x. c #EA9D33",
"c. c #FEA431",
"v. c #FEAD35",
"b. c #F0A433",
"n. c #FFB435",
"m. c #FFB936",
"M. c #BB8154",
"N. c #BD9353",
"B. c #F59D4F",
"V. c #D4A342",
"C. c #DBB151",
"Z. c #E0B74C",
"A. c #E4BE4E",
"S. c #FDB646",
"D. c #D3AB7C",
"F. c #FDBC69",
"G. c #FEC34A",
"H. c #EAC753",
"J. c #EFCF57",
"K. c #FECD54",
"L. c #FCD657",
"P. c #FCDD5D",
"I. c #FDE35F",
"U. c #F8DA74",
"Y. c #FFE761",
"T. c #FFEC64",
"R. c #FFF165",
"E. c #FDE574",
"W. c #E3C488",
"Q. c #F9D392",
"!. c #FEEC94",
/* pixels */
"b b b n L Y Y Y Y Y Y Y Y Y Y Y Y Y Y Y Y Y Y L n b b b b b b b b b b n L Y Y Y Y Y Y Y Y Y Y Y Y Y Y Y Y Y Y L n b b b b b b b ",
"b b n n L Y Y Y Y Y Y Y Y Y Y Y Y Y Y Y Y Y Y L n z b b v v b b b b n M L Y Y Y Y Y Y Y Y Y Y Y Y Y Y Y Y Y Y L n b b b b b b b ",
"b b n L L Y Y Y Y Y Y Y Y Y Y Y Y Y Y Y Y Y Y L L n n b z x x x 0 0 k G G Y Y Y Y Y Y Y Y Y Y Y Y Y Y Y Y Y Y H L n n b b b b b ",
"n n L L L Y Y Y Y Y Y Y Y Y Y Y Y Y Y Y Y Y Y Y L L H k t r r r r t k h H Y Y Y Y Y Y Y Y Y Y Y Y Y Y Y Y Y Y Y L L L n n b b b ",
"L L L L Y Y Y Y Y Y Y Y Y Y Y Y Y Y Y Y Y Y Y U T I P j y q w w q e e j P Y Y Y Y Y Y Y Y Y Y Y Y Y Y Y Y Y Y Y T Y Y L n b b b ",
"Y Y Y Y Y Y Y Y Y Y Y Y Y Y Y Y Y Y Y Y Y Y Y T T u.=.X...{ { [  .{ @.j h U Y Y Y Y Y Y Y Y Y Y Y Y Y Y Y Y Y T T y.T Y L n b b ",
"Y Y Y Y Y Y Y Y Y Y Y Y Y Y Y Y Y Y Y Y Y Y Y / u.e.-.*.[ | } } }  .#.*.h h U Y Y Y Y Y Y Y Y Y Y Y Y Y Y Y r.T y.y.y.Y L n b b ",
"Y Y Y Y Y Y Y Y Y Y Y Y Y Y Y Y Y Y Y Y Y Y T e.e.-.;.<.,.>.2.2.2.2.2.;.*.g h U U I Y Y Y Y Y Y Y Y Y Y Y Y T T y.y.y.T L n b b ",
"Y Y Y Y Y Y Y Y Y Y Y Y Y Y Y Y Y Y Y Y Y U P =.-.;.:.i.6.a.a.a.a.a.6.,.;.*.a g h Y Y Y Y Y Y Y Y Y Y Y Y Y T T y.y.y.Y L n b b ",
"Y Y Y Y Y Y Y Y Y Y Y Y Y Y Y Y Y Y Y Y Y P h @.o.#.,.6.V.C.A.A.Z.C.d.6.,.#.@.a h U Y Y Y Y Y Y Y Y Y Y Y Y T T y.y.y.Y L n b b ",
"Y Y Y Y Y Y Y Y Y Y Y Y Y Y Y Y Y Y Y U U P -.o.| %.4.d.A.L.P.Y.P.J.Z.s.4.%.#.@.g h Y Y Y Y Y Y Y Y Y Y Y Y T T y.y.y.Y L n b b ",
"Y Y Y Y Y Y Y Y Y Y Y Y Y Y Y Y Y I U U P &.*.<.,.4.N.C.J.Y.R.R.T.I.H.V.p.2.%.#.*.g h U U Y Y Y Y Y Y Y Y Y T T y.y.y.Y L n b b ",
"Y Y Y Y Y Y Y Y Y Y Y Y Y Y Y Y I P P =.=.-.;.i.i.N.C.H.P.T.T.R.R.Y.L.Z.d.a.4.:.;.*.&.h P U Y Y Y Y Y Y Y Y T T y.y.y.Y L n b b ",
"Y Y Y Y Y Y Y Y Y Y Y Y Y Y Y Y I P g e o.<.i.N.D.Q.Q.U.E.T.T.T.T.Y.I.J.A.C.d.6.1.#...a g U Y Y Y Y Y Y Y Y T T y.y.y.Y L n b b ",
"Y Y Y Y Y Y Y Y Y Y Y Y Y Y Y Y I h e ..o.%.M.W.W.Q.!.!.E.Y.Y.T.Y.Y.I.I.P.J.Z.s.4.>.{ ..&.P Y Y Y Y Y Y Y Y T T y.y.y.Y L n b b ",
"Y Y Y Y Y Y Y Y Y Y Y Y Y Y Y Y P e.X.[ | >.i.D.Q.!.!.!.T.Y.Y.Y.Y.Y.T.T.T.I.H.d.4.+.| ..e P U Y Y Y Y Y Y Y Y T y.y.y.Y L n b b ",
"Y Y Y Y Y Y Y Y Y Y Y Y Y Y Y Y U h ..[  .+.4.N.W.Q.E.E.E.T.T.T.Y.Y.T.R.R.Y.J.V.4.+. ...X.P I I Y Y Y Y Y Y Y T y.y.y.Y L n b b ",
"Y Y Y Y Y Y Y Y Y Y Y Y Y Y Y Y U h a [  .+.2.g.B.F.K.U.I.T.T.T.T.Y.T.R.R.Y.J.V.4.+. ...e P I T Y Y Y Y Y Y T T y.y.y.Y L n b b ",
"Y Y Y Y Y Y Y Y Y Y Y Y Y Y Y Y U h @.[ | O.7.9.j.B.S.G.P.I.T.Y.Y.Y.T.T.T.I.H.V.4.+.| ..&.P I U Y Y Y Y Y Y T y.y.y.y.Y L n b b ",
"Y Y Y Y Y Y Y Y Y Y Y Y Y Y Y Y U h a [  .} O.7.0.h.c.S.K.P.P.Y.Y.Y.Y.T.R.I.H.d.4...| ..X.P ^ U Y Y Y Y T T T y.y.y.y.T L n b b ",
"Y Y Y Y Y Y Y Y Y Y Y Y Y Y Y Y U F r , ; } O.7.8.w.j.c.S.G.L.P.I.Y.Y.R.T.I.H.d.3.@.; , X.P I T Y Y Y T T y.y.y.y.y.y.Y L n b b ",
"Y Y Y Y Y Y Y Y Y Y Y Y Y Y Y Y U F r , ; w } 7.8.0.h.l.c.v.G.K.P.Y.T.R.R.I.H.N.1.w ; 2 5 P I U Y Y Y T y.y.y.y.y.y.y.Y L n b b ",
"Y Y Y Y Y U r.T T T T T T T T Y I F 4 , @ @ @.+.8.0.w.h.k.l.b.G.L.Y.R.R.R.I.A.N.f 2 @ & 5 G / U Y T T T y.y.y.y.y.y.y.Y L n b b ",
"L L L Y Y T T T T T T T T T T T Y F 5 & . @ p >.8.0.q.q.w.h.z.S.K.P.Y.T.T.P.A.N.f @ o & 5 G T U T T y.y.y.y.y.y.y.T Y L n b b b ",
"n L L Y Y T y.y.y.y.y.y.y.y.y.y.r.H z & . : w +.8.0.q.q.0.w.j.v.G.L.P.I.I.L.Z.5.s @ + * 9 I t.y.y.y.y.y.y.y.y.y.T Y L n n b b b ",
"n n n L Y y.y.y.y.y.y.y.y.y.y.y.r.H l & . : w +.8.0.q.0.0.0.k.c.S.G.K.L.L.G.V.5.s @ . * z I t.y.y.y.y.y.y.y.y.T Y L n n b b b b ",
"b b n L Y T y.y.y.y.y.y.y.y.y.y.t.H 5 & o : w +.8.0.q.q.0.0.k.z.v.m.G.G.G.S.V.3.i @ . * z I r.y.y.y.y.y.y.y.y.Y L n b b b b b b ",
"b b n n L Y T T T T T T T T T T Y F 4 + X : w +.8.0.q.q.q.w.k.l.c.v.n.m.n.n.f.3.i @ . & 5 J U r.T T T T T Y Y L n n b b b b b b ",
"b b b n n L L L L L L L L L L L J z - X X : w +.8.0.w.w.w.h.k.z.c.v.v.n.n.b.f.3.i @ . % 4 0 L L L L L L L L L n n b b b b b b b ",
"b b b n n n n n n n n n n n n n x z - X o : w +.8.0.w.h.k.j.l.l.c.v.v.n.n.v.f.3.i @   + - 6 n n n n n n n n n n b b b b b b b b ",
"b b b b n n n n n n n n n n n n x 5 & X o : w +.8.0.h.k.l.z.c.c.c.v.v.n.v.v.f.3.i @ o + - 6 n n n n n n n n n n b b b b b b b b ",
"b b b b n n n n L n L n L n L n J l = X o : w +.8.w.k.l.c.c.v.v.v.v.v.n.n.v.f.3.i @   + 4 6 L n L n L n L n n n b b b b b b b b ",
"b b b n n L L L L L L L L H H H J 9 = + o : w >.9.h.l.z.c.v.v.v.v.v.n.n.n.v.f.3.i @ o + 4 0 G H L L L L L L L n n b b b b b b b ",
"b b b n L L Y Y Y Y Y Y Y Y Y Y I k 5 + . $ @.2.9.j.z.c.v.v.n.v.n.v.v.n.n.v.f.3.i @ . & 5 G I Y Y Y Y Y Y Y L L n b b b b b b b ",
"b b n n L Y Y Y Y Y Y Y Y Y Y Y I n 4 X o @ s 2.j.c.c.v.v.v.v.n.v.n.v.m.m.v.f.3.i @ . & 4 G I Y Y Y Y Y Y Y Y L L n n b b b b b ",
"n n L L L Y Y Y Y Y Y Y Y Y Y Y L n 4 & o @ s 4.f.c.v.v.v.n.v.v.v.v.v.n.n.b.f.3.i @ . & 5 F Y Y Y Y Y Y Y Y Y Y L L L n n b b b ",
"L L L L Y Y Y Y Y Y Y Y Y Y Y Y I F 5 & o < s 3.s.x.v.v.v.v.v.v.v.v.v.v.v.x.a.1.i $ X * 9 G Y Y Y Y Y Y Y Y Y Y T Y Y L n b b b ",
"Y Y Y Y Y Y Y Y Y Y Y Y Y Y Y Y Y F 9 4 & # u 1.5.a.f.x.v.n.n.n.n.v.b.x.s.6.3.d u , * 3 9 G Y Y Y Y Y Y Y Y T T T y.T Y L n b b ",
"Y Y Y Y Y Y Y Y Y Y Y Y Y Y Y Y Y L k 9 5 7 2 u $.1.5.s.b.v.m.m.n.v.x.a.3.1.d u 8 7 5 9 k L Y Y Y Y Y Y Y Y Y T y.y.y.Y L n b b ",
"Y Y Y Y Y Y Y Y Y Y Y Y Y Y Y Y Y Y L G x 9 7 2 2 i 1.6.x.v.m.m.n.v.f.5.f 1 2 8 4 9 n H I Y Y Y Y Y Y Y Y Y T T y.y.y.T L n b b ",
"Y Y Y Y Y Y Y Y Y Y Y Y Y Y Y Y Y Y Y Y L F 5 = # < s 3.s.b.c.v.v.x.a.1.i < # * 9 G I Y Y Y Y Y Y Y Y Y Y Y T T y.y.y.Y L n b b ",
"Y Y Y Y Y Y Y Y Y Y Y Y Y Y Y Y Y Y Y Y Y H 0 5 * > u $.5.a.s.s.a.a.3.d u # & 4 x L Y Y Y Y Y Y Y Y Y Y Y Y T T y.y.y.Y L n b b ",
"Y Y Y Y Y Y Y Y Y Y Y Y Y Y Y Y Y Y Y Y Y I G 0 5 3 8 u $.1.1.1.1.1.d u 2 7 5 9 G I Y Y Y Y Y Y Y Y Y Y Y Y T T y.y.y.Y L n b b ",
"Y Y Y Y Y Y Y Y Y Y Y Y Y Y Y Y Y Y Y Y Y I I G G F 0 8 2 1 1 1 1 2 u 8 4 9 F H L Y Y Y Y Y Y Y Y Y Y Y Y Y T T y.y.y.Y L n b b ",
"Y Y Y Y Y Y Y Y Y Y Y Y Y Y Y Y Y Y Y Y Y Y / Y T H F * # O O O O $ # 7 9 F L Y Y Y Y Y Y Y Y Y Y Y Y Y Y Y T T y.y.y.Y L n b b ",
"Y Y Y Y Y Y Y Y Y Y Y Y Y Y Y Y Y Y Y Y Y Y T T y./ J 3 % .   . . X * 5 n I Y Y Y Y Y Y Y Y Y Y Y Y Y Y Y Y T T y.y.y.Y L n b b ",
"Y Y Y Y Y Y Y Y Y Y Y Y Y Y Y Y Y Y Y Y Y Y T T y.y.Y 9 - % + % & * 5 9 H Y Y Y Y Y Y Y Y Y Y Y Y Y Y Y Y Y T T y.y.y.Y L n b b ",
"Y Y Y Y Y Y Y Y Y Y Y Y Y Y Y Y Y Y Y Y Y Y Y T y.y./ G l 4 - 3 5 9 F G I Y Y Y Y Y Y Y Y Y Y Y Y Y Y Y Y Y Y T y.y.y.Y L n b b ",
"Y Y Y Y Y Y Y Y Y Y Y Y Y Y Y Y Y Y Y Y Y Y Y T y.t.t.L n z l 6 n H H Y Y Y Y Y Y Y Y Y Y Y Y Y Y Y Y Y Y Y Y T y.y.y.Y L n b b ",
"Y Y Y Y Y Y Y Y Y Y Y Y Y Y Y Y Y Y Y Y Y Y Y Y t.t.) ^ J M v M J E E E L Y E I Y Y Y Y Y Y Y Y Y Y Y Y Y Y T T y.y.y.Y L n b b ",
"Y Y Y Y Y Y Y Y Y Y Y Y Y Y Y Y Y Y Y Y Y Y ^ ( ( ~ ~ R A m N m A R R R R R R E ^ Y Y Y Y Y Y Y Y Y Y Y Y Y T y.y.y.y.Y L n b b ",
"Y Y Y Y Y Y Y Y Y Y Y Y Y Y Y Y Y Y Y Y T Y Q ~ ! ] D D V V V V S S S S S S D R Q Y Y Y Y Y Y Y Y Y Y Y T T T y.y.y.y.T L n b b ",
"Y Y Y Y Y Y Y Y Y Y Y Y Y Y Y Y Y Y Y T T ) ( D ' ` ` ` _ _ c B B ` B ` ` ` C A R ^ Y Y Y Y Y Y Y Y Y T T y.y.y.y.y.y.Y L n b b ",
"Y Y Y Y Y Y Y Y Y Y Y Y Y Y Y Y Y Y Y Y t.( ! ] ` c c c c c c c c c c c c c ` C R L L Y Y Y Y Y Y Y Y T y.y.y.y.y.y.y.Y L n b b ",
"Y Y Y Y Y Y T / T T T T T T r.Y Y / ^ ( ( ! D ` c c c c c c c c c c c c c c _ ' D R Q ^ ^ Y T Y Y T T T y.y.y.y.y.y.y.Y L n b b ",
"L L L Y Y T T T r.T T T T T T T T ^ ( ~ D ] ` ` c c c c c c c c c c c c c c c _ C S D ! Q ^ T T T T y.y.y.y.y.y.y.T Y L n b b b ",
"n L L Y Y T y.y.u.y.y.y.y.y.y.y.t.) ~ D ' ` _ c c c c c c c c c c c c c c c c c _ ` ] ! ~ ) y.y.y.y.y.y.y.y.y.y.T Y L n n b b b ",
"n n n L Y y.y.y.y.y.y.y.y.y.y.y.y.( ! ] ` _ _ c c c c c c c c c c c c c c c c c c ` ` D ~ ) y.y.y.y.y.y.y.y.y.T Y L n n b b b b ",
"b b n L Y T y.y.y.y.y.y.y.y.y.y.t.) ! D ] ` _ c c c c c c c c c c c c c c c c c c ` ' W ( ) y.y.y.y.y.y.y.y.y.Y L n b b b b b b ",
"b b n n L Y T T T T T T T T T T Y ^ Q ! ] C _ c c c c c c c c c c c c c c c c c C ] D R Q ^ T T T T T T T Y Y L n n b b b b b b ",
"b b b n n L L L L L L L L L L L H J J K A C N c c c c c c c c c c c c c c c c ' C Z A A K L L L L L L L L L L n n b b b b b b b ",
"b b b n n n n L n n n n n n n n n n M M M v l c c c c c c c c c c c c c c c c C N m n n n n n n n n n n n n n n b b b b b b b b ",
"b b b b b n b n n n n n n n n n n n n n M M N B c c c c c c c c c c c c c c _ B m m n n n n n n n n n n n n b n b b b b b b b b ",
"b b b b b b b b b b b b b b b b b b b b b v B c c c c c c c c c c c c c c c B B N b b b b b b b b b b b b b b b b b b b b b b b "
};
