/* XPM */
static char *result[] = {
/* columns rows colors chars-per-pixel */
"64 64 170 2 ",
"   c #291E27",
".  c #251D2C",
"X  c #2B1F2A",
"o  c #2E2226",
"O  c #2B202C",
"+  c #302327",
"@  c #3E2A2D",
"#  c #2D2230",
"$  c #322531",
"%  c #3B2A35",
"&  c #372A35",
"*  c #76361C",
"=  c #402624",
"-  c #442D29",
";  c #4E362A",
":  c #4F382C",
">  c #5F352B",
",  c #442F39",
"<  c #402D37",
"1  c #453139",
"2  c #4D363D",
"3  c #543B35",
"4  c #51373A",
"5  c #53393D",
"6  c #593D3F",
"7  c #5B2D20",
"8  c #713B23",
"9  c #783724",
"0  c #683C33",
"q  c #5A412A",
"w  c #5F4330",
"e  c #66482F",
"r  c #6E4E2A",
"t  c #7B4224",
"y  c #7F5A2C",
"u  c #64453A",
"i  c #7D4638",
"p  c #7B483D",
"a  c #724238",
"s  c #543D41",
"d  c #5C3E41",
"f  c #493940",
"g  c #3A4466",
"h  c #4F404A",
"j  c #524045",
"k  c #5D4445",
"l  c #58454B",
"z  c #4A4559",
"x  c #484459",
"c  c #534652",
"v  c #5C4953",
"b  c #544A5C",
"n  c #5B4D5D",
"m  c #634445",
"M  c #694847",
"N  c #64494B",
"B  c #6A4A49",
"V  c #6B4745",
"C  c #7A4C43",
"Z  c #724E4B",
"A  c #784F48",
"S  c #77514C",
"D  c #7D544F",
"F  c #654E55",
"G  c #694E53",
"H  c #624D59",
"J  c #6A515A",
"K  c #7D5553",
"L  c #755456",
"P  c #444663",
"I  c #4A4863",
"U  c #484760",
"Y  c #544B60",
"T  c #8B391B",
"R  c #86371A",
"E  c #983B12",
"W  c #923E19",
"Q  c #833C25",
"!  c #813F2B",
"~  c #8B3E25",
"^  c #9F4013",
"/  c #94431C",
"(  c #984319",
")  c #AB4714",
"_  c #B94E16",
"`  c #874827",
"'  c #924825",
"]  c #885D2D",
"[  c #9C592D",
"{  c #96532C",
"}  c #814634",
"|  c #884B35",
" . c #965431",
".. c #AC5621",
"X. c #A55C27",
"o. c #8E642D",
"O. c #94682E",
"+. c #977E3E",
"@. c #AE6126",
"#. c #A16F2D",
"$. c #B3762E",
"%. c #AC6638",
"&. c #BC7D30",
"*. c #BA7E39",
"=. c #C05216",
"-. c #C85718",
";. c #CD641E",
":. c #D9601A",
">. c #E56D1F",
",. c #DD6820",
"<. c #EE7120",
"1. c #E17927",
"2. c #F67521",
"3. c #FD7721",
"4. c #F77C24",
"5. c #825753",
"6. c #885A55",
"7. c #855855",
"8. c #804D42",
"9. c #AC6E41",
"0. c #DD862D",
"q. c #C08232",
"w. c #C78A34",
"e. c #CD9033",
"r. c #DA9432",
"t. c #EC8B2D",
"y. c #FA8427",
"u. c #FB8A2A",
"i. c #FB922D",
"p. c #FC9B2E",
"a. c #EA9A31",
"s. c #F1A433",
"d. c #FEA431",
"f. c #FDAD35",
"g. c #FFB435",
"h. c #FFB936",
"j. c #BB8254",
"k. c #C38F49",
"l. c #D19F40",
"z. c #F59D4F",
"x. c #D5A947",
"c. c #DBB049",
"v. c #E2B84B",
"b. c #FDB646",
"n. c #C79464",
"m. c #FBAB63",
"M. c #ECBA67",
"N. c #D1A778",
"B. c #FEC148",
"V. c #ECCA54",
"C. c #FECD54",
"Z. c #FED555",
"A. c #F4D85C",
"S. c #FCDD5D",
"D. c #F8DA74",
"F. c #FEE661",
"G. c #FFEC63",
"H. c #FFF269",
"J. c #FFEC74",
"K. c #DDBB82",
"L. c #FBCF8C",
"P. c #E3C897",
"I. c #FDE98A",
"U. c #FFFB97",
"Y. c #F2DFA5",
"T. c #FAE9A0",
"R. c #FAEBB5",
"E. c #FEF5B4",
"W. c #FFFEC2",
"Q. c #FFFFD6",
/* pixels */
"j j j k B S S S S S S S S S S S S S S S S S S B k s h h s s h s h j s l B A S S S S S S S S S S S S S S S S S B k s j j j j j j ",
"j j k k B S S S S S S S S S S S S S S S S S S M k s j j s s h h j j k k B D S S S S S S S S S S S S K S S S S B k h j s j j j j ",
"j j k B M S S S S S S S S S S S S S S S S S S M V m m d 5 s s s d w m V V C A C A A S S S S S S S S A A S S S B B k k h j j j j ",
"k k B B B S S S S S S S S S S S S S S S S S S A a a a 0 0 0 0 0 0 0 0 a 0 i p p C A Z S S S S S S S S S S S S S B B B k k j j j ",
"B B B B S S S S S S S S S S S S S S S S D Z A C i } ~ 9 9 9 8 9 9 9 Q 9 ~ Q Q ! i C C A S S S S S S S S S S S S D S S B k j j j ",
"S S S S S S S S S S S S S S S S S S D A A Z C 8.! ` ~ T R R R R T R T T T T T Q ` i C A S S S S S S S S S S S D D 6.D S B k j j ",
"S S S S S S S S S S S S S S S S S S A Z S Z 8.|  .' E ( ( ( ( ( ( ( ( ( ( ^ ( ' ' } p S Z S D S S S S S S S K D 6.6.6.S B k j j ",
"S S S S S S S S S S S S S S S S S S A A C 8.| | [ X.%.%.%.%.%.%.%...@.@.@.@.@.X.[ { } i C A Z S S S S S S S K D 6.6.7.D M k j j ",
"S S S S S S S S S S S S S S S S S S A p i }  . .9.j.n.n.n.n.n.n.k.j.w.w.w.w.w.q.$.[  .9 } p A S S S S S S S D D 6.6.6.S B k h j ",
"S S S S S S S S S S S S S S S S S S C i t ~ { 9.n.K.P.P.P.P.P.K.M.M.v.v.V.c.c.x.k.$.[ Q } | C Z S S S S S S D D 6.6.6.S B k j j ",
"S S S S S S S S S S S S S S S S S A p i Q ' { 9.K.K.R.E.E.R.R.T.I.J.A.A.S.S.A.V.x.&.@./ Q 9 i Z S S S S S S D D 6.6.6.S B k j j ",
"S S S S S S S S S S S S S S S A A p } | ' X.$.n.K.Y.W.Q.Q.Q.W.W.U.I.H.G.G.G.G.A.c.e.$.@.[  .} p p A S S S S D D 6.6.6.S B k j j ",
"S S S S S S S S S S S S S S C p p } |  .9.&.j.M.P.R.Q.Q.Q.Q.W.W.U.G.H.G.H.H.G.A.V.x.e.q.$.[  .} i p A S S S D D 6.6.6.S B k j j ",
"S S S S S S S S S S S S S S C i ` 9 [ %.*.l.v.K.Y.W.Q.Q.Q.Q.Q.W.U.H.J.G.G.H.G.F.A.V.c.x.k.$.[ ` ` i p A S S D D 6.6.6.S B k j j ",
"S S S S S S S S S S S S S A p } T ' [ &.l.c.A.I.T.R.W.W.W.W.W.E.I.J.F.F.F.F.F.F.F.S.A.V.x.q.@./ T } p S S S D D 6.6.6.S B k j j ",
"S S S S S S S S S S S S S A i } T W ..&.c.V.G.I.I.T.R.R.R.R.T.T.I.J.F.F.F.F.F.F.G.G.G.A.v.w.@.( T 9 i C S S S D 6.6.7.S B k j j ",
"S S S S S S S S S S S S S Z p ! T ( ..q.c.A.G.J.I.L.L.L.L.L.L.L.D.S.F.G.G.G.G.G.G.H.G.S.v.w.@.( T Q p C A S S D 7.7.6.S B k j j ",
"S S S S S S S S S S S S D A p Q T ( ..q.c.A.F.S.C.M.m.m.m.m.m.m.C.S.F.G.G.G.F.F.G.H.G.S.v.w.@.( T Q i C A K K K 6.6.6.S B k j j ",
"S S S S S S S S S S S S S A p } T ( ..q.c.V.S.C.b.z.i.u.y.u.i.z.b.C.S.G.G.G.F.F.G.G.G.A.v.w.@.( R Q i A A A D 6.6.6.6.S B k j j ",
"S S S S S S S S S S S S S A p 9 T / ..$.e.V.C.B.s.t.2.<.<.2.4.i.f.B.Z.S.S.F.F.F.G.G.G.A.v.w.@.( R Q i C D D D 6.6.6.6.D B k j j ",
"S S S S S S S S D A S S A A p 0 > * ` #.e.v.b.s.t.>.:.:.:.>.2.y.p.f.B.C.Z.S.F.F.G.H.G.A.c.&.] * > Q 6 8.K 6.6.6.6.6.6.S B k h j ",
"S S S S S S S S A Z S S A Z p 0 - 7 8 ] q.a.a.t.1.;.-.-.:.>.2.4.u.p.s.b.B.Z.S.G.H.H.G.A.c.+.r 7 : % 6 Z 6.6.6.6.6.6.6.S B k j j ",
"S S S S S A 5.D D D D K K A m , @ o ; ` @.0.t.1.;._ ) _ :.>.2.4.4.y.i.d.b.C.S.G.H.H.G.A.x.+.r o < < d Z 6.6.6.6.6.6.6.S M k j j ",
"B B B S S D D D D D D K K S m , O   - t @.1.<.,.=.) ^ ) -.,.2.3.3.3.4.i.f.B.Z.F.G.G.G.V.x.+.q   X < m K 6.6.6.6.6.D S B k j j j ",
"k B B S S D 6.6.6.6.6.6.6.5.V 4 $ o = 8 ..,.>.:._ ^ E ) -.,.2.3.2.2.2.y.p.b.C.Z.F.F.S.V.e.O.q   # , m K 6.6.6.6.D S B k k j j j ",
"k k k B S 6.6.6.6.6.6.6.6.5.B 2 $ o = 8 ..:.>.:._ ^ E ) -.,.2.3.3.2.2.y.i.f.B.C.Z.Z.C.v.k.O.;   # , m K 6.6.6.D S B k k j j j j ",
"j j k B S D 6.6.6.6.6.6.7.5.B f $ X = 8 ..,.>.:._ ^ ^ ) -.,.2.3.3.2.2.y.i.d.g.B.B.B.B.v.w.o.: O # , l K 6.6.7.S B k j j j j j j ",
"j j k k B S D D D D D D K S N % # X = 8 ..,.>.:.=.^ ^ ) -.:.<.2.2.2.2.y.i.p.f.g.h.h.g.s.q.y : O # < w S D S S B k k j j j j j j ",
"j j j k k B B B B B B B B k u & #   = 8 ..,.>.:.=.^ E ) _ :.,.>.<.<.2.4.u.p.d.f.g.g.f.s.&.y ;   . % f m B B B k k j j j j j j j ",
"j j j k k k k k k k k k k k 2 & .   = 8 ..,.>.:.=.^ E ^ ) =.-.:.,.>.2.4.u.p.d.f.g.g.f.a.&.] ;   . # , s k k k k j j j j j j j j ",
"j j j j k k k k k k k k k h 2 & .   = 8 ..,.>.:.=.^ E E E ) ) =.:.,.<.4.u.p.d.f.g.g.f.a.q.] ;   . $ , d k k k k j j j j j j j j ",
"j j j j k k k k B k B k B w j & #   = 8 ..,.>.:.=.) E E E E ) ) -.,.<.y.i.p.d.f.g.g.f.s.q.y ; . . $ f d B k k k j j j j j j j j ",
"j j h k k B B B B B B B M N s % O o = t @.>.<.>.-.) ^ E E ^ ) _ -.,.4.y.i.p.d.g.g.g.f.s.q.y ;     % 2 m B B B k k h j j j j j j ",
"j j s k B M S S Z S S S A Z m , O   - t @.1.y.3.,.-._ ) ) ) _ -.;.1.y.i.p.d.f.f.g.h.g.s.q.y ; + . % 6 B S S B B k j j j j j j j ",
"j j k k B S S S S S S S S B m < X . - r $.t.p.u.y.,.:.-.-.-.:.:.1.t.i.p.d.d.f.f.g.h.g.s.w.] ; o . @ 6 B S S S M M k k j j j j j ",
"k k B B B S S S S S S S K Z d < # o - r $.a.p.i.y.<.<.,.,.:.>.1.y.i.d.d.f.f.f.f.g.g.g.s.q.y ;   X % 6 Z S S S S M B B k k j j j ",
"B N M B D S S S S S S S S Z d 4 $ . ; r O.e.s.p.u.y.4.2.2.2.4.y.u.p.d.f.f.g.f.f.f.f.s.r.$.] ;   # < d V S S S S D S S B k j j j ",
"S S S S S S S S S S S S S S m s < $ : e o.$.q.0.t.u.u.u.u.u.u.p.p.d.g.g.g.g.f.f.s.r.q.$.o.e ; @ % 5 m B S S D D D 6.D S B k j j ",
"S S S S S S S S S S S S S S M k 5 4 3 3 e y o.$.0.t.p.p.p.p.p.p.f.f.g.g.h.g.g.f.r.&.O.] e w 4 , 5 k V D S S D D 6.6.6.S B k j j ",
"S S S S S S S S S S S S S S S B M d 5 3 : ; r ] $.a.d.d.d.d.f.d.f.f.f.g.g.g.f.s.w.O.r 3 ; 3 5 d m Z Z Z D S D D 6.6.7.D B k j j ",
"S S S S S S S S S S S S S S S S A B k 4 %   ; r #.e.a.s.f.s.s.s.s.s.s.s.f.s.s.r.$.] ;   $ , d M S S S S S S D D 6.6.6.S B k j j ",
"S S S S S S S S S S S S S S S S A D B d , $ - e ] $.e.e.e.e.w.w.w.w.w.w.e.e.w.*.O.e : # % s m A S S S S S S D D 6.6.6.S B k j j ",
"S S S S S S S S S S S S S S S S S S B m 5 , % 3 e ] o.O.O.O.O.O.o.o.o.o.O.O.o.] y w > < s d B S S S S S S S D D 6.6.6.S B k j j ",
"S S S S S S S S S S S S S S S S S S S B m d s 3 3 : q > 3 q q q q q q q q q q : w 3 4 d m M S S S S S S S S D D 6.6.6.S B k j j ",
"S S S S S S S S S S S S K S S S S S S S A B m d < - X + o o O # + + + + o o + o > 4 k M A Z S S S S S S S S D D 6.6.6.S B k j j ",
"S S S S S S S S S S S S A S S S S S S S A S B d f % # X O . . . . . .   .     O % 5 B A S S S S S S S S S S D D 6.6.6.S B k j j ",
"S S S S S S S S S S A S S S S S S S S S S S K V d f % & # # # # $ % % $ % % $ , 5 m Z S S S S S S S S S S S D D 6.6.6.S N k j j ",
"S S S S S S S S S S S S S S S S S S S S S S A A Z M l f q % & < 2 5 5 5 5 5 5 6 d B A A S S S S S S S S S S S D 6.6.6.S B k j j ",
"S S S S S S S S S S S S S S S S S S S S S S S D D L D M k 5 f w w B B B M B B B B Z S S S S S S S S S S S S S D 6.6.6.S B k j j ",
"S S S S S S S S S S S S S S S S S S S S S G S L K K K G N j h l F G Z Z Z Z G S S Z G S Z S S S S S S S S S D D 6.6.6.S B k j j ",
"S S S S S S S S S S S S S S S S S S S Z G G F J L L L F v c c c v F F F F F F F H H F F G Z S S S S S S S S D 6.6.6.6.S B k j j ",
"S S S S S S S S S S S S S S S S S S Z G F b b n Y n n b b x x z b b b b b b b Y b b b b v F G S S S S S D D D 6.6.6.6.D B k j j ",
"S S S S S S S S S S S S S S S D S S G G n I I I I I I I P P g P P x P P U I P z x P P U b F G S S S S D D 6.6.6.6.6.6.S B k j j ",
"S S S S S S S S S S S S S S S A S S G n Y I g g g g g g g g g g g g g g g g g g g g g g U b G Z S S S D 6.6.6.6.6.6.6.S B k j j ",
"S S S S S S D D D D D D D D D G G J H Y I g g g g g g g g g g g g g g g g g g g g g g g I Y n F G L S D 6.6.6.6.6.6.6.S B k j j ",
"B B B S S D D D D D D D D S S L J n Y I I g g g g g g g g g g g g g g g g g g g g g g g g z b n F G K 7.6.6.6.6.6.D S B k j j j ",
"k B B S S D 6.6.6.6.6.6.6.7.K J n Y I P g g g g g g g g g g g g g g g g g g g g g g g g g g P I Y J L 6.6.6.6.6.D S B l k j j j ",
"k k k N S 6.6.6.6.6.6.6.6.6.L J Y I P g g g g g g g g g g g g g g g g g g g g g g g g g g g g U Y J J K 6.6.6.D S B k k j j j j ",
"j j k B S D 6.6.6.6.6.6.6.6.L J n I I g g g g g g g g g g g g g g g g g g g g g g g g g g g P I Y J L K 6.6.6.S B k j j j j j j ",
"j j k k B S D D D D D D D D L J H Y b z P g g g g g g g g g g g g g g g g g g g g g g g P x I n n J L S D S S B k k j j j j j j ",
"j j j k k B B B B B B B G B k N v v c z g g g g g g g g g g g g g g g g g g g g g g g g x z z v v N N B B B B k k j j j j j j j ",
"j j j k k k k B k k k k k k k k k j c z g g g g g g g g g g g g g g g g g g g g g g g g P z c l k k k k k k k k j j j j j j j j ",
"j j j j j k j k k k k k k k k k k k h h g g g g g g g g g g g g g g g g g g g g g g g g x x c k k k k k k k j k j j j j j j j j ",
"j j j j j j j j j j j j j j j j j j h x x g g g g g g g g g g g g g g g g g g g g g g g x x h j j j j j j j j j j j j j j j j j "
};
