/* XPM */
static char *_5ac2aa78f744618a33ca4b99e6257115Cku9xzTsHDAo4LZ[] = {
/* columns rows colors chars-per-pixel */
"64 64 6 1 ",
"  c #77514C",
". c #524045",
"X c #885A55",
"o c #5D4445",
"O c #7D544F",
"+ c #694A49",
/* pixels */
"...o+                  +o..........o+                  +o.......",
"..oo+                  +o.........oo+                  +o.......",
"..o++                  ++oo.......o++                  ++oo.....",
"oo+++                   +++oo...ooo++                   +++oo...",
"++++                    O  +o..oo+++                    O  +o...",
"                       OOXO +o.o++                     OOXO +o..",
"                      OOXXX +o.o+                     OOXXX +o..",
"                      OOXXXO+ooo+                     OOXXXO+o..",
"                      OOXXX +o.o+                     OOXXX +o..",
"                      OOXXX +o.o+                     OOXXX +o..",
"                      OOXXX +o.o+                     OOXXX +o..",
"                      OOXXX +o.o+                     OOXXX +o..",
"                      OOXXX +o.o+                     OOXXX +o..",
"                      OOXXX +o.o+                     OOXXX +o..",
"                      OOXXX +o.o+                     OOXXX +o..",
"                       OXXX +o.o+                      OXXX +o..",
"                       OXXX +o.o+                      OXXX +o..",
"                      OOXXX +o.o+                     OOXXX +o..",
"                      OXXXX +o.o+                     OXXXX +o..",
"                    OOOXXXX +ooo+                   OOOXXXXO+o..",
"                   OOXXXXXXO+o.o+                  OOXXXXXX +o..",
"                   OXXXXXXX +o.o+                  OXXXXXXX +o..",
"      OOOOOOOOO  OOOXXXXXXX +o.o++    OOOOOOOOO  OOOXXXXXXX +o..",
"+++  OOOOOOOOOOOOOXXXXXXXO +oo.oo++  OOOOOOOOOOOOOXXXXXXXO +o...",
"o++  OXXXXXXXXXXXXXXXXXXO +oo...oo+ OOXXXXXXXXXXXXXXXXXXO +oo...",
"ooo+ XXXXXXXXXXXXXXXXXXO +oo.....oo+OXXXXXXXXXXXXXXXXXXO +oo....",
"..o+ OXXXXXXXXXXXXXXXXX +o.......oo+ OXXXXXXXXXXXXXXXXX +o......",
"..oo+ OOOOOOOOOOOOOOO  +oo........oo+ OOOOOOOOOOOOOOO  +oo......",
"...oo++++++++++++++++++oo..........oo++++++++++++++++++oo.......",
"...ooooooooooooooooooooo...........ooooooooooooooooooooo........",
"....oooooooooooooooooooo............oooooooooooooooooooo........",
"....oooo+o+o+o+o+o+o+ooo............oooo+o+o+o+o+o+o+ooo........",
"...oo++++++++++++++++++oo..........oo++++++++++++++++++oo.......",
"...o++                ++o..........o++                ++o.......",
"..oo+                  ++oo.......o++                  ++oo.....",
"oo+++                   +++oo...oo+++                   +++oo...",
"++++                    O  +o..oo+++                    O  +o...",
"                      OOOXO +o.o++                    OOOXO +o..",
"                      OOXXX +o.o+                     OOXXX +o..",
"                      OOXXXO+ooo+                     OOXXXO+o..",
"                      OOXXX +o.o+                     OOXXX +o..",
"                      OOXXX +o.o+                     OOXXX +o..",
"                      OOXXX +o.o+                     OOXXX +o..",
"                      OOXXX +o.o+                     OOXXX +o..",
"                      OOXXX +o.o+                     OOXXX +o..",
"                      OOXXX +o.o+                     OOXXX +o..",
"                      OOXXX +o.o+                     OOXXX +o..",
"                       OXXX +o.o+                      OXXX +o..",
"                       OXXX +o.o+                      OXXX +o..",
"                      OOXXX +o.o+                     OOXXX +o..",
"                      OXXXX +o.o+                     OXXXX +o..",
"                    OOOXXXX +ooo+                   OOOXXXXO+o..",
"                   OOXXXXXXO+o.o+                  OOXXXXXX +o..",
"                   OXXXXXXX +o.o+                  OXXXXXXX +o..",
"      OOOOOOOOO  OOOXXXXXXX +o.o++    OOOOOOOOO  OOOXXXXXXX +o..",
"+++  OOOOOOOOOOOOOXXXXXXXO +oo.oo++  OOOOOOOOOOOOOXXXXXXXO +o...",
"o++  OXXXXXXXXXXXXXXXXXXO +oo...oo+ OOXXXXXXXXXXXXXXXXXXO +oo...",
"ooo+ XXXXXXXXXXXXXXXXXXO +oo.....oo+OXXXXXXXXXXXXXXXXXXO +oo....",
"..o+ OXXXXXXXXXXXXXXXXX +o.......oo+ OXXXXXXXXXXXXXXXXX +o......",
"..oo+ OOOOOOOOOOOOOOO  +oo........oo+ OOOOOOOOOOOOOOO  +oo......",
"...oo++++++++++++++++++oo..........oo++++++++++++++++++oo.......",
"...oooo+oooooooooooooooo...........oooo+oooooooooooooooo........",
".....o.ooooooooooooooo.o.............o.ooooooooooooooo.o........",
"................................................................"
};
