/* XPM */
static char *result[] = {
/* columns rows colors chars-per-pixel */
"64 64 232 2 ",
"   c #524045",
".  c #5D4445",
"X  c #694A49",
"o  c #77514C",
"O  c #5A4243",
"+  c #261C1F",
"@  c #2B2224",
"#  c #513F44",
"$  c #5C4344",
"%  c #754F4A",
"&  c #6D4A45",
"*  c #604443",
"=  c #251C1C",
"-  c #2A1216",
";  c #290F16",
":  c #130D0F",
">  c #392A2A",
",  c #624544",
"<  c #7D544F",
"1  c #734E4A",
"2  c #61423E",
"3  c #5F403D",
"4  c #60413D",
"5  c #221517",
"6  c #110A0A",
"7  c #11090A",
"8  c #10090A",
"9  c #2A1016",
"0  c #421B22",
"q  c #401A22",
"w  c #3D1921",
"e  c #0F090A",
"r  c #211517",
"t  c #5B3E3A",
"y  c #704C47",
"u  c #885A55",
"i  c #694843",
"p  c #12080A",
"a  c #190D12",
"s  c #39171D",
"d  c #230B12",
"f  c #19070C",
"g  c #352321",
"h  c #523834",
"j  c #4B3330",
"k  c #5A3D3A",
"l  c #33161B",
"z  c #411A22",
"x  c #211216",
"c  c #3C2A27",
"v  c #2A1B1A",
"b  c #241415",
"n  c #63443F",
"m  c #221216",
"M  c #251717",
"N  c #281A19",
"B  c #371924",
"V  c #321B28",
"C  c #341D2B",
"Z  c #3D2927",
"A  c #2F1926",
"S  c #39202E",
"D  c #3D2231",
"F  c #49322E",
"G  c #26161D",
"H  c #2A1723",
"J  c #412433",
"K  c #392624",
"L  c #1C1016",
"P  c #76504B",
"I  c #22121A",
"U  c #27151D",
"Y  c #3F2B28",
"T  c #1F0D12",
"R  c #422534",
"E  c #59292B",
"W  c #130B10",
"Q  c #2B1B20",
"!  c #B28874",
"~  c #EEA58E",
"^  c #C6726A",
"/  c #733A3B",
"(  c #170F10",
")  c #0D060A",
"_  c #954E4A",
"`  c #D9A388",
"'  c #FFC5A2",
"]  c #FFC8A4",
"[  c #F1AE95",
"{  c #413224",
"}  c #FFC3A1",
"|  c #6B5345",
" . c #432534",
".. c #2B1E1D",
"X. c #452020",
"o. c #B4806E",
"O. c #966457",
"+. c #4E2129",
"@. c #4E3532",
"#. c #B4675A",
"$. c #8B443F",
"%. c #A25D4D",
"&. c #E68E7B",
"*. c #682E34",
"=. c #5D101A",
"-. c #380C1A",
";. c #302120",
":. c #5D3E3A",
">. c #27161E",
",. c #891A1C",
"<. c #68121A",
"1. c #440F1F",
"2. c #191011",
"3. c #79504B",
"4. c #4E3330",
"5. c #333446",
"6. c #7A6E9A",
"7. c #FD6E02",
"8. c #C94F02",
"9. c #5D5470",
"0. c #E2C1C2",
"q. c #D45E06",
"w. c #865954",
"e. c #2D1D1C",
"r. c #353943",
"t. c #BAB3CD",
"y. c #FFB90E",
"u. c #C68C14",
"i. c #7E5F80",
"p. c #F1D3D0",
"a. c #402A28",
"s. c #FFF5E8",
"d. c #9A7487",
"f. c #E1D93D",
"g. c #AE7F58",
"h. c #D9B7B4",
"j. c #FFD1B3",
"k. c #B66739",
"l. c #BCA636",
"z. c #3F2B29",
"x. c #7C534E",
"c. c #241818",
"v. c #DB7E6F",
"b. c #FFCBAB",
"n. c #F2CCC3",
"m. c #1F0C12",
"M. c #553C3B",
"N. c #201617",
"B. c #0F0809",
"V. c #FEB99A",
"C. c #352727",
"Z. c #302324",
"A. c #26151D",
"S. c #2B1E1F",
"D. c #402F2F",
"F. c #1F1115",
"G. c #3C2A2A",
"H. c #2D2021",
"J. c #211315",
"K. c #4A3637",
"L. c #513938",
"P. c #1F1416",
"I. c #020409",
"U. c #322223",
"Y. c #201116",
"T. c #362626",
"R. c #0E1A21",
"E. c #122730",
"W. c #11242C",
"Q. c #F8BD9C",
"!. c #0A1318",
"~. c #1A323E",
"^. c #182F3C",
"/. c #0E1F25",
"(. c #001A1A",
"). c #001414",
"_. c #031C1F",
"`. c #172C34",
"'. c #9D5049",
"]. c #010E0F",
"[. c #030713",
"{. c #020A0A",
"}. c #3B2725",
"|. c #1B3340",
" X c #070C1E",
".X c #0A112B",
"XX c #090F29",
"oX c #312220",
"OX c #8C4C13",
"+X c #8F5621",
"@X c #86511E",
"#X c #574834",
"$X c #323B3D",
"%X c #663512",
"&X c #2C393D",
"*X c #AD5F1B",
"=X c #393E3C",
"-X c #141F32",
";X c #24334E",
":X c #0D162E",
">X c #22324D",
",X c #18243E",
"<X c #1C2842",
"1X c #1F2E48",
"2X c #694541",
"3X c #4D3330",
"4X c #543734",
"5X c #845752",
"6X c #47302D",
"7X c #352422",
"8X c #7F5450",
"9X c #150E0F",
"0X c #79514D",
"qX c #684948",
"wX c #312425",
"eX c #382C2F",
"rX c #1D1517",
"tX c #1E181B",
"yX c #0E0809",
"uX c #261C1C",
"iX c #302020",
"pX c #664847",
"aX c #3E3034",
"sX c #1E1015",
"dX c #4F3E43",
"fX c #1B1215",
"gX c #1E0C12",
"hX c #33272A",
"jX c #523C3D",
"kX c #10070A",
"lX c #49393D",
"zX c #281E21",
/* pixels */
"      . X o o o o o o o o o o o o o o o o o o X .                     . X o o o o o o o o o o o o o o o o o o X .               ",
"    . . X o o o o o o o o o o o o o o o o o o X .                   . . X o o o o o o o o o o o o o o o o o o X .               ",
"    . X X o o o o o o o o o o o o o o o o o o X X . .               . X X o o o o o o o o o o o o o o o o o o X X . .           ",
". . X X X o o o o o o o o o o o o o o o o o o o X X X . O + @ # $ . . X X o o o o o o o o o o o o o o o o o o o X X X . .       ",
"X X X X o o o o o o o o o o o o o o o o o o o o % & & * = - ; : > , , X o o o o o o o o o o o o o o o o o o o o < o o X .       ",
"o o o o o o o o o o o o o o o o o o o 1 2 3 3 4 5 6 7 8 9 0 q w 9 e r t 3 y o o o o o o o o o o o o o o o o o < < u < o X .     ",
"o o o o o o o o o o o o o o o o o o o i p a a a s q q - d w q q q q s a f g h j k o o o o o o o o o o o o o < < u u u o X .     ",
"o o o o o o o o o o o o o o o o o o o 1 g d l 0 z q q z - s q q q q q 0 0 - d d x c 2 o o o o o o o o o o o < < u u u < X .     ",
"o o o o o o o o o o o o o o o o o o o o y h v f a w q q 0 q q q q q q q q z 0 0 s - b n o o o o o o o o o o < < u u u o X .     ",
"o o o o o o o o o o o o o o o o o o y n b b m l l q q q q q q q q q q q q q q q q 0 s r n o o o o o o o o o < < u u u o X .     ",
"o o o o o o o o o o o o o o o o o & M p s s w z z q q q q q q q q q q q q z q q q q z s r n o o o o o o o o < < u u u o X .     ",
"o o o o o o o o o o o o o o o o i N l q q q q q q q q q q q q q q q q q w B q z q w B q s b n o o o o o o o < < u u u o X .     ",
"o o o o o o o o o o o o o o o & N l 0 q q q q q q q q q q q q q q q q w V C V B z B V V B s b 2 o o o o o o < < u u u o X .     ",
"o o o o o o o o o o o o o Z N M l 0 q q q q q q q A B q q q q q q q q q V S D S B w V S S B d F o o o o o o < < u u u o X .     ",
"o o o o o o o o o o o o F G H l q B B q q q q V V C A z q q q q q w q B A A D J S B w V D S H x n o o o o o < < u u u o X .     ",
"o o o o o o o o o o o o 1 K H C H H A w q q B D D A q q q q B B V A A C J J J J J S B V D J S L F P o o o o o < u u u o X .     ",
"o o o o o o o o o o o o o P K G I f l z q V D A C B q q q B C C D J J S U U S J J J C D J J J J 8 & o o o o o < u u u o X .     ",
"o o o o o o o o o o o o o o Y T - 0 q q V D A I H q q B A C J J J R S U E E H D J J S C J J J J G Z P o o o < < u u u o X .     ",
"o o o o o o o o o o o o o Z - w A B q w V R L I B q B C S J J J U W Q ! ~ ^ / I D J J D C V U R D ( 1 o o o < u u u u o X .     ",
"o o o o o o o o o o o o 1 M l V D C B A J H I A w B C J R S A ) E _ ` ' ] [ { ) S J J J V A L J D ( & o < < < u u u u < X .     ",
"o o o o o o o o o o o o Z I V J C l w V D I H C B C J R V a I L / [ ' } ] | H C W  .J J C J I U  .V ..< < u u u u u u o X .     ",
"o o o o o o o o o o o i N H D  .U d A D V a  .A A J  .V X.U I - o.] } } ] O.U H +.V J J J  .I U  .C N < u u u u u u u o X .     ",
"o o o o o o < < < < < @.L J R S L l A D V a  .S S J A +.#.$./ %.[ ' } } ' &.$./ X.L  .J J  .I U  .C v < u u u u u u u o X .     ",
"X X X o o < < < < < < @.I J I A f B C J V a  .J  .V X.*.0 X.0 O.' } } } } &.*.0 =.-.A R J  .I U  .C ;.u u u u u u < o X .       ",
". X X o o < u u u u u :.>.I V V f B S  .V a  .J J C L =.,.,.<.A ! ] } ] ! Q <.,.,.1.I  .J J D L A 2.3.u u u u u < o X . .       ",
". . . X o u u u u u u u 4.>.J V W S J R A a  .J C 5.6.,.7.7.8.9.0.} } } 0.9.8.7.q.+.S D J J  .a A 2.w.u u u u < o X . .         ",
"    . X o < u u u u u u u e.C V a  .J J S L C R C r.t./ q.y.u.i.p.} } } p.i.q.y.u.i.9.H R J  .a a a.w.u u u u o X .             ",
"    . . X o < < < < < < < v C V a  .J J  .U I J U O.s.d.u.f.g.h.j.} } } j.h.k.f.l.d.9.H R J  .a z.x.< < < o o X . .             ",
"      . . X X X X X X X X c.C D I H R J C a a A - v.b.0.#.%.0.j.} } } } } j.0.%.#.n.o.l S J J m.M.X X X X X X . .               ",
"      . . . . . . . . . . N.C C B.I  .J H W W a #.V.} b.[ [ b.} } } } } } } ] [ [ b.&.l C  .U C.$ . . . . . . .                 ",
"        . . . . . . . . . Z.A.S.D.F.D S ) H W _ V.' } } } ' } } } } } } } } } ' } ' &.l C  .I > . . . . . . . .                 ",
"        . . . . X . X . X $ G.O X H.A S ) H L *.&.' ' } } } } } } } } } } } } } } ' &.l S S J.K.X . X . X . . .                 ",
"      . . X X X X X X X X X X X X L.P.C ) H L I.E &.~ ' } } } } } } } } } } } } } ] O.U.Y.H T.X X X X X X X X . .               ",
"      . X X o o o o o o o o o o o o ..H p L R.E.W.l / v.[ } } } } } } } } } ' Q.Q.o.c y ( M i o o o o o o o X X .               ",
"    . . X o o o o o o o o o o o o o i ..j !.~.~.^.E./.L _ ^ V.V.V.V.V.V.V.V.` { Q ..y o i & o o o o o o o o o X X . .           ",
". . X X X o o o o o o o o o o o o o o P n r E.(.).)._.`.R.U _ '.'.'.'.'.'.'.Q W.`./.c 1 o o o o o o o o o o o o X X X . .       ",
"X X X X o o o o o o o o o o o o o o o o o 3 r !.!.!.!.]./.E.].I.[.[.[.I.{.].].].].(./.K 1 o o o o o o o o o o o < o o X .       ",
"o o o o o o o o o o o o o o o o o o o o o o }.W.|.|.`./.].].W.!. X.XXX[.).].R././.!.].c 1 o o o o o o o o o < < < u < o X .     ",
"o o o o o o o o o o o o o o o o o o o o o o }.W.|.~.|.|.E./.{.{.[..X[.].!.W.^.|.|.R.K P o o o o o o o o o o < < u u u o X .     ",
"o o o o o o o o o o o o o o o o o o o o o 1 oXW.|.~.~.~.~._.{ OX[..X) L /.|.~.~.|.R.F o o o o o o o o o o o < < u u u < X .     ",
"o o o o o o o o o o o o o o o o o o o o o j R.|.~.~.~.~.`.{ +X+XI. Xa @X#X$X^.~.|.R.j o o o o o o o o o o o < < u u u o X .     ",
"o o o o o o o o o o o o o o o o o o o o o F R.|.~.~.^.#X@XOXOX%X- ) f s OX+X$X~.|.E...& o o o o o o o o o o < < u u u o X .     ",
"o o o o o o o o o o o o o o o o o o o o o F R.|.~.^.#X@X%Xq s +.*.X.d d ) E +X&X~.|.!.k o o o o o o o o o o < < u u u o X .     ",
"o o o o o o o o o o o o o o o o o o o o o F R.|.~.~.`.X.+.*.*.*.*.*.0 d E - *X=X~.|.!.t o o o o o o o o o o < < u u u o X .     ",
"o o o o o o o o o o o o o o o o o o o o o F R.|.~.|.R.s *.*.*.E l a - E *.E - `.~.|.!.t o o o o o o o o o o < < u u u o X .     ",
"o o o o o o o o o o o o o o o o o o o o o j R.|.~.^.!.w *.+.B !.H 0 X.+.*.*.a `.~.|.!.t o o o o o o o o o o < < u u u o X .     ",
"o o o o o o o o o o o o o o o o o o o o & ../.|.|.W.I.I s R.-X;X-X!.[.W s s ) R.~.|.!.t o o o o o o o o o o < < u u u o X .     ",
"o o o o o o o o o o o o o o o o o o o o k {.E.|.|.W.[.:X-X>X;X>X;X>X:XXX[.[.[.I.^.|.!.t o o o o o o o o o o o < u u u o X .     ",
"o o o o o o o o o o o o o o o o o o o o t {.E.~.|.W.[.,X;X>X>X>X>X>X<X.X.X.X.X{.^.|.!.t o o o o o o o o o o o < u u u o X .     ",
"o o o o o o o o o o o o o o o o o o o o t {._.`.`.[.XX,X;X>X>X>X>X>X1X.X.X.XXX{.^.|.!.t o o o o o o o o o o < < u u u o X .     ",
"o o o o o o o o o o o o o o o o o o o o t {.(.`.`.I.XX,X;X>X>X>X>X>X1X.X.X.XXXI./.|.!.t o o o o o o o o o o < u u u u o X .     ",
"o o o o o o o o o o o o o o o o o o o o 4 {.(.W.`.[.XX,X;X>X>X>X>X>X1X.X.X.XXXI._.`.!.t o o o o o o o o < < < u u u u < X .     ",
"o o o o o o o o o o o o o o o o o o o < 4 {.(.(.E.[.XX,X;X>X>X>X>X>X1X.X.X.XXXI.(.W.!.t o o o o o o o < < u u u u u u o X .     ",
"o o o o o o o o o o o o o o o o o o o < 2X{.(.(.E.[.XX,X;X>X>X>X>X>X1X.X.X.XXXI.(.).c 1 o o o o o o o < u u u u u u u o X .     ",
"o o o o o o < < < < < < < < < o o < < < 2X{.(.(.(.I.XX,X;X>X>X>X>X>X:X.X.X.XXXI.(.].3X< < < < o o < < < u u u u u u u o X .     ",
"X X X o o < < < < < < < < < < < < < u u 2X{.(.(.).I..X-X>X>X>X>X>X>X:X.X.X.X X{.(.].3X< < < < < < < u u u u u u u < o X .       ",
". X X o o < u u u u u u u u u u u u u u 2X{.(.(.).I..X.X<X;X>X>X>X>X:X.X.X.XI.).(.].4Xu u u u u u u u u u u u u < o X . .       ",
". . . X o u u u u u u u u u u u u u u u 2X{.(.(.).I..X.X<X;X>X>X>X>X:X.X.X.XI.).(.].4Xu u u u u u u u u u u u < o X . .         ",
"    . X o < u u u u u u u u u u u u u u 5X6X].(.).I.I. X:X<X>X;X;X1X:X.XXX[.].(.).7X8Xu u u u u u u u u u u u o X .             ",
"    . . X o < < < < < < < < < < < < < < < o Z 9X!.: f d ) ) :X<X<X:X X X) I.].).oX0X< < < < < < < < < < < o o X . .             ",
"      . . X X X X X X X X X X X X X X X X X qXO wXeXf 1.1.; rXtXtXyX) d -.J.uXiXpXX X X X X X X X X X X X X X . .               ",
"      . . . . X . . . . . . . . . . . . . . . .   aXf 1.1.sXdX    fX-.1.d > . X . . . . . . . . . . . . . . . .                 ",
"          .   . . . . . . . . . . . . . . .   .   aXf 1.gXhX#     fX-.-.rXjX  . . . . . . . . . . . . . . .   .                 ",
"                                                  aXf 1.kXlX      fX-.-.zX                                                      "
};
