/* XPM */
static char *c15f37a071fe40a4c2903f785ed11557aXmtirI19nDdATVC[] = {
/* columns rows colors chars-per-pixel */
"64 64 133 2 ",
"   c #010101",
".  c #090A0B",
"X  c #121107",
"o  c #181708",
"O  c #131315",
"+  c #171818",
"@  c #1D1D1D",
"#  c #29270F",
"$  c #2B2908",
"%  c #34320C",
"&  c #38360F",
"*  c #29281B",
"=  c #3D3B17",
"-  c #1F1F20",
";  c #242423",
":  c gray16",
">  c #323225",
",  c #333337",
"<  c #3E3D3E",
"1  c #423F13",
"2  c #474419",
"3  c #484419",
"4  c #554F1A",
"5  c #57501B",
"6  c #58511C",
"7  c #625E1C",
"8  c #434220",
"9  c #49482D",
"0  c #555124",
"q  c #5B5521",
"w  c #5C5921",
"e  c #4C4B34",
"r  c #605D29",
"t  c #666222",
"y  c #696324",
"u  c #6D642A",
"i  c #71662B",
"p  c #75692D",
"a  c #7B772A",
"s  c #6E6434",
"d  c #6F613F",
"f  c #726534",
"g  c #776836",
"h  c #7D6B36",
"j  c #74653B",
"k  c #7D693E",
"l  c #7C7236",
"z  c gray26",
"x  c #494A4B",
"c  c #524045",
"v  c #5D4445",
"b  c #5D4C43",
"n  c #5B5A47",
"m  c #4E4E51",
"M  c #545456",
"N  c #5B5B5B",
"B  c #644D43",
"V  c #694A49",
"C  c #655342",
"Z  c #6C5740",
"A  c #6D5A41",
"S  c #6F5248",
"D  c #715547",
"F  c #785E46",
"G  c #77514C",
"H  c #7C544E",
"J  c #7D5B4A",
"K  c #6E6041",
"L  c #746541",
"P  c #7E6344",
"I  c #7A6841",
"U  c #5E5F62",
"Y  c #646464",
"T  c #6C6C6C",
"R  c #727274",
"E  c #7A7A78",
"W  c #846D3E",
"Q  c #827537",
"!  c #857E31",
"~  c #86763A",
"^  c #887738",
"/  c #85793C",
"(  c #8B7B39",
")  c #825D4C",
"_  c #885A55",
"`  c #806245",
"'  c #846B44",
"]  c #886C46",
"[  c #836449",
"{  c #88664B",
"}  c #8C6A4B",
"|  c #906E4B",
" . c #8D7146",
".. c #8D7940",
"X. c #907447",
"o. c #937E42",
"O. c #95754B",
"+. c #97784B",
"@. c #8C6352",
"#. c #916B50",
"$. c #8A852E",
"%. c #8E882E",
"&. c #8A8032",
"*. c #8D813D",
"=. c #93843E",
"-. c #968B3A",
";. c #998B3D",
":. c #9C9139",
">. c #A09A36",
",. c #A0953B",
"<. c #AAA439",
"1. c #968640",
"2. c #9A8443",
"3. c #9E8943",
"4. c #848485",
"5. c #8E8E8F",
"6. c #959595",
"7. c #989899",
"8. c #9F9FA0",
"9. c #A4A4A6",
"0. c #A7A7A9",
"q. c #AEAEAF",
"w. c gray71",
"e. c gray",
"r. c #C3C3C3",
"t. c #CACACA",
"y. c LightGray",
"u. c #DBDBDC",
"i. c #E1E1E1",
"p. c #E9E9E9",
"a. c #F1F1F1",
"s. c #F9F9F9",
"d. c white",
/* pixels */
"c c c v V G G G G G G G G G G G G G G G G G G V v c c c c c c c c c c v V G G G G G G G G G G G G G G G G G G V v c c c c c c c ",
"c c v v V G G G G G G G G G G G G G G G G G G V v c c c c c c c c c v v V G G G G G G G G G G G G G G G G G G V v c c c c c c c ",
"c c v V V G G G G G G G G G G G G G G G G G G V V v v c c c c c c c v V V G G G G G G G G G G G G G G G G G G V V v v c c c c c ",
"v v V V V G G G G G G G G G G G G G G G G G G G V V V v v c c c v v v V V G G G G G G G G G G G G G G G G G G G V V V v v c c c ",
"V V V V G G G G G G G G G G G G G G G G G G G G H G G V v c c v v V V V G G G G G G G G G G G G G G G G G G G G H G G V v c c c ",
"G G G G G G G G G G G G G G G G G G G G G G G H H _ H G V v c v V V G G G G G G G G G G G G G G G G G G G G G H H _ H G V v c c ",
"G G G G G G G G G G G G G G G G G G G G G G H H _ _ _ G V v c v V G G G G G G G G G G G G G G G G G G G G G H H _ _ _ G V v c c ",
"G G G G G G G G G G G G G G G G G G G G G G H H _ _ _ H V v v v V G G G G G G G G G G G G G G G G G G G G G H H _ _ _ H V v c c ",
"G G G G G G G G G G G G G G G G G G G G G G H H _ _ _ G V v c v V G G G G G G G G G G G G G G G G G G G G G H H _ _ _ G V v c c ",
"G G G G G G G G G G G G G G G G G G G G G G H H _ _ _ G V v c v V G G G G G G G G G G G G G G G G G G G G G H H _ _ _ G V v c c ",
"G G G G G G G G G G G G G G G G G G G G G G H H _ _ _ G V v c v V G G G G G G G G G G G G G G G G G G G G G H H _ _ _ G V v c c ",
"G G G G G G G G G G G G G G G G G G G G G G H H _ _ _ G V v c v V G G G G G G G G G G G G G G G G G G G G G H H _ _ _ G V v c c ",
"G G G G G G G G G G G G G G G G G G G G G G H H _ _ _ G V v c v V G G G G G G G G G G G G G G G G G G G G G H H _ _ _ G V v c c ",
"G G G G G G G G G G G G G G G G G G G G G G H H _ _ _ G V v c v V G G G G G G G G G G G G G G G G G G G G G H H _ _ _ G V v c c ",
"G G G G G G G G G G G G G G G H J J J J J J ) ) _ _ _ G V v c v V G G G G G G G G G G G G G G G G G G G G G H H _ _ _ G V v c c ",
"G G G G G G G G G G G G G G G J [ ]  . . . .] { @._ _ G V v c v V G G G G G G G G G G G G G G G G G G G G G G H _ _ _ G V v c c ",
"G G G G G G G G G G G G G G H [  .o.1.;.;.1.o. .#._ _ G V v c v V G G G G G G G G G G G G G G G G G G G G G G H _ _ _ G V v c c ",
"G G G G G G G G G G G G G G J ' ..-.:.:.:.:.;.o.| @._ G V v c v V G G G G G G G G G G G G G G G G G G G G G H H _ _ _ G V v c c ",
"G G G G G G G G G G G G H J P W ~ &.$.$.$.$.&.(  .} @.H V v c v V G G G G G G G G G G G G G G G G G G G G G H _ _ _ _ G V v c c ",
"G G G G G G G G G G G J [ ] W h i y 7 7 7 7 y p W  .O.[ S v v v V G G G G G G G G G G G G G G G G G G G H H H _ _ _ _ H V v c c ",
"G G G G G G G G G G H [  .o.( p 5 1 % % % % 1 6 p ( 2.X.F B c v V G G G G G G G G G G G G G G G G G G H H _ _ _ _ _ _ G V v c c ",
"G G G G G G G G G G J ] o.-.&.y 3 # o X X o # 3 y &.;.o.P B c v V G G G G G G G G G G G G G G G G G G H _ _ _ _ _ _ _ G V v c c ",
"G G G G G G H H ) ) [ ' ( &.a t 9 > ; - - ; > 9 t a &.( k Z b B D D J J J J ) ) ) ) ) ) ) ) ) J J ) ) ) @.@.@.@.@.@.@.J V v c c ",
"V V V G G H H ) { ] ' h i y r r n N U U U U N n r r y u f j L I I ' '  . . . . . . . . . . . . . . .+.+.+.+.+.+.+. .] F B c c c ",
"v V V G G H _ #.+.2.( p 6 1 8 n E 6.0.q.q.0.6.E n 8 1 4 u l *.*.*.*.=.1.1.1.3.3.3.3.3.3.3.3.3.3.3.3.3.3.3.3.3.3.3.1...I Z v c c ",
"v v v V G _ @.O.2.;.&.y 1 # > N 5.e.u.p.p.u.e.5.N > # 1 t ! -.:.:.-.-.;.:.:.:.:.:.:.:.:.:.:.:.:.:.:.:.:.:.:.:.:.:.;.*.~ A b c c ",
"c c v V H ) }  .( &.a r 8 > < Y 6.r.u.p.p.u.r.6.Y < > 8 r a $.%.%.$.$.$.$.$.$.$.$.$.$.$.$.$.$.$.$.$.$.$.$.$.$.$.$.$.! l j C b b ",
"c c B B F ' ' h p y t r n N Y E 5.8.q.q.q.q.8.5.E Y N n r r 7 7 7 7 7 7 7 7 7 7 7 7 7 7 7 7 7 7 7 7 7 7 7 7 7 7 t t t u s j d K ",
"c c b Z I / Q u 4 3 9 n E 6.7.5.E T Y U U Y T E 5.7.5.E n 8 % % % % % % % % % % % % % % % % % % % % % % % % % % & = 2 0 u l / *.",
"c c b L / *.! t 1 # > N 6.e.r.8.T < ; + + ; < T 8.r.e.7.Y > o X X o o o o o o o o o o o o o o o o o o o o o o X X o # 2 t ! -.:.",
"c c b L *.-.$.7 % o ; N 8.y.y.9.U ;         ; U 9.y.y.q.R z ; @ - ; ; ; ; ; ; ; ; ; ; ; ; ; ; ; ; ; ; ; ; ; @ O .   o = t $.>.<.",
"c c b L *.:.$.7 % X @ M 7.t.t.7.M +         + M 6.t.y.e.7.R U N N U U U U U U U U U U N N N N N N U U U U N x , + . X & t $.>.<.",
"c c b I *.:.$.7 % o @ x 4.w.w.5.m +         + x 4.w.t.t.e.q.0.9.9.0.0.0.0.0.0.0.0.0.9.9.8.8.8.8.9.9.0.0.0.8.4.U , O X % 7 $.>.<.",
"c c b I 1.;.$.7 & o + z E 8.8.E x +         + z R 8.e.t.y.y.u.u.u.u.u.u.u.u.u.u.u.u.u.u.u.u.u.u.u.u.u.i.i.u.e.4.x @ o % 7 $.>.<.",
"c c C I 1.:.$.7 & o + < R 6.6.R z +         + < T 7.w.r.y.y.u.u.u.u.u.u.u.u.u.u.u.u.i.p.a.s.s.a.p.i.i.a.s.s.u.8.N ; o % 7 $.>.<.",
"v v D ' =.:.$.7 % X + < R 6.6.R z O         O < T 6.q.w.q.0.0.0.0.0.0.0.0.0.0.9.0.q.w.y.a.d.d.p.y.w.e.y.a.d.p.q.U ; o % 7 $.>.<.",
"V V D ' 1.:.$.7 % X O < R 7.7.R z O         O < R 7.9.7.4.T U N N U U U U U U N N Y E 0.y.s.s.y.8.E E 9.y.s.p.q.Y ; o % 7 $.>.<.",
"G G J  .1.;.$.7 & o + < R 6.6.R z +         + z R 6.7.4.N , ; - - ; ; ; ; ; ; @ @ ; z E w.i.i.q.R z z R w.i.u.9.U ; o % 7 $.>.<.",
"G G J ] o.=.&.y 1 # * z Y 4.4.T x : + X X + : x T 4.4.T x * o X o o o o o o X .     - M 6.e.e.5.m - - m 5.e.e.5.m - o % 7 $.>.<.",
"G G J [  ...~ i q 3 8 e n Y Y U M x z z z z x M U Y Y n 9 = % % % % % % & % $ o     . , Y 4.4.U , . . , U 4.4.Y , O X % 7 $.>.<.",
"G G H J [ ' W h p y r 0 9 < z m U T R E E R T U m z < 9 0 w 7 7 7 7 7 7 t 7 0 & o     + , x x , +     + , x x , @ . X & t $.>.<.",
"G G G G H J P W ( &.a r = * : z Y 4.6.8.8.6.4.Y z : * = w a $.%.%.$.$.%.%.$.a 0 % X   . O @ @ + .     . + @ @ O .   o = t $.>.<.",
"G G G G G G J ] o.-.&.y 1 # * < Y 4.6.8.7.6.4.Y < * # 1 y ! -.:.:.:.:.,.,.:.&.y 3 # o X X o o o o o o o o o o X X o # 3 y ! -.:.",
"G G G G G G H [  .o.( p 5 1 = 9 n Y R R R R Y n 9 = 1 5 i Q *.*.1.1.1.1.1.1.( p q 3 = & % % % & & = = & & % % % & = 3 q i l / *.",
"G G G G G G G J [ ] W h p y r 0 e z < < < < z e 0 r y p g j L I '  . . . . .W h p y t t 7 7 7 7 t t t t 7 7 7 7 t t y p g j d K ",
"G G G G G G G G H J ` W ( &.a r 8 * + O O + * 8 r a &.( k Z b B D J J J J J P W ~ &.$.$.$.$.$.$.$.$.$.$.$.$.$.$.$.$.&.~ k Z b b ",
"G G G G G G G G G G J ] o.-.&.y 3 # o X X o # 3 y &.;.o.P B c v V G G G G G J ' ..-.:.:.:.:.:.:.:.:.:.:.:.:.:.:.:.:.;...P B c c ",
"G G G G G G G G G G H [  .o.( p q 1 & % % & 1 q p ( 2. .F B c v V G G G G G H [  .o.1.;.;.1.1.1.1.1.1.1.1.1.1.3.3.3.2. .F B c c ",
"G G G G G G G G G G G J [ ] W h i y 7 7 7 7 y i W  .O.[ S v c v V G G G G G G J [ ]  . . . . . . . . . . . . .X.+.+.O.[ D v c c ",
"G G G G G G G G G G G G H J P W ~ &.$.$.$.$.&.^  .} @.H V v c v V G G G G G G H J J J J J J J J J J J J J J ) ) @.@.@.J V v c c ",
"G G G G G G G G G G G G G G J ' ..-.:.:.:.:.;.o.| @._ G V v c v V G G G G G G G G G G G G G G G G G G G G G H _ _ _ _ G V v c c ",
"G G G G G G G G G G G G G G H [  .o.1.;.3.1.2.+.#._ _ G V v v v V G G G G G G G G G G G G G G G G G G G H H H _ _ _ _ H V v c c ",
"G G G G G G G G G G G G G G G J [ ]  . . .+.O.#.@._ _ H V v c v V G G G G G G G G G G G G G G G G G G H H _ _ _ _ _ _ G V v c c ",
"G G G G G G G G G G G G G G G H J J J ) @.@.@.@._ _ _ G V v c v V G G G G G G G G G G G G G G G G G G H _ _ _ _ _ _ _ G V v c c ",
"G G G G G G H H H H H H H H H G G H H H _ _ _ _ _ _ _ G V v c v V V G G G G H H H H H H H H H G G H H H _ _ _ _ _ _ _ G V v c c ",
"V V V G G H H H H H H H H H H H H H _ _ _ _ _ _ _ H G V v v c v v V V G G H H H H H H H H H H H H H _ _ _ _ _ _ _ H G V v c c c ",
"v V V G G H _ _ _ _ _ _ _ _ _ _ _ _ _ _ _ _ _ _ H G V v v c c c v v V G H H _ _ _ _ _ _ _ _ _ _ _ _ _ _ _ _ _ _ H G V v v c c c ",
"v v v V G _ _ _ _ _ _ _ _ _ _ _ _ _ _ _ _ _ _ H G V v v c c c c c v v V H _ _ _ _ _ _ _ _ _ _ _ _ _ _ _ _ _ _ H G V v v c c c c ",
"c c v V G H _ _ _ _ _ _ _ _ _ _ _ _ _ _ _ _ _ G V v c c c c c c c v v V G H _ _ _ _ _ _ _ _ _ _ _ _ _ _ _ _ _ G V v c c c c c c ",
"c c v v V G H H H H H H H H H H H H H H H G G V v v c c c c c c c c v v V G H H H H H H H H H H H H H H H G G V v v c c c c c c ",
"c c c v v V V V V V V V V V V V V V V V V V V v v c c c c c c c c c c v v V V V V V V V V V V V V V V V V V V v v c c c c c c c ",
"c c c v v v v V v v v v v v v v v v v v v v v v c c c c c c c c c c c v v v v V v v v v v v v v v v v v v v v v c c c c c c c c ",
"c c c c c v c v v v v v v v v v v v v v v v c v c c c c c c c c c c c c c v c v v v v v v v v v v v v v v v c v c c c c c c c c ",
"c c c c c c c c c c c c c c c c c c c c c c c c c c c c c c c c c c c c c c c c c c c c c c c c c c c c c c c c c c c c c c c c "
};
