/* XPM */
static char *result[] = {
/* columns rows colors chars-per-pixel */
"64 64 12 1 ",
"  c #5B6A89",
". c #4A566E",
"X c #586581",
"o c #3C465A",
"O c #424D63",
"+ c #6B7B9B",
"@ c #677695",
"# c #515E78",
"$ c #47536A",
"% c #627190",
"& c #343D4F",
"* c #6F7FA0",
/* pixels */
"OOOoo&&&&&&&&&&&&&&&&&&&&&&&&&&ooOOoo&&&&&&&&&&&&&&&&&&&&&&&&&&&",
"$OOoo&&&&&&&&&&&&&&&&&&&&&&&&&&oOOOOo&&&&&&&&&&&&&&&&&&&&&&&&&&&",
"OOOOOooooooooooooooooooooooooooOOOOOOooooooooooooooooooooooooooo",
"O$O$$$........................$$$OO$$$..........................",
"OO$.#XXXXXXXXXXXXXXXXXXXXXXXXXX#.$$.#XXXXXXXXXXXXXXXXXXXXXXXXXXX",
"OO$#X%@@@@@@@@@@@@@@@@@@@@@@@@%X#$$#X%@@@@@@@@@@@@@@@@@@@@@@@@@@",
"OO.# @***+*+++++++++++++++****@ #..# @***+++++++++++++++++++****",
"OO.X%+***++++++++++++++++++***+%#..#%+***++++++++++++++++++*****",
"OO.X%+**+@@@%@%@%@%@%@%@%@@+**+%#..#%+**+@@@%@%@%@%@%@%@%@@+****",
"OO.# @++@%                %@++@ #..# @++@%                %%@+**",
"OO$#X%%% XXXXXXXXXXXXXXXXXX %%%X#$$#X%%% XXXXXXXXXXXXXXXXXX %%@@",
"ooO$.#X##......######......##X#.$OO$.#X##......######......##XXX",
"&oooO$$$OOOOOOO$$..$$OOOOOOO$$$OooooO$$$OOOOOOO$$..$$OOOOOOO$$$$",
"&&&ooooooooo&oooO$$Ooooo&ooooooo&o&ooooooooo&oooO$$Ooooo&ooooooo",
"oooooooooooooooOOOOOOooooooooooooooooooooooooooOOOOOOooooooooooo",
".....$$$.....$$$OOOO$$$.....$$$......$$$.....$$$OOOO$$$.....$$$$",
"XXXXXXXXXXXXXXX#.$$.#XXXXXXXXXXXXXXXXXXXXXXXXXX#.$$.#XXXXXXXXXXX",
"@@@@@@@@@@@@@@%X#$$#X%@@@@@@@@@@@@@@@@@@@@@@@@%X#$$#X%@@@@@@@@@@",
"+++++++++++***@ #..# @***++++++++++++++++++***@ #..# @***+++++++",
"+++++++++++***+%#..#%+***++++++++++++++++++***+%#..#%+***+++++++",
"%%%%%%%%%%@+**+%#..#%+**+@%%%%%%%%%%%%%%%%@+**+%#..#%+**+@%%%%%%",
" % % % %  %@++@ #..# @++@%   % % % % % %  %@++@ #..# @++@%    % ",
"           %@+@ #..# %@@%                  %@+@ #..# @+@%       ",
"           %@@% #.$.X                      %@@% #..# %@@%       ",
"           %%%%X#$$..#XXX                  %%%%X#..#X%%%%       ",
"               #.$OO$$.#XX                     #.$$.#           ",
"XXXXXXXXX#XXXX##.OOOOOO.##XXXXXXXXXXXXXX#XXXXX##$OO$##XXXXXXXXXX",
"#####..........$OooooooO$.......#####..........$OooO$...........",
"...$$OOOOOOOOOOoooo&&&oooOOOOOO$$..$$OOOOOOOOOOooooooOOOOOOOOOOO",
"$$$OOooooo&oooo&o&&&o&&oo&oooooOO$$OOooooo&oooo&o&&oo&ooo&oooooo",
"OOOOOooooooooooooooooooooooooooOOOOOOooooooooooooooooooooooooooo",
"OOOO$$$......................$$$OOOO$$$.....................$$$$",
"OO$.#XXXXXXXXXXXXX XXXXXXXXXXXX#.$$.#XXXXXXXXXXXXXXXXXXXXXXXXXXX",
"OO$#X%@@@@@@@@@@@@@@@@@@@@@@@@%X#$$#X%@@@@@@@@@@@@@@@@@@@@@@@@@@",
"OO.# @***++++++++++++*+++++***@ #..# @***+++++++++++++++++++****",
"OO.#%+***++++++++++++@+++++***+%#..#%+***+++++++++++++++++++****",
"OO.#%+**+@%%%%@%%%%%%%%%%%@+**+%#..#%+**+@%%%%%%%%%%%%%%%%@@+***",
"OO.# @++@%  %  % % % % %  %@++@ #..# @++@%   % % % % % %  %%@+**",
"OO.# @+@%  XXXXX           %@+@ #..# @+@%                  %@+++",
"OO.# %@@%  XX##XX          %@@% #..# %@@%                  %%@@+",
"OO$#X%%%%  X####XX         %%%%X#..#X%%%%                   %%%%",
"OO$.#     X#..$##X             #.$$.#                         % ",
"OOO.##XXXX##$O$.#XXXXXXXXXXXXX##$OO$##XXXXX#XXXXXXXXXXXX#XXXXXXX",
"oooO$......$OoOO.####..........$OooO$...........#####...........",
"&ooooOOOOOOooooO$...$OOOOOOOOOOooooooOOOOOOOOOO$$..$$OOOOOOOOOOO",
"&&&oo&ooo&oo&&ooOO$OOooooo&oooo&o&&oo&ooo&oooooOO$$OOoo&ooo&oooo",
"oOoooooooooooooOOOOOoooooooooooooooooooooooooooOOOOOOooooooooooo",
"..............$$$OOO$$$......................$$$OOOO$$$.........",
"XXXXXXXXXXXXXXX#.$$.#XXXXXXXXXXXXXXXXXXXXXXXXXX#.$$.#XXXXXXXXXXX",
"@@@@@@@@@@@@@@%X#$$#X%@@@@@@@@@@@@@@@@@@@@@@@@%X#$$#X%@@@@@@@@@@",
"+++++++++++***@ #..# @***++++++++++++++++++***@ #..# @***+++++++",
"+++++++++++***+%#..#%+***++++++++++++++++++***+%#..#%+***+++++++",
"%%%%%%%%%%@+**+%#..#%+**+@%%%%%%%%%%%%%%%%@+**+%#..#%+**+@%%%%%%",
" % % % %  %@++@ #..# @++@%   % % % % % %  %@++@ #..# @++@%    % ",
"           %@+@ #..# @+@%                  %@+@ #..# @+@%       ",
"           %@@% #..# %@@%                  %@@% #..# %@@%       ",
"  X  X  X   %% X#$$#X %%    X  X  X  X  X   %% X#$$#X %%        ",
"               #.$$.#                          #.$$.#           ",
"XXXXXXXXXXXX XX#.$$.#XXXXXXXXXXXXXXXXXXXXXXX XX#.$$.#XXXXXXXXXXX",
"###############.$$$$.##########################.$$$$.###########",
"..#..#..#......$$$$$$...#..#..#..#..#..#..#....$$$$$$...........",
"$$$$$$$$$$$.$$$$$OO$$$$$$$$$$$$$$$$$$$$$$$$$$$$$$OO$$$$$$.$.$.$$",
"OOO$OOO$OO$OOOOOOOOOOOOO$OOO$OOO$OOO$OOO$OO$OOOOOOOOOOO$OOOOOOOO",
"OOOOOOOOOOOOOOOOO$O$OOOOOOOOOOOOOOOOOOOOOOOOOOOOO$O$OOOOOOOOOOOO"
};
