/* XPM */
static char *_a68e9a2e8474cfcf940cab5349b18b1F7Q9EwG4Xsbnpbqm[] = {
/* columns rows colors chars-per-pixel */
"64 64 53 1 ",
"  c #374153",
". c #374154",
"X c #394255",
"o c #3A4457",
"O c #3B4559",
"+ c #3C465A",
"@ c #3E495E",
"# c #404B60",
"$ c #404C61",
"% c #414D62",
"& c #434E65",
"* c #444F66",
"= c #455065",
"- c #465168",
"; c #48536A",
": c #48546B",
"> c #49546B",
", c #48556C",
"< c #4A556D",
"1 c #4B5770",
"2 c #4B5870",
"3 c #4C5973",
"4 c #4E5B75",
"5 c #4F5C77",
"6 c #4F5D78",
"7 c #515E77",
"8 c #515E78",
"9 c #53617B",
"0 c #53617E",
"q c #54617C",
"w c #56647E",
"e c #556380",
"r c #556481",
"t c #576684",
"y c #586580",
"u c #586684",
"i c #5A6883",
"p c #5B6985",
"a c #5D6B87",
"s c #5A6988",
"d c #5C6B89",
"f c #5E6D89",
"g c #5F6E8D",
"h c #606F8E",
"j c #63728F",
"k c #627191",
"l c #647392",
"z c #657493",
"x c #677796",
"c c #687795",
"v c #687897",
"b c #697998",
"n c #6D7D9D",
/* pixels */
"7ijccccccccccccccccccccccccji7>>7ijccccccccccccccccccccccccji7>>",
"9fbnnnnnnnnnnnnnnnnnnnnnnnnbf9<<9fbnnnnnnnnnnnnnnnnnnnnnnnnbf9<<",
"9fbnnbvxxxxxxxxxxxxxxxxvbnnbf9<<9fbnnbvxxxxxxxxxxxxxxxxvbnnbf9<<",
"9fbnbxlkkkkkkkkkkkkkkkklxbnbf9<<9fbnbxlkkkkkkkkkkkkkkkklxbnbf9<<",
"9fbnvlgffffffffffffffffglvnbf9<<9fbnvlgfffffffggfffffffglvnbf9<<",
"7yjzjdurrrrrrrrrrrrrrrrudjzjy7--7yjzjdurrrrrrrtrrrrrrrrudjzjy7--",
">4qyq84344444688644333348qyq4>$$>4qyq84333344688644333348qyq4>$$",
"#=><;-*&&&&*-<11<-*&&&&*-;<>=#++#=><;-*&&&&*-<11<-*&&&&*-;<>=#++",
"Xo++OOoXXXXO@$==$@OXXXXoOO++oX..Xo++OOoXXXXO@$==$@OXXXXoOO++oX..",
"++++++++++++@$&&$@++++++++++++++++++++++++++@$&&$@++++++++++++++",
"<<<<<<<<<<<<>-==-><<<<<<<<<<<<<<<<<<<<<<<<<<>-==-><<<<<<<<<<<<<<",
"yyyyyyyyyyyw72--27wyyyyyyyyyyyyyyyyyyyyyyyyw72--27wyyyyyyyyyyyyy",
"cccccccccccji7>>7ijccccccccccccccccccccccccji7>>7ijccccccccccccc",
"nnnnnnnnnnnbf9<<9fbnnnnnnnnnnnnnnnnnnnnnnnnbf9<<9fbnnnnnnnnnnnnn",
"xxxxxxxvbnnbf9<<9fbnnbvxxxxxxxxxxxxxxxxvbnnbf9<<9fbnnbvxxxxxxxxx",
"kkkkkkklxbnbf9<<9fbnbxlkkkkkkkkkkkkkkkklxbnbf9<<9fbnbxlkkkkkkkkk",
"fffffffglvnbf9<<9fbnvlgffffffffffffffffglvnbf9<<9fbnvlgfffffffff",
"sssssssdkxbxa9<>8pzclhdssssssssssssssssdkxbxa9<<9axbxkdsssssssss",
"sssssssdgkxkp8>-3qpfddsssssssssssssssssdgkxkp8>>8pkxkgdsssssssss",
"ssssssssfgkfr5--<38qrypsssssssssssssssssfgkfr5--5rfkgfssssssssss",
"sssssssssddp03-=-->150ussssssssssssssssssddp03--30pddsssssssssss",
"rrrrrrrrrrr04<=$$$$=<40rrrrrrrrrrrrrrrrrrrr04<==<40rrrrrrrrrrrrr",
"644333333331-&#@@@@#&-1333344688644333333331-&##&-13333333344688",
"<-*&&&&&&&&$#@OOOOOO@#$&&&&*-<11<-*&&&&&&&&$#@OO@#$&&&&&&&&*-<11",
"$@OXXXXXXXXXXX      XXXXXXXO@$==$@OXXXXXXXXXXX  XXXXXXXXXXXO@$==",
"$@++++++++++++++++++++++++++@$&&$@++++++++++++++++++++++++++@$&&",
"-><<<<<<<<<<<<<<<<<<<<<<<<<<>-==-><<<<<<<<<<<<<<<<<<<<<<<<<<>-==",
"27wyyyyyyyyyyyyyyiyyyyyyyyyw72--27wyyyyyiiyyyyyyyyyyyyyyyyyw72--",
"7ijcccccccccccccccccccccccxji7>>7ijccccccccccccccccccccccccji7>>",
"9fbnnnnnnnnnnnnnnnnnnnnnnnnbf9<<9fbnnnnnnnnnnnnnnnnnnnnnnnnbf9<<",
"9fbnnbvxxxxxxxxxxxxxxxxvbnnbf9<<9fbnnbvxxxxxxxxxxxxxxxxvbnnbf9<<",
"9fbnbxlkkkkkkkkkkkkkkkklxbnbf9<<9fbnbxlkkkkkkkkkkkkkkkkzxbnbf9<<",
"9fbnvlgfffggfffffffffffglvnbf9<<9fbnvlgffffffffffffffffglvnbf9<<",
"9axbxkdpputtuppssssssssdkxbxa9<<9axbxkdssssssssssssssssdkxbxa9<<",
"8pkxkgdpre00erpssssssssdgkxkp8>>8pkxkgdssssssssssssssssdgkxkp8>>",
"5rfkgfsue8448eusssssssssfgkfr5--5rfkgfssssssssssssssssssfgkfr5--",
"30pddsst04<<40tssssssssssddp03--30pddssssssssssssssssssssddp03--",
"<40rrrr04<==16qrrrrrrrrrrrr04<==<40rrrrrrrrrrrrrrrrrrrrrrrr04<==",
"&-133331-&##-158644333333331-&##&-13333333344688644333333331-&##",
"@#$&&&&$#@O+$-<1<-*&&&&&&&&$#@OO@#$&&&&&&&&*-<11<-*&&&&&&&&$#@OO",
"XXXXXXXXXX X+#==$@OXXXXXXXXXXX  XXXXXXXXXXXO@$==$@OXXXXXXXXXXX  ",
"++++++++++++@$&&$@++++++++++++++++++++++++++@$&&$@++++++++++++++",
"<<<<<<<<<<<<>-==-><<<<<<<<<<<<<<<<<<<<<<<<<<>-==-><<<<<<<<<<<<<<",
"iiyyyyyyyyyw72--27wyyyyyiiyyyyyyiiyyyyyyyyyw72--27wyyyyyiiyyyyyy",
"ccccccccccxji7>>7ijcccccccccccccccccccccccxji7>>7ijccccccccccccc",
"nnnnnnnnnnnbf9<<9fbnnnnnnnnnnnnnnnnnnnnnnnnbf9<<9fbnnnnnnnnnnnnn",
"xxxxxxxvbnnbf9<<9fbnnbvxxxxxxxxxxxxxxxxvbnnbf9<<9fbnnbvxxxxxxxxx",
"kkkkkkklxbnbf9<<9fbnbxlkkkkkkkkkkkkkkkklxbnbf9<<9fbnbxlkkkkkkkkk",
"fffffffglvnbf9<<9fbnvlgffffffffffffffffglvnbf9<<9fbnvlgfffffffff",
"sssssssdkxbxa9<<9axbxkdssssssssssssssssdkxbxa9<<9axbxkdsssssssss",
"sssssssdgkxkp8>>8pkxkgdssssssssssssssssdgkxkp8>>8pkxkgdsssssssss",
"ssssssssfgkfr5--5rfkgfssssssssssssssssssfgkfr5--5rfkgfssssssssss",
"sssssssssddp03--30pddssssssssssssssssssssddp03--30pddsssssssssss",
"ttttttttttte82--28etttttttttttttttttttttttte82--28ettttttttttttt",
"8888888888883<--<3888888888888888888888888883<--<388888888888888",
"333333333332<-==-<23333333333333333333333332<-==-<23333333333333",
"-------------=&&=----------------------------=&&=---------------",
"&$$$$$$$$$$$$$$$$$$$$$$$$$$$$&&&&$$$$$$$$$$$$$$$$$$$$$$$$$$$$&&&",
"$#@@@@@@@@@@@@@@@@@@@@@@@@@@#$&&$#@@@@@@@@@@@@@@@@@@@@@@@@@@#$&&",
"#@OOOOOOOOOOOOOOOOOOOOOOOOOO@#$$#@OOOOOOOOOOOOOOOOOOOOOOOOOO@#$$",
"@OX                        XO@$$@OX                        XO@$$",
"$@++++++++++++++++++++++++++@$&&$@++++++++++++++++++++++++++@$&&",
"-><<<<<<<<<<<<<<<<<<<<<<<<<<>-==-><<<<<<<<<<<<<<<<<<<<<<<<<<>-==",
"27wyyyyyyyyyyyyyyyyyyyyyyyyw72--27wyyyyyyyyyyyyyyyyyyyyyyyyw72--"
};
