/* XPM */
static char *result[] = {
/* columns rows colors chars-per-pixel */
"64 64 123 2 ",
"   c #524045",
".  c #5D4445",
"X  c #694A49",
"o  c #77514C",
"O  c #7D544F",
"+  c #885A55",
"@  c #885D5A",
"#  c #886566",
"$  c #806466",
"%  c #715C62",
"&  c #68585F",
"*  c #7B6264",
"=  c #7A5E5E",
"-  c #785552",
";  c #887C89",
":  c #848698",
">  c #818498",
",  c #7E8296",
"<  c #7C8196",
"1  c #818497",
"2  c #858598",
"3  c #817885",
"4  c #88686B",
"5  c #88889B",
"6  c #8895AF",
"7  c #89879A",
"8  c #7B5F61",
"9  c #7A5A5B",
"0  c #7B666D",
"q  c #83859A",
"w  c #808498",
"e  c #716168",
"r  c #6D5354",
"t  c #775D5F",
"y  c #868698",
"u  c #787889",
"i  c #5F5E6D",
"p  c #5F6172",
"a  c #7A839B",
"s  c #79839A",
"d  c #5C5F71",
"f  c #5B5C6B",
"g  c #767789",
"h  c #76839C",
"j  c #535F75",
"k  c #7C889F",
"l  c #929EB6",
"z  c #909CB5",
"x  c #586279",
"c  c #A1ACC1",
"v  c #8590A6",
"b  c #9BA7BE",
"n  c #99A5BC",
"m  c #635359",
"M  c #51464F",
"N  c #4E4E5D",
"B  c #4D5A73",
"V  c #6F7C97",
"C  c #7E8CA9",
"Z  c #707487",
"A  c #525769",
"S  c #454A5C",
"D  c #414D63",
"F  c #4B5871",
"G  c #637290",
"H  c #6F7F9F",
"J  c #6E7E9E",
"K  c #7081A1",
"L  c #647391",
"P  c #5C667C",
"I  c #495369",
"U  c #50505A",
"Y  c #686B83",
"T  c #6D6E85",
"R  c #5E4246",
"E  c #50393D",
"W  c #5F5C66",
"Q  c #4F2A26",
"!  c #452421",
"~  c #5A302B",
"^  c #60342F",
"/  c #532D29",
"(  c #683732",
")  c #693934",
"_  c #703C37",
"`  c #6D3B36",
"'  c #6C3934",
"]  c #4A566E",
"[  c #75504E",
"{  c #7E5856",
"}  c #6A4748",
"|  c #909BAF",
" . c #8F99AD",
".. c #848386",
"X. c #827879",
"o. c #8F7D7B",
"O. c #908E92",
"+. c #2A1A1A",
"@. c #190E0E",
"#. c #9B9595",
"$. c #9F9F9F",
"%. c #AFAFAF",
"&. c #17181A",
"*. c #2C2C2E",
"=. c #3D393A",
"-. c #424444",
";. c #ACACAC",
":. c #B2B2B2",
">. c #757676",
",. c #878788",
"<. c #B7B7B8",
"1. c #CECECF",
"2. c #78768B",
"3. c #E1E1E1",
"4. c #6D4B4F",
"5. c black",
"6. c #C5C5C5",
"7. c #727272",
"8. c #7B433D",
"9. c #F4F4F4",
"0. c #8F4D46",
"q. c #9C554C",
"w. c #9D564D",
/* pixels */
"      . X o o o o o o o o o o o o o o o o o o X .                     . X o o o o o o o o o o o o o o o o o o X .               ",
"    . . X o o o o o o o o o o o o o o o o o o X .                   . . X o o o o o o o o o o o o o o o o o o X .               ",
"    . X X o o o o o o o o o o o o o o o o o o X X . .               . X X o o o o o o o o o o o o o o o o o o X X . .           ",
". . X X X o o o o o o o o o o o o o o o o o o o X X X . .       . . . X X o o o o o o o o o o o o o o o o o o o X X X . .       ",
"X X X X o o o o o o o o o o o o o o o o o o o o O o o X .     . . X X X o o o o o o o o o o o o o o o o o o o o O o o X .       ",
"o o o o o o o o o o o o o o o o o o o o o o o O O + O o X .   . X X o o o o o o o o o o o o o o o o o o o o o O O + O o X .     ",
"o o o o o o o o o o o o o o o o o o o o o o O O + + + o X .   . X o o o o o o o o o o o o o o o o o o o o o O O + + + o X .     ",
"o o o o o o o o o o o o o o o o o o o o o o O O + @ # $ % & & & % * * * * = - o o o o o o o o o o o o o o o O O + + + O X .     ",
"o o o o o o o o o o o o o o o o o o o o o o O O + # ; : > , < , 1 2 2 : : 3 = o o o o o o o o o o o o o o o O O + + + o X .     ",
"o o o o o o o o o o o o o o o o o o o o o o O O + 4 5 6 6 6 6 6 6 6 6 6 6 : * o o o o o o o o o o o o o o o O O + + + o X .     ",
"o o o o o o o o o o o o o o o o o o o o o o O O + 4 7 6 6 6 6 6 6 6 6 6 6 2 * o o o o o o o o o o o o o o o O O + + + o X .     ",
"o o o o o o o o o o o o o - = * * * * * * * $ 8 9 0 q 6 6 6 6 6 6 6 6 6 6 w e r t * * * * * * * * = - o o o O O + + + o X .     ",
"o o o o o o o o o o o o o = 3 : : 2 2 2 2 2 y u i p a 6 6 6 6 6 6 6 6 6 6 s d f g 2 2 2 2 2 2 : : 3 = o o o O O + + + o X .     ",
"o o o o o o o o o o o o o * : 6 6 6 6 6 6 6 6 h j j k l l z z z z z z l l k j j h 6 6 6 6 6 6 6 6 : * o o o O O + + + o X .     ",
"o o o o o o o o o o o o o * 2 6 6 6 6 6 6 6 6 h j x 6 c c c c c c c c c c 6 x j h 6 6 6 6 6 6 6 6 2 * o o o O O + + + o X .     ",
"r r t * * * * * * * * t r e w 6 6 6 6 6 6 6 6 h j x v b b n n n n n n b b v x j h 6 6 6 6 6 6 6 6 w e r t * * $ 4 4 4 * % m M M ",
"N f g 2 2 2 2 2 2 2 2 g f d s 6 6 6 6 6 6 6 6 h j B V C C C C C C C C C C V B j h 6 6 6 6 6 6 6 6 s d f g 2 2 y 7 7 7 2 1 Z A S ",
"D j h 6 6 6 6 6 6 6 6 h j j k l l z z z z l l k x F G H H J J J J J J H H G F x k l l z z z z l l k j j h 6 6 6 6 6 6 6 6 h j D ",
"D j h 6 6 6 6 6 6 6 6 h j x 6 c c c c c c c c 6 x F G H H J J J J J J H H G F x 6 c c c c c c c c 6 x j h 6 6 6 6 6 6 6 6 h j D ",
"D j h 6 6 6 6 6 6 6 6 h j x v b b n n n n b b v x F G K K H H H H H H K K G F x v b b n n n n b b v x j h 6 6 6 6 6 6 6 6 h j D ",
"D j h 6 6 6 6 6 6 6 6 h j B V C C C C C C C C V B F L K K H H H H H H K K L F B V C C C C C C C C V B j h 6 6 6 6 6 6 6 6 h j D ",
"D x k l l z z z z l l k x F G H H J J J J H H G B B L K K K K K K K K K K L B B G H H J J J J H H G F x k l l z z z z l l k x D ",
"D P 6 c c c c c c c c 6 x F G H H J J J J H H G B B L K K K K K K K K K K L B B G H H J J J J H H G F x 6 c c c c c c c c 6 P D ",
"D x v b b n n n n b b v x F L K K K K K K K K G I U x Y Y Y Y Y Y Y Y Y Y x U I G K K K K K K K K L F x v b b n n n n b b v x D ",
"D j V C C C C C C C C V j B L K K K K K K K K T R E E E R R R R R R R R E E E R T K K K K K K K K L B j V C C C C C C C C V j D ",
"D B G H H J J J J H H G I U x T T Y Y Y Y T T W R Q ! ! Q ~ ~ ~ ~ ~ ~ Q ! ! Q R W T T Y Y Y Y T T x U I G H H J J J J H H G B D ",
"D B G H H J J J J H K Y R E R R R R E E R R R R ^ Q ! ! Q ~ ~ ~ ~ ~ ~ Q ! ! Q ^ R R R R E E R R R R E R Y K H J J J J H H G B D ",
"D B L K K K K K K K K T R / / ~ ~ Q ! ! / ~ ~ ~ ^ ~ Q Q ~ ^ ^ ^ ^ ^ ^ ~ Q Q ~ ^ ~ ~ ~ / ! ! Q ~ ~ / / R Y K K K K K K K K L B D ",
"D B L K K K K K K K K T R / ~ ~ ~ Q ! ! ^ ( ( ( ) ^ ~ ~ ^ ) ) ) ) ) ) ^ ~ ~ ^ ) ( ( ( ^ ! ! Q ~ ~ ~ / R T K K K K K K K K L B D ",
"D F P L L G G G G L L x R ~ ~ ~ ~ / Q Q ( _ _ ` ` ) ^ ^ ) _ _ _ _ _ _ ' ^ ^ ) ` ` _ _ ( Q Q ~ ^ ^ ^ ~ R P L L G G G G L L P ] D ",
"D I ] F F F F F F F F U R ( ( ( ( ^ ~ ~ ( ` ` ` ` ) ^ ^ ' _ _ _ _ _ _ ' ^ ^ ) ` ` ` ` ( ~ ~ ^ ) ) ) ( R U F F F F F F F F ] I D ",
"D I j P P P P P P P P x [ [ [ [ { [ ) ^ ) ` ` ` ` ) ^ ~ / / / / / / Q Q ! Q ( _ ` ` ` ) ^ ^ ) ` ` ` ` } W P P P P P P P P j I D ",
"D j k | |  . . . . . .v ..X.X.o.O.o.} ^ ( ` ` ` ` ) ^ Q +.@.@.@.@.@.@.@.@.+.~ _ _ ` ` ) ^ ^ ) ` ` ' ' [ ..| |  . . . .| | k j D ",
"D x v b b b b b b b b l #.O.#.$.%.#.[ ~ ( ` ` ` _ ( / ! +.&.*.*.*.=.-.-.-.=./ ~ ( _ _ ) ^ ^ ) ` ` ' ' { O.b b b b b b b b v x D ",
"D j V C C C C C C C C C O.#.$.;.:.#.[ ~ ( ` ` _ _ ~ +.&.=.U >.,.,.#.<.1.1.#.=.+.~ _ _ ) ^ ^ ) ` ` ' ' [ 2.C C C C C C C C V j D ",
"D B G H H J J J J J J V X.o.O.#.#.o.} ^ ( ` ` ) ~ ! +.*.W >...,.,.#.<.1.3.<.P =./ ~ ( ) ^ ^ ) ` ` ' ' 4.T H H J J J J H H G B D ",
"D B G H H J J J J H H 2.{ [ { { { [ ) ^ ( _ _ ~ +.+.=.W ,...U *.*.=.-.U >.#.<.#.=.+.~ ) ^ ^ ) ` ` ' ' 4.T K H J J J J H H G B D ",
"D B L K K H H H H K K T 4.( ' ' ' ( ^ ^ ) _ _ / @.&.-.>.$.,.*.5.5.5.5.&.=.,.3.1.-.@.Q ` ^ ^ ) ` ` ' ' 4.T K K H H H H K K L B D ",
"D B L K K H H H H K K T 4.' ' ' ' ( ^ ^ ) _ _ / @.&.-.>.$.,.*.5.5.5.5.@.=.,.3.6.-.@.Q ` ^ ^ ) ` ' ' ' 4.T K K H H H H K K L B D ",
"D B L K K K K K K K K T 4.' ' ` ` ) ^ ^ ) ) ~ ! +.*.W ..$.O.U *.*.*.*.=.W O.1.6.7.=./ ~ ~ ^ ) 8.[ [ _ 4.T K K K K K K K K L B D ",
"D B L K K K K K K K K T 4.' ' ` ` ) ^ ^ ) ~ +.+.=.W ,.$.;.$.O.........,.#.$.<.6.6.#.=.+.Q ^ ( [ o.o.[ 4.T K K K K K K K K L B D ",
"D F P L L G G G G L L P } ' ` ` ` ) ^ ^ ' / @.&.-.>.$.%.%.%.%.:.:.:.:.:.%.;.;.6.9.6.-.@.! ^ ( { #.#.{ } P L L G G G G L L P ] D ",
"D I ] F F F F F F F F U R ` ` ` ` ) ^ ^ ' / @.&.-.7.$.%.%.%.%.%.:.:.<.:.%.;.;.6.9.6.-.@.! ^ ( { #.#.{ R U F F F F F F F F ] I D ",
"D I j P P P P P P P P W } ' ` ` ` ) ^ ^ ' / @.&.-.7.$.%.%.%.%.$.O.....O.$.;.;.6.9.6.-.@.! ^ ( { #.#.{ } W P P P P P P P P j I D ",
"D j k | |  . . . .| | ..[ ' ' ` ` ) ^ ^ ' / @.&.-.7.$.%.%.%.%.O.U *.*.U O.%.;.6.9.6.-.@.! ^ ( { #.#.{ [ ..| |  . . . .| | k j D ",
"D x v b b b b b b b b O.{ ' ' ` ` ) ^ ^ ' / @.&.-.7.$.%.%.%.:...*.5.5.*...%.%.6.3.<.=.@.! ^ ( { #.#.{ [ O.b b b b b b b b v x D ",
"D j V C C C C C C C C 2.[ ' ' ` ` ) ^ ^ ' / @.&.-.7.$.%.%.%.:...*.5.5.*...:.%.<.6.#.*.@.! ^ ( { #.#.{ 4.2.C C C C C C C C V j D ",
"D B G H H J J J J H H T 4.' ' ` ` ) ^ ^ ' / @.&.-.7.$.%.%.%.:...*.5.5.*...:.%.%.%...*.@.! ^ ( { #.#.{ } T H H J J J J H H G B D ",
"D B G H H J J J J H K T 4.' ' ` ` ) ^ ^ ' / @.&.-.7.$.%.%.%.:...*.5.5.*...:.%.%.%...*.@.! ^ ( { #.#.{ 4.T K H J J J J H H G B D ",
"D B L K K H H H H K K T 4.' ' ` ` ) ^ ^ ' / @.&.-.7.$.%.%.%.%.O.U *.*.U O.%.%.%.:...*.@.! ^ ( [ o.o.[ 4.T K K H H H H K K L B D ",
"D B L K K H H H H K K T 4.' ' ` ` ) ^ ^ ' / @.&.-.7.$.%.%.%.%.$.O.....O.$.%.%.%.:...*.@.! ^ ) 8.[ [ _ 4.T K K H H H H K K L B D ",
"D B L K K K K K K K K T 4.' ' ` ` ) ^ ^ ' / @.&.-.7.$.:.:.%.%.%.:.:.:.:.%.%.%.:.:.,.*.@.! ^ ) ` ' ' ' 4.T K K K K K K K K L B D ",
"D B L K K K K K K K K T 4.' ' ` ` ) ^ ^ ' / @.&.-.>.$.:.:.:.:.:.:.:.:.:.:.:.:.:.<.,.*.@.! ^ ) ` ` ' ' 4.T K K K K K K K K L B D ",
"D F P L L G G G G L L P } ' ' ` ` ( ^ ^ ) ~ +.+.=.U >.........................,.,.P *.+.Q ^ ) ` ` ` ' } P L L G G G G L L P ] D ",
"D I ] F F F F F F F F U R ' ' ' ' ( ^ ^ ) ) ~ ! +.&.*.*.*.*.*.*.*.*.*.*.*.*.*.*.*.*./ ~ ~ ^ ) ` ` ` ` R U F F F F F F F F ] I D ",
"D I j P P P P P P P P x [ [ [ [ { [ ) ^ ( _ _ ~ +.@.@.@.@.@.@.@.@.@.@.@.@.@.@.@.@.+.~ ` ^ ^ ) ` ` ` ' } W P P P P P P P P j I D ",
"D j k | |  . . . . . .v ..X.X.o.O.o.} ^ ( _ _ ) ~ Q ! ! Q / / / / / / Q ! ! Q / Q ~ ( ) ^ ^ ) ` ` ' ' [ ..| |  . . . .| | k j D ",
"D x v b b b b b b b b l #.O.#.$.%.#.[ ~ ( ` ` ` _ ' ^ ^ ' _ _ _ _ _ _ ' ^ ^ ' _ _ _ ` ) ^ ^ ) ` ` ' ' { O.b b b b b b b b v x D ",
"D j V C C C C C C C C C O.#.$.;.:.#.[ ~ ( ` ` ` _ ) ^ ^ ) _ _ _ _ _ _ ) ^ ^ ) _ _ _ ` ) ^ ^ ) ` ` ' ' [ 2.C C C C C C C C V j D ",
"D B G H H J J J J J J V X.o.O.#.#.o.} ^ ( ` ` ` ` ( ^ ^ ( ` ` ` ` ` ` ( ^ ^ ( ` ` ` ` ( ^ ^ ( ` ` ' ' 4.T H H J J J J H H G B D ",
"D B G H H J J J J H H T { [ [ { { [ ) ^ ( ` ` ` ` ( ^ ^ ( ` ` ' ' ` ` ( ^ ^ ( ` ` ` ` ( ^ ^ ( ` ` ' ' 4.T K H J J J J H H G B D ",
"D B L K K H H H H H K T [ _ _ 8.8._ ^ ^ _ 8.8.8.8._ ^ ^ _ 8.8.8.8.8.8._ ^ ^ _ 8.8.8.8._ ^ ^ _ 8.8.8.8.[ T K H H H H H K K L B D ",
"D B L K K H H H H H K 2.{ 0.0.0.0.8.( ( 8.0.0.0.0.8.( ( 8.0.0.0.0.0.0.8.( ( 8.0.0.0.0.8.( ( 8.0.0.0.0.{ 2.K H H H H H K K L B D ",
"D B L K K H H H H H K 2.{ q.q.q.w.0.) ) 0.w.q.q.w.0.) ) 0.w.q.q.q.q.w.0.) ) 0.w.q.q.w.0.) ) 0.w.q.q.w.{ 2.K H H H H H K K L B D "
};
