/* XPM */
static char *result[] = {
/* columns rows colors chars-per-pixel */
"64 64 100 2 ",
"   c #524045",
".  c #5D4445",
"X  c #694A49",
"o  c #77514C",
"O  c #7D544F",
"+  c #885A55",
"@  c #885D5A",
"#  c #886566",
"$  c #806466",
"%  c #715C62",
"&  c #68585F",
"*  c #7B6264",
"=  c #7A5E5E",
"-  c #785552",
";  c #887C89",
":  c #848598",
">  c #818497",
",  c #7E8296",
"<  c #7B8196",
"1  c #817885",
"2  c #88686B",
"3  c #88889A",
"4  c #8895AF",
"5  c #7B5F61",
"6  c #7A5A5B",
"7  c #7B666D",
"8  c #83859A",
"9  c #808498",
"0  c #716168",
"q  c #6D5354",
"w  c #775D5F",
"e  c #858699",
"r  c #787889",
"t  c #5F5F70",
"y  c #7A839B",
"u  c #8996B0",
"i  c #79839A",
"p  c #5C5D6E",
"a  c #767789",
"s  c #76839C",
"d  c #545F76",
"f  c #7C889F",
"g  c #919DB6",
"h  c #5A657B",
"j  c #A2ACBF",
"k  c #8590A6",
"l  c #9CA7BE",
"z  c #99A5BC",
"x  c #635359",
"c  c #51464F",
"v  c #4E4E5D",
"b  c #4D5A73",
"n  c #6F7C97",
"m  c #7E8CA9",
"M  c #707487",
"N  c #54596C",
"B  c #454A5C",
"V  c #424D63",
"C  c #4B5871",
"Z  c #637290",
"A  c #6F7F9F",
"S  c #6E7E9E",
"D  c #7081A1",
"F  c #485167",
"G  c #636982",
"H  c #4B393F",
"J  c #453133",
"K  c #5F5C6B",
"L  c #40221E",
"P  c #565565",
"I  c #472623",
"U  c #442421",
"Y  c #49556C",
"T  c #522C28",
"R  c #5A302B",
"E  c #919BB0",
"W  c #8F99AE",
"Q  c #85818D",
"!  c #644447",
"~  c #8B8C99",
"^  c #6C4A4D",
"/  c #60342F",
"(  c #7A7688",
")  c #693934",
"_  c #673732",
"`  c #6D3B36",
"'  c #6E6F86",
"]  c #7E5959",
"[  c #75504D",
"{  c #7C5753",
"}  c #6C3933",
"|  c #8C7C7A",
" . c #949191",
".. c #9FA2A1",
"X. c #9F9493",
"o. c #733E39",
"O. c #7C433D",
"+. c #8F4D46",
"@. c #915F61",
"#. c #9C554C",
/* pixels */
"      . X o o o o o o o o o o o o o o o o o o X .                     . X o o o o o o o o o o o o o o o o o o X .               ",
"    . . X o o o o o o o o o o o o o o o o o o X .                   . . X o o o o o o o o o o o o o o o o o o X .               ",
"    . X X o o o o o o o o o o o o o o o o o o X X . .               . X X o o o o o o o o o o o o o o o o o o X X . .           ",
". . X X X o o o o o o o o o o o o o o o o o o o X X X . .       . . . X X o o o o o o o o o o o o o o o o o o o X X X . .       ",
"X X X X o o o o o o o o o o o o o o o o o o o o O o o X .     . . X X X o o o o o o o o o o o o o o o o o o o o O o o X .       ",
"o o o o o o o o o o o o o o o o o o o o o o o O O + O o X .   . X X o o o o o o o o o o o o o o o o o o o o o O O + O o X .     ",
"o o o o o o o o o o o o o o o o o o o o o o O O + + + o X .   . X o o o o o o o o o o o o o o o o o o o o o O O + + + o X .     ",
"o o o o o o o o o o o o o o o o o o o o o o O O + @ # $ % & & & % * * * * = - o o o o o o o o o o o o o o o O O + + + O X .     ",
"o o o o o o o o o o o o o o o o o o o o o o O O + # ; : > , < , > : : : : 1 = o o o o o o o o o o o o o o o O O + + + o X .     ",
"o o o o o o o o o o o o o o o o o o o o o o O O + 2 3 4 4 4 4 4 4 4 4 4 4 : * o o o o o o o o o o o o o o o O O + + + o X .     ",
"o o o o o o o o o o o o o o o o o o o o o o O O + 2 3 4 4 4 4 4 4 4 4 4 4 : * o o o o o o o o o o o o o o o O O + + + o X .     ",
"o o o o o o o o o o o o o - = * * * * * * * $ 5 6 7 8 4 4 4 4 4 4 4 4 4 4 9 0 q w * * * * * * * * = - o o o O O + + + o X .     ",
"o o o o o o o o o o o o o = 1 : : : : : : : e r t t y u 4 4 4 4 4 4 4 4 u i p p a : : : : : : : : 1 = o o o O O + + + o X .     ",
"o o o o o o o o o o o o o * : 4 4 4 4 4 4 u u s d d f g g g g g g g g g g f d d s u u 4 4 4 4 4 4 : * o o o O O + + + o X .     ",
"o o o o o o o o o o o o o * : 4 4 4 4 4 4 u u s d h 4 j j j j j j j j j j 4 h d s u u 4 4 4 4 4 4 : * o o o O O + + + o X .     ",
"q q w * * * * * * * * w q 0 9 4 4 4 4 4 4 u u s d d k l l z z z z z z l l k d d s u u 4 4 4 4 4 4 9 0 q w * * $ 2 2 2 * % x c c ",
"v p a : : : : : : : : a p p i u 4 4 4 4 4 4 u s d b n m m m m m m m m m m n b d s u 4 4 4 4 4 4 u i p p a : : e 3 3 3 : > M N B ",
"V d s u u 4 4 4 4 u u s d d f g g g g g g g g f d C Z A A S S S S S S A A Z C d f g g g g g g g g f d d s u u 4 4 4 4 u u s d V ",
"V d s u u 4 4 4 4 u u s d h 4 j j j j j j j j 4 h C Z A A S S S S S S A A Z C h 4 j j j j j j j j 4 h d s u u 4 4 4 4 u u s d V ",
"V d s u u 4 4 4 4 u u s d d k l l z z z z l l k h C Z D D A A A A A A D D Z C h k l l z z z z l l k d d s u u 4 4 4 4 u u s d V ",
"V d s u 4 4 4 4 4 4 u s d b n m m m m m m m m n b C Z D D A A A A A A D D Z C b n m m m m m m m m n b d s u 4 4 4 4 4 4 u s d V ",
"V d f g g g g g g g g f d C Z A A S S S S A A Z b b Z D D D D D D D D D D Z b b Z A A S S S S A A Z C d f g g g g g g g g f d V ",
"V h 4 j j j j j j j j 4 h C Z A A S S S S A A Z b b Z D D D D D D D D D D Z b b Z A A S S S S A A Z C h 4 j j j j j j j j 4 h V ",
"V h k l l z z z z l l k h C Z D D D D D D D D Z F V d G G G G G G G G G G d V F Z D D D D D D D D Z C h k l l z z z z l l k h V ",
"V d n m m m m m m m m n d b Z D D D D D D D D G H J H H H H H H H H H H H H J H G D D D D D D D D Z b d n m m m m m m m m n d V ",
"V b Z A A S S S S A A Z F V d G G G G G G G G K J L L L L L L L L L L L L L L H P G G G G G G G G d V F Z A A S S S S A A Z b V ",
"V b Z A A S S S S A D G H J H H H H H H H H H J I L L L L L L L L L L L L L L I J H H H H H H H H H J H G D A S S S S A A Z b V ",
"V b Z D D D D D D D D G H L L L L L L L L L L L L L L L L L L L L L L L L L L L L L L L L L L L L L L H G D D D D D D D D Z b V ",
"V b Z D D D D D D D D G H L L L L L L L L L L L L L L L L L L L L L L L L L L L L L L L L L L L L L L H G D D D D D D D D Z b V ",
"V C G Z Z Z Z Z Z Z Z d H L L L L L L L L L L U U U U U U I I I I I I U U U U U U L L L L L L L L L L H d Z Z Z Z Z Z Z Z G C V ",
"V F Y C C C C C C C b V J L L L L L L L L L L U T T U U T T T T T T T T U U T T U L L L L L L L L L L J V b C C C C C C C Y F V ",
"V Y d h h h h h h h h P H I I I I U U U U I I I T T I I T R R R R R R T I I T T I I I U U U U I I I I H P h h h h h h h h d Y V ",
"V d f E W W W W W E E Q ! T T T T T U U T T T T R T I I T R R R R R R T I I T R T T T T U U T T T T T ! Q E E W W W W W E f d V ",
"V h k l l l l l l l l ~ ^ R R R R T I I R / / / / R I I R / / / / / / R I I R / / / / R I I T R R R R ^ ~ l l l l l l l l k h V ",
"V d n m m m m m m m m ( ! R T R R T U I / ) ) ) ) _ R R _ ) ) ) ) ) ) _ R R _ ) ) ) ) / I U T R R R R ! ( m m m m m m m m n d V ",
"V b Z A A S S S S A D G ! R R R R R I T _ ` ` ` ` ) / / ) ` ` ` ` ` ` ) / / ) ` ` ` ` _ T I R / / / R ! ' D A S S S S A A Z b V ",
"V b Z A A S S S S A D ' ^ _ _ _ _ / R R _ ` ` ` ` ) / / ) ` ` ` ` ` ` ) / / ) ` ` ` ` _ R R _ ) ) _ _ ^ ' D A S S S S A A Z b V ",
"V b Z D D A A A A A D ' ] [ [ [ { [ ) / ) ` ` ` ` ) / / ) ` ` ` ` ` ` ) / / ) ` ` ` ` ) / / ) ` ` ` } ^ ' D D A A A A D D Z b V ",
"V b Z D D A A A A A A n ( | | |  .| ^ / _ ` ` ` ` ) / / ) ` ` ` ` ` ` ) / / ) ` ` ` ` ) / / ) ` ` ` } ^ ' D D A A A A D D Z b V ",
"V b Z D D D D D D A A s ~  . ...j X.[ R _ ` ` ` ` ) / / ) ` ` ` ` ` ` ) / / ) ` ` ` ` ) / / ) ` ` } } ^ ' D D D D D D D D Z b V ",
"V b Z D D D D D D D D s ~  ...j j X.[ R _ ` ` ` ` ) / / ) ` ` ` ` ` ` ) / / ) ` ` ` ` ) / / ) ` ` } } ^ ' D D D D D D D D Z b V ",
"V C G Z Z Z Z Z Z Z Z ' ( |  .X.X.| ^ / _ ` ` ` ` ) / / ) ` ` ` ` ` ` ) / / ) ` ` ` ` ) / / ) ` ` } } ^ h Z Z Z Z Z Z Z Z G C V ",
"V F Y C C C C C C C C P [ [ { { { [ ) / _ ` ` ` ` ) / / ) ` ` ` ` ` ` ) / / ) ` ` ` ` ) / / ) ` } } } ! P C C C C C C C C Y F V ",
"V Y d h h h h h h h h K ! } } } } _ / / ) ` ` ` ` ) / / ) ` ` ` ` ` ` ) / / ) ` ` ` ` ) / / _ o.[ [ o.! K h h h h h h h h d Y V ",
"V d f E W W W W W W E Q [ } } } } _ / / ) ` ` ` ` ) / / ) ` ` ` ` ` ` ) / / ) ` ` ` ` ) / / _ [ | | [ [ Q E W W W W W W E f d V ",
"V h k l l l l l l l l ~ { } } ` ` ) / / ) ` ` ` ` ) / / ) ` ` ` ` ` ` ) / / ) ` ` ` ` ) / / _ ] X.X.{ [ ~ l l l l l l l l k h V ",
"V d n m m m m m m m m ( [ } } ` ` ) / / ) ` ` ` ` ) / / ) ` ` ` ` ` ` ) / / ) ` ` ` ` ) / / _ ] X.X.{ ^ ( m m m m m m m m n d V ",
"V b Z A A S S S S A A ' ^ } } ` ` ) / / ) ` ` ` ` ) / / ) ` ` ` ` ` ` ) / / ) ` ` ` ` ) / / _ { X.X.{ ^ ' A A S S S S A A Z b V ",
"V b Z A A S S S S A D ' ^ } } ` ` ) / / ) ` ` ` ` ) / / ) ` ` ` ` ` ` ) / / ) ` ` ` ` ) / / _ { X.X.{ ^ ' D A S S S S A A Z b V ",
"V b Z D D A A A A D D ' ^ } } ` ` ) / / ) ` ` ` ` ) / / ) ` ` ` ` ` ` ) / / ) ` ` ` ` ) / / _ { X.X.{ ^ ' D D A A A A D D Z b V ",
"V b Z D D A A A A D D ' ^ } } ` ` ) / / ) ` ` ` ` ) / / ) ` ` ` ` ` ` ) / / ) ` ` ` ` ) / / _ { X.X.{ ^ ' D D A A A A D D Z b V ",
"V b Z D D D D D D D D ' ^ } } ` ` ) / / ) ` ` ` ` ) / / ) ` ` ` ` ` ` ) / / ) ` ` ` ` ) / / _ ] X.X.{ ^ ' D D D D D D D D Z b V ",
"V b Z D D D D D D D D ' ^ } } ` ` ) / / ) ` ` ` ` ) / / ) ` ` ` ` ` ` ) / / ) ` ` ` ` ) / / _ ] X.X.{ ^ ' D D D D D D D D Z b V ",
"V C G Z Z Z Z Z Z Z Z h ^ } } ` ` _ / / ) ` ` ` ` ) / / ) ` ` ` ` ` ` ) / / ) ` ` ` ` ) / / _ [ | | [ ! h Z Z Z Z Z Z Z Z G C V ",
"V F Y C C C C C C C C P ! } } } } _ / / ) ` ` ` ` ) / / ) ` ` ` ` ` ` ) / / ) ` ` ` ` ) / / _ o.[ [ o.! P C C C C C C C C Y F V ",
"V Y d h h h h h h h h K [ [ [ [ { [ ) / _ ` ` ` ` ) / / ) ` ` ` ` ` ` ) / / ) ` ` ` ` ) / / ) ` } } } ! K h h h h h h h h d Y V ",
"V d f E W W W W W W W k Q | | |  .| ^ / _ ` ` ` ` ) / / ) ` ` ` ` ` ` ) / / ) ` ` ` ` ) / / ) ` ` } } [ Q E W W W W W W E f d V ",
"V h k l l l l l l l l z  . . ...j X.[ R _ ` ` ` ` ) / / ) ` ` ` ` ` ` ) / / ) ` ` ` ` ) / / ) ` ` } } { ~ l l l l l l l l k h V ",
"V d n m m m m m m m m m ~  ...j j X.[ R _ ` ` ` ` ) / / ) ` ` ` ` ` ` ) / / ) ` ` ` ` ) / / ) ` ` } } [ ( m m m m m m m m n d V ",
"V b Z A A S S S S S S n ( |  .X.X.| ^ / _ ` ` ` ` _ / / _ ` ` ` ` ` ` _ / / _ ` ` ` ` _ / / _ ` ` } } ^ ' A A S S S S A A Z b V ",
"V b Z A A S S S S A A ' ] [ { { { [ ) / _ ` ` ` ` _ / / _ ` ` ` ` ` ` _ / / _ ` ` ` ` _ / / _ ` ` } } ^ ' D A S S S S A A Z b V ",
"V b Z D D A A A A A D ' [ o.o.o.o.` / / o.O.O.O.O.o./ / o.O.O.O.O.O.O.o./ / o.O.O.O.O.o./ / o.O.O.o.O.[ ' D A A A A A D D Z b V ",
"V b Z D D A A A A A D ( ] +.+.+.+.O._ _ O.+.+.+.+.O._ _ O.+.+.+.+.+.+.O._ _ O.+.+.+.+.O._ _ O.+.+.+.+.] ( D A A A A A D D Z b V ",
"V b Z D D A A A A A D ( @.#.#.#.#.+.) ) +.#.#.#.#.+.) ) +.#.#.#.#.#.#.+.) ) +.#.#.#.#.+.) ) +.#.#.#.#.@.( D A A A A A D D Z b V "
};
