/* XPM */
static char *result[] = {
/* columns rows colors chars-per-pixel */
"64 64 123 2 ",
"   c #070507",
".  c #090406",
"X  c #070608",
"o  c #010A0D",
"O  c #0C090A",
"+  c #140C0E",
"@  c #18100F",
"#  c #160D11",
"$  c #021314",
"%  c #01191A",
"&  c #1B1313",
"*  c #210D13",
"=  c #3F0E1D",
"-  c #221715",
";  c #24141D",
":  c #2E1418",
">  c #231A1B",
",  c #2E1E1D",
"<  c #35161C",
"1  c #33211F",
"2  c #080D22",
"3  c #0A112B",
"4  c #0F1D28",
"5  c #2B1724",
"6  c #271D20",
"7  c #311927",
"8  c #3C1821",
"9  c #351D2B",
"0  c #10272E",
"q  c #162138",
"w  c #182E39",
"e  c #1A323E",
"r  c #2D2225",
"t  c #342424",
"y  c #382523",
"u  c #3C2927",
"i  c #3C212F",
"p  c #342A2F",
"a  c #3C2C2E",
"s  c #3F2331",
"d  c #3C2E32",
"f  c #3A3537",
"g  c #3F3438",
"h  c #401A22",
"j  c #6E1420",
"k  c #422C2A",
"l  c #512225",
"z  c #43302E",
"x  c #412433",
"c  c #453232",
"v  c #4C3432",
"b  c #4D3C34",
"n  c #443439",
"m  c #47383E",
"M  c #4A393D",
"N  c #553A36",
"B  c #533B3A",
"V  c #5B3E3B",
"C  c #6C362E",
"Z  c #5C413D",
"A  c #62423E",
"S  c #644D3E",
"D  c #202E49",
"F  c #23324D",
"G  c #4C3C42",
"H  c #513E43",
"J  c #4C4347",
"K  c #534046",
"L  c #5D4342",
"P  c #564248",
"I  c #5C4549",
"U  c #564C50",
"Y  c #5B4C52",
"T  c #5C5356",
"R  c #634644",
"E  c #694743",
"W  c #654845",
"Q  c #6C4B46",
"!  c #604749",
"~  c #664A4C",
"^  c #6A4B4A",
"/  c #704B46",
"(  c #734E4A",
")  c #77514C",
"_  c #7A524E",
"`  c #655355",
"'  c #6C5350",
"]  c #65565C",
"[  c #6B5A5F",
"{  c #765251",
"}  c #7F5550",
"|  c #7A5A56",
" . c #735D60",
".. c #6E6468",
"X. c #7C6161",
"o. c #941F2B",
"O. c #96541A",
"+. c #9A472E",
"@. c #BC6720",
"#. c #F26404",
"$. c #815651",
"%. c #855954",
"&. c #8A5B56",
"*. c #A24F52",
"=. c #84635E",
"-. c #846562",
";. c #926F60",
":. c #827C7E",
">. c #C9645C",
",. c #D37469",
"<. c #F18D18",
"1. c #E9CF34",
"2. c #CC8C7A",
"3. c #6D7095",
"4. c #DC9C84",
"5. c #EFAE92",
"6. c #F3B898",
"7. c #FBBF9D",
"8. c #FFC4A1",
"9. c #A7ACE2",
"0. c #BBBFEE",
"q. c #FCE0D2",
"w. c #F6F5F8",
/* pixels */
"f 6 t c N V V V V H V E E E E E E E E E Q E R A A R A H H R H A H A A R E E E E E E E Q E E S E E E V E V V H V B n s r 6 p T 3.",
"J a n B R E E E E Q E / / / / / / / / / / Q R R H H H A I H H A H R R E / ^ / / / / / / / / / ( / / E / E R A H H B n g p n U X.",
"T M L R Q ( ( ( ( ( ( ( ( ( ( ( ( ( ( ( ( / ^ ! H H H H H P H P H H ~ ^ ( ( ( ( ( ( ( ( ( ( ( ( ( ( ( ( ( / W I H H H G m Z U U ",
"[ I ! ~ ( ) ) ) ) ) ) ) _ ) ) _ _ ( _ _ ) ( Q ~ ~ I Y H P H P H I I ! ^ ( _ ( _ ) _ _ ( ) ) ) ) _ ) ) _ _ ( ^ ~ I H H I J K K K ",
"[ ~ ^ ^ ) _ ) ) ) ) ) ) ) ) ) ) ( _ ( ( _ ( ( ^ ~ ~ H * # # # # & H R W / / / _ _ ( _ _ ) ) _ _ ) ) _ ) ) ( ( ^ ~ ~ I I K P P P ",
"X.Q ^ ( ( ) ) ) ) ) ) ) ) ) ) ) _ _ _ _ _ _ { _ { { * : < 7 < < < + # # # + + A E E ( _ _ _ ( ( ) ) ( _ ) _ ( _ { { ` I P K I I ",
"-.( ( ( _ ) ) ) ) ) ) ) ) ) ) _ _ ( V N N N V V A H v + 8 h h h h 8 8 8 8 8 8 # # # N V ( _ ( _ ) ) ) ) ) _ $.$.%.} ) ~ I P I ~ ",
"=._ _ _ ) ) ) ) ) _ ) ) ) ) ) ) ( k # + + + + + # # + h h h h h h h h h h h h 8 h 8 + # k v _ _ ) ) ) ) ) _ $.$.&.%.{ ~ P P I ^ ",
"} ) ) ) ) ) ) ) ) ) ) ) ) _ ) ) ) k @ 9 7 7 7 7 8 l h h h h h h h h h h h h h h h h h h * * y ( ) ) ) ) ) _ $.%.&.%.{ ` I P ! ~ ",
") ) _ ) ) ) ) ) ) ) ) ) ) ) ) ) ) ) N + 9 i i i 7 h h h h h h h h h h h h h h h h h h h h h : - / ) ) ) ) ) $.%.&.%.{ ~ I H ! ^ ",
"Q ) ) ) ) ) _ ) ) ) ) ) ) ) ) ) ) ) Q N # + 5 7 8 8 h h h h h h h h h h h h h h h h h h h h h < # E ( ) ) _ $.$.&.%.{ ~ I I ! ~ ",
"E ) ) ) ) ) ) ) ) ) ) ) ) ) ) ) ) V + + 8 8 h h h 8 h h h h h h h h h h h h h h h h h h h h h h = + ) ) ) _ $.%.&.%.{ ~ P H ! ^ ",
"E ) ) ) ) ) ) ) ) ) ) ) ) ) ) ) v # 8 h h h h h h h h h h h h h h h h h h h h h h h h h h h h h 8 # v ( ) _ $.%.&.&.{ ` I P Y ^ ",
"E ) ) ) ) ) ) ) ) ) ) ) ) ) _ 1 - h h h h h h h h h h h h h h h h h h h h h h h h h h h h h h h 8 8 . ( _ _ $.$.&.&.{ ~ P H ! ^ ",
"E ) ) ) ) ) ) ) ) ) ) ) ) ( < : h h h h h h h h h h h h h h h 8 h h 7 7 7 h h h h h h h h h h h h h < , ( _ { %.&.%.{ ~ I H ! ~ ",
"E ) ) ) ) ) ) ) ) ) / / S @ : h h h h h h h h h h h h h h h h 8 7 7 i i i 7 h h h h 8 7 7 7 7 8 h 8 8   E _ $.%.&.%.{ ~ I H ! ^ ",
"E ) ) ) ) ) ) ) ) ( + O O < h 7 7 7 7 7 < < h h h h h h h 8 7 7 i s x x > = h h 8 = 7 x x x 9 7 8 h h 8 + ) _ %.&.%.{ ~ I P I ~ ",
"E ) ) ) ) ) ) ) ) ( , ; * 7 9 x x x 5 5 + + 8 = 8 h h h 8 7 s x x x x 5 # h h h 8 7 x 7 ; 5 x x 7 8 h 8 . _ _ %.&.%.{ ~ I P ! ^ ",
"E ) ) ) ) ) ) ) ) ) ) y 1 ; ; ; x ; + * h < 7 i 5 h h 8 i s x x x s ; * h h h 7 i s ; l l h ; x s 5 h 8 @ k $.%.&.%.| ~ I P I ^ ",
"E ) ) ) ) ) ) ) ) ) ) ) ) v v k @ * h 7 9 9 i i 5 h h 5 s s x x x i . 7 h h 7 9 x & C *.*.2.. i x s 7 h = . ) %.&.%.{ ~ P P ! ^ ",
"S ) ) ) ) ) ) ) ) ) ) ) ) ) ) - : h 7 i i x x 7 8 h 7 i x x x x i + 7 5 h 7 x x i . : *.5.6.+ x x x 5 h 8 . $.%.&.%.{ ~ I P I ~ ",
"E ) ) ) ) ) ) ) ) ) ) ) ) ) A + 8 7 s x x x s 5 h < 7 x x x x x s . i 5 < 7 x x . 9 9 * 6.6.+ 9 x s 5 8 8 . $.&.&.%.{ ~ P P ! ^ ",
"E ) ) ) ) ) ) ) ) ) ) ) ) ) O 9 7 s 7 s x x s 5 = X i x x x x i 7 + 5 8 5 x x 7 < 5 5 b 7.6.+ i x s 7 8 8 . %.&.&.&.{ ~ I P ! ^ ",
"A ) ) ) _ _ _ _ ) _ _ ) ) k & 7 x s . i x x x 7 * * x x x x x i . i 9 8 9 x x . >.C S 7.8.6.+ i x x s 5 8 X %.%.&.$.{ ~ P P I ^ ",
"Z Q ) ) $.$._ $.$.$.$.$.) X i x s * ; s x x x i . i x x x x x i . s x 5 x x * . l C S 7.8.6.+ i x x x 5 + v %.} { { ~ W P P I ^ ",
"Z E ( _ $.%.$.%.$.%.$.$.1 7 i @ + 5 x x x x x i . i x x x x x i O 9 x x x 9 . 3.= j +.b 5.b 7 s x x x 5 X %.} ) ( ~ W I K P I ^ ",
"b R Q ) %.&.&.=.&.&.&.%.Q @ + E . s x x x x x i   i x x x x i + *.+ 9 x x h 4 9.l o.#.j 5.. i x x x x 5 X $._ ) E L L K K P I ^ ",
"b L ^ ) $.%.%.%.%.%.%.%.%.} } _ . i x x x x x x i . i x x x i . >.. x x x + 0.0.l #.<.o.5.. s x x x x ; - _ ) W L Z K K K I I ^ ",
"M L W ^ ) ) _ ) _ _ _ _ _ _ _ ) . i x x x x x x i . i x x x i . >.l 5 s 5 W q.w.;.+.1.o.5.S ; x x x 9 . ( ) Q R I H P H K P ! ~ ",
"M P L I Q ^ Q Q Q ( Q Q ^ Q Q W . i x x x x x x i . x x x x i . >.>.  s X 7.8.q.q.2.;.,.7.8.;.; k x i . R ^ W I L P H J J P R ~ ",
"m K L L L L L R A L R L L R Z Z . i i * i x x x i 5 + i x x i . >.4.+.5 2.7.8.7.8.q.2.8.8.8.7.+ i x i O Z K L P H H P H K P ! ~ ",
"m K K Z L Z L Z Z Z Z L Z L L Z + 9 O z + x x x x i O i x i + *.,.7.6.4.8.8.8.8.8.7.8.8.8.8.6.+ i i # v Z L L P H P H K K P ! ^ ",
"m K P L R R R S R R R S R E R E V & B R @ 7 x x s X n & 9 i . >.,.5.8.8.8.8.8.8.8.8.8.8.8.7.4.@ 9 i . Z R R L P K K J H P P Y ^ ",
"m K I W W Q Q Q Q Q Q ^ Q Q Q Q Q Q Q Q R . x x 7 > G p + 5 $ +.+.,.5.8.8.8.8.8.8.8.8.8.8.6.# A   i . W ( ~ R I K K H P H P ! ~ ",
"m P I ^ ^ ) ( ( ) Q ) ) ) Q ( ( ( ( ( ( ( y ; 9 X G r % w % e % o C C 4.8.8.8.8.8.8.8.8.8.7.# E y # y ( ( ^ ~ I P K J H H I ! ~ ",
"M I I ^ ) ) ) ) ) ) ) ) ) ) ) ) ) ) _ ( _ ( v # d G   e e 0 4 4 % o o l S 2.7.8.8.8.8.8.7.S v ( ) v ) ) _ ( ^ ~ I P P P H H ! ~ ",
"Z I ~ ^ ) ) ) ) ) ) ) ) ) ) ) ) ) ) ) ) _ ( ( H ~ & 0 w 4 o . . o % % $ o : x ,.,.,.,.,.,.+ ) ) ) ) ) ) ) ( ) ~ ~ ~ ~ H H I I ~ ",
"L ~ ^ ) ) ) ) ) E ) ) ) ) ) ) ) _ ) ) ) ( _ W Q R   0 o o % % % % o o $ $ $ $ + + + * * @ S ) ) ) ) ) ) ) _ ) ) { { ` I I P Y ~ ",
"A ) ) ) ) ) ( N + N ) ) ) ) ) ) ) ) ) ) V N # # # w $ 4 w e e e e e w o o o $ $ $ $ 4 w . ( ) ) ) ) ) ) ) _ _ $.&.$.{ ~ I H ! ^ ",
"E ) ) ) ) ) ( . %   z ) ) ) ) ) ) ) v k # $ e e e e e e e e e e e e e e e e o o o o o % . / ) ) ) ) ) ) ) _ } %.&.%.{ ~ I H ! ^ ",
"E ) ) ) ) ) Q X % % o , 1 ) ) y y , % 4 e e e e e e e e e e e e e e e e e e 0 0 0 0 O.  k ( ) ) ) ) ) ) ) ) $.%.&.%.{ ~ H H ~ { ",
"E ) ) ) ) ) ( X % % % $ $ - - 4 4 0 e e e e e e e e e e e e e e e e e e e e e e e @.<.+ ) ) ) ) ) ) ) ) ) ) $.%.&.%.{ ~ Y H I ~ ",
"E ) ) ) ) _ ( . % % % % % $ $ o o w w w w e e e e e e e e e e e e e e e e b b @.@.x & A ( ) ) ) ) ) ) ) ) $.$.$.&.%.{ ~ ! H ! ~ ",
"E ) ) ) ) ( ( - $ % % % % % % % % o o o o 0 0 0 0 0 e e e e e e e e S S S @.@.* # E Q ) ) ) ) ) ) ) ) ) ) ) $.$.&.%.{ ~ H H ~ ~ ",
"S ) ) ) ) ) ) /   % % % % % % % % % % % % o o o o o 0 4 4 4 0 0 0 w O.O.O.+ .   , ) ) ) ) ) ) ) ) ) ) ) ) $.$.$.&.&.{ ~ Y H ~ ~ ",
"Q ) ) ) ) ) _ ( k o o % % % % % % % % % % % % % % %   o o o o o o o 8 . . o h . ( ) ) ) ) ) ) ) ) ) ) ) { _ $.$.&.&.{ ~ H I I { ",
"S _ ) ) ) ) ) ) ) N v . o o % % % % % % % % % % % % % o o o 2 2 2 q : l l l < v ) ) ) ) ) ) ) ) ) ) ) ) { _ { %.&.%.{ ~ I H I ~ ",
"A ) ) ) ) ) ) ) ) ) ) A A V + O O O O O O O O O O O . 2 2 2 3 3 D F q * * * q - ( ) ) ) ) ) ) ) ) ) ) ) { { %.%.&.%.{ { H H ~ ~ ",
"E _ ) ) ) ) ) ) ) _ ) ) ) ) / / S ( S / / / / _ $.A . 3 3 3 3 D F F F D D D D . / ) ) ) ) ) ) ) ) ) ) ) _ _ $.%.&.%.{ ~ H ! ~ ~ ",
"E _ ) ) ) ) ) ) ) ) ) ) ) ) ) ) ) ) $._ ) _ $.$.$.O 3 3 3 3 q F F F F F F F D . / ) ) ) ) ) ) ) ) ) ) ) ( _ $.$.&.%.{ ~ I H ~ ~ ",
"A ) ) ) ) ) ) ) ) ) ) ) ) ) ) ) ) ) ) ) ) _ $.&.%.. 3 3 3 3 F F F F F F F F D . ) ) ) _ ) ) ) ) ) ) ) ) _ _ $.%.&.%.) ~ I H I ~ ",
"/ ) ) ) ) ) ) ) ) ) ) ) ) ) ) ) ) ) ) ) _ _ $.$.1 2 3 3 3 3 D F F F F F F F F q , ( ) ) ) ) ) ) ) ) ) $.( $.$.%.&.%.{ ~ I H ! ~ ",
"( ) ) ) ) ) ) ) ) ) ) ) ) ) ) ) ) ) _ $._ $.%.$.. 3 3 3 3 3 D F F F F F F F F D . / ) ) ) ) ) ) ) ) _ $.$.$.%.&.&.%.{ ~ H ! ~ ~ ",
"_ ) ) ) ) ) ) ) ) ) ) _ ) ) ) ) ) _ _ $.%.%.&.%.. 3 3 3 3 3 3 D F F F F F F F D . ( ) ) ) ) ) ) ) ) $.$.$.$.&.&.&.&.{ ~ Y H ~ ~ ",
"| ) ) ) ) ) ) ) ) ) ) ) ) ) ) ) ) _ $.%.%.&.&.A . 3 3 3 3 3 3 F F F F F F F F D @ N ) ) ) ) ) ) ) / $.$.%.&.&.&.&.&.{ ~ I H I ~ ",
"| ( ) ) ) _ _ _ _ _ _ _ _ _ _ _ _ _ $.%.&.&.$.. 3 3 3 3 3 3 3 q F F F F F F F F D . ( _ _ _ _ ) $.$.$.$.&.&.&.&.%.%.{ ~ I H I ~ ",
"| Q ( ) } _ } $.$.$.$.$.$.$.$.$.$.$.$.&.&.&.$.. 3 3 3 3 3 3 3 3 q F F F F F F F D . ) $.$.$.$.$.$.$.$.&.&.&.%.$.{ { ^ ~ H I I ~ ",
"' Q Q _ $.&.$.$.&.$.%.$.$.$.%.$.%.%.&.&.&.&._ X 3 3 3 3 3 3 3 3 3 4 q D F F F F D X $.$.%.$.%.%.$.%.&.&.&.&.$.{ / ^ ! ! H H I H ",
"~ Z Q _ $.&.=.&.&.&.&.&.&.%.&.&.&.&.&.=.&.&.) Z   . . .     3 2 2 2 2 3 3 3 D D X ( %.&.&.&.&.&.&.&.&.&.&.&.} ( E A H H H I H I ",
"` L Q ) $.&.%.%.$.&.$.&.&.&.$.&.&.%.%.%.&.$.( N # = = = * * # # @ + @ . . . . 2 > %.%.%.%.%.%.%.%.&.%.%.&.$.) / I H H A H H H H ",
"` L I ' _ _ _ _ ) _ _ ) ) ) _ _ _ _ _ ) ) ) E   = = * * 6 & H P K L A . = = = . ) ) _ _ ) _ _ _ _ _ _ _ ) ( ^ ~ H H U H I H P H ",
"` Z L W Q Q ^ Q ( Q Q Q Q Q Q Q Q Q Q Q ~ Q I t + + 6 7 J H H H K K , + = = * u Q Q Q Q Q Q Q Q Q Q Q ^ / ~ R H Y H H H H H H P ",
"] K K Z L L R L L L L R R L A R R L L R A L L P d d K J H P K K K Z   = = @ u R R L L L L R R L L R A L A R I Y H H H H H H P H ",
"] K J L L Z Z L L Z Z L Z L Z Z Z L Z L Z L I H J H P H J H K J G J g   X c Z Z Z L Z L Z L Z L Z Z L L R ! H H H H H H U J H P "
};
