/* XPM */
static char *result[] = {
/* columns rows colors chars-per-pixel */
"64 64 125 2 ",
"   c #070507",
".  c #090506",
"X  c #070608",
"o  c #010A0D",
"O  c #0C090A",
"+  c #140C0E",
"@  c #18100F",
"#  c #160D11",
"$  c #021314",
"%  c #01191A",
"&  c #1B1313",
"*  c #1F181B",
"=  c #210D13",
"-  c #3F0E1D",
";  c #221715",
":  c #24141D",
">  c #2E1418",
",  c #241A1B",
"<  c #2D1E1C",
"1  c #35161C",
"2  c #32211F",
"3  c #080D22",
"4  c #0A112B",
"5  c #0E1E28",
"6  c #2B1724",
"7  c #271D20",
"8  c #311927",
"9  c #3C1821",
"0  c #351D2B",
"q  c #10272E",
"w  c #172239",
"e  c #182E39",
"r  c #1A323E",
"t  c #2C2124",
"y  c #342524",
"u  c #382523",
"i  c #3A2827",
"p  c #3C212F",
"a  c #352B2F",
"s  c #3A2B2E",
"d  c #3C2E32",
"f  c #3A3537",
"g  c #3F3438",
"h  c #401A22",
"j  c #6E1420",
"k  c #402C2A",
"l  c #512225",
"z  c #43302E",
"x  c #48312E",
"c  c #402332",
"v  c #443232",
"b  c #4B3635",
"n  c #4D3C34",
"m  c #443439",
"M  c #47383E",
"N  c #4A393D",
"B  c #513633",
"V  c #553A36",
"C  c #533B3A",
"Z  c #5B3E3B",
"A  c #6C362E",
"S  c #5C413D",
"D  c #61423E",
"F  c #644D3E",
"G  c #202E49",
"H  c #23324D",
"J  c #4D3C42",
"K  c #513E43",
"L  c #4C4347",
"P  c #534046",
"I  c #5D4342",
"U  c #564248",
"Y  c #5C4549",
"T  c #564C50",
"R  c #5B4C52",
"E  c #5C5356",
"W  c #644644",
"Q  c #694743",
"!  c #664845",
"~  c #6C4B46",
"^  c #604749",
"/  c #664A4C",
"(  c #6A4B4A",
")  c #704B46",
"_  c #724E4A",
"`  c #77514C",
"'  c #7A524E",
"]  c #655355",
"[  c #6C5350",
"{  c #65565C",
"}  c #6B5A5F",
"|  c #765251",
" . c #7F5550",
".. c #7A5A56",
"X. c #735D60",
"o. c #6E6468",
"O. c #7C6161",
"+. c #941F2B",
"@. c #96541A",
"#. c #9A472E",
"$. c #BC6720",
"%. c #F26404",
"&. c #80554F",
"*. c #815651",
"=. c #855954",
"-. c #8A5B56",
";. c #A24F52",
":. c #84635E",
">. c #846562",
",. c #926F60",
"<. c #827C7E",
"1. c #CF6D64",
"2. c #F18D18",
"3. c #E9CF34",
"4. c #CC8C7A",
"5. c #6D7095",
"6. c #DC9C84",
"7. c #EFAE92",
"8. c #F3B898",
"9. c #FBBF9D",
"0. c #FFC4A1",
"q. c #A7ACE2",
"w. c #BBBFEE",
"e. c #FCE0D2",
"r. c #F6F5F8",
/* pixels */
"f 7 y v V Z Z Z K Z Z Q Q Q Q Q Q Q Q Q Q Q W D I D D I I K W W D D D D Q Q Q Q Q Q Q Q Q Q Q Q Q D D D Z Z Z Z C b d 0 7 a E o.",
"L s b C W ! Q Q Q ) Q ) ) ) ) ) ) ) ) ) ) ) Q W K K Y K U K K K K K W ! ) ) ) ) ) ) ) ) ) ) ) ) ) ) ) ) Q W K K K J m d a g E o.",
"E N P W ~ _ _ _ _ _ _ _ _ _ _ _ _ _ _ ` ` _ ! ^ ^ K K K K U P K K K / ! _ _ | _ ` _ _ ` _ ` _ ` ` _ _ _ _ _ ^ Y K K K J J J T E ",
"} Y ^ ( _ ` ` ` ` ` ` ` ' ` ` ' ` ` ` ` ` _ ( / / K Y K U K U P ^ ^ / ( _ ` ` ` ` ` ` ` ` ` ` ` ` ` ` ` ` _ ( / ^ K K Y K P U U ",
"} ( ( _ | ` ` ` ' ` ` ` ` ` ' ` ` ` ` ` ` ` _ ( / / K : # # # # & K W ! ) ) _ | ' ` ` ` ` ` ` ` ` ` ` ` ` ` _ _ / ^ R Y U U U U ",
"O.~ ( _ _ ` ` ` ` ` ` ` ` ` ` ` ` ` ` ` ` ` | ` | | & > 1 1 1 1 9 + # + + + + D Q Q ` ` ` ` ` ` ` ` ` ` ` ` ` ` | | ( Y U K Y Y ",
">._ _ ` ` ` ` ` ` ` ` ` ` ` ` ` ` ` Z V V Z Z Z K Z B # 9 h h h h 9 9 9 9 9 9 + + # V Z ` ` ` ` ` ` ` ` ` ' ' *.=.*.| / Y U Y / ",
":.` ` ` ` ` ` ` ` ` ` ` ` ` ` ` _ k + + + + + + # # # - 9 h h h h h h h h h h h h h + + k v ` _ ` ` ` ` ` ' &.=.-.=.| / U U ^ / ",
"..` ` ` ` ` ` ` ` ` ` ' ` ` ` ` ` k + 0 8 8 8 8 h h h h h h h h h h h h h h h h h h h h = = u _ ` ` ` ` ` ' &.=.-.=.| / K K / ( ",
"' ` ` ` ` ` ` ` ` ` ` ` ` ` ` ` ` ` V @ 0 p p p 0 h h h h h h h h h h h h h h h h h h h h h 1 ; ) ` ` ` ` ' &.=.-.=.| / R K / ( ",
"~ ` ` ' ` ` ` ` ` ` ` ` ` ` ` ` ` ` ~ V # + 6 8 9 h h h h h h h h h h h h h h h h h h h h h h 1 # Q _ ` ` ' &.*.-.=.| / ^ K Y / ",
"F ` ` ` ` ` ` ` ` ` ` ` ` ` ` ` ` Z + @ 9 9 h h h h h h h h h h h h h h h h h h h h h h h h h h - # ` ` ` ' &.=.-.=.| ] K K / / ",
"F ' ` ` ' ` ` ` ` ` ` ` ` ` ' ` x + 9 h h h h h h h h h h h h h h 9 h h h h h h h h h h h h h h 9 # x _ ' ' &.=.-.=.| / R / / / ",
"Q ` ` ` ` ` ` ` ` ` ` ` ` ` ` 2 = h h h h h h h h h h h h h h h h h h h h h h h h h h h h h h h 9 9 X ) ' | &.=.-.-.| / K K Y / ",
"Q ` ` ` ` ` ` ` ` ` ` ` ` _ 1 > h h h h h h h h h h h h h h h 9 h h 8 8 8 h h h h h h h h h h h h h > 8 _ | ..=.-.=.| / / K ^ / ",
"Q ` ` ` ` ` ` ` ` ` ~ ) Q @ > h h h h h h h h h h h h h h h h 9 8 8 p p p 8 h h h h 9 8 8 8 8 9 h h 9   Q | *.=.-.=.| | K K ^ / ",
"Q ` ` ` ` ' _ ' ` _ + O O 1 1 0 0 8 8 8 1 1 h h h h h h h 9 0 8 0 c c c : 9 h h 9 - 0 c c c p 8 9 h h 9 + ) &.=.-.=.| / Y U Y ( ",
"F ` ` ` ` ` ` ` ` ) < : = 8 0 c c c 6 6 + + 9 - - h h h 9 8 c c c c c 6 + 9 h h 9 8 c 6 : 6 c c 8 9 h 9 O ' &.=.-.=.| / Y U ^ ( ",
"Q ' ' ` ` ` ` ` ` ` ` u u : : : c : + = h 9 8 0 6 h h h p c c c c c : = h h h 8 p p : l l h : c c 6 h 9 @ k ' =.-.=.| / U U Y ( ",
"Q _ _ ' ' ` ` ` ` ` ` ` ` B x x + = h 8 8 0 p c 6 h h 6 p p c c c c . 8 h h 8 p p ; A ;.;.4.. p c 0 8 h 9 . ' =.-.=.| / Y Y Y ( ",
"D ` ` ` ` ` ` ` ` ` ` ` ` ` ` ; 1 h 8 p p c c 8 9 h 0 0 c c c c p + 8 6 h 8 p c p . > ;.7.8.+ p c c 6 h 9 . &.=.-.=.| / U U ^ ( ",
"Q ` ` ` ` ` ` ` ` ` ` ` ` ` D # 1 8 c c c c c 6 h 1 8 c c c c c c . p 6 9 8 c c . 0 0 = 8.8.+ p c c 6 h 9 O &.-.-.=.| / U U Y ( ",
"Q ' ' ' ' _ ` ` ` ` ` ` ` _ O 0 8 c 8 c c c c 6 9 . p c c c c c 8 + 6 9 6 c c 8 9 6 6 n 9.8.+ p c c 8 h 9 . =.-.-.=.| / Y U ^ ( ",
"D ` _ ` ' ' ' ' ' ' ' ' _ x @ 8 c c . p c c c 8 = = c c c c c c . p 0 9 0 c c . 1.A F 9.0.8.+ p c c c 6 9 . *.-.=.=.| / U U Y ( ",
"Z ) _ `  . . . . .' *.*.` . p c c = : c c c c p . c c c c c c 0 . p c 8 c c = . l A F 9.0.8.+ p c c c 6 # V *.*...| ( Y P U ^ ( ",
"Z ~ _ ' *.*.=.=.=.=.=.' 2 8 p @ + 6 c c c c c p . p c c c c c c . p c 0 c 0 . 5.- j #.n 7.n 8 c c c c 6 . *.*.` _ ! W Y P U ^ ( ",
"n W ~ ` =.-.-.-.-.-.-.-.~ @ @ W O c c c c c c p . 0 c c c c 0 + ;.+ c c c c 5 q.l +.%.j 7.. p c c c c 6 . *.' ` ^ W I Y P U ^ ( ",
"b W ( ` *.=.=.-.=.=.=.=.=. . . .. p c c c c c c p . p c c c c . 1.. c c c + w.w.l %.2.+.7.. p c c c c : , ' ` ! W K K K P P Y ( ",
"N I ! ( ` ` ' ' ' ' ' ' ' ' ' ` . p c c c c c c p . p c c c c . 1.l 6 c 6 F e.r.,.#.3.+.7.F : c c c p . _ ` ( ! Y K U K P U ^ ( ",
"M I Y ! ~ ~ ~ ~ ~ ~ ~ ~ ~ ( ~ ! . p c c c c c c p . c c c c 0 . 1.1.. p . 9.0.e.e.4.,.1.9.0.,.: c c p . ! ! W Y Y U K K P U Y ( ",
"M P P I I I I I W I W I I W I S . p p = p c c c c 6 + c c c p . 1.6.#.6 4.9.0.9.0.e.4.0.0.0.9.+ p c p O S I I P K K K L K U ^ ( ",
"M K P S I I S I S I S S I S S S + 0 O z + c c c c p O p c p + ;.1.9.8.6.0.0.0.0.0.9.0.0.0.0.8.+ p p + n S I Y U K P U P P U Y ( ",
"M P U Y W W F ! W W W W W W F ! S & S D @ 8 c c p o m & 0 p . 1.1.8.0.0.0.0.0.0.0.0.0.0.0.9.6.@ 0 p X S ! W Y U P P K K U K R / ",
"M P I ! ! ~ ~ ~ ~ ~ ~ ~ ~ ~ ~ ~ ~ ! ~ Q W . c c 8 * K a # 6 $ #.#.1.7.0.0.0.0.0.0.0.0.0.0.8.@ S X p X Q ! ( W I P P L K K T ^ / ",
"M P Y ( _ ` _ _ _ _ ~ ` ` ` _ _ ` ~ _ ` _ 8 : c X J 8 % e % r % o A A 6.0.0.0.0.0.0.0.0.0.9.# Q u @ u _ _ _ ( Y P L K U K K ^ / ",
"N Y Y ( _ ` ` ` ` ` ` ` ` ` ` ` ` ` ` ` ` ` x # a K   r r q 5 5 % o o l F 4.9.0.0.0.0.0.9.F x ` ` b ` ` ` _ ( / Y Y U U K K ^ ( ",
"P ^ ( _ _ ` ` ` ` ` ` ` ` ` ` ` ` ` ` ` ` ` _ K ( & q e 5 o O . o % % $ o > c 1.1.1.1.1.1.+ ` ` ` ` ` ` ` ` ` ( / / / K R R ^ ( ",
"S ( [ _ ` ` ` ` Q ` ` ` ` ` ` ` ` ` ` ` | _ Q ! W   q o o % % % % o o $ $ $ % + + + = = + Q ` ` ` ` ` ` ` ` | ` | | / ^ K K ^ ( ",
"Q ( ` ` ` ` ` V O S ` ` ` ` ` ' ` ` ` ` Z V # # # e $ 5 e r r r r r e o o o $ $ $ $ 5 e . ) ` ` ` ` ` ` ` ` ' *.-.*.| / R K ^ / ",
"Q ` ` ` ` ` ) . %   x ` ` ` ` ' ` ` x z # $ r r r r r r r r r r r r r r r e o o o o o %   _ ` ` ` ` ` ` ` ` *.=.-.=.| / Y K ^ ( ",
"Q ` ` ` ` ` _ O % % o < u ` ` 2 2 < % 5 r r r r r r r r r r r r r r r r r r q q q q @.X x ` ` ` &._ ' ' ' ' &.*.-.=.| / K K / | ",
"W ` ` ` ` ` ) . % % % $ $ ; ; 5 q q r r r r r r r r r r r r r r r r r r r r r r r $.2.+ ` ` ` ` _ ' _ _ ' | &.=.-.=.| / R K Y / ",
"F ` ` ` ` ` ) O % % % % % $ $ o o e e e e r r r r r r r r r r r r r r r e n n $.$.c & D ` ` ` ` ' _ _ ' _ ' &.=.-.=.| / R K Y / ",
"Q _ ` ` ` ` ) ; $ % % % % % % % % o o o o q q q q q r r r r r r r r F W F $.$.= # Q ) ` ` ` ` ` ` &.' ' _ ' &.=.-.=.| / Y K / / ",
"Q ` ` ` ` ` ` )   % % % % % % % % % % % % o o o o o 5 5 5 5 q q q e @.@.@.+ .   < _ ` ` ` ` ` ` ` ` _ ' ' ' &.=.-.=.| / K Y / / ",
"Q ` ` ` ` ` ` ` i X o % % % % % % % % % % % % % % % o o o o o O o o 9 . . o h . ) ` ` ` ` ` ` ` ` ` ' _ ' ' &.*.-.-.| / Y K / / ",
"F ` ` ` ` ` ` ` ` V B . o o % % % % % % % % % % % % % o o o $ 3 3 w 1 l l l 1 B ` ` ` ` ` ` ` ` ` ` ' _ | | | =.-.=.| / K Y Y / ",
"Q ' ` ` ` ` ` ` ` ` ` D D Z + O O O O O O O O O O X o 3 3 3 4 4 G H w & = = w ; ) ` ` ` ` ` ` ` ` ` ' ' | | =.=.-.=.| | Y K ^ / ",
"Q ` ` ` ` ` ` ` ' ` ` ` ` ` ) ) ) ~ ) ) F _ _ ' ` . 3 4 4 4 4 G H H H G G G G . _ ` ` ` ` ' ` ` ` ' ` ` ' ' &.=.-.=.| / K Y / / ",
"Q ` ` ` ` ` ` ` ` ` ` ` ` ` ` ` ` ` ` ` ' ' &.*.Z . 4 4 4 4 w H H H H H H H G . _ ` ` ` ` ` ` ` ` _ ` ` _ ' &.&.-.=.| / R K ^ ( ",
"Q ` ` ` ` ` ` ` ` ` ` ` ` ` ` ` ` ` ` ` ` ' &.&.. 4 4 4 4 4 H H H H H H H H G . ) ` ` ` ` ` ` ` ` ` ` ` ` ' &.=.-.=.| / Y K ^ / ",
"Q ` ` ` ` ` ` ` ` ` ` ` ` ` ` ` ` ` ` ` ' ' =.&.. 4 4 4 4 4 G H H H H H H H H w < _ ` ` ` ` ` ` ` ` ' ' ' &.&.=.-.=.| / Y K ^ ( ",
"_ ` ` ` ` ` ` ` ` ` ` ' ` ` ` ` ` ` '  .&.&.=._ . 4 4 4 4 4 G H H H H H H H H G . ) ` ` ` ` ` ` ` ` ' | *.*.=.-.-.=.*./ K Y / / ",
"` ` ` ` ` ` ` ` ` ` ` ` ` ` ` ` ` ' &.&.=.=.&.@ 4 4 4 4 4 4 4 G H H H H H H H G . ) ` ` ` ` ` ` ` ' &.*.=.=.-.-.-.-.| / R K ^ / ",
"..` ` ` ` ` ` ` ` ` ` ` ` ` ` ` ` ' &.&.=.:.=.. 4 4 4 4 4 4 4 H H H H H H H H G @ V ` ` ` ` ` ` ` ` &.*.=.-.-.-.-.-.| / ^ K ^ / ",
".._ ` ` ` ' ' ' ' ' ' ' ' ' ' ' ' &.&.-.-.-.=.. 4 4 4 4 4 4 4 w H H H H H H H G G O _ ' ' ' ` ` ' &.*.=.-.-.-.-.=.=.| / K K ^ / ",
"..) ` ' ' &.&.&.&.&.&.&.&.&.&.&.&.=.=.=.-.-.&.. 4 4 4 4 4 4 4 4 G H H H H H H H G . ` *.*.&.&.*.&.*.=.-.-.-.=.*.| | / / K K / ^ ",
"[ ! ~ ' =.=.=.=.=.=.=.=.=.=.=.=.=.=.=.-.-.-.' O 4 4 4 4 4 4 4 4 w G H H H H H H G O &.=.=.=.=.=.=.=.-.-.-.-.*.' | / W W K K K ^ ",
"/ I ) ` =.=.:.=.-.-.-.-.-.-.-.-.-.-.-.-.-.=.' S . . . .     4 3 3 4 G G G G G G X ) =.-.-.-.-.-.-.-.-.-.-.-.' _ W D K K K K K ^ ",
"] I ! ` =.=.=.=.=.=.=.=.=.=.=.=.=.=.-.=.=.=.` B + - - h = # # & + @ & . . . . w , *.=.=.=.=.=.=.=.=.=.=.=.*.` ( Y K K Y K K K K ",
"] I Y ~ ` ' ' ' ' ' ` ` ` `  .` ' ` ' ' ' _ ! X h - = = * * K K P I I X - - - X ` ` ` ' ' ' ` ' ' ' ' | | | ) D K K K K K K K K ",
"] S Y ! ~ ~ ~ ~ ~ ~ ( ~ ~ ~ ~ ~ ~ ! ~ ( ~ ( ^ y + + 6 8 K U K L P P < + - - = i ~ ~ ~ ~ ~ ~ ~ ! ) Q ( ) Q Q / Y R K K K K R K K ",
"{ P I I I I I W W I I W I W W I I W W I W I I U d f K K L K U K P C   - - @ k I W S S W W I I W W W I D Y W ^ R K K K T K K K K ",
"{ P P P I I S S I S S I S S I I I S S I S I U K K K P K K U K K L P v X . v S S I I S I I S I W Z K D I W ^ K K K K K K R K K R "
};
